G04*
G04 #@! TF.GenerationSoftware,Altium Limited,Altium Designer,20.2.3 (150)*
G04*
G04 Layer_Color=16711935*
%FSLAX25Y25*%
%MOIN*%
G70*
G04*
G04 #@! TF.SameCoordinates,12439D86-AE7D-45F5-80DB-552B17048F2A*
G04*
G04*
G04 #@! TF.FilePolarity,Positive*
G04*
G01*
G75*
%ADD11C,0.00787*%
%ADD12C,0.00394*%
D11*
X392958Y289500D02*
X425242D01*
Y369500D01*
X392958D02*
X425242D01*
X392958Y289500D02*
Y369500D01*
Y205500D02*
X425242D01*
Y285500D01*
X392958D02*
X425242D01*
X392958Y205500D02*
Y285500D01*
X315013Y51402D02*
Y87622D01*
X229187D02*
X315013D01*
X229187Y51402D02*
Y87622D01*
Y51402D02*
X315013D01*
X392958Y48000D02*
X425242D01*
Y128000D01*
X392958D02*
X425242D01*
X392958Y48000D02*
Y128000D01*
D12*
X252069Y351369D02*
G03*
X252069Y351369I-1969J0D01*
G01*
X172757Y229405D02*
G03*
X172757Y229405I-1969J0D01*
G01*
X173569Y351169D02*
G03*
X173569Y351169I-1969J0D01*
G01*
X379739Y345263D02*
Y353137D01*
Y345263D02*
X384661D01*
Y353137D01*
X379739D02*
X384661D01*
X379939Y259863D02*
Y267737D01*
Y259863D02*
X384861D01*
Y267737D01*
X379939D02*
X384861D01*
X383639Y102094D02*
Y109968D01*
Y102094D02*
X388561D01*
Y109968D01*
X383639D02*
X388561D01*
X196817Y132795D02*
X211384D01*
X196817Y106417D02*
X211384D01*
X196817D02*
Y132795D01*
X211384Y106417D02*
Y132795D01*
X369450Y100106D02*
X375750D01*
Y96957D02*
Y100106D01*
X369450Y96957D02*
X375750D01*
X369450D02*
Y100106D01*
X365838Y257906D02*
X372137D01*
Y254757D02*
Y257906D01*
X365838Y254757D02*
X372137D01*
X365838D02*
Y257906D01*
X328864Y83236D02*
X349336D01*
Y62764D02*
Y83236D01*
X328864Y62764D02*
X349336D01*
X328864D02*
Y83236D01*
X357761Y54768D02*
X390439D01*
X357761D02*
Y79276D01*
X365931Y87445D01*
X382269D01*
X390439Y79276D01*
Y54768D02*
Y79276D01*
X301663Y101539D02*
X309537D01*
X301663D02*
Y106461D01*
X309537D01*
Y101539D02*
Y106461D01*
X307895Y101539D02*
X309537Y103181D01*
X291195Y96870D02*
X298084D01*
X291195Y93130D02*
X298084D01*
X291195D02*
Y96870D01*
X298084Y93130D02*
Y96870D01*
X365838Y343406D02*
X372137D01*
Y340257D02*
Y343406D01*
X365838Y340257D02*
X372137D01*
X365838D02*
Y343406D01*
X51899Y149150D02*
X64301D01*
X51899D02*
Y155450D01*
X64301D01*
Y149150D02*
Y155450D01*
X294995Y155348D02*
X307397D01*
Y149049D02*
Y155348D01*
X294995Y149049D02*
X307397D01*
X294995D02*
Y155348D01*
X259545Y334330D02*
Y338070D01*
X252655Y334330D02*
Y338070D01*
Y334330D02*
X259545D01*
X252655Y338070D02*
X259545D01*
X266243Y347826D02*
Y363574D01*
X246557Y347826D02*
Y363574D01*
X266243D01*
X246557Y347826D02*
X266243D01*
X245986Y225862D02*
Y304602D01*
X167246Y225862D02*
Y304602D01*
X245986Y304602D01*
X167246Y225862D02*
X245986D01*
X224250Y152225D02*
Y155375D01*
Y152225D02*
X230550D01*
Y155375D01*
X224250D02*
X230550D01*
X155994Y254925D02*
Y258075D01*
X149695D02*
X155994D01*
X149695Y254925D02*
Y258075D01*
Y254925D02*
X155994D01*
X154250Y229209D02*
Y232358D01*
X147950D02*
X154250D01*
X147950Y229209D02*
Y232358D01*
Y229209D02*
X154250D01*
X154149Y219524D02*
Y222674D01*
X147850D02*
X154149D01*
X147850Y219524D02*
Y222674D01*
Y219524D02*
X154149D01*
X85163Y254492D02*
X87132Y256461D01*
X85163Y251539D02*
Y256461D01*
Y251539D02*
X93037D01*
Y256461D01*
X85163D02*
X93037D01*
X85261Y267084D02*
X86902Y268726D01*
X85261Y263805D02*
Y268726D01*
Y263805D02*
X93135D01*
Y268726D01*
X85261D02*
X93135D01*
X85261Y279084D02*
X86902Y280726D01*
X85261Y275805D02*
Y280726D01*
Y275805D02*
X93135D01*
Y280726D01*
X85261D02*
X93135D01*
X174455Y338370D02*
X181345D01*
X174455Y334630D02*
X181345D01*
X174455D02*
Y338370D01*
X181345Y334630D02*
Y338370D01*
X168058Y347626D02*
X187742D01*
X168058Y363374D02*
X187742D01*
X168058Y347626D02*
Y363374D01*
X187742Y347626D02*
Y363374D01*
X217836Y318106D02*
X220986D01*
Y324406D01*
X217836D02*
X220986D01*
X217836Y318106D02*
Y324406D01*
X196183Y318106D02*
X199332D01*
Y324406D01*
X196183D02*
X199332D01*
X196183Y318106D02*
Y324406D01*
X165525Y306250D02*
X168675D01*
Y312550D01*
X165525D02*
X168675D01*
X165525Y306250D02*
Y312550D01*
X233525Y213394D02*
X236675D01*
X233525Y207095D02*
Y213394D01*
Y207095D02*
X236675D01*
Y213394D01*
X250025Y306606D02*
X253175D01*
Y312906D01*
X250025D02*
X253175D01*
X250025Y306606D02*
Y312906D01*
X204025Y213794D02*
X207175D01*
X204025Y207494D02*
Y213794D01*
Y207494D02*
X207175D01*
Y213794D01*
X180525Y214650D02*
X183675D01*
X180525Y208350D02*
Y214650D01*
Y208350D02*
X183675D01*
Y214650D01*
X256950Y278425D02*
Y281575D01*
Y278425D02*
X263250D01*
Y281575D01*
X256950D02*
X263250D01*
X257206Y258425D02*
Y261575D01*
Y258425D02*
X263506D01*
Y261575D01*
X257206D02*
X263506D01*
X257850Y231725D02*
Y234875D01*
Y231725D02*
X264150D01*
Y234875D01*
X257850D02*
X264150D01*
X155994Y274425D02*
Y277575D01*
X149695D02*
X155994D01*
X149695Y274425D02*
Y277575D01*
Y274425D02*
X155994D01*
X226525Y213350D02*
X229675D01*
X226525Y207050D02*
Y213350D01*
Y207050D02*
X229675D01*
Y213350D01*
M02*
