G04*
G04 #@! TF.GenerationSoftware,Altium Limited,Altium Designer,20.2.3 (150)*
G04*
G04 Layer_Physical_Order=1*
G04 Layer_Color=255*
%FSLAX25Y25*%
%MOIN*%
G70*
G04*
G04 #@! TF.SameCoordinates,12439D86-AE7D-45F5-80DB-552B17048F2A*
G04*
G04*
G04 #@! TF.FilePolarity,Positive*
G04*
G01*
G75*
%ADD14C,0.01500*%
%ADD15C,0.01000*%
%ADD16C,0.00800*%
%ADD17R,0.03197X0.02985*%
%ADD18R,0.05669X0.05512*%
%ADD19R,0.07087X0.05512*%
%ADD20R,0.07480X0.12598*%
%ADD21R,0.07480X0.03543*%
%ADD22R,0.03071X0.03858*%
%ADD23C,0.00837*%
%ADD24R,0.07874X0.17323*%
%ADD25R,0.07087X0.16535*%
%ADD26R,0.01968X0.01870*%
%ADD27R,0.03543X0.05512*%
%ADD28R,0.03150X0.03543*%
%ADD29R,0.04750X0.05938*%
%ADD30R,0.04134X0.07087*%
%ADD31R,0.02756X0.05118*%
G04:AMPARAMS|DCode=32|XSize=25.59mil|YSize=64.96mil|CornerRadius=1.92mil|HoleSize=0mil|Usage=FLASHONLY|Rotation=180.000|XOffset=0mil|YOffset=0mil|HoleType=Round|Shape=RoundedRectangle|*
%AMROUNDEDRECTD32*
21,1,0.02559,0.06112,0,0,180.0*
21,1,0.02175,0.06496,0,0,180.0*
1,1,0.00384,-0.01088,0.03056*
1,1,0.00384,0.01088,0.03056*
1,1,0.00384,0.01088,-0.03056*
1,1,0.00384,-0.01088,-0.03056*
%
%ADD32ROUNDEDRECTD32*%
%ADD33R,0.03985X0.04168*%
%ADD34R,0.01870X0.01968*%
%ADD35O,0.08268X0.01181*%
%ADD36O,0.01181X0.08268*%
%ADD37R,0.02559X0.02756*%
%ADD38R,0.05709X0.03937*%
%ADD39R,0.03858X0.03071*%
%ADD40R,0.02387X0.02473*%
%ADD41R,0.04168X0.03985*%
%ADD42R,0.05512X0.01575*%
%ADD43R,0.01968X0.00787*%
%ADD44R,0.02473X0.02387*%
%ADD45R,0.08268X0.05433*%
%ADD54C,0.03000*%
%ADD55C,0.02000*%
%ADD56C,0.04000*%
%ADD57C,0.02500*%
%ADD58C,0.06000*%
%ADD59C,0.01600*%
%ADD60C,0.01200*%
%ADD61C,0.05906*%
%ADD62R,0.05906X0.05906*%
%ADD63C,0.07087*%
%ADD64C,0.06791*%
G04:AMPARAMS|DCode=65|XSize=59.06mil|YSize=59.06mil|CornerRadius=2.95mil|HoleSize=0mil|Usage=FLASHONLY|Rotation=0.000|XOffset=0mil|YOffset=0mil|HoleType=Round|Shape=RoundedRectangle|*
%AMROUNDEDRECTD65*
21,1,0.05906,0.05315,0,0,0.0*
21,1,0.05315,0.05906,0,0,0.0*
1,1,0.00591,0.02657,-0.02657*
1,1,0.00591,-0.02657,-0.02657*
1,1,0.00591,-0.02657,0.02657*
1,1,0.00591,0.02657,0.02657*
%
%ADD65ROUNDEDRECTD65*%
%ADD66R,0.05906X0.05906*%
%ADD67C,0.17717*%
%ADD68C,0.02200*%
%ADD69C,0.02400*%
G36*
X425600Y407700D02*
X425600Y13999D01*
X12100D01*
Y407700D01*
X425600Y407700D01*
D02*
G37*
%LPC*%
G36*
X249400Y398987D02*
X248368Y398851D01*
X247407Y398453D01*
X246581Y397819D01*
X245947Y396993D01*
X245549Y396032D01*
X245413Y395000D01*
X245549Y393968D01*
X245741Y393504D01*
X243314Y391077D01*
X241746D01*
X241431Y391522D01*
X241432Y391577D01*
X242219Y392181D01*
X242853Y393007D01*
X243251Y393968D01*
X243387Y395000D01*
X243251Y396032D01*
X242853Y396993D01*
X242219Y397819D01*
X241393Y398453D01*
X240432Y398851D01*
X239400Y398987D01*
X238368Y398851D01*
X237407Y398453D01*
X236581Y397819D01*
X235947Y396993D01*
X235755Y396529D01*
X234990D01*
X234405Y396413D01*
X233909Y396081D01*
X233713Y395886D01*
X233222Y396102D01*
X232853Y396993D01*
X232219Y397819D01*
X231393Y398453D01*
X230432Y398851D01*
X229400Y398987D01*
X228368Y398851D01*
X227407Y398453D01*
X226581Y397819D01*
X225947Y396993D01*
X225737Y396487D01*
X224947D01*
X224362Y396370D01*
X223866Y396039D01*
X223713Y395886D01*
X223222Y396102D01*
X222853Y396993D01*
X222219Y397819D01*
X221393Y398453D01*
X220432Y398851D01*
X219400Y398987D01*
X218368Y398851D01*
X217407Y398453D01*
X216581Y397819D01*
X215947Y396993D01*
X215549Y396032D01*
X215413Y395000D01*
X215499Y394350D01*
X212730Y391582D01*
X212216D01*
X212055Y392055D01*
X212219Y392181D01*
X212853Y393007D01*
X213251Y393968D01*
X213387Y395000D01*
X213251Y396032D01*
X212853Y396993D01*
X212219Y397819D01*
X211393Y398453D01*
X210432Y398851D01*
X209400Y398987D01*
X208368Y398851D01*
X207407Y398453D01*
X206581Y397819D01*
X205947Y396993D01*
X205549Y396032D01*
X205413Y395000D01*
X205549Y393968D01*
X205741Y393504D01*
X202271Y390034D01*
X201940Y389538D01*
X201823Y388953D01*
Y388676D01*
X201323Y388482D01*
X200432Y388851D01*
X199400Y388987D01*
X198368Y388851D01*
X197407Y388453D01*
X196581Y387819D01*
X195947Y386993D01*
X195549Y386032D01*
X195528Y385873D01*
X194947D01*
X194362Y385757D01*
X193866Y385425D01*
X193839Y385398D01*
X193311Y385577D01*
X193251Y386032D01*
X192853Y386993D01*
X192219Y387819D01*
X191393Y388453D01*
X190432Y388851D01*
X189400Y388987D01*
X188368Y388851D01*
X187407Y388453D01*
X186581Y387819D01*
X185947Y386993D01*
X185549Y386032D01*
X185413Y385000D01*
X185549Y383968D01*
X185947Y383007D01*
X185949Y383005D01*
X185647Y382577D01*
X179635D01*
X179049Y382460D01*
X178553Y382129D01*
X175819Y379394D01*
X175487Y378898D01*
X175371Y378313D01*
Y376984D01*
X173947D01*
Y373016D01*
X175371D01*
Y370893D01*
X174312D01*
X173847Y370801D01*
X173453Y370537D01*
X173190Y370143D01*
X173155Y369969D01*
X172645D01*
X172610Y370143D01*
X172347Y370537D01*
X171953Y370801D01*
X171488Y370893D01*
X169312D01*
X168847Y370801D01*
X168453Y370537D01*
X168190Y370143D01*
X168097Y369678D01*
Y368253D01*
X164392D01*
Y369536D01*
X158408D01*
Y363368D01*
X164392D01*
Y364991D01*
X168097D01*
Y363566D01*
X168190Y363101D01*
X168453Y362707D01*
X168847Y362443D01*
X169312Y362351D01*
X171488D01*
X171953Y362443D01*
X172347Y362707D01*
X172610Y363101D01*
X172645Y363276D01*
X173155D01*
X173190Y363101D01*
X173453Y362707D01*
X173847Y362443D01*
X174312Y362351D01*
X176488D01*
X176953Y362443D01*
X177347Y362707D01*
X177610Y363101D01*
X177645Y363276D01*
X178155D01*
X178190Y363101D01*
X178453Y362707D01*
X178847Y362443D01*
X179312Y362351D01*
X181488D01*
X181953Y362443D01*
X182347Y362707D01*
X182610Y363101D01*
X182645Y363276D01*
X183155D01*
X183190Y363101D01*
X183453Y362707D01*
X183847Y362443D01*
X184312Y362351D01*
X186488D01*
X186953Y362443D01*
X187347Y362707D01*
X187610Y363101D01*
X187703Y363566D01*
Y369678D01*
X187610Y370143D01*
X187347Y370537D01*
X186953Y370801D01*
X186488Y370893D01*
X184312D01*
X183847Y370801D01*
X183453Y370537D01*
X183190Y370143D01*
X183155Y369969D01*
X182645D01*
X182610Y370143D01*
X182347Y370537D01*
X181953Y370801D01*
X181488Y370893D01*
X180429D01*
Y373016D01*
X181853D01*
Y376984D01*
X181781D01*
X181514Y377484D01*
X181536Y377518D01*
X187237D01*
X187823Y377634D01*
X188319Y377966D01*
X189871Y379518D01*
X191651D01*
X192236Y379634D01*
X192732Y379966D01*
X195581Y382814D01*
X196095D01*
X196581Y382181D01*
X197407Y381547D01*
X198368Y381149D01*
X199400Y381013D01*
X200432Y381149D01*
X201323Y381518D01*
X201823Y381324D01*
Y377886D01*
X188919Y364981D01*
X188587Y364485D01*
X188471Y363900D01*
Y327051D01*
X187291Y325872D01*
X186829Y326063D01*
Y340175D01*
X186953Y340199D01*
X187347Y340462D01*
X187610Y340857D01*
X187703Y341322D01*
Y347434D01*
X187610Y347899D01*
X187347Y348293D01*
X186953Y348557D01*
X186488Y348649D01*
X184312D01*
X183847Y348557D01*
X183453Y348293D01*
X183190Y347899D01*
X183155Y347725D01*
X182645D01*
X182610Y347899D01*
X182347Y348293D01*
X181953Y348557D01*
X181488Y348649D01*
X179312D01*
X178847Y348557D01*
X178453Y348293D01*
X178190Y347899D01*
X178097Y347434D01*
Y341322D01*
X178190Y340857D01*
X178453Y340462D01*
X178744Y340268D01*
Y339272D01*
X178081D01*
Y334023D01*
X177779Y333821D01*
X177179Y333221D01*
X176958Y332890D01*
X176880Y332500D01*
X176880Y330424D01*
X176418Y330233D01*
X171929Y334722D01*
Y340195D01*
X171953Y340199D01*
X172347Y340462D01*
X172610Y340857D01*
X172703Y341322D01*
Y347434D01*
X172610Y347899D01*
X172347Y348293D01*
X171953Y348557D01*
X171488Y348649D01*
X169312D01*
X168847Y348557D01*
X168453Y348293D01*
X168190Y347899D01*
X168097Y347434D01*
Y341322D01*
X168190Y340857D01*
X168453Y340462D01*
X168847Y340199D01*
X168871Y340195D01*
Y334780D01*
X168371Y334573D01*
X155098Y347846D01*
X155111Y347913D01*
X154940Y348771D01*
X154454Y349499D01*
X153726Y349985D01*
X152868Y350156D01*
X152429Y350069D01*
X151929Y350479D01*
Y372267D01*
X155633Y375971D01*
X162621D01*
X163207Y376087D01*
X163703Y376419D01*
X165934Y378650D01*
X166266Y379146D01*
X166382Y379731D01*
Y387019D01*
X166786Y387423D01*
X173353D01*
X173938Y387540D01*
X174434Y387871D01*
X177904Y391341D01*
X178368Y391149D01*
X179400Y391013D01*
X180432Y391149D01*
X181393Y391547D01*
X182219Y392181D01*
X182853Y393007D01*
X183251Y393968D01*
X183387Y395000D01*
X183251Y396032D01*
X182853Y396993D01*
X182219Y397819D01*
X181393Y398453D01*
X180432Y398851D01*
X179400Y398987D01*
X178368Y398851D01*
X177407Y398453D01*
X176581Y397819D01*
X175947Y396993D01*
X175549Y396032D01*
X175413Y395000D01*
X175549Y393968D01*
X175741Y393504D01*
X172719Y390482D01*
X167698D01*
X167507Y390944D01*
X167904Y391341D01*
X168368Y391149D01*
X169400Y391013D01*
X170432Y391149D01*
X171393Y391547D01*
X172219Y392181D01*
X172853Y393007D01*
X173251Y393968D01*
X173387Y395000D01*
X173251Y396032D01*
X172853Y396993D01*
X172219Y397819D01*
X171393Y398453D01*
X170432Y398851D01*
X169400Y398987D01*
X168368Y398851D01*
X167407Y398453D01*
X166581Y397819D01*
X165947Y396993D01*
X165549Y396032D01*
X165413Y395000D01*
X165549Y393968D01*
X165741Y393504D01*
X162271Y390034D01*
X161940Y389538D01*
X161823Y388953D01*
Y380986D01*
X161467Y380629D01*
X156567D01*
X156287Y381103D01*
X156290Y381129D01*
X156382Y381595D01*
Y389819D01*
X157904Y391341D01*
X158368Y391149D01*
X159400Y391013D01*
X160432Y391149D01*
X161393Y391547D01*
X162219Y392181D01*
X162853Y393007D01*
X163251Y393968D01*
X163387Y395000D01*
X163251Y396032D01*
X162853Y396993D01*
X162219Y397819D01*
X161393Y398453D01*
X160432Y398851D01*
X159400Y398987D01*
X158368Y398851D01*
X157407Y398453D01*
X156581Y397819D01*
X155947Y396993D01*
X155549Y396032D01*
X155413Y395000D01*
X155549Y393968D01*
X155741Y393504D01*
X154400Y392163D01*
X153059Y393504D01*
X153251Y393968D01*
X153387Y395000D01*
X153251Y396032D01*
X152853Y396993D01*
X152219Y397819D01*
X151393Y398453D01*
X150432Y398851D01*
X149400Y398987D01*
X148368Y398851D01*
X147407Y398453D01*
X146581Y397819D01*
X145947Y396993D01*
X145549Y396032D01*
X145413Y395000D01*
X145549Y393968D01*
X145947Y393007D01*
X146581Y392181D01*
X147407Y391547D01*
X148368Y391149D01*
X149400Y391013D01*
X150432Y391149D01*
X150896Y391341D01*
X151823Y390414D01*
Y388676D01*
X151323Y388482D01*
X150432Y388851D01*
X149400Y388987D01*
X148368Y388851D01*
X147407Y388453D01*
X146850Y388026D01*
X143353D01*
Y388953D01*
X135447D01*
Y385327D01*
X121650Y371529D01*
X119115Y374064D01*
X118489Y374545D01*
X117759Y374847D01*
X116976Y374950D01*
X102729D01*
X90540Y387140D01*
X89913Y387620D01*
X89183Y387923D01*
X88400Y388026D01*
X79150D01*
X78593Y388453D01*
X77632Y388851D01*
X76600Y388987D01*
X75568Y388851D01*
X74607Y388453D01*
X73781Y387819D01*
X73147Y386993D01*
X72749Y386032D01*
X72613Y385000D01*
X72749Y383968D01*
X73147Y383007D01*
X73781Y382181D01*
X74607Y381547D01*
X75568Y381149D01*
X76600Y381013D01*
X77632Y381149D01*
X78593Y381547D01*
X79150Y381974D01*
X87147D01*
X99336Y369785D01*
X99963Y369304D01*
X100693Y369001D01*
X101084Y368950D01*
X101476Y368898D01*
X101476Y368898D01*
X115722D01*
X119510Y365110D01*
X129203Y355418D01*
X129303Y354656D01*
X129465Y354263D01*
Y337700D01*
X129603Y336656D01*
X130006Y335683D01*
X130647Y334847D01*
X131483Y334206D01*
X132456Y333803D01*
X133500Y333665D01*
X134544Y333803D01*
X135517Y334206D01*
X136353Y334847D01*
X136994Y335683D01*
X137397Y336656D01*
X137534Y337700D01*
Y355400D01*
X137397Y356444D01*
X136994Y357417D01*
X136353Y358253D01*
X136353Y358253D01*
X136053Y358553D01*
X135217Y359194D01*
X134244Y359597D01*
X133482Y359697D01*
X125929Y367250D01*
X139726Y381047D01*
X143353D01*
Y381974D01*
X146850D01*
X147407Y381547D01*
X148368Y381149D01*
X149293Y381027D01*
X149548Y380574D01*
X144819Y375845D01*
X144487Y375349D01*
X144371Y374764D01*
Y321662D01*
X143871Y321510D01*
X143686Y321786D01*
X142958Y322272D01*
X142100Y322443D01*
X141950Y322413D01*
X108281Y356081D01*
X107785Y356413D01*
X107200Y356529D01*
X80245D01*
X80053Y356993D01*
X79419Y357819D01*
X78593Y358453D01*
X77632Y358851D01*
X76600Y358987D01*
X75568Y358851D01*
X74677Y358482D01*
X74177Y358676D01*
Y361324D01*
X74677Y361518D01*
X75568Y361149D01*
X76600Y361013D01*
X77632Y361149D01*
X78593Y361547D01*
X79419Y362181D01*
X80053Y363007D01*
X80451Y363968D01*
X80587Y365000D01*
X80451Y366032D01*
X80053Y366993D01*
X79419Y367819D01*
X78593Y368453D01*
X77702Y368822D01*
X77486Y369313D01*
X77639Y369466D01*
X77970Y369962D01*
X78087Y370547D01*
Y371337D01*
X78593Y371547D01*
X79419Y372181D01*
X80053Y373007D01*
X80451Y373968D01*
X80587Y375000D01*
X80451Y376032D01*
X80053Y376993D01*
X79419Y377819D01*
X78593Y378453D01*
X77632Y378851D01*
X76600Y378987D01*
X75568Y378851D01*
X74607Y378453D01*
X73781Y377819D01*
X73147Y376993D01*
X72749Y376032D01*
X72613Y375000D01*
X72749Y373968D01*
X73147Y373007D01*
X73781Y372181D01*
X74607Y371547D01*
X74664Y371524D01*
X74781Y370934D01*
X71566Y367719D01*
X71234Y367223D01*
X71118Y366637D01*
Y353363D01*
X71234Y352777D01*
X71566Y352281D01*
X74845Y349002D01*
X74748Y348511D01*
X74607Y348453D01*
X73781Y347819D01*
X73147Y346993D01*
X72749Y346032D01*
X72613Y345000D01*
X72749Y343968D01*
X73147Y343007D01*
X73781Y342181D01*
X74607Y341547D01*
X75071Y341355D01*
Y335500D01*
X75187Y334915D01*
X75519Y334419D01*
X113156Y296781D01*
X112964Y296320D01*
X107622D01*
X105121Y298821D01*
X104790Y299042D01*
X104400Y299120D01*
X71700D01*
X71310Y299042D01*
X70979Y298821D01*
X31579Y259421D01*
X31358Y259090D01*
X31280Y258700D01*
Y240922D01*
X24879Y234521D01*
X24658Y234190D01*
X24580Y233800D01*
Y127700D01*
X24658Y127310D01*
X24879Y126979D01*
X67279Y84579D01*
X67610Y84358D01*
X68000Y84280D01*
X248376D01*
X250239Y65357D01*
X250283Y65214D01*
X250312Y65067D01*
X250389Y64881D01*
X250505Y64000D01*
X250445Y63543D01*
X250453Y63426D01*
X250441Y63310D01*
X250858Y59082D01*
X250908Y58915D01*
X250951Y58746D01*
X250966Y58725D01*
X250973Y58701D01*
X251084Y58566D01*
X251188Y58426D01*
X251209Y58413D01*
X251225Y58393D01*
X251379Y58311D01*
X251529Y58222D01*
X251757Y58140D01*
X251929Y58114D01*
X252100Y58080D01*
X261600D01*
X261715Y58103D01*
X261832Y58107D01*
X261908Y58142D01*
X261990Y58158D01*
X262088Y58223D01*
X262194Y58271D01*
X262251Y58333D01*
X262321Y58379D01*
X262386Y58476D01*
X262466Y58562D01*
X262495Y58640D01*
X262542Y58710D01*
X262565Y58825D01*
X262606Y58934D01*
X262997Y61306D01*
X263525Y61438D01*
X263965Y60865D01*
X264883Y60160D01*
X265952Y59718D01*
X267100Y59566D01*
X268248Y59718D01*
X269317Y60160D01*
X270235Y60865D01*
X270940Y61783D01*
X271382Y62853D01*
X271534Y64000D01*
X271382Y65148D01*
X270940Y66217D01*
X270235Y67135D01*
X269317Y67840D01*
X268248Y68283D01*
X267100Y68434D01*
X265952Y68283D01*
X264883Y67840D01*
X264535Y67572D01*
X264074Y67849D01*
X266702Y83808D01*
X268441Y91780D01*
X293700D01*
X294090Y91858D01*
X294421Y92079D01*
X294521Y92228D01*
X295180D01*
Y90603D01*
X291101Y70705D01*
X291101Y70601D01*
X291080Y70500D01*
Y66855D01*
X290580Y66685D01*
X290235Y67135D01*
X289317Y67840D01*
X288247Y68283D01*
X287100Y68434D01*
X285952Y68283D01*
X284883Y67840D01*
X283965Y67135D01*
X283260Y66217D01*
X282818Y65148D01*
X282666Y64000D01*
X282818Y62853D01*
X283260Y61783D01*
X283965Y60865D01*
X284883Y60160D01*
X285952Y59718D01*
X287100Y59566D01*
X288247Y59718D01*
X289317Y60160D01*
X290235Y60865D01*
X290580Y61315D01*
X291080Y61145D01*
Y60500D01*
X291158Y60110D01*
X291379Y59779D01*
X292679Y58479D01*
X293010Y58258D01*
X293400Y58180D01*
X300857D01*
X300913Y58030D01*
X300925Y58017D01*
X300932Y58000D01*
X301060Y57872D01*
X301184Y57739D01*
X311004Y50672D01*
X311112Y50624D01*
X311210Y50558D01*
X311291Y50542D01*
X311366Y50507D01*
X311484Y50503D01*
X311600Y50480D01*
X369557Y50480D01*
Y48256D01*
X378643D01*
Y50480D01*
X408100Y50480D01*
X408100Y50480D01*
X415100D01*
X415490Y50558D01*
X415821Y50779D01*
X416042Y51110D01*
X416120Y51500D01*
Y53500D01*
Y82500D01*
X416042Y82890D01*
X415821Y83221D01*
X415321Y83721D01*
X414990Y83942D01*
X414600Y84020D01*
X402600D01*
X402210Y83942D01*
X401879Y83721D01*
X401658Y83390D01*
X401580Y83000D01*
Y64320D01*
X378643D01*
Y66791D01*
X369557D01*
Y64320D01*
X350927Y64320D01*
Y66480D01*
X356450D01*
X356611Y66512D01*
X356774Y66533D01*
X356805Y66551D01*
X356840Y66558D01*
X356977Y66649D01*
X357119Y66731D01*
X367756Y75980D01*
X369557D01*
Y75421D01*
X378643D01*
Y75980D01*
X381100D01*
X381490Y76058D01*
X381821Y76279D01*
X391821Y86279D01*
X392042Y86610D01*
X392120Y87000D01*
Y92055D01*
X392477Y92406D01*
X414223Y91988D01*
X414228Y91988D01*
X414233Y91987D01*
X414424Y92023D01*
X414615Y92058D01*
X414619Y92060D01*
X414624Y92061D01*
X414786Y92167D01*
X414950Y92272D01*
X414953Y92276D01*
X414957Y92279D01*
X415314Y92629D01*
X415317Y92633D01*
X415321Y92636D01*
X415429Y92797D01*
X415538Y92958D01*
X415539Y92963D01*
X415542Y92967D01*
X415580Y93157D01*
X415620Y93347D01*
X415619Y93352D01*
X415620Y93357D01*
Y102500D01*
X415542Y102890D01*
X415321Y103221D01*
X414821Y103721D01*
X414707Y103797D01*
X414604Y103886D01*
X414543Y103907D01*
X414490Y103942D01*
X414356Y103969D01*
X414226Y104012D01*
X402226Y105512D01*
X402163Y105507D01*
X402100Y105520D01*
X383600D01*
X383284Y105457D01*
X382265D01*
Y103230D01*
X381383D01*
X379629Y104984D01*
Y105414D01*
X379513Y106000D01*
X379181Y106496D01*
X378596Y107081D01*
X378099Y107413D01*
X377514Y107529D01*
X377446D01*
X377254Y107991D01*
X378096Y108833D01*
X382265D01*
Y106606D01*
X383170D01*
X383300Y106580D01*
X389500D01*
X389602Y106601D01*
X389707Y106602D01*
X389730Y106606D01*
X389935D01*
Y106649D01*
X414807Y111802D01*
X414896Y111839D01*
X414990Y111858D01*
X415077Y111916D01*
X415173Y111957D01*
X415241Y112025D01*
X415321Y112079D01*
X415379Y112166D01*
X415452Y112240D01*
X415488Y112330D01*
X415542Y112410D01*
X415562Y112512D01*
X415602Y112609D01*
X415601Y112705D01*
X415620Y112800D01*
Y124000D01*
X415542Y124390D01*
X415321Y124721D01*
X414990Y124942D01*
X414600Y125020D01*
X404100D01*
X403922Y124984D01*
X403742Y124955D01*
X391747Y120456D01*
X382951Y117258D01*
X382932Y117246D01*
X382910Y117242D01*
X382763Y117144D01*
X382611Y117052D01*
X382598Y117034D01*
X382579Y117021D01*
X382481Y116874D01*
X382376Y116731D01*
X382371Y116709D01*
X382358Y116690D01*
X382324Y116517D01*
X382281Y116345D01*
X382285Y116322D01*
X382280Y116300D01*
Y114118D01*
X382265D01*
Y111892D01*
X377462D01*
X376877Y111775D01*
X376381Y111444D01*
X373593Y108656D01*
X373262Y108160D01*
X373217Y107933D01*
X373100Y107446D01*
X372547Y107336D01*
X372313Y107180D01*
X372079Y107336D01*
X371525Y107446D01*
X371409Y107933D01*
X371363Y108160D01*
X371032Y108656D01*
X370536Y108988D01*
X369950Y109104D01*
X368959D01*
X361699Y116364D01*
Y119361D01*
X361248D01*
X361012Y119802D01*
X361172Y120042D01*
X361343Y120900D01*
X361172Y121758D01*
X360800Y122316D01*
X361016Y122821D01*
X383567Y123421D01*
X383748Y123462D01*
X383930Y123498D01*
X383942Y123506D01*
X383955Y123509D01*
X384107Y123616D01*
X384261Y123719D01*
X411821Y151279D01*
X412042Y151610D01*
X412120Y152000D01*
X412120Y183600D01*
X412085Y183772D01*
X412059Y183946D01*
X412047Y183966D01*
X412042Y183990D01*
X411944Y184136D01*
X411854Y184286D01*
X370505Y229720D01*
X364105Y250005D01*
X363811Y253032D01*
X364147Y253402D01*
X368767D01*
Y256917D01*
X369281Y257431D01*
X369613Y257927D01*
X369729Y258513D01*
Y261050D01*
X370229Y261202D01*
X370268Y261144D01*
X370764Y260812D01*
X371350Y260696D01*
X374741D01*
X377084Y258353D01*
X377580Y258022D01*
X378165Y257905D01*
X378480D01*
Y256400D01*
X378499Y256309D01*
X378497Y256216D01*
X378537Y256116D01*
X378558Y256010D01*
X378565Y255999D01*
Y255713D01*
X378756D01*
X378779Y255679D01*
X378856Y255627D01*
X378921Y255561D01*
X379020Y255518D01*
X379110Y255458D01*
X379201Y255440D01*
X379286Y255403D01*
X396065Y251807D01*
X404945Y249513D01*
X405074Y249506D01*
X405200Y249480D01*
X405270Y249494D01*
X405342Y249490D01*
X405464Y249533D01*
X405590Y249558D01*
X405624Y249580D01*
X414700D01*
X415090Y249658D01*
X415421Y249879D01*
X415521Y249979D01*
X415742Y250310D01*
X415820Y250700D01*
X415820Y260100D01*
X415787Y260263D01*
X415765Y260428D01*
X415749Y260457D01*
X415742Y260490D01*
X415650Y260629D01*
X415566Y260773D01*
X415540Y260793D01*
X415521Y260821D01*
X415383Y260913D01*
X415251Y261015D01*
X415218Y261023D01*
X415190Y261042D01*
X415027Y261074D01*
X414866Y261117D01*
X386235Y262983D01*
Y263225D01*
X382517D01*
X379931Y263394D01*
X379914Y263391D01*
X379898Y263395D01*
X379718Y263366D01*
X379537Y263342D01*
X379522Y263333D01*
X379505Y263330D01*
X379350Y263234D01*
X379335Y263225D01*
X378565D01*
Y262436D01*
X378558Y262424D01*
X378522Y262245D01*
X378481Y262068D01*
X378484Y262051D01*
X378480Y262034D01*
Y261936D01*
X378018Y261744D01*
X376929Y262833D01*
Y263214D01*
X376813Y263800D01*
X376481Y264296D01*
X376420Y264357D01*
X378103Y266040D01*
X378565Y265849D01*
Y264375D01*
X386235D01*
Y264828D01*
X413273Y266783D01*
X413363Y266808D01*
X413456Y266813D01*
X413553Y266860D01*
X413657Y266889D01*
X413731Y266946D01*
X413815Y266986D01*
X413886Y267067D01*
X413971Y267133D01*
X414017Y267214D01*
X414079Y267284D01*
X414115Y267385D01*
X414168Y267479D01*
X414179Y267571D01*
X414210Y267659D01*
X415857Y279482D01*
X415855Y279518D01*
X415865Y279552D01*
X415844Y279715D01*
X415834Y279879D01*
X415819Y279911D01*
X415814Y279947D01*
X415732Y280089D01*
X415661Y280237D01*
X415634Y280261D01*
X415617Y280292D01*
X415288Y280669D01*
X415260Y280691D01*
X415240Y280721D01*
X415104Y280812D01*
X414974Y280913D01*
X414939Y280922D01*
X414909Y280942D01*
X414748Y280974D01*
X414590Y281017D01*
X414554Y281013D01*
X414519Y281020D01*
X403700D01*
X403519Y280984D01*
X403338Y280953D01*
X393344Y277156D01*
X379252Y272040D01*
X379202Y272009D01*
X379145Y271994D01*
X379033Y271907D01*
X378999Y271887D01*
X378565D01*
Y269660D01*
X378031D01*
X377445Y269544D01*
X376949Y269212D01*
X374641Y266904D01*
X371350D01*
X370764Y266788D01*
X370268Y266456D01*
X370229Y266398D01*
X369729Y266550D01*
Y273576D01*
X369786Y273614D01*
X370272Y274342D01*
X370443Y275200D01*
X370272Y276058D01*
X369786Y276786D01*
X369058Y277272D01*
X368200Y277443D01*
X367342Y277272D01*
X366614Y276786D01*
X366201Y276169D01*
X365648Y276015D01*
X363813Y277850D01*
X363317Y278181D01*
X362732Y278298D01*
X358099D01*
Y279261D01*
X357029D01*
Y281600D01*
X356913Y282185D01*
X356581Y282681D01*
X346729Y292534D01*
X346233Y292866D01*
X345647Y292982D01*
X326998D01*
X326807Y293444D01*
X330933Y297571D01*
X334876D01*
X334914Y297514D01*
X335642Y297028D01*
X336500Y296857D01*
X337358Y297028D01*
X338086Y297514D01*
X338572Y298242D01*
X338743Y299100D01*
X338650Y299571D01*
X339053Y300071D01*
X348876D01*
X348914Y300014D01*
X349642Y299528D01*
X350500Y299357D01*
X351358Y299528D01*
X352086Y300014D01*
X352572Y300742D01*
X352743Y301600D01*
X352572Y302458D01*
X352086Y303186D01*
X352029Y303224D01*
Y336909D01*
X352186Y337014D01*
X352672Y337742D01*
X352843Y338600D01*
X352786Y338887D01*
X353206Y339339D01*
X358099D01*
Y340047D01*
X359694D01*
X359843Y339948D01*
X359870Y339942D01*
X360042Y339828D01*
X360900Y339657D01*
X361758Y339828D01*
X362087Y340047D01*
X363696D01*
Y338902D01*
X368767D01*
Y342601D01*
X369281Y343115D01*
X369613Y343612D01*
X369729Y344197D01*
Y346550D01*
X370229Y346702D01*
X370268Y346644D01*
X370764Y346312D01*
X371350Y346196D01*
X374013D01*
X376421Y343788D01*
X376917Y343456D01*
X377502Y343340D01*
X378365D01*
Y341113D01*
X378520D01*
X378523Y341103D01*
X378608Y341008D01*
X378679Y340903D01*
X378740Y340862D01*
X378789Y340807D01*
X378904Y340752D01*
X379010Y340682D01*
X379082Y340667D01*
X379148Y340635D01*
X394935Y336615D01*
X405121Y333719D01*
X405262Y333708D01*
X405400Y333680D01*
X405458Y333692D01*
X405518Y333687D01*
X405652Y333731D01*
X405790Y333758D01*
X405824Y333780D01*
X413940D01*
X413943Y333781D01*
X413945Y333780D01*
X414139Y333820D01*
X414331Y333858D01*
X414333Y333859D01*
X414335Y333860D01*
X414498Y333969D01*
X414662Y334079D01*
X414663Y334081D01*
X414665Y334082D01*
X415121Y334542D01*
X415122Y334544D01*
X415124Y334546D01*
X415232Y334711D01*
X415340Y334874D01*
X415341Y334876D01*
X415342Y334879D01*
X415379Y335072D01*
X415416Y335264D01*
X415416Y335267D01*
X415416Y335269D01*
X415319Y345609D01*
X415286Y345769D01*
X415264Y345931D01*
X415246Y345963D01*
X415238Y345999D01*
X415146Y346134D01*
X415064Y346275D01*
X415035Y346297D01*
X415014Y346328D01*
X414878Y346417D01*
X414748Y346516D01*
X414712Y346525D01*
X414681Y346546D01*
X414521Y346576D01*
X414363Y346618D01*
X386035Y348378D01*
Y348625D01*
X382060D01*
X379668Y348774D01*
X379653Y348772D01*
X379637Y348775D01*
X379456Y348745D01*
X379274Y348721D01*
X379260Y348712D01*
X379244Y348710D01*
X379109Y348625D01*
X378365D01*
Y346876D01*
X377865Y346669D01*
X376015Y348519D01*
Y348714D01*
X375899Y349300D01*
X375567Y349796D01*
X375363Y350000D01*
X377364Y352001D01*
X378365D01*
Y349775D01*
X386035D01*
Y350383D01*
X414493Y352985D01*
X414640Y353028D01*
X414790Y353058D01*
X414829Y353084D01*
X414874Y353098D01*
X414993Y353194D01*
X415121Y353279D01*
X415147Y353318D01*
X415184Y353348D01*
X415257Y353482D01*
X415342Y353610D01*
X415351Y353656D01*
X415374Y353697D01*
X415390Y353850D01*
X415420Y354000D01*
Y364900D01*
X415342Y365290D01*
X415121Y365621D01*
X414790Y365842D01*
X414400Y365920D01*
X403900D01*
X403751Y365890D01*
X403599Y365874D01*
X392619Y362480D01*
X379139Y358918D01*
X379078Y358888D01*
X379010Y358874D01*
X378900Y358801D01*
X378782Y358743D01*
X378736Y358691D01*
X378679Y358653D01*
X378606Y358544D01*
X378519Y358445D01*
X378496Y358380D01*
X378458Y358322D01*
X378432Y358193D01*
X378390Y358069D01*
X378394Y358000D01*
X378380Y357932D01*
Y357287D01*
X378365D01*
Y355060D01*
X376731D01*
X376145Y354944D01*
X375649Y354612D01*
X373441Y352404D01*
X371350D01*
X370764Y352288D01*
X370268Y351956D01*
X370229Y351898D01*
X369729Y352050D01*
Y354576D01*
X369786Y354614D01*
X370272Y355342D01*
X370443Y356200D01*
X370272Y357058D01*
X369786Y357786D01*
X369058Y358272D01*
X368200Y358443D01*
X367342Y358272D01*
X366614Y357786D01*
X366366Y357415D01*
X365722Y357352D01*
X360424Y362650D01*
X359928Y362981D01*
X359343Y363098D01*
X358099D01*
Y364061D01*
X352901D01*
Y362990D01*
X351487D01*
X350902Y362874D01*
X350406Y362542D01*
X345670Y357807D01*
X345670Y357807D01*
X335419Y347555D01*
X335087Y347059D01*
X334971Y346474D01*
Y308924D01*
X334914Y308886D01*
X334428Y308158D01*
X334257Y307300D01*
X334331Y306929D01*
X333920Y306429D01*
X331300D01*
X330715Y306313D01*
X330219Y305981D01*
X329314Y305077D01*
X293276D01*
X293082Y305577D01*
X293451Y306468D01*
X293587Y307500D01*
X293451Y308532D01*
X293053Y309493D01*
X292419Y310319D01*
X291593Y310953D01*
X290632Y311351D01*
X289600Y311487D01*
X288568Y311351D01*
X287607Y310953D01*
X286781Y310319D01*
X286147Y309493D01*
X285749Y308532D01*
X285613Y307500D01*
X285749Y306468D01*
X286118Y305577D01*
X285924Y305077D01*
X284026D01*
X283441Y304960D01*
X282944Y304629D01*
X275589Y297273D01*
X257271D01*
X257079Y297735D01*
X258151Y298807D01*
X260773D01*
Y303193D01*
X256300D01*
Y301282D01*
X254279Y299261D01*
X253838Y299275D01*
X253513Y299681D01*
X253513Y299681D01*
X253390Y300302D01*
X253038Y300828D01*
X252512Y301179D01*
X251891Y301303D01*
X249877D01*
Y303508D01*
X250834Y304465D01*
X254529D01*
Y304706D01*
X257300D01*
X258178Y304880D01*
X258922Y305378D01*
X259419Y306122D01*
X259594Y307000D01*
X259419Y307878D01*
X258922Y308622D01*
X258178Y309120D01*
X257300Y309294D01*
X254529D01*
Y309535D01*
X248671D01*
Y306627D01*
X247267Y305223D01*
X246935Y304727D01*
X246819Y304142D01*
Y301303D01*
X244805D01*
X244184Y301179D01*
X243658Y300828D01*
X243306Y300302D01*
X243183Y299681D01*
X243306Y299061D01*
X243549Y298697D01*
X243306Y298333D01*
X243183Y297713D01*
X243306Y297092D01*
X243549Y296728D01*
X243306Y296365D01*
X243183Y295744D01*
X243306Y295124D01*
X243549Y294760D01*
X243306Y294396D01*
X243183Y293776D01*
X243306Y293155D01*
X243549Y292791D01*
X243306Y292428D01*
X243183Y291807D01*
X243306Y291186D01*
X243549Y290823D01*
X243306Y290459D01*
X243183Y289839D01*
X243306Y289218D01*
X243549Y288854D01*
X243306Y288491D01*
X243183Y287870D01*
X243306Y287249D01*
X243549Y286886D01*
X243306Y286522D01*
X243183Y285902D01*
X243306Y285281D01*
X243549Y284917D01*
X243306Y284554D01*
X243183Y283933D01*
X243306Y283313D01*
X243549Y282949D01*
X243306Y282585D01*
X243183Y281965D01*
X243306Y281344D01*
X243549Y280980D01*
X243306Y280617D01*
X243183Y279996D01*
X243306Y279376D01*
X243658Y278849D01*
X244184Y278498D01*
X244805Y278374D01*
X251891D01*
X252375Y278471D01*
X254809D01*
Y277071D01*
X255106D01*
Y275900D01*
X255280Y275022D01*
X255778Y274278D01*
X256522Y273780D01*
X257400Y273606D01*
X258278Y273780D01*
X259022Y274278D01*
X259520Y275022D01*
X259694Y275900D01*
Y277071D01*
X259879D01*
Y282929D01*
X254809D01*
Y281529D01*
X253821D01*
X253503Y281916D01*
X253513Y281965D01*
X253390Y282585D01*
X253147Y282949D01*
X253390Y283313D01*
X253513Y283933D01*
X253390Y284554D01*
X253147Y284917D01*
X253390Y285281D01*
X253513Y285902D01*
X253503Y285954D01*
X253820Y286341D01*
X283006D01*
X286881Y282466D01*
X287377Y282134D01*
X287963Y282018D01*
X291919D01*
X325449Y248488D01*
X325203Y248027D01*
X325190Y248029D01*
X292391D01*
X292222Y248529D01*
X292419Y248681D01*
X293053Y249507D01*
X293451Y250468D01*
X293587Y251500D01*
X293451Y252532D01*
X293053Y253493D01*
X292419Y254319D01*
X291593Y254953D01*
X290632Y255351D01*
X289600Y255487D01*
X288568Y255351D01*
X287607Y254953D01*
X286781Y254319D01*
X286147Y253493D01*
X285749Y252532D01*
X285613Y251500D01*
X285749Y250468D01*
X286147Y249507D01*
X286781Y248681D01*
X286978Y248529D01*
X286808Y248029D01*
X283724D01*
X283686Y248086D01*
X282958Y248572D01*
X282100Y248743D01*
X281242Y248572D01*
X280514Y248086D01*
X280353Y247845D01*
X279855Y247796D01*
X279227Y248425D01*
X279181Y248493D01*
X277893Y249781D01*
X277396Y250113D01*
X276811Y250229D01*
X253709D01*
X253513Y250468D01*
X253390Y251089D01*
X253147Y251453D01*
X253390Y251816D01*
X253513Y252437D01*
X253390Y253058D01*
X253147Y253421D01*
X253390Y253785D01*
X253513Y254405D01*
X253390Y255026D01*
X253147Y255390D01*
X253390Y255753D01*
X253513Y256374D01*
X253390Y256995D01*
X253038Y257521D01*
X252512Y257872D01*
X251891Y257996D01*
X244805D01*
X244184Y257872D01*
X243658Y257521D01*
X243306Y256995D01*
X243183Y256374D01*
X243306Y255753D01*
X243549Y255390D01*
X243306Y255026D01*
X243183Y254405D01*
X243306Y253785D01*
X243549Y253421D01*
X243306Y253058D01*
X243183Y252437D01*
X243306Y251816D01*
X243549Y251453D01*
X243306Y251089D01*
X243183Y250468D01*
X243306Y249848D01*
X243549Y249484D01*
X243306Y249121D01*
X243183Y248500D01*
X243306Y247879D01*
X243549Y247516D01*
X243306Y247152D01*
X243183Y246532D01*
X243306Y245911D01*
X243549Y245547D01*
X243306Y245184D01*
X243183Y244563D01*
X243306Y243942D01*
X243549Y243579D01*
X243306Y243215D01*
X243183Y242595D01*
X243306Y241974D01*
X243549Y241610D01*
X243306Y241247D01*
X243183Y240626D01*
X243306Y240005D01*
X243549Y239642D01*
X243306Y239278D01*
X243183Y238657D01*
X243306Y238037D01*
X243549Y237673D01*
X243306Y237310D01*
X243183Y236689D01*
X243306Y236068D01*
X243549Y235705D01*
X243306Y235341D01*
X243183Y234720D01*
X243306Y234100D01*
X243658Y233574D01*
X244184Y233222D01*
X244805Y233099D01*
X251891D01*
X252356Y233191D01*
X253771D01*
X254744Y232219D01*
X255240Y231887D01*
X255709Y231794D01*
Y230371D01*
X255983D01*
X256190Y229871D01*
X256057Y229200D01*
X256228Y228342D01*
X256714Y227614D01*
X257442Y227128D01*
X258300Y226957D01*
X259158Y227128D01*
X259886Y227614D01*
X260372Y228342D01*
X260543Y229200D01*
X260410Y229871D01*
X260675Y230299D01*
X260765Y230371D01*
X260780D01*
Y235160D01*
X268187D01*
X271993Y231354D01*
X271837Y230803D01*
X271214Y230386D01*
X270728Y229658D01*
X270557Y228800D01*
X270728Y227942D01*
X271214Y227214D01*
X271271Y227176D01*
Y210677D01*
X270809Y210486D01*
X252485Y228809D01*
X252634Y229367D01*
X253038Y229637D01*
X253390Y230163D01*
X253513Y230784D01*
X253390Y231404D01*
X253038Y231930D01*
X252512Y232282D01*
X251891Y232405D01*
X244805D01*
X244184Y232282D01*
X243658Y231930D01*
X243306Y231404D01*
X243183Y230784D01*
X243306Y230163D01*
X243658Y229637D01*
X244184Y229285D01*
X244805Y229162D01*
X248347D01*
X248440Y228693D01*
X248771Y228197D01*
X251477Y225491D01*
X251286Y225029D01*
X242686D01*
Y227043D01*
X242563Y227664D01*
X242211Y228190D01*
X241685Y228542D01*
X241065Y228665D01*
X240444Y228542D01*
X240080Y228299D01*
X239717Y228542D01*
X239096Y228665D01*
X238475Y228542D01*
X238112Y228299D01*
X237748Y228542D01*
X237128Y228665D01*
X236507Y228542D01*
X236143Y228299D01*
X235780Y228542D01*
X235159Y228665D01*
X234539Y228542D01*
X234175Y228299D01*
X233811Y228542D01*
X233190Y228665D01*
X232570Y228542D01*
X232206Y228299D01*
X231843Y228542D01*
X231222Y228665D01*
X230602Y228542D01*
X230238Y228299D01*
X229874Y228542D01*
X229254Y228665D01*
X228633Y228542D01*
X228269Y228299D01*
X227906Y228542D01*
X227285Y228665D01*
X226664Y228542D01*
X226301Y228299D01*
X225937Y228542D01*
X225317Y228665D01*
X224696Y228542D01*
X224332Y228299D01*
X223969Y228542D01*
X223348Y228665D01*
X222727Y228542D01*
X222364Y228299D01*
X222000Y228542D01*
X221379Y228665D01*
X221327Y228655D01*
X220940Y228972D01*
Y238189D01*
X220824Y238774D01*
X220493Y239270D01*
X188830Y270933D01*
X188843Y271000D01*
X188672Y271858D01*
X188186Y272586D01*
X187458Y273072D01*
X186600Y273243D01*
X185742Y273072D01*
X185014Y272586D01*
X184528Y271858D01*
X184357Y271000D01*
X184528Y270142D01*
X185014Y269414D01*
X185742Y268928D01*
X186600Y268757D01*
X186667Y268770D01*
X217882Y237556D01*
Y228972D01*
X217495Y228655D01*
X217442Y228665D01*
X216822Y228542D01*
X216458Y228299D01*
X216095Y228542D01*
X215474Y228665D01*
X214853Y228542D01*
X214490Y228299D01*
X214126Y228542D01*
X213506Y228665D01*
X212885Y228542D01*
X212521Y228299D01*
X212158Y228542D01*
X211537Y228665D01*
X210916Y228542D01*
X210553Y228299D01*
X210189Y228542D01*
X209569Y228665D01*
X208948Y228542D01*
X208584Y228299D01*
X208221Y228542D01*
X207600Y228665D01*
X206979Y228542D01*
X206616Y228299D01*
X206252Y228542D01*
X205631Y228665D01*
X205011Y228542D01*
X204647Y228299D01*
X204284Y228542D01*
X203663Y228665D01*
X203042Y228542D01*
X202516Y228190D01*
X202165Y227664D01*
X202041Y227043D01*
Y219957D01*
X202134Y219493D01*
Y218437D01*
X202250Y217852D01*
X202582Y217356D01*
X203356Y216582D01*
X203164Y216120D01*
X203000D01*
X202826Y216085D01*
X202651Y216058D01*
X202632Y216046D01*
X202610Y216042D01*
X202462Y215943D01*
X202311Y215851D01*
X194314Y208515D01*
X193856Y208716D01*
Y210138D01*
X190645D01*
X190313Y210500D01*
Y212862D01*
X193856D01*
Y216437D01*
X189960D01*
X189813Y216466D01*
X188296D01*
X187476Y217287D01*
Y218028D01*
X187862Y218345D01*
X187915Y218335D01*
X188536Y218458D01*
X188899Y218701D01*
X189263Y218458D01*
X189883Y218335D01*
X190504Y218458D01*
X190868Y218701D01*
X191231Y218458D01*
X191852Y218335D01*
X192473Y218458D01*
X192836Y218701D01*
X193200Y218458D01*
X193821Y218335D01*
X194441Y218458D01*
X194805Y218701D01*
X195168Y218458D01*
X195789Y218335D01*
X196410Y218458D01*
X196773Y218701D01*
X197137Y218458D01*
X197757Y218335D01*
X198378Y218458D01*
X198742Y218701D01*
X199105Y218458D01*
X199726Y218335D01*
X200347Y218458D01*
X200873Y218810D01*
X201224Y219336D01*
X201348Y219957D01*
Y227043D01*
X201224Y227664D01*
X200873Y228190D01*
X200347Y228542D01*
X199726Y228665D01*
X199105Y228542D01*
X198742Y228299D01*
X198378Y228542D01*
X197757Y228665D01*
X197137Y228542D01*
X196773Y228299D01*
X196410Y228542D01*
X195789Y228665D01*
X195168Y228542D01*
X194805Y228299D01*
X194441Y228542D01*
X193821Y228665D01*
X193200Y228542D01*
X192836Y228299D01*
X192473Y228542D01*
X191852Y228665D01*
X191231Y228542D01*
X190868Y228299D01*
X190504Y228542D01*
X189883Y228665D01*
X189263Y228542D01*
X188899Y228299D01*
X188536Y228542D01*
X187915Y228665D01*
X187294Y228542D01*
X186931Y228299D01*
X186567Y228542D01*
X185947Y228665D01*
X185326Y228542D01*
X184962Y228299D01*
X184599Y228542D01*
X183978Y228665D01*
X183357Y228542D01*
X182994Y228299D01*
X182630Y228542D01*
X182009Y228665D01*
X181389Y228542D01*
X181025Y228299D01*
X180661Y228542D01*
X180041Y228665D01*
X179420Y228542D01*
X179057Y228299D01*
X178693Y228542D01*
X178072Y228665D01*
X177452Y228542D01*
X177088Y228299D01*
X176725Y228542D01*
X176104Y228665D01*
X175483Y228542D01*
X175120Y228299D01*
X174756Y228542D01*
X174135Y228665D01*
X173515Y228542D01*
X173151Y228299D01*
X172787Y228542D01*
X172167Y228665D01*
X171546Y228542D01*
X171020Y228190D01*
X170669Y227664D01*
X170545Y227043D01*
Y219957D01*
X170638Y219493D01*
Y219200D01*
X159649Y208211D01*
X159185Y208399D01*
X159019Y219915D01*
X158979Y220102D01*
X158942Y220290D01*
X158938Y220296D01*
X158936Y220304D01*
X158827Y220462D01*
X158721Y220621D01*
X156221Y223121D01*
X155936Y223311D01*
Y223477D01*
X155696D01*
Y227854D01*
X156391D01*
Y228791D01*
X158003D01*
X158588Y228907D01*
X159084Y229239D01*
X159099Y229254D01*
X160876D01*
X161340Y229162D01*
X168427D01*
X169047Y229285D01*
X169573Y229637D01*
X169925Y230163D01*
X170048Y230784D01*
X169925Y231404D01*
X169573Y231930D01*
X169047Y232282D01*
X168427Y232405D01*
X161340D01*
X160876Y232313D01*
X158466D01*
X157880Y232196D01*
X157384Y231865D01*
X157369Y231850D01*
X156391D01*
Y233191D01*
X160876D01*
X161340Y233099D01*
X168427D01*
X169047Y233222D01*
X169573Y233574D01*
X169925Y234100D01*
X170048Y234720D01*
X169925Y235341D01*
X169682Y235705D01*
X169925Y236068D01*
X170048Y236689D01*
X169925Y237310D01*
X169682Y237673D01*
X169925Y238037D01*
X170048Y238657D01*
X169925Y239278D01*
X169682Y239642D01*
X169925Y240005D01*
X170048Y240626D01*
X169925Y241247D01*
X169682Y241610D01*
X169925Y241974D01*
X170048Y242595D01*
X169925Y243215D01*
X169682Y243579D01*
X169925Y243942D01*
X170048Y244563D01*
X169925Y245184D01*
X169682Y245547D01*
X169925Y245911D01*
X170048Y246532D01*
X169925Y247152D01*
X169682Y247516D01*
X169925Y247879D01*
X170048Y248500D01*
X169925Y249121D01*
X169682Y249484D01*
X169925Y249848D01*
X170048Y250468D01*
X169925Y251089D01*
X169682Y251453D01*
X169925Y251816D01*
X170048Y252437D01*
X169925Y253058D01*
X169682Y253421D01*
X169925Y253785D01*
X170048Y254405D01*
X169925Y255026D01*
X169682Y255390D01*
X169925Y255753D01*
X170048Y256374D01*
X169925Y256995D01*
X169573Y257521D01*
X169047Y257872D01*
X168427Y257996D01*
X161340D01*
X160876Y257903D01*
X158135D01*
Y259429D01*
X157764D01*
X157618Y262154D01*
X157576Y262321D01*
X157542Y262490D01*
X157527Y262513D01*
X157520Y262540D01*
X157417Y262678D01*
X157321Y262821D01*
X157298Y262836D01*
X157281Y262858D01*
X157133Y262946D01*
X156990Y263042D01*
X156963Y263047D01*
X156939Y263061D01*
X156769Y263086D01*
X156600Y263120D01*
X144022D01*
X142917Y264225D01*
X143108Y264687D01*
X159412D01*
X159729Y264301D01*
X159719Y264248D01*
X159842Y263627D01*
X160085Y263264D01*
X159842Y262900D01*
X159719Y262280D01*
X159842Y261659D01*
X160085Y261295D01*
X159842Y260932D01*
X159718Y260311D01*
X159842Y259690D01*
X160193Y259164D01*
X160720Y258813D01*
X161340Y258689D01*
X168427D01*
X169047Y258813D01*
X169573Y259164D01*
X169925Y259690D01*
X170048Y260311D01*
X169925Y260932D01*
X169682Y261295D01*
X169925Y261659D01*
X170048Y262280D01*
X169925Y262900D01*
X169682Y263264D01*
X169925Y263627D01*
X170048Y264248D01*
X169925Y264869D01*
X169682Y265232D01*
X169925Y265596D01*
X170048Y266216D01*
X169925Y266837D01*
X169682Y267201D01*
X169925Y267564D01*
X170048Y268185D01*
X169925Y268806D01*
X169682Y269169D01*
X169925Y269533D01*
X170048Y270153D01*
X169925Y270774D01*
X169682Y271138D01*
X169925Y271501D01*
X170048Y272122D01*
X169925Y272743D01*
X169682Y273106D01*
X169925Y273470D01*
X170048Y274091D01*
X169925Y274711D01*
X169682Y275075D01*
X169925Y275438D01*
X170048Y276059D01*
X169925Y276680D01*
X169573Y277206D01*
X169047Y277557D01*
X168427Y277681D01*
X161340D01*
X160876Y277589D01*
X158135D01*
Y278929D01*
X157872D01*
X157718Y281854D01*
X157676Y282021D01*
X157642Y282190D01*
X157627Y282213D01*
X157620Y282239D01*
X157548Y282336D01*
X157569Y282508D01*
X157703Y282847D01*
X157714Y282859D01*
X157738Y282884D01*
X157958Y282928D01*
X158686Y283414D01*
X159172Y284142D01*
X159343Y285000D01*
X159172Y285858D01*
X158686Y286586D01*
X157958Y287072D01*
X157100Y287243D01*
X156242Y287072D01*
X155514Y286586D01*
X155476Y286529D01*
X154234D01*
X122398Y318365D01*
X122419Y318681D01*
X123053Y319507D01*
X123451Y320468D01*
X123587Y321500D01*
X123451Y322532D01*
X123053Y323493D01*
X122419Y324319D01*
X121593Y324953D01*
X120632Y325351D01*
X119600Y325487D01*
X118568Y325351D01*
X117607Y324953D01*
X116781Y324319D01*
X116147Y323493D01*
X115778Y322602D01*
X115287Y322386D01*
X87639Y350034D01*
X87142Y350366D01*
X86557Y350482D01*
X77940D01*
X77767Y350716D01*
X77941Y351277D01*
X78593Y351547D01*
X79419Y352181D01*
X80053Y353007D01*
X80245Y353471D01*
X106567D01*
X139862Y320175D01*
X140028Y319342D01*
X140514Y318614D01*
X141242Y318128D01*
X142100Y317957D01*
X142958Y318128D01*
X143686Y318614D01*
X143871Y318890D01*
X144371Y318738D01*
Y300236D01*
X144487Y299651D01*
X144819Y299155D01*
X153248Y290726D01*
X153744Y290394D01*
X154329Y290278D01*
X159412D01*
X159729Y289891D01*
X159719Y289839D01*
X159842Y289218D01*
X160085Y288854D01*
X159842Y288491D01*
X159719Y287870D01*
X159842Y287249D01*
X160085Y286886D01*
X159842Y286522D01*
X159718Y285902D01*
X159842Y285281D01*
X160085Y284917D01*
X159842Y284554D01*
X159718Y283933D01*
X159842Y283313D01*
X160085Y282949D01*
X159842Y282585D01*
X159718Y281965D01*
X159842Y281344D01*
X160085Y280980D01*
X159842Y280617D01*
X159718Y279996D01*
X159842Y279376D01*
X160193Y278849D01*
X160720Y278498D01*
X161340Y278374D01*
X168427D01*
X169047Y278498D01*
X169573Y278849D01*
X169925Y279376D01*
X170048Y279996D01*
X169925Y280617D01*
X169682Y280980D01*
X169925Y281344D01*
X170048Y281965D01*
X169925Y282585D01*
X169682Y282949D01*
X169925Y283313D01*
X170048Y283933D01*
X169925Y284554D01*
X169682Y284917D01*
X169925Y285281D01*
X170048Y285902D01*
X169925Y286522D01*
X169682Y286886D01*
X169925Y287249D01*
X170048Y287870D01*
X169925Y288491D01*
X169682Y288854D01*
X169925Y289218D01*
X170048Y289839D01*
X169925Y290459D01*
X169682Y290823D01*
X169925Y291186D01*
X170048Y291807D01*
X169925Y292428D01*
X169682Y292791D01*
X169925Y293155D01*
X170048Y293776D01*
X169925Y294396D01*
X169682Y294760D01*
X169925Y295124D01*
X170048Y295744D01*
X169925Y296365D01*
X169682Y296728D01*
X169925Y297092D01*
X170048Y297713D01*
X169925Y298333D01*
X169682Y298697D01*
X169925Y299061D01*
X170048Y299681D01*
X169925Y300302D01*
X169573Y300828D01*
X169047Y301179D01*
X168427Y301303D01*
X164937D01*
X164679Y301731D01*
X165930Y304109D01*
X170029D01*
Y305537D01*
X170545D01*
Y303421D01*
X170669Y302801D01*
X171020Y302274D01*
X171546Y301923D01*
X172167Y301800D01*
X172787Y301923D01*
X173314Y302274D01*
X173665Y302801D01*
X173789Y303421D01*
Y310508D01*
X173665Y311128D01*
X173314Y311655D01*
X172787Y312006D01*
X172167Y312130D01*
X171546Y312006D01*
X171020Y311655D01*
X170669Y311128D01*
X170545Y310508D01*
Y308392D01*
X170029D01*
Y309179D01*
X164171D01*
Y309120D01*
X163300D01*
X163132Y309086D01*
X162963Y309062D01*
X162938Y309048D01*
X162910Y309042D01*
X162768Y308947D01*
X162620Y308860D01*
X158820Y305460D01*
X158803Y305437D01*
X158779Y305421D01*
X158684Y305279D01*
X158581Y305142D01*
X158574Y305114D01*
X158558Y305090D01*
X158525Y304922D01*
X158482Y304757D01*
X158486Y304728D01*
X158480Y304700D01*
X158480Y303815D01*
X158019Y303623D01*
X154629Y307013D01*
Y307776D01*
X154686Y307814D01*
X155172Y308542D01*
X155343Y309400D01*
X155172Y310258D01*
X154686Y310986D01*
X153958Y311472D01*
X153100Y311643D01*
X152429Y311510D01*
X151929Y311819D01*
Y345347D01*
X152429Y345757D01*
X152868Y345670D01*
X152935Y345683D01*
X176508Y322110D01*
Y318333D01*
X176047Y318142D01*
X175293Y318895D01*
Y321205D01*
X170907D01*
Y316732D01*
X173130D01*
X174573Y315290D01*
Y310962D01*
X174482Y310508D01*
Y303421D01*
X174606Y302801D01*
X174957Y302274D01*
X175483Y301923D01*
X176104Y301800D01*
X176725Y301923D01*
X177088Y302166D01*
X177452Y301923D01*
X178072Y301800D01*
X178693Y301923D01*
X179057Y302166D01*
X179420Y301923D01*
X180041Y301800D01*
X180661Y301923D01*
X181025Y302166D01*
X181389Y301923D01*
X182009Y301800D01*
X182630Y301923D01*
X182994Y302166D01*
X183357Y301923D01*
X183978Y301800D01*
X184599Y301923D01*
X184962Y302166D01*
X185326Y301923D01*
X185947Y301800D01*
X186567Y301923D01*
X186931Y302166D01*
X187294Y301923D01*
X187915Y301800D01*
X188536Y301923D01*
X188899Y302166D01*
X189263Y301923D01*
X189883Y301800D01*
X190504Y301923D01*
X190868Y302166D01*
X191231Y301923D01*
X191852Y301800D01*
X192473Y301923D01*
X192836Y302166D01*
X193200Y301923D01*
X193821Y301800D01*
X194441Y301923D01*
X194805Y302166D01*
X195168Y301923D01*
X195789Y301800D01*
X196410Y301923D01*
X196773Y302166D01*
X197137Y301923D01*
X197757Y301800D01*
X198378Y301923D01*
X198904Y302274D01*
X199256Y302801D01*
X199379Y303421D01*
Y310508D01*
X199287Y310972D01*
Y315965D01*
X200687D01*
Y321035D01*
X196029D01*
Y361403D01*
X216529Y381902D01*
X216860Y382398D01*
X216977Y382983D01*
Y386792D01*
X218202Y388018D01*
X222042D01*
X222284Y387672D01*
X222318Y387531D01*
X222287Y387485D01*
X222171Y386900D01*
Y373534D01*
X206519Y357881D01*
X206187Y357385D01*
X206071Y356800D01*
Y312436D01*
X205684Y312119D01*
X205631Y312130D01*
X205011Y312006D01*
X204647Y311763D01*
X204284Y312006D01*
X203663Y312130D01*
X203042Y312006D01*
X202679Y311763D01*
X202315Y312006D01*
X201694Y312130D01*
X201074Y312006D01*
X200548Y311655D01*
X200196Y311128D01*
X200073Y310508D01*
Y303421D01*
X200196Y302801D01*
X200548Y302274D01*
X201074Y301923D01*
X201694Y301800D01*
X202315Y301923D01*
X202679Y302166D01*
X203042Y301923D01*
X203663Y301800D01*
X204284Y301923D01*
X204647Y302166D01*
X205011Y301923D01*
X205631Y301800D01*
X206252Y301923D01*
X206616Y302166D01*
X206979Y301923D01*
X207600Y301800D01*
X208221Y301923D01*
X208584Y302166D01*
X208948Y301923D01*
X209569Y301800D01*
X210189Y301923D01*
X210553Y302166D01*
X210916Y301923D01*
X211537Y301800D01*
X212158Y301923D01*
X212521Y302166D01*
X212885Y301923D01*
X213506Y301800D01*
X214126Y301923D01*
X214490Y302166D01*
X214853Y301923D01*
X215474Y301800D01*
X216095Y301923D01*
X216458Y302166D01*
X216822Y301923D01*
X217442Y301800D01*
X218063Y301923D01*
X218427Y302166D01*
X218790Y301923D01*
X219411Y301800D01*
X220032Y301923D01*
X220558Y302274D01*
X220909Y302801D01*
X221033Y303421D01*
Y310508D01*
X220940Y310972D01*
Y315965D01*
X222340D01*
Y321035D01*
X216482D01*
Y315965D01*
X217882D01*
Y312436D01*
X217495Y312119D01*
X217442Y312130D01*
X216822Y312006D01*
X216458Y311763D01*
X216095Y312006D01*
X215474Y312130D01*
X215421Y312119D01*
X215035Y312436D01*
Y355672D01*
X228134Y368771D01*
X236408D01*
Y363567D01*
X242392D01*
Y365313D01*
X246597D01*
Y363766D01*
X246690Y363301D01*
X246953Y362907D01*
X247347Y362643D01*
X247812Y362551D01*
X249988D01*
X250453Y362643D01*
X250847Y362907D01*
X251110Y363301D01*
X251145Y363475D01*
X251655D01*
X251690Y363301D01*
X251953Y362907D01*
X252347Y362643D01*
X252812Y362551D01*
X254988D01*
X255453Y362643D01*
X255847Y362907D01*
X256110Y363301D01*
X256145Y363475D01*
X256655D01*
X256690Y363301D01*
X256953Y362907D01*
X257347Y362643D01*
X257812Y362551D01*
X259988D01*
X260453Y362643D01*
X260847Y362907D01*
X261110Y363301D01*
X261145Y363475D01*
X261655D01*
X261690Y363301D01*
X261953Y362907D01*
X262347Y362643D01*
X262812Y362551D01*
X264988D01*
X265453Y362643D01*
X265847Y362907D01*
X266110Y363301D01*
X266203Y363766D01*
Y369878D01*
X266110Y370343D01*
X265847Y370738D01*
X265453Y371001D01*
X264988Y371093D01*
X262812D01*
X262347Y371001D01*
X261953Y370738D01*
X261690Y370343D01*
X261655Y370169D01*
X261145D01*
X261110Y370343D01*
X260847Y370738D01*
X260453Y371001D01*
X259988Y371093D01*
X258929D01*
Y373216D01*
X260353D01*
Y377184D01*
X258929D01*
Y378513D01*
X258813Y379098D01*
X258481Y379594D01*
X256724Y381351D01*
X256228Y381683D01*
X255643Y381799D01*
X242482D01*
X242310Y382299D01*
X242853Y383007D01*
X243251Y383968D01*
X243387Y385000D01*
X243251Y386032D01*
X242853Y386993D01*
X242450Y387518D01*
X242697Y388018D01*
X243947D01*
X244532Y388134D01*
X245029Y388466D01*
X247904Y391341D01*
X248368Y391149D01*
X249400Y391013D01*
X250432Y391149D01*
X251393Y391547D01*
X252219Y392181D01*
X252853Y393007D01*
X253251Y393968D01*
X253387Y395000D01*
X253251Y396032D01*
X252853Y396993D01*
X252219Y397819D01*
X251393Y398453D01*
X250432Y398851D01*
X249400Y398987D01*
D02*
G37*
G36*
X279400D02*
X278368Y398851D01*
X277407Y398453D01*
X276581Y397819D01*
X275947Y396993D01*
X275549Y396032D01*
X275413Y395000D01*
X275549Y393968D01*
X275947Y393007D01*
X276581Y392181D01*
X277407Y391547D01*
X278368Y391149D01*
X279400Y391013D01*
X280432Y391149D01*
X281393Y391547D01*
X282219Y392181D01*
X282853Y393007D01*
X283251Y393968D01*
X283387Y395000D01*
X283251Y396032D01*
X282853Y396993D01*
X282219Y397819D01*
X281393Y398453D01*
X280432Y398851D01*
X279400Y398987D01*
D02*
G37*
G36*
X269400D02*
X268368Y398851D01*
X267407Y398453D01*
X266581Y397819D01*
X265947Y396993D01*
X265549Y396032D01*
X265413Y395000D01*
X265549Y393968D01*
X265947Y393007D01*
X266581Y392181D01*
X267407Y391547D01*
X268368Y391149D01*
X269400Y391013D01*
X270432Y391149D01*
X271393Y391547D01*
X272219Y392181D01*
X272853Y393007D01*
X273251Y393968D01*
X273387Y395000D01*
X273251Y396032D01*
X272853Y396993D01*
X272219Y397819D01*
X271393Y398453D01*
X270432Y398851D01*
X269400Y398987D01*
D02*
G37*
G36*
X259400D02*
X258368Y398851D01*
X257407Y398453D01*
X256581Y397819D01*
X255947Y396993D01*
X255549Y396032D01*
X255413Y395000D01*
X255549Y393968D01*
X255947Y393007D01*
X256581Y392181D01*
X257407Y391547D01*
X258368Y391149D01*
X259400Y391013D01*
X260432Y391149D01*
X261393Y391547D01*
X262219Y392181D01*
X262853Y393007D01*
X263251Y393968D01*
X263387Y395000D01*
X263251Y396032D01*
X262853Y396993D01*
X262219Y397819D01*
X261393Y398453D01*
X260432Y398851D01*
X259400Y398987D01*
D02*
G37*
G36*
X289400Y388987D02*
X288368Y388851D01*
X287407Y388453D01*
X286581Y387819D01*
X285947Y386993D01*
X285549Y386032D01*
X285413Y385000D01*
X285549Y383968D01*
X285947Y383007D01*
X286581Y382181D01*
X287407Y381547D01*
X288368Y381149D01*
X289400Y381013D01*
X290432Y381149D01*
X291393Y381547D01*
X292219Y382181D01*
X292853Y383007D01*
X293251Y383968D01*
X293387Y385000D01*
X293251Y386032D01*
X292853Y386993D01*
X292219Y387819D01*
X291393Y388453D01*
X290432Y388851D01*
X289400Y388987D01*
D02*
G37*
G36*
X279400D02*
X278368Y388851D01*
X277407Y388453D01*
X276581Y387819D01*
X275947Y386993D01*
X275549Y386032D01*
X275413Y385000D01*
X275549Y383968D01*
X275947Y383007D01*
X276581Y382181D01*
X277407Y381547D01*
X278368Y381149D01*
X279400Y381013D01*
X280432Y381149D01*
X281393Y381547D01*
X282219Y382181D01*
X282853Y383007D01*
X283251Y383968D01*
X283387Y385000D01*
X283251Y386032D01*
X282853Y386993D01*
X282219Y387819D01*
X281393Y388453D01*
X280432Y388851D01*
X279400Y388987D01*
D02*
G37*
G36*
X391431Y405049D02*
X46269D01*
X45294Y404855D01*
X44467Y404302D01*
X36720Y396556D01*
X35576Y397168D01*
X33718Y397731D01*
X31785Y397922D01*
X29853Y397731D01*
X27994Y397168D01*
X26282Y396252D01*
X24780Y395020D01*
X23549Y393519D01*
X22633Y391807D01*
X22069Y389948D01*
X21879Y388016D01*
X22069Y386083D01*
X22633Y384225D01*
X23528Y382551D01*
X17298Y376321D01*
X16745Y375494D01*
X16551Y374519D01*
Y249992D01*
X16064D01*
Y244008D01*
X16551D01*
Y47182D01*
X16745Y46206D01*
X17298Y45379D01*
X23528Y39149D01*
X22633Y37476D01*
X22069Y35618D01*
X21879Y33685D01*
X22069Y31752D01*
X22633Y29894D01*
X23549Y28182D01*
X24780Y26680D01*
X26282Y25449D01*
X27994Y24533D01*
X29853Y23969D01*
X31785Y23779D01*
X33718Y23969D01*
X35576Y24533D01*
X36720Y25145D01*
X43168Y18698D01*
X43995Y18145D01*
X44970Y17951D01*
X392730D01*
X393705Y18145D01*
X394532Y18698D01*
X400980Y25145D01*
X402124Y24533D01*
X403982Y23969D01*
X405915Y23779D01*
X407847Y23969D01*
X409706Y24533D01*
X411418Y25449D01*
X412920Y26680D01*
X414151Y28182D01*
X415067Y29894D01*
X415631Y31752D01*
X415821Y33685D01*
X415631Y35618D01*
X415067Y37476D01*
X414151Y39189D01*
X412920Y40690D01*
X411418Y41922D01*
X409706Y42837D01*
X407847Y43401D01*
X405915Y43591D01*
X403982Y43401D01*
X402124Y42837D01*
X400412Y41922D01*
X398910Y40690D01*
X397678Y39189D01*
X396763Y37476D01*
X396199Y35618D01*
X396009Y33685D01*
X396199Y31752D01*
X396763Y29894D01*
X397375Y28750D01*
X391674Y23049D01*
X46026D01*
X40325Y28750D01*
X40937Y29894D01*
X41501Y31752D01*
X41691Y33685D01*
X41501Y35618D01*
X40937Y37476D01*
X40022Y39189D01*
X38790Y40690D01*
X37288Y41922D01*
X35576Y42837D01*
X33718Y43401D01*
X31785Y43591D01*
X29853Y43401D01*
X27994Y42837D01*
X27379Y42508D01*
X21649Y48238D01*
Y244008D01*
X22232D01*
Y249992D01*
X21649D01*
Y373463D01*
X27379Y379193D01*
X27994Y378864D01*
X29853Y378300D01*
X31785Y378110D01*
X33718Y378300D01*
X35576Y378864D01*
X37288Y379779D01*
X38790Y381011D01*
X40022Y382512D01*
X40937Y384225D01*
X41501Y386083D01*
X41691Y388016D01*
X41501Y389948D01*
X40937Y391807D01*
X40325Y392951D01*
X47325Y399951D01*
X390375D01*
X397375Y392951D01*
X396763Y391807D01*
X396199Y389948D01*
X396009Y388016D01*
X396199Y386083D01*
X396763Y384225D01*
X397678Y382512D01*
X398910Y381011D01*
X400412Y379779D01*
X402124Y378864D01*
X403982Y378300D01*
X405915Y378110D01*
X407847Y378300D01*
X409706Y378864D01*
X411418Y379779D01*
X412920Y381011D01*
X414151Y382512D01*
X415067Y384225D01*
X415631Y386083D01*
X415821Y388016D01*
X415631Y389948D01*
X415067Y391807D01*
X414151Y393519D01*
X412920Y395020D01*
X411418Y396252D01*
X409706Y397168D01*
X407847Y397731D01*
X405915Y397922D01*
X403982Y397731D01*
X402124Y397168D01*
X400980Y396556D01*
X393233Y404302D01*
X392406Y404855D01*
X391431Y405049D01*
D02*
G37*
G36*
X289600Y371487D02*
X288568Y371351D01*
X287607Y370953D01*
X286781Y370319D01*
X286147Y369493D01*
X285749Y368532D01*
X285613Y367500D01*
X285749Y366468D01*
X286147Y365507D01*
X286781Y364681D01*
X287607Y364047D01*
X288568Y363649D01*
X289600Y363513D01*
X290632Y363649D01*
X291593Y364047D01*
X292419Y364681D01*
X293053Y365507D01*
X293451Y366468D01*
X293587Y367500D01*
X293451Y368532D01*
X293053Y369493D01*
X292419Y370319D01*
X291593Y370953D01*
X290632Y371351D01*
X289600Y371487D01*
D02*
G37*
G36*
Y361487D02*
X288568Y361351D01*
X287607Y360953D01*
X286781Y360319D01*
X286147Y359493D01*
X285749Y358532D01*
X285613Y357500D01*
X285749Y356468D01*
X286147Y355507D01*
X286781Y354681D01*
X287607Y354047D01*
X288568Y353649D01*
X289600Y353513D01*
X290632Y353649D01*
X291593Y354047D01*
X292419Y354681D01*
X293053Y355507D01*
X293451Y356468D01*
X293587Y357500D01*
X293451Y358532D01*
X293053Y359493D01*
X292419Y360319D01*
X291593Y360953D01*
X290632Y361351D01*
X289600Y361487D01*
D02*
G37*
G36*
X264988Y348849D02*
X262812D01*
X262347Y348757D01*
X261953Y348493D01*
X261690Y348099D01*
X261655Y347924D01*
X261145D01*
X261110Y348099D01*
X260847Y348493D01*
X260453Y348757D01*
X259988Y348849D01*
X257812D01*
X257347Y348757D01*
X256953Y348493D01*
X256690Y348099D01*
X256597Y347634D01*
Y341522D01*
X256690Y341057D01*
X256953Y340663D01*
X257116Y340554D01*
Y338972D01*
X256281D01*
Y334098D01*
X256232Y334070D01*
X256209Y334041D01*
X256179Y334021D01*
X256088Y333885D01*
X255988Y333756D01*
X255288Y332356D01*
X255278Y332321D01*
X255258Y332290D01*
X255226Y332130D01*
X255183Y331972D01*
X255188Y331936D01*
X255180Y331900D01*
Y328600D01*
X255258Y328210D01*
X255479Y327879D01*
X255810Y327658D01*
X256200Y327580D01*
X261700D01*
X261871Y327614D01*
X262371Y327290D01*
Y326433D01*
X257966Y322029D01*
X245446D01*
X245254Y322491D01*
X249981Y327219D01*
X250313Y327715D01*
X250429Y328300D01*
Y340394D01*
X250453Y340399D01*
X250847Y340663D01*
X251110Y341057D01*
X251203Y341522D01*
Y347634D01*
X251110Y348099D01*
X250847Y348493D01*
X250453Y348757D01*
X249988Y348849D01*
X247812D01*
X247347Y348757D01*
X246953Y348493D01*
X246690Y348099D01*
X246597Y347634D01*
Y341522D01*
X246690Y341057D01*
X246953Y340663D01*
X247347Y340399D01*
X247371Y340394D01*
Y328934D01*
X238015Y319578D01*
X237683Y319081D01*
X237567Y318496D01*
Y312436D01*
X237180Y312119D01*
X237128Y312130D01*
X236507Y312006D01*
X236143Y311763D01*
X235780Y312006D01*
X235159Y312130D01*
X234539Y312006D01*
X234175Y311763D01*
X233811Y312006D01*
X233191Y312130D01*
X232570Y312006D01*
X232206Y311763D01*
X231843Y312006D01*
X231222Y312130D01*
X230601Y312006D01*
X230238Y311763D01*
X229874Y312006D01*
X229254Y312130D01*
X228633Y312006D01*
X228269Y311763D01*
X227906Y312006D01*
X227285Y312130D01*
X226664Y312006D01*
X226301Y311763D01*
X225937Y312006D01*
X225317Y312130D01*
X224696Y312006D01*
X224332Y311763D01*
X223969Y312006D01*
X223348Y312130D01*
X222727Y312006D01*
X222201Y311655D01*
X221850Y311128D01*
X221726Y310508D01*
Y303421D01*
X221850Y302801D01*
X222201Y302274D01*
X222727Y301923D01*
X223348Y301800D01*
X223969Y301923D01*
X224332Y302166D01*
X224696Y301923D01*
X225317Y301800D01*
X225937Y301923D01*
X226301Y302166D01*
X226664Y301923D01*
X227285Y301800D01*
X227906Y301923D01*
X228269Y302166D01*
X228633Y301923D01*
X229254Y301800D01*
X229874Y301923D01*
X230238Y302166D01*
X230601Y301923D01*
X231222Y301800D01*
X231843Y301923D01*
X232206Y302166D01*
X232570Y301923D01*
X233191Y301800D01*
X233811Y301923D01*
X234175Y302166D01*
X234539Y301923D01*
X235159Y301800D01*
X235780Y301923D01*
X236143Y302166D01*
X236507Y301923D01*
X237128Y301800D01*
X237748Y301923D01*
X238112Y302166D01*
X238475Y301923D01*
X239096Y301800D01*
X239717Y301923D01*
X240080Y302166D01*
X240444Y301923D01*
X241065Y301800D01*
X241685Y301923D01*
X242211Y302274D01*
X242563Y302801D01*
X242686Y303421D01*
Y310508D01*
X242594Y310972D01*
Y316831D01*
X244734Y318971D01*
X258600D01*
X259185Y319087D01*
X259681Y319419D01*
X264981Y324719D01*
X265313Y325215D01*
X265429Y325800D01*
Y340394D01*
X265453Y340399D01*
X265847Y340663D01*
X266110Y341057D01*
X266203Y341522D01*
Y347634D01*
X266110Y348099D01*
X265847Y348493D01*
X265453Y348757D01*
X264988Y348849D01*
D02*
G37*
G36*
X289600Y351487D02*
X288568Y351351D01*
X287607Y350953D01*
X286781Y350319D01*
X286147Y349493D01*
X285749Y348532D01*
X285613Y347500D01*
X285749Y346468D01*
X286147Y345507D01*
X286781Y344681D01*
X287607Y344047D01*
X288568Y343649D01*
X289600Y343513D01*
X290632Y343649D01*
X291593Y344047D01*
X292419Y344681D01*
X293053Y345507D01*
X293451Y346468D01*
X293587Y347500D01*
X293451Y348532D01*
X293053Y349493D01*
X292419Y350319D01*
X291593Y350953D01*
X290632Y351351D01*
X289600Y351487D01*
D02*
G37*
G36*
X123553Y335453D02*
X115647D01*
Y327547D01*
X123553D01*
Y335453D01*
D02*
G37*
G36*
X414300Y324920D02*
X403355D01*
X403353Y324919D01*
X403350Y324920D01*
X403157Y324880D01*
X402965Y324842D01*
X402963Y324840D01*
X402960Y324840D01*
X402798Y324730D01*
X402634Y324621D01*
X402633Y324619D01*
X402631Y324617D01*
X402279Y324262D01*
X402278Y324260D01*
X402275Y324258D01*
X402168Y324094D01*
X402060Y323930D01*
X402059Y323927D01*
X402058Y323925D01*
X402021Y323732D01*
X401984Y323539D01*
X401985Y323537D01*
X401984Y323534D01*
X402281Y294889D01*
X402320Y294700D01*
X402358Y294510D01*
X402361Y294505D01*
X402362Y294500D01*
X402471Y294340D01*
X402579Y294179D01*
X402879Y293879D01*
X403210Y293658D01*
X403600Y293580D01*
X414400D01*
X414790Y293658D01*
X415121Y293879D01*
X415342Y294210D01*
X415420Y294600D01*
Y323800D01*
X415342Y324190D01*
X415121Y324521D01*
X415021Y324621D01*
X414690Y324842D01*
X414300Y324920D01*
D02*
G37*
G36*
X289600Y331487D02*
X288568Y331351D01*
X287607Y330953D01*
X286781Y330319D01*
X286147Y329493D01*
X285749Y328532D01*
X285613Y327500D01*
X285749Y326468D01*
X286147Y325507D01*
X286781Y324681D01*
X287607Y324047D01*
X288568Y323649D01*
X289600Y323513D01*
X290632Y323649D01*
X291593Y324047D01*
X292419Y324681D01*
X293053Y325507D01*
X293451Y326468D01*
X293587Y327500D01*
X293451Y328532D01*
X293053Y329493D01*
X292419Y330319D01*
X291593Y330953D01*
X290632Y331351D01*
X289600Y331487D01*
D02*
G37*
G36*
Y321487D02*
X288568Y321351D01*
X287607Y320953D01*
X286781Y320319D01*
X286147Y319493D01*
X285749Y318532D01*
X285613Y317500D01*
X285749Y316468D01*
X286147Y315507D01*
X286781Y314681D01*
X287607Y314047D01*
X288568Y313649D01*
X289600Y313513D01*
X290632Y313649D01*
X291593Y314047D01*
X292419Y314681D01*
X293053Y315507D01*
X293451Y316468D01*
X293587Y317500D01*
X293451Y318532D01*
X293053Y319493D01*
X292419Y320319D01*
X291593Y320953D01*
X290632Y321351D01*
X289600Y321487D01*
D02*
G37*
G36*
Y265487D02*
X288568Y265351D01*
X287607Y264953D01*
X286781Y264319D01*
X286147Y263493D01*
X285749Y262532D01*
X285613Y261500D01*
X285749Y260468D01*
X286147Y259507D01*
X286781Y258681D01*
X287607Y258047D01*
X288568Y257649D01*
X289600Y257513D01*
X290632Y257649D01*
X291593Y258047D01*
X292419Y258681D01*
X293053Y259507D01*
X293451Y260468D01*
X293587Y261500D01*
X293451Y262532D01*
X293053Y263493D01*
X292419Y264319D01*
X291593Y264953D01*
X290632Y265351D01*
X289600Y265487D01*
D02*
G37*
G36*
X251891Y277681D02*
X244805D01*
X244184Y277557D01*
X243658Y277206D01*
X243306Y276680D01*
X243183Y276059D01*
X243306Y275438D01*
X243549Y275075D01*
X243306Y274711D01*
X243183Y274091D01*
X243306Y273470D01*
X243549Y273106D01*
X243306Y272743D01*
X243183Y272122D01*
X243306Y271501D01*
X243549Y271138D01*
X243306Y270774D01*
X243183Y270153D01*
X243306Y269533D01*
X243549Y269169D01*
X243306Y268806D01*
X243183Y268185D01*
X243306Y267564D01*
X243549Y267201D01*
X243306Y266837D01*
X243183Y266216D01*
X243306Y265596D01*
X243549Y265232D01*
X243306Y264869D01*
X243183Y264248D01*
X243306Y263627D01*
X243549Y263264D01*
X243306Y262900D01*
X243183Y262280D01*
X243306Y261659D01*
X243549Y261295D01*
X243306Y260932D01*
X243183Y260311D01*
X243306Y259690D01*
X243658Y259164D01*
X244184Y258813D01*
X244805Y258689D01*
X251891D01*
X252356Y258782D01*
X255065D01*
Y257071D01*
X255406D01*
Y256000D01*
X255580Y255122D01*
X256078Y254378D01*
X256822Y253881D01*
X257700Y253706D01*
X258578Y253881D01*
X259322Y254378D01*
X259820Y255122D01*
X259994Y256000D01*
Y257071D01*
X260135D01*
Y262929D01*
X255065D01*
Y261840D01*
X253820D01*
X253503Y262227D01*
X253513Y262280D01*
X253390Y262900D01*
X253147Y263264D01*
X253390Y263627D01*
X253513Y264248D01*
X253390Y264869D01*
X253147Y265232D01*
X253390Y265596D01*
X253513Y266216D01*
X253390Y266837D01*
X253147Y267201D01*
X253390Y267564D01*
X253513Y268185D01*
X253390Y268806D01*
X253147Y269169D01*
X253390Y269533D01*
X253513Y270153D01*
X253390Y270774D01*
X253147Y271138D01*
X253390Y271501D01*
X253513Y272122D01*
X253390Y272743D01*
X253147Y273106D01*
X253390Y273470D01*
X253513Y274091D01*
X253390Y274711D01*
X253147Y275075D01*
X253390Y275438D01*
X253513Y276059D01*
X253390Y276680D01*
X253038Y277206D01*
X252512Y277557D01*
X251891Y277681D01*
D02*
G37*
G36*
X414538Y241458D02*
X414148Y241380D01*
X414057Y241320D01*
X403100D01*
X402912Y241282D01*
X402723Y241247D01*
X402717Y241243D01*
X402710Y241242D01*
X402550Y241135D01*
X402389Y241031D01*
X402385Y241025D01*
X402379Y241021D01*
X402272Y240861D01*
X402163Y240703D01*
X402162Y240696D01*
X402158Y240690D01*
X402120Y240502D01*
X402080Y240314D01*
X401685Y210974D01*
X401686Y210971D01*
X401685Y210967D01*
X401722Y210776D01*
X401758Y210583D01*
X401760Y210580D01*
X401760Y210576D01*
X401868Y210414D01*
X401974Y210249D01*
X401977Y210247D01*
X401979Y210244D01*
X402434Y209784D01*
X402437Y209782D01*
X402439Y209779D01*
X402602Y209670D01*
X402764Y209560D01*
X402767Y209560D01*
X402770Y209558D01*
X402962Y209520D01*
X403154Y209480D01*
X403157Y209481D01*
X403160Y209480D01*
X415000D01*
X415390Y209558D01*
X415721Y209779D01*
X415942Y210110D01*
X416020Y210500D01*
Y240247D01*
X415942Y240637D01*
X415721Y240968D01*
X415390Y241189D01*
X415390Y241189D01*
X414928Y241380D01*
X414928Y241380D01*
X414538Y241458D01*
D02*
G37*
G36*
X237100Y68434D02*
X235952Y68283D01*
X234883Y67840D01*
X233965Y67135D01*
X233260Y66217D01*
X232818Y65148D01*
X232666Y64000D01*
X232818Y62853D01*
X233260Y61783D01*
X233965Y60865D01*
X234883Y60160D01*
X235952Y59718D01*
X237100Y59566D01*
X238247Y59718D01*
X239317Y60160D01*
X240235Y60865D01*
X240940Y61783D01*
X241383Y62853D01*
X241534Y64000D01*
X241383Y65148D01*
X240940Y66217D01*
X240235Y67135D01*
X239317Y67840D01*
X238247Y68283D01*
X237100Y68434D01*
D02*
G37*
%LPD*%
G36*
X212295Y388023D02*
X212271Y387900D01*
Y384091D01*
X206844Y378664D01*
X206382Y378856D01*
Y385409D01*
X209495Y388523D01*
X211885D01*
X212295Y388023D01*
D02*
G37*
G36*
X225947Y383007D02*
X226581Y382181D01*
X227407Y381547D01*
X228368Y381149D01*
X229400Y381013D01*
X230432Y381149D01*
X231393Y381547D01*
X231422Y381569D01*
X231973Y381362D01*
X231987Y381289D01*
X232319Y380793D01*
X235923Y377189D01*
X236419Y376857D01*
X237004Y376741D01*
X238838D01*
X239089Y376241D01*
X239007Y376129D01*
X227521D01*
X226936Y376013D01*
X226440Y375681D01*
X225691Y374933D01*
X225229Y375124D01*
Y383433D01*
X225729Y383533D01*
X225947Y383007D01*
D02*
G37*
G36*
X252447Y373216D02*
X253871D01*
Y371093D01*
X252812D01*
X252347Y371001D01*
X251953Y370738D01*
X251690Y370343D01*
X251655Y370169D01*
X251145D01*
X251110Y370343D01*
X250847Y370738D01*
X250453Y371001D01*
X249988Y371093D01*
X247812D01*
X247347Y371001D01*
X247282Y371111D01*
X247272Y371158D01*
X246786Y371886D01*
X246058Y372372D01*
X245537Y372476D01*
X245542Y372500D01*
X245371Y373358D01*
X244885Y374086D01*
X244157Y374572D01*
X243299Y374743D01*
X243218Y374727D01*
X243072Y375458D01*
X242586Y376186D01*
X242505Y376241D01*
X242656Y376741D01*
X252447D01*
Y373216D01*
D02*
G37*
G36*
X414400Y354000D02*
X379769Y350834D01*
X379400Y351171D01*
Y352001D01*
X382200D01*
X382785Y352118D01*
X383281Y352449D01*
X383613Y352945D01*
X383729Y353531D01*
X383613Y354116D01*
X383281Y354612D01*
X382785Y354944D01*
X382200Y355060D01*
X379400D01*
Y357932D01*
X392900Y361500D01*
X403900Y364900D01*
X414400D01*
Y354000D01*
D02*
G37*
G36*
X352901Y354139D02*
X358099D01*
Y354816D01*
X359510D01*
X359942Y354528D01*
X360800Y354357D01*
X361256Y354448D01*
X361681Y354022D01*
X361657Y353900D01*
X361828Y353042D01*
X362314Y352314D01*
X362371Y352276D01*
Y350829D01*
X356633D01*
X355413Y352050D01*
X354917Y352381D01*
X354331Y352498D01*
X348499D01*
Y353461D01*
X346303D01*
X346112Y353923D01*
X347833Y355644D01*
X347833Y355644D01*
X352121Y359931D01*
X352901D01*
Y354139D01*
D02*
G37*
G36*
X366671Y346113D02*
Y344830D01*
X366601Y344761D01*
X363696D01*
Y343616D01*
X362292D01*
X361758Y343972D01*
X360900Y344143D01*
X360042Y343972D01*
X359508Y343616D01*
X358099D01*
Y345239D01*
X363169D01*
X363754Y345356D01*
X364250Y345687D01*
X364734Y346171D01*
X366600D01*
X366671Y346113D01*
D02*
G37*
G36*
X414300Y345600D02*
X414397Y335260D01*
X413940Y334800D01*
X405500D01*
X405400Y334700D01*
X395200Y337600D01*
X379400Y341624D01*
Y343340D01*
X382200D01*
X382785Y343456D01*
X383281Y343788D01*
X383613Y344284D01*
X383729Y344869D01*
X383613Y345455D01*
X383281Y345951D01*
X382785Y346282D01*
X382200Y346399D01*
X379400D01*
Y347268D01*
X379410Y347323D01*
X379605Y347756D01*
X414300Y345600D01*
D02*
G37*
G36*
X183200Y332288D02*
Y328500D01*
X178253D01*
X177900Y328854D01*
X177900Y332500D01*
X178500Y333100D01*
X182700D01*
X183200Y332288D01*
D02*
G37*
G36*
X183771Y327123D02*
Y324472D01*
X182032Y322734D01*
X181570Y322925D01*
Y324448D01*
X181454Y325033D01*
X181122Y325529D01*
X179633Y327018D01*
X179824Y327480D01*
X183200D01*
X183271Y327495D01*
X183771Y327123D01*
D02*
G37*
G36*
X116881Y316466D02*
X117377Y316134D01*
X117963Y316018D01*
X120093D01*
X120155Y315918D01*
X119855Y315453D01*
X119600Y315487D01*
X118568Y315351D01*
X117607Y314953D01*
X116781Y314319D01*
X116147Y313493D01*
X115749Y312532D01*
X115613Y311500D01*
X115749Y310468D01*
X116147Y309507D01*
X116781Y308681D01*
X117607Y308047D01*
X118568Y307649D01*
X119600Y307513D01*
X120632Y307649D01*
X121593Y308047D01*
X122419Y308681D01*
X123053Y309507D01*
X123451Y310468D01*
X123587Y311500D01*
X123489Y312241D01*
X123963Y312474D01*
X129918Y306520D01*
X129710Y306020D01*
X116200D01*
X115810Y305942D01*
X115479Y305721D01*
X114879Y305121D01*
X114658Y304790D01*
X114580Y304400D01*
Y300390D01*
X114080Y300183D01*
X78129Y336134D01*
Y341355D01*
X78593Y341547D01*
X79419Y342181D01*
X80053Y343007D01*
X80451Y343968D01*
X80587Y345000D01*
X80451Y346032D01*
X80082Y346923D01*
X80276Y347423D01*
X85924D01*
X116881Y316466D01*
D02*
G37*
G36*
X191471Y322951D02*
Y313979D01*
X191587Y313393D01*
X191919Y312897D01*
X192008Y312808D01*
X191977Y312230D01*
X191852Y312130D01*
X191231Y312006D01*
X190868Y311763D01*
X190504Y312006D01*
X189883Y312130D01*
X189263Y312006D01*
X188899Y311763D01*
X188536Y312006D01*
X187915Y312130D01*
X187862Y312119D01*
X187476Y312436D01*
Y319609D01*
X191009Y323142D01*
X191471Y322951D01*
D02*
G37*
G36*
X343301Y347931D02*
Y343539D01*
X344116D01*
Y342345D01*
X344251Y341663D01*
X344638Y341084D01*
X345184Y340538D01*
X345763Y340152D01*
X346445Y340016D01*
X346445Y340016D01*
X348370D01*
X348605Y339575D01*
X348528Y339458D01*
X348357Y338600D01*
X348528Y337742D01*
X348971Y337079D01*
Y303224D01*
X348914Y303186D01*
X348876Y303129D01*
X341264D01*
X340997Y303629D01*
X341272Y304042D01*
X341443Y304900D01*
X341272Y305758D01*
X340786Y306486D01*
X340629Y306591D01*
Y345967D01*
X342801Y348138D01*
X343301Y347931D01*
D02*
G37*
G36*
X166003Y307804D02*
X166055Y307600D01*
X165781Y307190D01*
X165673Y306644D01*
X165781Y306098D01*
X166047Y305700D01*
X165973Y305429D01*
X165841Y305200D01*
X165400D01*
X165300Y305100D01*
X163302Y301303D01*
X161340D01*
X161326Y301300D01*
X161300D01*
X159500Y303100D01*
X159500Y304700D01*
X163300Y308100D01*
X165830D01*
X166003Y307804D01*
D02*
G37*
G36*
X157612Y299704D02*
X157421Y299242D01*
X155421D01*
X151929Y302733D01*
Y304680D01*
X152429Y304887D01*
X157612Y299704D01*
D02*
G37*
G36*
X328646Y299609D02*
X323519Y294482D01*
X292897D01*
X292650Y294982D01*
X293053Y295507D01*
X293451Y296468D01*
X293587Y297500D01*
X293451Y298532D01*
X293053Y299493D01*
X292954Y299622D01*
X293175Y300071D01*
X328454D01*
X328646Y299609D01*
D02*
G37*
G36*
X285814Y299880D02*
X285921Y299756D01*
X286087Y299347D01*
X285749Y298532D01*
X285613Y297500D01*
X285749Y296468D01*
X286147Y295507D01*
X286550Y294982D01*
X286303Y294482D01*
X285819D01*
X285234Y294366D01*
X284738Y294034D01*
X284040Y293337D01*
X279653D01*
X279461Y293798D01*
X285573Y299910D01*
X285814Y299880D01*
D02*
G37*
G36*
X152519Y283919D02*
X153015Y283587D01*
X153600Y283471D01*
X155181D01*
X155304Y283320D01*
X155066Y282820D01*
X146422Y282820D01*
X143721Y285521D01*
X143720Y285522D01*
Y292010D01*
X144220Y292217D01*
X152519Y283919D01*
D02*
G37*
G36*
X135780Y290078D02*
Y284809D01*
X135687Y279680D01*
X135688Y279675D01*
X135687Y279670D01*
X135723Y279479D01*
X135758Y279288D01*
X135760Y279284D01*
X135761Y279279D01*
X135868Y279117D01*
X135973Y278954D01*
X135977Y278951D01*
X135980Y278946D01*
X136433Y278485D01*
X136437Y278483D01*
X136439Y278479D01*
X136601Y278371D01*
X136762Y278261D01*
X136767Y278260D01*
X136770Y278258D01*
X136961Y278220D01*
X137152Y278180D01*
X137156Y278181D01*
X137160Y278180D01*
X153065D01*
Y273071D01*
X158135D01*
Y274530D01*
X159412D01*
X159729Y274143D01*
X159718Y274091D01*
X159842Y273470D01*
X160085Y273106D01*
X159842Y272743D01*
X159718Y272122D01*
X159729Y272069D01*
X159412Y271683D01*
X141546D01*
X135195Y278034D01*
X134699Y278366D01*
X134114Y278482D01*
X117341D01*
X116756Y278366D01*
X116260Y278034D01*
X113888Y275662D01*
X102632D01*
X102084Y276210D01*
X102084Y277917D01*
X102084Y278417D01*
Y281953D01*
X98116D01*
Y281649D01*
X95709D01*
Y282021D01*
X90166D01*
Y274510D01*
X95709D01*
Y278387D01*
X98042D01*
X98116Y277917D01*
X98116Y277583D01*
Y274047D01*
X99921D01*
X100917Y273051D01*
X101413Y272720D01*
X101998Y272603D01*
X112297D01*
X112489Y272142D01*
X105859Y265511D01*
X102438D01*
X102084Y265865D01*
X102084Y266417D01*
Y269953D01*
X98116D01*
Y269649D01*
X95709D01*
Y270021D01*
X90166D01*
Y262509D01*
X95709D01*
Y266387D01*
X98042D01*
X98116Y265917D01*
X98116Y265583D01*
Y262047D01*
X102084D01*
Y262453D01*
X106492D01*
X107077Y262569D01*
X107573Y262901D01*
X118596Y273923D01*
X132859D01*
X138574Y268208D01*
X138383Y267746D01*
X115384D01*
X114798Y267630D01*
X114302Y267298D01*
X102546Y255542D01*
X102084Y255733D01*
Y256953D01*
X98116D01*
Y256770D01*
X96498D01*
Y256968D01*
X88789D01*
Y251031D01*
X96498D01*
Y253507D01*
X97933D01*
X98116Y253083D01*
Y252917D01*
X98116D01*
X98116Y252583D01*
Y249047D01*
X102084D01*
Y250754D01*
X116017Y264687D01*
X116494D01*
X116680Y264187D01*
X116147Y263493D01*
X115749Y262532D01*
X115613Y261500D01*
X115749Y260468D01*
X116147Y259507D01*
X116781Y258681D01*
X117607Y258047D01*
X118568Y257649D01*
X119600Y257513D01*
X120632Y257649D01*
X121593Y258047D01*
X122419Y258681D01*
X123053Y259507D01*
X123451Y260468D01*
X123587Y261500D01*
X123451Y262532D01*
X123053Y263493D01*
X122520Y264187D01*
X122706Y264687D01*
X126480D01*
X126747Y264187D01*
X126528Y263858D01*
X126357Y263000D01*
X126528Y262142D01*
X127014Y261414D01*
X127742Y260928D01*
X128600Y260757D01*
X128667Y260770D01*
X138082Y251356D01*
X138578Y251024D01*
X139163Y250908D01*
X159412D01*
X159729Y250521D01*
X159719Y250468D01*
X159842Y249848D01*
X160085Y249484D01*
X159842Y249121D01*
X159719Y248500D01*
X159842Y247879D01*
X160085Y247516D01*
X159842Y247152D01*
X159719Y246532D01*
X159842Y245911D01*
X159957Y245738D01*
X159782Y245243D01*
X159310Y245112D01*
X158935Y245363D01*
X158350Y245479D01*
X157012D01*
Y247669D01*
X150262D01*
Y240235D01*
X144724D01*
X144139Y240119D01*
X143643Y239787D01*
X125519Y221663D01*
X125187Y221166D01*
X125071Y220581D01*
Y188033D01*
X124783Y187603D01*
X124612Y186744D01*
X124715Y186229D01*
X124332Y185729D01*
X58924D01*
X58886Y185786D01*
X58158Y186272D01*
X57300Y186443D01*
X56442Y186272D01*
X55714Y185786D01*
X55228Y185058D01*
X55191Y184876D01*
X54691Y184925D01*
Y188703D01*
X54517Y189581D01*
X54019Y190325D01*
X51000Y193344D01*
X51087Y194000D01*
X50951Y195032D01*
X50553Y195993D01*
X49919Y196819D01*
X49093Y197453D01*
X48132Y197851D01*
X47100Y197987D01*
X46068Y197851D01*
X45107Y197453D01*
X44281Y196819D01*
X43647Y195993D01*
X43249Y195032D01*
X43113Y194000D01*
X43249Y192968D01*
X43647Y192007D01*
X44281Y191181D01*
X45107Y190547D01*
X46068Y190149D01*
X47100Y190013D01*
X47756Y190100D01*
X50103Y187752D01*
Y178262D01*
X49758Y177978D01*
X44442D01*
X43937Y177878D01*
X43509Y177591D01*
X43222Y177163D01*
X43122Y176657D01*
Y171343D01*
X43222Y170837D01*
X43509Y170409D01*
X43937Y170122D01*
X44442Y170022D01*
X49758D01*
X50103Y169738D01*
Y167308D01*
X49603Y167062D01*
X49093Y167453D01*
X48132Y167851D01*
X47100Y167987D01*
X46068Y167851D01*
X45107Y167453D01*
X44281Y166819D01*
X43647Y165993D01*
X43249Y165032D01*
X43113Y164000D01*
X43249Y162968D01*
X43647Y162007D01*
X44281Y161181D01*
X45107Y160547D01*
X46068Y160149D01*
X47100Y160013D01*
X48132Y160149D01*
X49093Y160547D01*
X49603Y160938D01*
X50103Y160692D01*
Y156843D01*
X49128D01*
Y147757D01*
X55261D01*
Y156843D01*
X54691D01*
Y170309D01*
X55191Y170512D01*
X56068Y170149D01*
X57100Y170013D01*
X58132Y170149D01*
X58596Y170341D01*
X60221Y168716D01*
Y163759D01*
X60338Y163174D01*
X60669Y162678D01*
X65329Y158019D01*
X65380Y157984D01*
X65497Y157305D01*
X65434Y157220D01*
X62100D01*
X61710Y157142D01*
X61379Y156921D01*
X61327Y156843D01*
X60939D01*
Y147757D01*
X62407D01*
X150030Y141683D01*
X150062Y141687D01*
X150093Y141680D01*
X213228Y141252D01*
Y131520D01*
X212400D01*
X212010Y131442D01*
X211997Y131433D01*
X210974D01*
Y125890D01*
X211953D01*
X212000Y125880D01*
X222000D01*
X222390Y125958D01*
X222721Y126179D01*
X222942Y126510D01*
X223020Y126900D01*
Y132180D01*
X235800Y132180D01*
X236190Y132258D01*
X236521Y132479D01*
X251622Y147580D01*
X297100D01*
X297477Y147655D01*
X298357D01*
Y156742D01*
X297974D01*
X297921Y156821D01*
X297590Y157042D01*
X297200Y157120D01*
X256324D01*
X253820Y220210D01*
X253884Y220271D01*
X254281Y220456D01*
X284319Y190419D01*
X284815Y190087D01*
X285400Y189971D01*
X285647D01*
Y187547D01*
X293071D01*
Y181500D01*
X293187Y180915D01*
X293519Y180419D01*
X298122Y175815D01*
Y171343D01*
X298222Y170837D01*
X298509Y170409D01*
X298937Y170122D01*
X299443Y170022D01*
X304509D01*
Y167691D01*
X304009Y167488D01*
X303132Y167851D01*
X302100Y167987D01*
X301068Y167851D01*
X300107Y167453D01*
X299281Y166819D01*
X298647Y165993D01*
X298249Y165032D01*
X298113Y164000D01*
X298249Y162968D01*
X298647Y162007D01*
X299281Y161181D01*
X300107Y160547D01*
X301068Y160149D01*
X302100Y160013D01*
X303132Y160149D01*
X304009Y160512D01*
X304509Y160309D01*
Y156742D01*
X304034D01*
Y147655D01*
X310168D01*
Y156742D01*
X309097D01*
Y163900D01*
Y170692D01*
X309597Y170938D01*
X310107Y170547D01*
X311068Y170149D01*
X312100Y170013D01*
X313132Y170149D01*
X313596Y170341D01*
X315221Y168716D01*
Y163759D01*
X315338Y163174D01*
X315669Y162678D01*
X319381Y158966D01*
X319877Y158634D01*
X320463Y158518D01*
X333737D01*
X334323Y158634D01*
X334819Y158966D01*
X338098Y162245D01*
X338589Y162148D01*
X338647Y162007D01*
X339281Y161181D01*
X340107Y160547D01*
X341068Y160149D01*
X342100Y160013D01*
X343132Y160149D01*
X344093Y160547D01*
X344919Y161181D01*
X345553Y162007D01*
X345951Y162968D01*
X346087Y164000D01*
X345951Y165032D01*
X345553Y165993D01*
X344919Y166819D01*
X344093Y167453D01*
X343132Y167851D01*
X342100Y167987D01*
X341068Y167851D01*
X340107Y167453D01*
X339582Y167050D01*
X339082Y167297D01*
Y170703D01*
X339582Y170950D01*
X340107Y170547D01*
X341068Y170149D01*
X342100Y170013D01*
X343132Y170149D01*
X344093Y170547D01*
X344919Y171181D01*
X345371Y171769D01*
X345871Y171599D01*
Y168700D01*
X345987Y168115D01*
X346319Y167619D01*
X348441Y165496D01*
X348249Y165032D01*
X348113Y164000D01*
X348249Y162968D01*
X348647Y162007D01*
X349281Y161181D01*
X350107Y160547D01*
X351068Y160149D01*
X352100Y160013D01*
X353132Y160149D01*
X354093Y160547D01*
X354919Y161181D01*
X355553Y162007D01*
X355951Y162968D01*
X356087Y164000D01*
X355951Y165032D01*
X355553Y165993D01*
X354919Y166819D01*
X354093Y167453D01*
X353132Y167851D01*
X352100Y167987D01*
X351068Y167851D01*
X350604Y167659D01*
X348929Y169334D01*
Y170866D01*
X349429Y171067D01*
X350107Y170547D01*
X351068Y170149D01*
X352100Y170013D01*
X353132Y170149D01*
X354093Y170547D01*
X354919Y171181D01*
X355553Y172007D01*
X355951Y172968D01*
X356087Y174000D01*
X355951Y175032D01*
X355553Y175993D01*
X354919Y176819D01*
X354093Y177453D01*
X353132Y177851D01*
X352100Y177987D01*
X351068Y177851D01*
X350107Y177453D01*
X349429Y176933D01*
X348929Y177134D01*
Y183110D01*
X348813Y183695D01*
X348481Y184191D01*
X342986Y189687D01*
X343202Y190178D01*
X344093Y190547D01*
X344919Y191181D01*
X345553Y192007D01*
X345951Y192968D01*
X346087Y194000D01*
X345951Y195032D01*
X345553Y195993D01*
X344919Y196819D01*
X344093Y197453D01*
X343132Y197851D01*
X342100Y197987D01*
X341068Y197851D01*
X340107Y197453D01*
X340078Y197431D01*
X339629Y197652D01*
Y200348D01*
X340078Y200569D01*
X340107Y200547D01*
X341068Y200149D01*
X342100Y200013D01*
X343132Y200149D01*
X344093Y200547D01*
X344919Y201181D01*
X345553Y202007D01*
X345951Y202968D01*
X346087Y204000D01*
X345951Y205032D01*
X345553Y205993D01*
X344919Y206819D01*
X344093Y207453D01*
X343132Y207851D01*
X342100Y207987D01*
X341068Y207851D01*
X340107Y207453D01*
X340078Y207431D01*
X339629Y207652D01*
Y215121D01*
X339513Y215707D01*
X339181Y216203D01*
X316903Y238481D01*
X316407Y238813D01*
X315821Y238929D01*
X293175D01*
X292954Y239378D01*
X293053Y239507D01*
X293451Y240468D01*
X293587Y241500D01*
X293451Y242532D01*
X293053Y243493D01*
X292419Y244319D01*
X292222Y244471D01*
X292391Y244971D01*
X324557D01*
X361214Y208313D01*
X360998Y207822D01*
X360107Y207453D01*
X359281Y206819D01*
X358647Y205993D01*
X358249Y205032D01*
X358113Y204000D01*
X358249Y202968D01*
X358647Y202007D01*
X359281Y201181D01*
X360107Y200547D01*
X361068Y200149D01*
X362100Y200013D01*
X363132Y200149D01*
X364093Y200547D01*
X364919Y201181D01*
X365553Y202007D01*
X365922Y202898D01*
X366413Y203114D01*
X385364Y184164D01*
Y176973D01*
X384863Y176862D01*
X384093Y177453D01*
X383132Y177851D01*
X382100Y177987D01*
X381068Y177851D01*
X380107Y177453D01*
X379281Y176819D01*
X378647Y175993D01*
X378249Y175032D01*
X378113Y174000D01*
X378249Y172968D01*
X378647Y172007D01*
X379281Y171181D01*
X380107Y170547D01*
X381068Y170149D01*
X382100Y170013D01*
X383132Y170149D01*
X384093Y170547D01*
X384863Y171138D01*
X385364Y171027D01*
Y169207D01*
X385480Y168622D01*
X385811Y168126D01*
X388441Y165496D01*
X388249Y165032D01*
X388113Y164000D01*
X388249Y162968D01*
X388647Y162007D01*
X389281Y161181D01*
X390107Y160547D01*
X391068Y160149D01*
X392100Y160013D01*
X393132Y160149D01*
X394093Y160547D01*
X394919Y161181D01*
X395553Y162007D01*
X395951Y162968D01*
X396087Y164000D01*
X395951Y165032D01*
X395553Y165993D01*
X394919Y166819D01*
X394093Y167453D01*
X393132Y167851D01*
X392100Y167987D01*
X391068Y167851D01*
X390604Y167659D01*
X388422Y169841D01*
Y171478D01*
X388922Y171648D01*
X389281Y171181D01*
X390107Y170547D01*
X391068Y170149D01*
X392100Y170013D01*
X393132Y170149D01*
X394093Y170547D01*
X394919Y171181D01*
X395553Y172007D01*
X395951Y172968D01*
X396087Y174000D01*
X395951Y175032D01*
X395553Y175993D01*
X394919Y176819D01*
X394093Y177453D01*
X393132Y177851D01*
X392100Y177987D01*
X391068Y177851D01*
X390107Y177453D01*
X389281Y176819D01*
X388922Y176352D01*
X388422Y176522D01*
Y184797D01*
X388306Y185382D01*
X387974Y185879D01*
X367134Y206719D01*
X367134Y206719D01*
X358822Y215031D01*
X358986Y215574D01*
X359258Y215628D01*
X359986Y216114D01*
X360472Y216842D01*
X360643Y217700D01*
X360472Y218558D01*
X359986Y219286D01*
X359258Y219772D01*
X358400Y219943D01*
X358333Y219930D01*
X293634Y284629D01*
X293138Y284960D01*
X292553Y285077D01*
X288596D01*
X285719Y287954D01*
X285862Y288518D01*
X286220Y288757D01*
X287386Y289923D01*
X309081D01*
X309232Y289423D01*
X309079Y289321D01*
X308858Y288990D01*
X308780Y288600D01*
X308780Y273400D01*
X308858Y273010D01*
X309079Y272679D01*
X358168Y223591D01*
X358245Y223539D01*
X358310Y223472D01*
X358363Y223449D01*
X358431Y223330D01*
X399380Y176318D01*
Y161393D01*
X373445Y140820D01*
X287700D01*
X287551Y140790D01*
X287400Y140775D01*
X287357Y140751D01*
X287310Y140742D01*
X287184Y140658D01*
X287050Y140585D01*
X243833Y104820D01*
X234620D01*
Y111300D01*
X234542Y111690D01*
X234321Y112021D01*
X231621Y114721D01*
X231290Y114942D01*
X230900Y115020D01*
X223100D01*
X222710Y114942D01*
X222379Y114721D01*
X222158Y114390D01*
X222131Y114256D01*
X222057D01*
Y113075D01*
X220454D01*
Y113323D01*
X210974D01*
Y107780D01*
X220454D01*
Y107977D01*
X222057D01*
Y106744D01*
X222080D01*
Y99520D01*
X81622D01*
X39720Y141422D01*
Y225878D01*
X48521Y234679D01*
X48742Y235010D01*
X48820Y235400D01*
Y254278D01*
X77622Y283080D01*
X103700D01*
X104090Y283158D01*
X104421Y283379D01*
X107922Y286880D01*
X123200Y286880D01*
X123590Y286958D01*
X123921Y287179D01*
X124142Y287510D01*
X124220Y287900D01*
X124220Y294971D01*
X125467D01*
X127071Y293367D01*
Y283124D01*
X127014Y283086D01*
X126528Y282358D01*
X126357Y281500D01*
X126528Y280642D01*
X127014Y279914D01*
X127742Y279428D01*
X128600Y279257D01*
X129458Y279428D01*
X130186Y279914D01*
X130672Y280642D01*
X130843Y281500D01*
X130672Y282358D01*
X130186Y283086D01*
X130129Y283124D01*
Y294000D01*
X130013Y294585D01*
X129681Y295081D01*
X128604Y296159D01*
X128786Y296618D01*
X129198Y296660D01*
X135780Y290078D01*
D02*
G37*
G36*
X142700Y292500D02*
Y285100D01*
X142576Y284800D01*
X143000D01*
X146000Y281800D01*
X156700Y281800D01*
X156903Y277951D01*
X156558Y277589D01*
X155659D01*
X155074Y277472D01*
X154600Y277155D01*
X154472Y277182D01*
X154100Y277326D01*
Y279200D01*
X137160D01*
X136707Y279661D01*
X136800Y284800D01*
Y290500D01*
X129600Y297700D01*
X127004D01*
X126685Y297913D01*
X126100Y298029D01*
X117471D01*
X115600Y299900D01*
Y304400D01*
X116200Y305000D01*
X130200D01*
X142700Y292500D01*
D02*
G37*
G36*
X414847Y279623D02*
X413200Y267800D01*
X380360Y265426D01*
X379982Y265756D01*
X379953Y266238D01*
X380294Y266601D01*
X382400D01*
X382985Y266718D01*
X383481Y267049D01*
X383813Y267545D01*
X383929Y268131D01*
X383813Y268716D01*
X383481Y269212D01*
X382985Y269544D01*
X382400Y269660D01*
X379700D01*
X379600Y271081D01*
X393700Y276200D01*
X403700Y280000D01*
X414519D01*
X414847Y279623D01*
D02*
G37*
G36*
X353971Y280966D02*
Y279261D01*
X352901D01*
Y274276D01*
Y269339D01*
X358099D01*
Y269792D01*
X359919D01*
X360600Y269657D01*
X361458Y269828D01*
X362186Y270314D01*
X362672Y271042D01*
X362843Y271900D01*
X362672Y272758D01*
X362186Y273486D01*
X361458Y273972D01*
X360600Y274143D01*
X359742Y273972D01*
X359590Y273871D01*
X358099D01*
Y275239D01*
X362098D01*
X365096Y272241D01*
Y265375D01*
X365058Y265329D01*
X358134D01*
X356413Y267050D01*
X355917Y267381D01*
X355332Y267498D01*
X348499D01*
Y268461D01*
X347429D01*
Y272076D01*
X347486Y272114D01*
X347972Y272842D01*
X348143Y273700D01*
X347972Y274558D01*
X347486Y275286D01*
X346758Y275772D01*
X345900Y275943D01*
X345042Y275772D01*
X344314Y275286D01*
X343828Y274558D01*
X343657Y273700D01*
X343828Y272842D01*
X344314Y272114D01*
X344371Y272076D01*
Y268461D01*
X343301D01*
Y263476D01*
Y258539D01*
X343861D01*
Y257472D01*
X344016Y256691D01*
X344458Y256030D01*
X345598Y254890D01*
X346260Y254448D01*
X347040Y254292D01*
X352901D01*
Y253839D01*
X358099D01*
X358180Y253373D01*
Y248834D01*
X358180Y247300D01*
X358180Y241015D01*
X357718Y240824D01*
X322421Y276121D01*
X321455Y288678D01*
X321412Y288833D01*
X321380Y288990D01*
X321358Y289023D01*
X321348Y289061D01*
X321249Y289188D01*
X321159Y289321D01*
X321127Y289343D01*
X321102Y289374D01*
X321246Y289861D01*
X321287Y289923D01*
X345014D01*
X353971Y280966D01*
D02*
G37*
G36*
X134029Y264632D02*
X134371Y264187D01*
X134214Y260256D01*
X133705Y260057D01*
X130830Y262933D01*
X130843Y263000D01*
X130672Y263858D01*
X130453Y264187D01*
X130720Y264687D01*
X133926D01*
X134029Y264632D01*
D02*
G37*
G36*
X143600Y262100D02*
X156600D01*
X156805Y258266D01*
X156460Y257903D01*
X156200D01*
X156185Y257913D01*
X155600Y258029D01*
X155015Y257913D01*
X154600Y257636D01*
X154295Y257728D01*
X154100Y257855D01*
Y259400D01*
X152624D01*
Y259429D01*
X147553D01*
Y259400D01*
X135561D01*
X135214Y259761D01*
X135400Y264400D01*
X141300D01*
X143600Y262100D01*
D02*
G37*
G36*
X152624Y258380D02*
X153065D01*
Y253966D01*
X139796D01*
X135882Y257880D01*
X136090Y258380D01*
X147553D01*
X147699Y258410D01*
X152477D01*
X152624Y258380D01*
D02*
G37*
G36*
X414800Y260100D02*
X414800Y250700D01*
X414700Y250600D01*
X405300D01*
X405200Y250500D01*
X396300Y252800D01*
X379500Y256400D01*
X379500Y262034D01*
X379865Y262376D01*
X414800Y260100D01*
D02*
G37*
G36*
X285435Y237891D02*
X285243Y237429D01*
X283822D01*
X279496Y241755D01*
X279545Y242253D01*
X279786Y242414D01*
X280018Y242761D01*
X280516Y242810D01*
X285435Y237891D01*
D02*
G37*
G36*
X282107Y234819D02*
X282604Y234487D01*
X283189Y234371D01*
X286190D01*
X286437Y233871D01*
X286147Y233493D01*
X285749Y232532D01*
X285613Y231500D01*
X285743Y230516D01*
X285704Y230476D01*
X285167Y230385D01*
X275411Y240140D01*
X275603Y240602D01*
X276324D01*
X282107Y234819D01*
D02*
G37*
G36*
X286495Y224730D02*
X286711Y224420D01*
X286547Y224014D01*
X286147Y223493D01*
X285778Y222602D01*
X285287Y222386D01*
X274173Y233499D01*
X274254Y234125D01*
X274686Y234414D01*
X275172Y235142D01*
X275220Y235382D01*
X275699Y235527D01*
X286495Y224730D01*
D02*
G37*
G36*
X252891Y221709D02*
X252864Y221563D01*
X252678Y221220D01*
X251508D01*
X251400Y221241D01*
X251292Y221220D01*
X246800Y221220D01*
X246621Y221184D01*
X246442Y221155D01*
X246427Y221145D01*
X246410Y221142D01*
X246258Y221041D01*
X246104Y220945D01*
X246094Y220931D01*
X246079Y220921D01*
X245978Y220770D01*
X245872Y220622D01*
X245868Y220605D01*
X245858Y220590D01*
X245823Y220412D01*
X245781Y220234D01*
X244730Y188939D01*
X229939D01*
Y199700D01*
X229784Y200480D01*
X229342Y201142D01*
X226139Y204345D01*
Y210420D01*
X229693D01*
Y208074D01*
X229809Y207489D01*
X230141Y206993D01*
X230726Y206407D01*
X231223Y206075D01*
X231808Y205959D01*
X232171D01*
Y204953D01*
X232806D01*
Y202636D01*
X232108D01*
Y196467D01*
X238092D01*
Y202636D01*
X237394D01*
Y204953D01*
X238029D01*
Y210024D01*
X238029D01*
Y210465D01*
X238029D01*
Y212755D01*
X238491Y212946D01*
X240461Y210976D01*
X240528Y210642D01*
X241014Y209914D01*
X241742Y209428D01*
X242600Y209257D01*
X243458Y209428D01*
X244186Y209914D01*
X244672Y210642D01*
X244843Y211500D01*
X244672Y212358D01*
X244374Y212806D01*
X244386Y212814D01*
X244872Y213542D01*
X245043Y214400D01*
X244872Y215258D01*
X244386Y215986D01*
X243658Y216472D01*
X242800Y216643D01*
X242733Y216630D01*
X241459Y217904D01*
X241624Y218446D01*
X241685Y218458D01*
X242211Y218810D01*
X242563Y219336D01*
X242686Y219957D01*
Y221971D01*
X252688D01*
X252891Y221709D01*
D02*
G37*
G36*
X222727Y218458D02*
X223348Y218335D01*
X223969Y218458D01*
X224332Y218701D01*
X224696Y218458D01*
X225317Y218335D01*
X225937Y218458D01*
X226301Y218701D01*
X226664Y218458D01*
X227285Y218335D01*
X227294Y218337D01*
X227540Y217876D01*
X227019Y217354D01*
X226687Y216858D01*
X226571Y216273D01*
Y215491D01*
X225171D01*
Y214975D01*
X224491Y214840D01*
X223830Y214398D01*
X223830Y214398D01*
X222658Y213226D01*
X222216Y212565D01*
X222061Y211784D01*
Y203500D01*
X222216Y202720D01*
X222550Y202220D01*
X222161Y201902D01*
X220975Y203088D01*
Y218021D01*
X221362Y218338D01*
X221379Y218335D01*
X222000Y218458D01*
X222364Y218701D01*
X222727Y218458D01*
D02*
G37*
G36*
X212885D02*
X213506Y218335D01*
X213558Y218345D01*
X213945Y218028D01*
Y211007D01*
X211019Y208081D01*
X210687Y207585D01*
X210571Y207000D01*
Y202677D01*
X209525D01*
Y197272D01*
X209525Y197134D01*
Y196772D01*
X209525Y196634D01*
Y195529D01*
X208150D01*
X207963Y195567D01*
X207378Y195450D01*
X206881Y195119D01*
X206550Y194623D01*
X206433Y194037D01*
Y186469D01*
X204588D01*
Y178531D01*
X211338D01*
Y186469D01*
X209492D01*
Y190742D01*
X209525Y191228D01*
X215295D01*
Y186469D01*
X212862D01*
Y178531D01*
X219612D01*
Y186469D01*
X218354D01*
Y191228D01*
X219399D01*
Y196772D01*
X215007D01*
X214675Y197134D01*
X214675Y197272D01*
Y202677D01*
X213629D01*
Y206366D01*
X216556Y209293D01*
X216887Y209789D01*
X217003Y210374D01*
Y218028D01*
X217390Y218345D01*
X217442Y218335D01*
X217530Y218352D01*
X217916Y218035D01*
Y202454D01*
X218033Y201869D01*
X218364Y201373D01*
X223115Y196622D01*
Y156729D01*
X222109D01*
Y155329D01*
X221147D01*
Y157358D01*
X210879D01*
Y155171D01*
X185320D01*
Y157398D01*
X175520D01*
Y177407D01*
X201906Y206566D01*
X201974Y206679D01*
X202056Y206782D01*
X203576Y209722D01*
X203589Y209764D01*
X203613Y209800D01*
X203626Y209866D01*
X203697Y209955D01*
X204021Y210580D01*
X207400D01*
X207790Y210658D01*
X208099Y210865D01*
X208529D01*
Y211287D01*
X208621Y211379D01*
X208842Y211710D01*
X208920Y212100D01*
Y215100D01*
X208842Y215490D01*
X208621Y215821D01*
X208529Y215882D01*
Y215935D01*
X208450D01*
X208290Y216042D01*
X207900Y216120D01*
X207129D01*
Y216500D01*
X207013Y217085D01*
X206681Y217582D01*
X206439Y217824D01*
X206550Y218376D01*
X206882Y218524D01*
X206979Y218458D01*
X207600Y218335D01*
X208221Y218458D01*
X208584Y218701D01*
X208948Y218458D01*
X209569Y218335D01*
X210189Y218458D01*
X210553Y218701D01*
X210916Y218458D01*
X211537Y218335D01*
X212158Y218458D01*
X212521Y218701D01*
X212885Y218458D01*
D02*
G37*
G36*
X302606Y211921D02*
X302415Y211459D01*
X297394D01*
X291355Y217498D01*
X291452Y217989D01*
X291593Y218047D01*
X292419Y218681D01*
X293053Y219507D01*
X293422Y220398D01*
X293913Y220614D01*
X302606Y211921D01*
D02*
G37*
G36*
X335071Y213866D02*
Y207333D01*
X334571Y207087D01*
X334093Y207453D01*
X333132Y207851D01*
X332100Y207987D01*
X331068Y207851D01*
X330107Y207453D01*
X329281Y206819D01*
X328647Y205993D01*
X328249Y205032D01*
X328113Y204000D01*
X328249Y202968D01*
X328647Y202007D01*
X329281Y201181D01*
X330107Y200547D01*
X331068Y200149D01*
X332100Y200013D01*
X333132Y200149D01*
X334093Y200547D01*
X334571Y200913D01*
X335071Y200667D01*
Y197333D01*
X334571Y197087D01*
X334093Y197453D01*
X333132Y197851D01*
X332100Y197987D01*
X331068Y197851D01*
X330107Y197453D01*
X329281Y196819D01*
X328647Y195993D01*
X328249Y195032D01*
X328113Y194000D01*
X328249Y192968D01*
X328647Y192007D01*
X329281Y191181D01*
X330107Y190547D01*
X331068Y190149D01*
X332100Y190013D01*
X333132Y190149D01*
X334093Y190547D01*
X334571Y190913D01*
X335071Y190667D01*
Y185090D01*
X335187Y184505D01*
X335519Y184009D01*
X336023Y183504D01*
Y178483D01*
X335561Y178291D01*
X334671Y179181D01*
X334175Y179513D01*
X333590Y179629D01*
X331033D01*
X321011Y189652D01*
X321244Y190126D01*
X322100Y190013D01*
X323132Y190149D01*
X324093Y190547D01*
X324919Y191181D01*
X325553Y192007D01*
X325951Y192968D01*
X326087Y194000D01*
X325951Y195032D01*
X325553Y195993D01*
X324919Y196819D01*
X324093Y197453D01*
X323132Y197851D01*
X322100Y197987D01*
X321068Y197851D01*
X320107Y197453D01*
X319281Y196819D01*
X319163Y196811D01*
X315285Y200689D01*
X315186Y200755D01*
X315146Y200819D01*
X315099Y201415D01*
X315553Y202007D01*
X315951Y202968D01*
X316087Y204000D01*
X315951Y205032D01*
X315553Y205993D01*
X314919Y206819D01*
X314093Y207453D01*
X313132Y207851D01*
X312100Y207987D01*
X311068Y207851D01*
X310107Y207453D01*
X309582Y207050D01*
X309082Y207297D01*
Y209137D01*
X308966Y209723D01*
X308634Y210219D01*
X292203Y226650D01*
X291707Y226982D01*
X291121Y227098D01*
X290278D01*
X290245Y227598D01*
X290632Y227649D01*
X291593Y228047D01*
X292419Y228681D01*
X293053Y229507D01*
X293451Y230468D01*
X293587Y231500D01*
X293451Y232532D01*
X293053Y233493D01*
X292763Y233871D01*
X293010Y234371D01*
X314566D01*
X335071Y213866D01*
D02*
G37*
G36*
X158000Y219900D02*
X158189Y206752D01*
X157376Y205939D01*
X150466Y205427D01*
X150100Y205767D01*
Y216800D01*
X152400Y219100D01*
Y222400D01*
X155500D01*
X158000Y219900D01*
D02*
G37*
G36*
X286147Y199507D02*
X286781Y198681D01*
X287607Y198047D01*
X288568Y197649D01*
X289600Y197513D01*
X290632Y197649D01*
X291593Y198047D01*
X292419Y198681D01*
X292571Y198878D01*
X293071Y198708D01*
Y195453D01*
X285647D01*
Y194069D01*
X285185Y193878D01*
X279554Y199509D01*
X279746Y199971D01*
X285955D01*
X286147Y199507D01*
D02*
G37*
G36*
X183847Y210884D02*
X184310Y210575D01*
X184856Y210466D01*
X184856Y210466D01*
X185980D01*
X186344Y210138D01*
Y206563D01*
X191496D01*
X191678Y206097D01*
X174918Y190723D01*
X174456Y190914D01*
X173935Y202974D01*
X180603Y211680D01*
X183051D01*
X183847Y210884D01*
D02*
G37*
G36*
X130571Y221736D02*
Y188624D01*
X130514Y188586D01*
X130028Y187858D01*
X129857Y187000D01*
X129997Y186295D01*
X129700Y185862D01*
X129294Y185841D01*
X128996Y186229D01*
X129099Y186744D01*
X128928Y187603D01*
X128442Y188330D01*
X128129Y188539D01*
Y219948D01*
X130109Y221927D01*
X130571Y221736D01*
D02*
G37*
G36*
X151321Y227854D02*
X151618D01*
Y223477D01*
X151377D01*
Y219519D01*
X149379Y217521D01*
X149158Y217190D01*
X149080Y216800D01*
Y205767D01*
X149084Y205749D01*
X149081Y205730D01*
X149123Y205554D01*
X149158Y205377D01*
X149169Y205361D01*
X149173Y205343D01*
X149279Y205196D01*
X149379Y205046D01*
X149395Y205036D01*
X149406Y205020D01*
X149773Y204680D01*
X149789Y204670D01*
X149801Y204655D01*
X149958Y204566D01*
X150111Y204471D01*
X150130Y204468D01*
X150147Y204459D01*
X150326Y204437D01*
X150504Y204408D01*
X150523Y204413D01*
X150542Y204410D01*
X155556Y204782D01*
X155764Y204327D01*
X137167Y185729D01*
X134452D01*
X134190Y186229D01*
X134288Y186722D01*
X134300Y186786D01*
Y186786D01*
X134343Y187000D01*
X134767Y187350D01*
X135158Y187428D01*
X135886Y187914D01*
X136372Y188642D01*
X136543Y189500D01*
X136372Y190358D01*
X135886Y191086D01*
X135829Y191124D01*
Y221367D01*
X147654Y233191D01*
X151321D01*
Y227854D01*
D02*
G37*
G36*
X55228Y183342D02*
X55714Y182614D01*
X56442Y182128D01*
X57300Y181957D01*
X58158Y182128D01*
X58886Y182614D01*
X58924Y182671D01*
X82954D01*
X83146Y182209D01*
X78596Y177659D01*
X78132Y177851D01*
X77100Y177987D01*
X76068Y177851D01*
X75107Y177453D01*
X74281Y176819D01*
X73647Y175993D01*
X73249Y175032D01*
X73113Y174000D01*
X73249Y172968D01*
X73647Y172007D01*
X74281Y171181D01*
X75107Y170547D01*
X76068Y170149D01*
X77100Y170013D01*
X78132Y170149D01*
X79093Y170547D01*
X79721Y171029D01*
X80221Y170782D01*
Y169284D01*
X78596Y167659D01*
X78132Y167851D01*
X77100Y167987D01*
X76068Y167851D01*
X75107Y167453D01*
X74281Y166819D01*
X73647Y165993D01*
X73249Y165032D01*
X73113Y164000D01*
X73249Y162968D01*
X73647Y162007D01*
X74281Y161181D01*
X74383Y161103D01*
X74222Y160629D01*
X69978D01*
X69818Y161103D01*
X69919Y161181D01*
X70553Y162007D01*
X70951Y162968D01*
X71087Y164000D01*
X70951Y165032D01*
X70553Y165993D01*
X69919Y166819D01*
X69093Y167453D01*
X68132Y167851D01*
X67100Y167987D01*
X66068Y167851D01*
X65107Y167453D01*
X64281Y166819D01*
X63780Y166166D01*
X63280Y166336D01*
Y169349D01*
X63164Y169935D01*
X62832Y170431D01*
X60759Y172504D01*
X60951Y172968D01*
X61087Y174000D01*
X60951Y175032D01*
X60553Y175993D01*
X59919Y176819D01*
X59093Y177453D01*
X58132Y177851D01*
X57100Y177987D01*
X56068Y177851D01*
X55191Y177488D01*
X54691Y177691D01*
Y183475D01*
X55191Y183524D01*
X55228Y183342D01*
D02*
G37*
G36*
X345871Y182476D02*
Y176400D01*
X345371Y176231D01*
X344919Y176819D01*
X344093Y177453D01*
X343132Y177851D01*
X342100Y177987D01*
X341068Y177851D01*
X340107Y177453D01*
X339582Y177050D01*
X339082Y177297D01*
Y184137D01*
X338966Y184723D01*
X338634Y185219D01*
X338129Y185723D01*
Y189564D01*
X338591Y189756D01*
X345871Y182476D01*
D02*
G37*
G36*
X142071Y180705D02*
Y165487D01*
X141428Y164844D01*
X140954Y165005D01*
X140951Y165032D01*
X140553Y165993D01*
X139919Y166819D01*
X139093Y167453D01*
X138132Y167851D01*
X137100Y167987D01*
X136068Y167851D01*
X135107Y167453D01*
X134281Y166819D01*
X133647Y165993D01*
X133249Y165032D01*
X133113Y164000D01*
X133249Y162968D01*
X133647Y162007D01*
X134281Y161181D01*
X134382Y161103D01*
X134222Y160629D01*
X129978D01*
X129817Y161103D01*
X129919Y161181D01*
X130553Y162007D01*
X130951Y162968D01*
X131087Y164000D01*
X130951Y165032D01*
X130553Y165993D01*
X129919Y166819D01*
X129093Y167453D01*
X128132Y167851D01*
X127100Y167987D01*
X126068Y167851D01*
X125107Y167453D01*
X124281Y166819D01*
X123647Y165993D01*
X123249Y165032D01*
X123113Y164000D01*
X123249Y162968D01*
X123647Y162007D01*
X124281Y161181D01*
X124382Y161103D01*
X124222Y160629D01*
X119978D01*
X119817Y161103D01*
X119919Y161181D01*
X120553Y162007D01*
X120951Y162968D01*
X121087Y164000D01*
X120951Y165032D01*
X120553Y165993D01*
X119919Y166819D01*
X119093Y167453D01*
X118132Y167851D01*
X117100Y167987D01*
X116068Y167851D01*
X115107Y167453D01*
X114281Y166819D01*
X113647Y165993D01*
X113249Y165032D01*
X113113Y164000D01*
X113249Y162968D01*
X113647Y162007D01*
X114281Y161181D01*
X114383Y161103D01*
X114222Y160629D01*
X109978D01*
X109818Y161103D01*
X109919Y161181D01*
X110553Y162007D01*
X110951Y162968D01*
X111087Y164000D01*
X110951Y165032D01*
X110553Y165993D01*
X109919Y166819D01*
X109093Y167453D01*
X108132Y167851D01*
X107100Y167987D01*
X106068Y167851D01*
X105107Y167453D01*
X104281Y166819D01*
X103647Y165993D01*
X103249Y165032D01*
X103113Y164000D01*
X103249Y162968D01*
X103647Y162007D01*
X104281Y161181D01*
X104383Y161103D01*
X104222Y160629D01*
X99978D01*
X99818Y161103D01*
X99919Y161181D01*
X100553Y162007D01*
X100951Y162968D01*
X101087Y164000D01*
X100951Y165032D01*
X100553Y165993D01*
X99919Y166819D01*
X99093Y167453D01*
X98132Y167851D01*
X97100Y167987D01*
X96068Y167851D01*
X95107Y167453D01*
X94281Y166819D01*
X93647Y165993D01*
X93249Y165032D01*
X93113Y164000D01*
X93249Y162968D01*
X93647Y162007D01*
X94281Y161181D01*
X94383Y161103D01*
X94222Y160629D01*
X89978D01*
X89818Y161103D01*
X89919Y161181D01*
X90553Y162007D01*
X90951Y162968D01*
X91087Y164000D01*
X90951Y165032D01*
X90553Y165993D01*
X89919Y166819D01*
X89093Y167453D01*
X88132Y167851D01*
X87100Y167987D01*
X86068Y167851D01*
X85107Y167453D01*
X84281Y166819D01*
X83647Y165993D01*
X83249Y165032D01*
X83113Y164000D01*
X83249Y162968D01*
X83647Y162007D01*
X84281Y161181D01*
X84382Y161103D01*
X84222Y160629D01*
X79978D01*
X79817Y161103D01*
X79919Y161181D01*
X80553Y162007D01*
X80951Y162968D01*
X81087Y164000D01*
X80951Y165032D01*
X80759Y165496D01*
X82832Y167569D01*
X83164Y168065D01*
X83280Y168651D01*
Y171664D01*
X83780Y171834D01*
X84281Y171181D01*
X85107Y170547D01*
X86068Y170149D01*
X87100Y170013D01*
X88132Y170149D01*
X89093Y170547D01*
X89919Y171181D01*
X90553Y172007D01*
X90951Y172968D01*
X91087Y174000D01*
X90951Y175032D01*
X90553Y175993D01*
X89919Y176819D01*
X89093Y177453D01*
X88202Y177822D01*
X87986Y178313D01*
X89343Y179671D01*
X139749D01*
X140335Y179787D01*
X140831Y180119D01*
X141609Y180896D01*
X142071Y180705D01*
D02*
G37*
G36*
X286881Y216466D02*
X287377Y216134D01*
X287963Y216018D01*
X288260D01*
X288433Y215784D01*
X288259Y215223D01*
X287607Y214953D01*
X286781Y214319D01*
X286147Y213493D01*
X285749Y212532D01*
X285613Y211500D01*
X285749Y210468D01*
X286147Y209507D01*
X286781Y208681D01*
X287607Y208047D01*
X288568Y207649D01*
X289600Y207513D01*
X290632Y207649D01*
X291593Y208047D01*
X292419Y208681D01*
X293053Y209507D01*
X293422Y210398D01*
X293913Y210614D01*
X295679Y208848D01*
X296175Y208517D01*
X296760Y208400D01*
X299003D01*
X299052Y207900D01*
X298937Y207878D01*
X298509Y207591D01*
X298222Y207163D01*
X298122Y206658D01*
Y201343D01*
X298222Y200837D01*
X298509Y200409D01*
X298937Y200122D01*
X299443Y200022D01*
X304757D01*
X305263Y200122D01*
X305691Y200409D01*
X305806Y200420D01*
X309199Y197027D01*
X309696Y196695D01*
X310281Y196579D01*
X312949D01*
X315118Y194409D01*
Y189453D01*
X315234Y188867D01*
X315566Y188371D01*
X328441Y175496D01*
X328249Y175032D01*
X328113Y174000D01*
X328249Y172968D01*
X328647Y172007D01*
X329281Y171181D01*
X330107Y170547D01*
X331068Y170149D01*
X332100Y170013D01*
X333132Y170149D01*
X334023Y170518D01*
X334523Y170324D01*
Y168586D01*
X333596Y167659D01*
X333132Y167851D01*
X332100Y167987D01*
X331068Y167851D01*
X330107Y167453D01*
X329281Y166819D01*
X328647Y165993D01*
X328249Y165032D01*
X328113Y164000D01*
X328249Y162968D01*
X328618Y162077D01*
X328424Y161577D01*
X325776D01*
X325582Y162077D01*
X325951Y162968D01*
X326087Y164000D01*
X325951Y165032D01*
X325553Y165993D01*
X324919Y166819D01*
X324093Y167453D01*
X323132Y167851D01*
X322100Y167987D01*
X321068Y167851D01*
X320107Y167453D01*
X319281Y166819D01*
X318780Y166166D01*
X318280Y166336D01*
Y169349D01*
X318164Y169935D01*
X317832Y170431D01*
X315759Y172504D01*
X315951Y172968D01*
X316087Y174000D01*
X315951Y175032D01*
X315553Y175993D01*
X314919Y176819D01*
X314093Y177453D01*
X313132Y177851D01*
X312100Y177987D01*
X311068Y177851D01*
X310107Y177453D01*
X309597Y177062D01*
X309097Y177308D01*
Y189224D01*
X308922Y190102D01*
X308425Y190846D01*
X305992Y193279D01*
X306087Y194000D01*
X305951Y195032D01*
X305553Y195993D01*
X304919Y196819D01*
X304093Y197453D01*
X303132Y197851D01*
X302100Y197987D01*
X301068Y197851D01*
X300107Y197453D01*
X299281Y196819D01*
X298647Y195993D01*
X298249Y195032D01*
X298113Y194000D01*
X298249Y192968D01*
X298647Y192007D01*
X299281Y191181D01*
X300107Y190547D01*
X301068Y190149D01*
X302100Y190013D01*
X302691Y190091D01*
X304509Y188273D01*
Y177978D01*
X300285D01*
X296129Y182133D01*
Y202090D01*
X296013Y202675D01*
X295681Y203171D01*
X292319Y206534D01*
X291823Y206866D01*
X291237Y206982D01*
X276581D01*
X274329Y209233D01*
Y227176D01*
X274386Y227214D01*
X274803Y227837D01*
X275354Y227993D01*
X286881Y216466D01*
D02*
G37*
G36*
X149080Y185464D02*
X149080Y157220D01*
X138822D01*
X138759Y157305D01*
X138876Y157984D01*
X138928Y158019D01*
X144681Y163772D01*
X145013Y164268D01*
X145129Y164854D01*
Y182167D01*
X148618Y185656D01*
X149080Y185464D01*
D02*
G37*
G36*
X165758Y202090D02*
X165757Y202083D01*
X165752Y202077D01*
X165718Y201888D01*
X165680Y201700D01*
Y181800D01*
Y180026D01*
Y152420D01*
X160122Y152420D01*
X159620Y152922D01*
Y188500D01*
X159542Y188890D01*
X159321Y189221D01*
X158990Y189442D01*
X158600Y189520D01*
X153136D01*
X152944Y189981D01*
X165365Y202402D01*
X165758Y202090D01*
D02*
G37*
G36*
X227630Y185458D02*
X227630Y185458D01*
X228291Y185016D01*
X229072Y184861D01*
X244233D01*
X244581Y184501D01*
X243646Y156643D01*
X233694Y148720D01*
X175520D01*
Y149965D01*
X185320D01*
Y152112D01*
X210879D01*
Y149925D01*
X221147D01*
Y152271D01*
X222109D01*
Y150871D01*
X227180D01*
Y156729D01*
X226173D01*
Y186207D01*
X226674Y186414D01*
X227630Y185458D01*
D02*
G37*
G36*
X252800Y220200D02*
X255344Y156100D01*
X297200D01*
Y148700D01*
X297100Y148600D01*
X251200D01*
X235800Y133200D01*
X222000Y133200D01*
Y126900D01*
X212000D01*
Y130100D01*
X212400Y130500D01*
X214248D01*
Y142265D01*
X150100Y142700D01*
X62100Y148800D01*
Y156200D01*
X150100D01*
X150100Y186700D01*
X151900Y188500D01*
X158600D01*
Y152500D01*
X159700Y151400D01*
X166700Y151400D01*
Y180026D01*
Y181800D01*
Y201700D01*
X180400Y215800D01*
X183347D01*
X183698Y215445D01*
X183671Y212700D01*
X180100D01*
X172900Y203300D01*
X173558Y188091D01*
X193694Y206563D01*
X193856D01*
Y206712D01*
X203000Y215100D01*
X207900D01*
Y212100D01*
X207400Y211600D01*
X203400D01*
X202792Y210424D01*
X202671D01*
Y210190D01*
X201150Y207250D01*
X174500Y177800D01*
Y147700D01*
X234050D01*
X244600Y156100D01*
X244648D01*
X246800Y220200D01*
X252800Y220200D01*
D02*
G37*
G36*
X357338Y122223D02*
X357028Y121758D01*
X356857Y120900D01*
X357028Y120042D01*
X357188Y119802D01*
X356952Y119361D01*
X356501D01*
Y114420D01*
X337435D01*
X336592Y121803D01*
X336919Y122181D01*
X357066Y122716D01*
X357338Y122223D01*
D02*
G37*
G36*
X107200Y295300D02*
X114696D01*
X115015Y295087D01*
X115600Y294971D01*
X123200D01*
X123200Y287900D01*
X107500Y287900D01*
X103700Y284100D01*
X77200D01*
X47800Y254700D01*
Y235400D01*
X38700Y226300D01*
Y141000D01*
X81200Y98500D01*
X223100D01*
Y113100D01*
Y114000D01*
X230900D01*
X233600Y111300D01*
Y103800D01*
X244200D01*
X287700Y139800D01*
X373800D01*
X400400Y160900D01*
Y176700D01*
X359200Y224000D01*
Y224369D01*
X358888Y224312D01*
X309800Y273400D01*
X309800Y288600D01*
X320438D01*
X321433Y275667D01*
X359200Y237900D01*
X359200Y247300D01*
X359200Y248834D01*
Y248834D01*
Y259854D01*
X359418Y260000D01*
X362110D01*
X363100Y249800D01*
X369600Y229200D01*
X411100Y183600D01*
X411100Y152000D01*
X383540Y124440D01*
X335410Y123161D01*
X336526Y113400D01*
X360337D01*
X360500Y113237D01*
Y110857D01*
X360143Y110508D01*
X347505Y110774D01*
X347058Y111072D01*
X346200Y111243D01*
X345342Y111072D01*
X344975Y110828D01*
X336800Y111000D01*
X339000Y103600D01*
X353000Y103600D01*
Y103327D01*
X353291Y103184D01*
X353387Y102701D01*
X353873Y101973D01*
X354601Y101487D01*
X354994Y101409D01*
X356276Y100000D01*
X368510Y100000D01*
X368687Y99500D01*
X368431Y99117D01*
X368315Y98532D01*
X368431Y97946D01*
X368763Y97450D01*
X369137Y97200D01*
X368995Y96700D01*
X362468Y96700D01*
X355968D01*
X351370Y100400D01*
X334700D01*
X326972Y122936D01*
X295500Y122100D01*
X269300Y100500D01*
X268493Y96800D01*
X290000D01*
X290000Y100900D01*
X293700Y100900D01*
Y93606D01*
X293700Y93606D01*
Y92800D01*
X267620D01*
X265700Y84000D01*
X261600Y59100D01*
X252100D01*
X251872Y59181D01*
X251456Y63410D01*
X251534Y64000D01*
X251382Y65148D01*
X251254Y65457D01*
X249300Y85300D01*
X68000D01*
X25600Y127700D01*
Y233800D01*
X32300Y240500D01*
Y258700D01*
X71700Y298100D01*
X104400D01*
X107200Y295300D01*
D02*
G37*
G36*
X364814Y108923D02*
X364623Y108461D01*
X353814D01*
X353721Y108479D01*
X352699D01*
Y109145D01*
X353126Y109636D01*
X356501Y109565D01*
Y109439D01*
X361699D01*
Y111385D01*
X362161Y111576D01*
X364814Y108923D01*
D02*
G37*
G36*
X414600Y112800D02*
X389500Y107600D01*
X383300D01*
Y108833D01*
X385149D01*
X385398Y108667D01*
X386100Y108527D01*
X386179D01*
X386881Y108667D01*
X387476Y109064D01*
X387874Y109660D01*
X388014Y110362D01*
X387874Y111065D01*
X387476Y111660D01*
X386881Y112058D01*
X386179Y112197D01*
X386100D01*
X385398Y112058D01*
X385149Y111892D01*
X383300D01*
X383300Y116300D01*
X392100Y119500D01*
X404100Y124000D01*
X414600D01*
Y112800D01*
D02*
G37*
G36*
X343732Y109834D02*
X344045Y109444D01*
X343957Y109000D01*
X344128Y108142D01*
X344614Y107414D01*
X344807Y107285D01*
X345119Y106819D01*
X346050Y105887D01*
X346546Y105555D01*
X347131Y105439D01*
X347501D01*
Y104620D01*
X339761Y104620D01*
X338296Y109545D01*
X338599Y109942D01*
X343732Y109834D01*
D02*
G37*
G36*
X369996Y102858D02*
Y101461D01*
X367309D01*
Y101020D01*
X361699Y101020D01*
Y101971D01*
X364145D01*
X364730Y102087D01*
X365227Y102419D01*
X365704Y102896D01*
X369950D01*
X369996Y102858D01*
D02*
G37*
G36*
X333735Y100069D02*
X333752Y100041D01*
X333758Y100010D01*
X333851Y99870D01*
X333935Y99725D01*
X333961Y99706D01*
X333979Y99679D01*
X334119Y99586D01*
X334252Y99484D01*
X334283Y99476D01*
X334310Y99458D01*
X334474Y99425D01*
X334636Y99382D01*
X334668Y99387D01*
X334700Y99380D01*
X351011D01*
X355328Y95906D01*
X355457Y95839D01*
X355577Y95758D01*
X355632Y95747D01*
X355681Y95722D01*
X355825Y95709D01*
X355968Y95680D01*
X362468D01*
X367309Y95680D01*
Y95602D01*
X372379D01*
Y98904D01*
X372607Y99131D01*
X372938Y99627D01*
X373055Y100213D01*
Y103250D01*
X373555Y103402D01*
X373593Y103344D01*
X374090Y103012D01*
X374675Y102896D01*
X377392D01*
X379668Y100619D01*
X380164Y100288D01*
X380750Y100171D01*
X382265D01*
Y97945D01*
X382580D01*
Y95922D01*
X379143Y92485D01*
X378643Y92692D01*
Y93957D01*
X369557D01*
Y92718D01*
X369198Y92370D01*
X368019Y92406D01*
X368003Y92404D01*
X367987Y92407D01*
X367808Y92371D01*
X367627Y92341D01*
X367613Y92333D01*
X367597Y92329D01*
X367445Y92228D01*
X367289Y92130D01*
X367280Y92117D01*
X367267Y92108D01*
X354678Y79520D01*
X350927D01*
Y82661D01*
X341053D01*
Y64320D01*
X337147D01*
Y82661D01*
X327273D01*
Y80020D01*
X302620D01*
Y90500D01*
Y98200D01*
X302542Y98590D01*
X302321Y98921D01*
X301990Y99142D01*
X301600Y99220D01*
X296200D01*
X295810Y99142D01*
X295479Y98921D01*
X295258Y98590D01*
X295220Y98397D01*
X294720Y98446D01*
Y100900D01*
X294642Y101290D01*
X294421Y101621D01*
X294311Y101695D01*
X294265Y101776D01*
X294386Y102174D01*
X294461Y102234D01*
X299088D01*
Y100244D01*
X304631D01*
Y107756D01*
X299088D01*
Y105802D01*
X294084D01*
Y105971D01*
X290116D01*
Y102420D01*
X290030Y102050D01*
X289714Y101863D01*
X289610Y101842D01*
X289279Y101621D01*
X289058Y101290D01*
X288980Y100900D01*
Y97820D01*
X270157D01*
X269844Y98209D01*
X270221Y99938D01*
X295878Y121090D01*
X326251Y121897D01*
X333735Y100069D01*
D02*
G37*
G36*
X414100Y103000D02*
X414600Y102500D01*
Y93357D01*
X414243Y93007D01*
X391100Y93452D01*
Y87000D01*
X381100Y77000D01*
X376747D01*
X376747Y77000D01*
X367375Y77000D01*
X356450Y67500D01*
X345100D01*
Y78000D01*
X345600Y78500D01*
X355100D01*
X367987Y91387D01*
X377100Y91104D01*
Y91000D01*
X379100D01*
X383600Y95500D01*
Y98500D01*
Y100171D01*
X386100D01*
X386685Y100288D01*
X387181Y100619D01*
X387513Y101116D01*
X387629Y101701D01*
X387513Y102286D01*
X387181Y102782D01*
X386685Y103114D01*
X386100Y103230D01*
X383600D01*
Y104500D01*
X402100D01*
X414100Y103000D01*
D02*
G37*
G36*
X301600Y90500D02*
Y79000D01*
X331100D01*
Y70000D01*
X310698D01*
X310600Y70020D01*
X304100D01*
X304001Y70000D01*
X301000D01*
Y59200D01*
X293400D01*
X292100Y60500D01*
Y70500D01*
X296200Y90500D01*
Y98200D01*
X301600D01*
Y90500D01*
D02*
G37*
G36*
X327273Y64320D02*
X316722D01*
X312523Y68519D01*
X312715Y68980D01*
X327273D01*
Y64320D01*
D02*
G37*
G36*
X415100Y82500D02*
Y53500D01*
Y51500D01*
X408100D01*
Y51500D01*
X311600Y51500D01*
X301780Y58567D01*
X301942Y58810D01*
X302020Y59200D01*
Y68980D01*
X304001D01*
X304100Y69000D01*
D01*
X310600D01*
X316300Y63300D01*
X402600Y63300D01*
Y83000D01*
X414600D01*
X415100Y82500D01*
D02*
G37*
%LPC*%
G36*
X123553Y245453D02*
X115647D01*
Y237547D01*
X123553D01*
Y245453D01*
D02*
G37*
G36*
X119600Y235487D02*
X118568Y235351D01*
X117607Y234953D01*
X116781Y234319D01*
X116147Y233493D01*
X115749Y232532D01*
X115613Y231500D01*
X115749Y230468D01*
X116147Y229507D01*
X116781Y228681D01*
X117607Y228047D01*
X118568Y227649D01*
X119600Y227513D01*
X120632Y227649D01*
X121593Y228047D01*
X122419Y228681D01*
X123053Y229507D01*
X123451Y230468D01*
X123587Y231500D01*
X123451Y232532D01*
X123053Y233493D01*
X122419Y234319D01*
X121593Y234953D01*
X120632Y235351D01*
X119600Y235487D01*
D02*
G37*
G36*
Y225487D02*
X118568Y225351D01*
X117607Y224953D01*
X116781Y224319D01*
X116147Y223493D01*
X115749Y222532D01*
X115613Y221500D01*
X115749Y220468D01*
X116147Y219507D01*
X116781Y218681D01*
X117607Y218047D01*
X118568Y217649D01*
X119600Y217513D01*
X120632Y217649D01*
X121593Y218047D01*
X122419Y218681D01*
X123053Y219507D01*
X123451Y220468D01*
X123587Y221500D01*
X123451Y222532D01*
X123053Y223493D01*
X122419Y224319D01*
X121593Y224953D01*
X120632Y225351D01*
X119600Y225487D01*
D02*
G37*
G36*
Y215487D02*
X118568Y215351D01*
X117607Y214953D01*
X116781Y214319D01*
X116147Y213493D01*
X115749Y212532D01*
X115613Y211500D01*
X115749Y210468D01*
X116147Y209507D01*
X116781Y208681D01*
X117607Y208047D01*
X118568Y207649D01*
X119600Y207513D01*
X120632Y207649D01*
X121593Y208047D01*
X122419Y208681D01*
X123053Y209507D01*
X123451Y210468D01*
X123587Y211500D01*
X123451Y212532D01*
X123053Y213493D01*
X122419Y214319D01*
X121593Y214953D01*
X120632Y215351D01*
X119600Y215487D01*
D02*
G37*
G36*
X49758Y207978D02*
X44442D01*
X43937Y207878D01*
X43509Y207591D01*
X43222Y207163D01*
X43122Y206658D01*
Y201343D01*
X43222Y200837D01*
X43509Y200409D01*
X43937Y200122D01*
X44442Y200022D01*
X49758D01*
X50263Y200122D01*
X50691Y200409D01*
X50978Y200837D01*
X51078Y201343D01*
Y206658D01*
X50978Y207163D01*
X50691Y207591D01*
X50263Y207878D01*
X49758Y207978D01*
D02*
G37*
G36*
X352100Y207987D02*
X351068Y207851D01*
X350107Y207453D01*
X349281Y206819D01*
X348647Y205993D01*
X348249Y205032D01*
X348113Y204000D01*
X348249Y202968D01*
X348647Y202007D01*
X349281Y201181D01*
X350107Y200547D01*
X351068Y200149D01*
X352100Y200013D01*
X353132Y200149D01*
X354093Y200547D01*
X354919Y201181D01*
X355553Y202007D01*
X355951Y202968D01*
X356087Y204000D01*
X355951Y205032D01*
X355553Y205993D01*
X354919Y206819D01*
X354093Y207453D01*
X353132Y207851D01*
X352100Y207987D01*
D02*
G37*
G36*
X107100D02*
X106068Y207851D01*
X105107Y207453D01*
X104281Y206819D01*
X103647Y205993D01*
X103249Y205032D01*
X103113Y204000D01*
X103249Y202968D01*
X103647Y202007D01*
X104281Y201181D01*
X105107Y200547D01*
X106068Y200149D01*
X107100Y200013D01*
X108132Y200149D01*
X109093Y200547D01*
X109919Y201181D01*
X110553Y202007D01*
X110951Y202968D01*
X111087Y204000D01*
X110951Y205032D01*
X110553Y205993D01*
X109919Y206819D01*
X109093Y207453D01*
X108132Y207851D01*
X107100Y207987D01*
D02*
G37*
G36*
X97100D02*
X96068Y207851D01*
X95107Y207453D01*
X94281Y206819D01*
X93647Y205993D01*
X93249Y205032D01*
X93113Y204000D01*
X93249Y202968D01*
X93647Y202007D01*
X94281Y201181D01*
X95107Y200547D01*
X96068Y200149D01*
X97100Y200013D01*
X98132Y200149D01*
X99093Y200547D01*
X99919Y201181D01*
X100553Y202007D01*
X100951Y202968D01*
X101087Y204000D01*
X100951Y205032D01*
X100553Y205993D01*
X99919Y206819D01*
X99093Y207453D01*
X98132Y207851D01*
X97100Y207987D01*
D02*
G37*
G36*
X87100D02*
X86068Y207851D01*
X85107Y207453D01*
X84281Y206819D01*
X83647Y205993D01*
X83249Y205032D01*
X83113Y204000D01*
X83249Y202968D01*
X83647Y202007D01*
X84281Y201181D01*
X85107Y200547D01*
X86068Y200149D01*
X87100Y200013D01*
X88132Y200149D01*
X89093Y200547D01*
X89919Y201181D01*
X90553Y202007D01*
X90951Y202968D01*
X91087Y204000D01*
X90951Y205032D01*
X90553Y205993D01*
X89919Y206819D01*
X89093Y207453D01*
X88132Y207851D01*
X87100Y207987D01*
D02*
G37*
G36*
X77100D02*
X76068Y207851D01*
X75107Y207453D01*
X74281Y206819D01*
X73647Y205993D01*
X73249Y205032D01*
X73113Y204000D01*
X73249Y202968D01*
X73647Y202007D01*
X74281Y201181D01*
X75107Y200547D01*
X76068Y200149D01*
X77100Y200013D01*
X78132Y200149D01*
X79093Y200547D01*
X79919Y201181D01*
X80553Y202007D01*
X80951Y202968D01*
X81087Y204000D01*
X80951Y205032D01*
X80553Y205993D01*
X79919Y206819D01*
X79093Y207453D01*
X78132Y207851D01*
X77100Y207987D01*
D02*
G37*
G36*
X67100D02*
X66068Y207851D01*
X65107Y207453D01*
X64281Y206819D01*
X63647Y205993D01*
X63249Y205032D01*
X63113Y204000D01*
X63249Y202968D01*
X63647Y202007D01*
X64281Y201181D01*
X65107Y200547D01*
X66068Y200149D01*
X67100Y200013D01*
X68132Y200149D01*
X69093Y200547D01*
X69919Y201181D01*
X70553Y202007D01*
X70951Y202968D01*
X71087Y204000D01*
X70951Y205032D01*
X70553Y205993D01*
X69919Y206819D01*
X69093Y207453D01*
X68132Y207851D01*
X67100Y207987D01*
D02*
G37*
G36*
X57100D02*
X56068Y207851D01*
X55107Y207453D01*
X54281Y206819D01*
X53647Y205993D01*
X53249Y205032D01*
X53113Y204000D01*
X53249Y202968D01*
X53647Y202007D01*
X54281Y201181D01*
X55107Y200547D01*
X56068Y200149D01*
X57100Y200013D01*
X58132Y200149D01*
X59093Y200547D01*
X59919Y201181D01*
X60553Y202007D01*
X60951Y202968D01*
X61087Y204000D01*
X60951Y205032D01*
X60553Y205993D01*
X59919Y206819D01*
X59093Y207453D01*
X58132Y207851D01*
X57100Y207987D01*
D02*
G37*
G36*
X119600Y205487D02*
X118568Y205351D01*
X117607Y204953D01*
X116781Y204319D01*
X116147Y203493D01*
X115749Y202532D01*
X115613Y201500D01*
X115749Y200468D01*
X116147Y199507D01*
X116781Y198681D01*
X117607Y198047D01*
X118568Y197649D01*
X119600Y197513D01*
X120632Y197649D01*
X121593Y198047D01*
X122419Y198681D01*
X123053Y199507D01*
X123451Y200468D01*
X123587Y201500D01*
X123451Y202532D01*
X123053Y203493D01*
X122419Y204319D01*
X121593Y204953D01*
X120632Y205351D01*
X119600Y205487D01*
D02*
G37*
G36*
X362100Y197987D02*
X361068Y197851D01*
X360107Y197453D01*
X359281Y196819D01*
X358647Y195993D01*
X358249Y195032D01*
X358113Y194000D01*
X358249Y192968D01*
X358647Y192007D01*
X359281Y191181D01*
X360107Y190547D01*
X361068Y190149D01*
X362100Y190013D01*
X363132Y190149D01*
X364093Y190547D01*
X364919Y191181D01*
X365553Y192007D01*
X365951Y192968D01*
X366087Y194000D01*
X365951Y195032D01*
X365553Y195993D01*
X364919Y196819D01*
X364093Y197453D01*
X363132Y197851D01*
X362100Y197987D01*
D02*
G37*
G36*
X107100D02*
X106068Y197851D01*
X105107Y197453D01*
X104281Y196819D01*
X103647Y195993D01*
X103249Y195032D01*
X103113Y194000D01*
X103249Y192968D01*
X103647Y192007D01*
X104281Y191181D01*
X105107Y190547D01*
X106068Y190149D01*
X107100Y190013D01*
X108132Y190149D01*
X109093Y190547D01*
X109919Y191181D01*
X110553Y192007D01*
X110951Y192968D01*
X111087Y194000D01*
X110951Y195032D01*
X110553Y195993D01*
X109919Y196819D01*
X109093Y197453D01*
X108132Y197851D01*
X107100Y197987D01*
D02*
G37*
G36*
X87100D02*
X86068Y197851D01*
X85107Y197453D01*
X84281Y196819D01*
X83647Y195993D01*
X83249Y195032D01*
X83113Y194000D01*
X83249Y192968D01*
X83647Y192007D01*
X84281Y191181D01*
X85107Y190547D01*
X86068Y190149D01*
X87100Y190013D01*
X88132Y190149D01*
X89093Y190547D01*
X89919Y191181D01*
X90553Y192007D01*
X90951Y192968D01*
X91087Y194000D01*
X90951Y195032D01*
X90553Y195993D01*
X89919Y196819D01*
X89093Y197453D01*
X88132Y197851D01*
X87100Y197987D01*
D02*
G37*
G36*
X77100D02*
X76068Y197851D01*
X75107Y197453D01*
X74281Y196819D01*
X73647Y195993D01*
X73249Y195032D01*
X73113Y194000D01*
X73249Y192968D01*
X73647Y192007D01*
X74281Y191181D01*
X75107Y190547D01*
X76068Y190149D01*
X77100Y190013D01*
X78132Y190149D01*
X79093Y190547D01*
X79919Y191181D01*
X80553Y192007D01*
X80951Y192968D01*
X81087Y194000D01*
X80951Y195032D01*
X80553Y195993D01*
X79919Y196819D01*
X79093Y197453D01*
X78132Y197851D01*
X77100Y197987D01*
D02*
G37*
G36*
X67100D02*
X66068Y197851D01*
X65107Y197453D01*
X64281Y196819D01*
X63647Y195993D01*
X63249Y195032D01*
X63113Y194000D01*
X63249Y192968D01*
X63647Y192007D01*
X64281Y191181D01*
X65107Y190547D01*
X66068Y190149D01*
X67100Y190013D01*
X68132Y190149D01*
X69093Y190547D01*
X69919Y191181D01*
X70553Y192007D01*
X70951Y192968D01*
X71087Y194000D01*
X70951Y195032D01*
X70553Y195993D01*
X69919Y196819D01*
X69093Y197453D01*
X68132Y197851D01*
X67100Y197987D01*
D02*
G37*
G36*
X119600Y195487D02*
X118568Y195351D01*
X117607Y194953D01*
X116781Y194319D01*
X116147Y193493D01*
X115749Y192532D01*
X115613Y191500D01*
X115749Y190468D01*
X116147Y189507D01*
X116781Y188681D01*
X117607Y188047D01*
X118568Y187649D01*
X119600Y187513D01*
X120632Y187649D01*
X121593Y188047D01*
X122419Y188681D01*
X123053Y189507D01*
X123451Y190468D01*
X123587Y191500D01*
X123451Y192532D01*
X123053Y193493D01*
X122419Y194319D01*
X121593Y194953D01*
X120632Y195351D01*
X119600Y195487D01*
D02*
G37*
G36*
X372100Y177987D02*
X371068Y177851D01*
X370107Y177453D01*
X369281Y176819D01*
X368647Y175993D01*
X368249Y175032D01*
X368113Y174000D01*
X368249Y172968D01*
X368647Y172007D01*
X369281Y171181D01*
X370107Y170547D01*
X371068Y170149D01*
X372100Y170013D01*
X373132Y170149D01*
X374093Y170547D01*
X374919Y171181D01*
X375553Y172007D01*
X375951Y172968D01*
X376087Y174000D01*
X375951Y175032D01*
X375553Y175993D01*
X374919Y176819D01*
X374093Y177453D01*
X373132Y177851D01*
X372100Y177987D01*
D02*
G37*
G36*
X362100D02*
X361068Y177851D01*
X360107Y177453D01*
X359281Y176819D01*
X358647Y175993D01*
X358249Y175032D01*
X358113Y174000D01*
X358249Y172968D01*
X358647Y172007D01*
X359281Y171181D01*
X360107Y170547D01*
X361068Y170149D01*
X362100Y170013D01*
X363132Y170149D01*
X364093Y170547D01*
X364919Y171181D01*
X365553Y172007D01*
X365951Y172968D01*
X366087Y174000D01*
X365951Y175032D01*
X365553Y175993D01*
X364919Y176819D01*
X364093Y177453D01*
X363132Y177851D01*
X362100Y177987D01*
D02*
G37*
G36*
X382100Y167987D02*
X381068Y167851D01*
X380107Y167453D01*
X379281Y166819D01*
X378647Y165993D01*
X378249Y165032D01*
X378113Y164000D01*
X378249Y162968D01*
X378647Y162007D01*
X379281Y161181D01*
X380107Y160547D01*
X381068Y160149D01*
X382100Y160013D01*
X383132Y160149D01*
X384093Y160547D01*
X384919Y161181D01*
X385553Y162007D01*
X385951Y162968D01*
X386087Y164000D01*
X385951Y165032D01*
X385553Y165993D01*
X384919Y166819D01*
X384093Y167453D01*
X383132Y167851D01*
X382100Y167987D01*
D02*
G37*
G36*
X372100D02*
X371068Y167851D01*
X370107Y167453D01*
X369281Y166819D01*
X368647Y165993D01*
X368249Y165032D01*
X368113Y164000D01*
X368249Y162968D01*
X368647Y162007D01*
X369281Y161181D01*
X370107Y160547D01*
X371068Y160149D01*
X372100Y160013D01*
X373132Y160149D01*
X374093Y160547D01*
X374919Y161181D01*
X375553Y162007D01*
X375951Y162968D01*
X376087Y164000D01*
X375951Y165032D01*
X375553Y165993D01*
X374919Y166819D01*
X374093Y167453D01*
X373132Y167851D01*
X372100Y167987D01*
D02*
G37*
G36*
X362100D02*
X361068Y167851D01*
X360107Y167453D01*
X359281Y166819D01*
X358647Y165993D01*
X358249Y165032D01*
X358113Y164000D01*
X358249Y162968D01*
X358647Y162007D01*
X359281Y161181D01*
X360107Y160547D01*
X361068Y160149D01*
X362100Y160013D01*
X363132Y160149D01*
X364093Y160547D01*
X364919Y161181D01*
X365553Y162007D01*
X365951Y162968D01*
X366087Y164000D01*
X365951Y165032D01*
X365553Y165993D01*
X364919Y166819D01*
X364093Y167453D01*
X363132Y167851D01*
X362100Y167987D01*
D02*
G37*
G36*
X322100Y207987D02*
X321068Y207851D01*
X320107Y207453D01*
X319281Y206819D01*
X318647Y205993D01*
X318249Y205032D01*
X318113Y204000D01*
X318249Y202968D01*
X318647Y202007D01*
X319281Y201181D01*
X320107Y200547D01*
X321068Y200149D01*
X322100Y200013D01*
X323132Y200149D01*
X324093Y200547D01*
X324919Y201181D01*
X325553Y202007D01*
X325951Y202968D01*
X326087Y204000D01*
X325951Y205032D01*
X325553Y205993D01*
X324919Y206819D01*
X324093Y207453D01*
X323132Y207851D01*
X322100Y207987D01*
D02*
G37*
G36*
X67100Y177987D02*
X66068Y177851D01*
X65107Y177453D01*
X64281Y176819D01*
X63647Y175993D01*
X63249Y175032D01*
X63113Y174000D01*
X63249Y172968D01*
X63647Y172007D01*
X64281Y171181D01*
X65107Y170547D01*
X66068Y170149D01*
X67100Y170013D01*
X68132Y170149D01*
X69093Y170547D01*
X69919Y171181D01*
X70553Y172007D01*
X70951Y172968D01*
X71087Y174000D01*
X70951Y175032D01*
X70553Y175993D01*
X69919Y176819D01*
X69093Y177453D01*
X68132Y177851D01*
X67100Y177987D01*
D02*
G37*
G36*
X137100D02*
X136068Y177851D01*
X135107Y177453D01*
X134281Y176819D01*
X133647Y175993D01*
X133249Y175032D01*
X133113Y174000D01*
X133249Y172968D01*
X133647Y172007D01*
X134281Y171181D01*
X135107Y170547D01*
X136068Y170149D01*
X137100Y170013D01*
X138132Y170149D01*
X139093Y170547D01*
X139919Y171181D01*
X140553Y172007D01*
X140951Y172968D01*
X141087Y174000D01*
X140951Y175032D01*
X140553Y175993D01*
X139919Y176819D01*
X139093Y177453D01*
X138132Y177851D01*
X137100Y177987D01*
D02*
G37*
G36*
X127100D02*
X126068Y177851D01*
X125107Y177453D01*
X124281Y176819D01*
X123647Y175993D01*
X123249Y175032D01*
X123113Y174000D01*
X123249Y172968D01*
X123647Y172007D01*
X124281Y171181D01*
X125107Y170547D01*
X126068Y170149D01*
X127100Y170013D01*
X128132Y170149D01*
X129093Y170547D01*
X129919Y171181D01*
X130553Y172007D01*
X130951Y172968D01*
X131087Y174000D01*
X130951Y175032D01*
X130553Y175993D01*
X129919Y176819D01*
X129093Y177453D01*
X128132Y177851D01*
X127100Y177987D01*
D02*
G37*
G36*
X117100D02*
X116068Y177851D01*
X115107Y177453D01*
X114281Y176819D01*
X113647Y175993D01*
X113249Y175032D01*
X113113Y174000D01*
X113249Y172968D01*
X113647Y172007D01*
X114281Y171181D01*
X115107Y170547D01*
X116068Y170149D01*
X117100Y170013D01*
X118132Y170149D01*
X119093Y170547D01*
X119919Y171181D01*
X120553Y172007D01*
X120951Y172968D01*
X121087Y174000D01*
X120951Y175032D01*
X120553Y175993D01*
X119919Y176819D01*
X119093Y177453D01*
X118132Y177851D01*
X117100Y177987D01*
D02*
G37*
G36*
X107100D02*
X106068Y177851D01*
X105107Y177453D01*
X104281Y176819D01*
X103647Y175993D01*
X103249Y175032D01*
X103113Y174000D01*
X103249Y172968D01*
X103647Y172007D01*
X104281Y171181D01*
X105107Y170547D01*
X106068Y170149D01*
X107100Y170013D01*
X108132Y170149D01*
X109093Y170547D01*
X109919Y171181D01*
X110553Y172007D01*
X110951Y172968D01*
X111087Y174000D01*
X110951Y175032D01*
X110553Y175993D01*
X109919Y176819D01*
X109093Y177453D01*
X108132Y177851D01*
X107100Y177987D01*
D02*
G37*
G36*
X97100D02*
X96068Y177851D01*
X95107Y177453D01*
X94281Y176819D01*
X93647Y175993D01*
X93249Y175032D01*
X93113Y174000D01*
X93249Y172968D01*
X93647Y172007D01*
X94281Y171181D01*
X95107Y170547D01*
X96068Y170149D01*
X97100Y170013D01*
X98132Y170149D01*
X99093Y170547D01*
X99919Y171181D01*
X100553Y172007D01*
X100951Y172968D01*
X101087Y174000D01*
X100951Y175032D01*
X100553Y175993D01*
X99919Y176819D01*
X99093Y177453D01*
X98132Y177851D01*
X97100Y177987D01*
D02*
G37*
G36*
X322100D02*
X321068Y177851D01*
X320107Y177453D01*
X319281Y176819D01*
X318647Y175993D01*
X318249Y175032D01*
X318113Y174000D01*
X318249Y172968D01*
X318647Y172007D01*
X319281Y171181D01*
X320107Y170547D01*
X321068Y170149D01*
X322100Y170013D01*
X323132Y170149D01*
X324093Y170547D01*
X324919Y171181D01*
X325553Y172007D01*
X325951Y172968D01*
X326087Y174000D01*
X325951Y175032D01*
X325553Y175993D01*
X324919Y176819D01*
X324093Y177453D01*
X323132Y177851D01*
X322100Y177987D01*
D02*
G37*
%LPD*%
G36*
X261700Y332400D02*
Y328600D01*
X256200D01*
Y331900D01*
X256900Y333300D01*
X260800D01*
X261700Y332400D01*
D02*
G37*
G36*
X414400Y323800D02*
Y294600D01*
X403600D01*
X403300Y294900D01*
X403004Y323545D01*
X403355Y323900D01*
X414300D01*
X414400Y323800D01*
D02*
G37*
G36*
X415000Y240247D02*
Y210500D01*
X403160D01*
X402705Y210961D01*
X403100Y240300D01*
X414400D01*
X414538Y240438D01*
X415000Y240247D01*
D02*
G37*
D14*
X253772Y336200D02*
Y344578D01*
X251600Y312512D02*
Y316500D01*
X254332Y231668D02*
X254332D01*
X254600Y231400D01*
X355500Y356631D02*
X355532Y356600D01*
X360800D01*
X354013Y341831D02*
X355500D01*
X346445Y341800D02*
X354013D01*
X345900Y342345D02*
X346445Y341800D01*
X345900Y342345D02*
Y346031D01*
X360624Y341831D02*
X364757D01*
X355500D02*
X360624D01*
X292600Y104036D02*
X292618Y104018D01*
X302082D02*
X302100Y104000D01*
X309840D02*
X309850Y103990D01*
X292618Y104018D02*
X302082D01*
X258856Y336200D02*
X258978Y336078D01*
X253344Y336200D02*
X253472Y336072D01*
X175144Y336500D02*
X175172Y336472D01*
X263744Y229300D02*
Y233288D01*
X216237Y182500D02*
X216824Y183087D01*
X205619Y203681D02*
X205637Y203663D01*
X153657Y230584D02*
X153856Y230784D01*
X175272Y344250D02*
X175400Y344378D01*
X175144Y336500D02*
X175272Y336628D01*
X180400Y344378D02*
X180528Y344250D01*
Y336628D02*
Y344250D01*
Y336628D02*
X180656Y336500D01*
X205600Y207888D02*
X205619Y207870D01*
X182100Y208744D02*
X182150Y208694D01*
X258900Y336200D02*
Y344578D01*
X239500Y353300D02*
X239600Y353200D01*
X239500Y353300D02*
Y359648D01*
X239400Y359748D02*
X239500Y359648D01*
X258900Y344578D02*
Y344700D01*
X219405Y324006D02*
X219411Y324012D01*
D15*
X216500Y326800D02*
X216599D01*
X219399Y324000D01*
X285819Y292953D02*
X324153D01*
X330300Y299100D02*
X336500D01*
X324153Y292953D02*
X330300Y299100D01*
X353721Y106931D02*
X365469D01*
X350100Y106968D02*
X350118Y106950D01*
X353721D01*
X365469Y106931D02*
X365761Y106639D01*
X365761D02*
X366400Y106000D01*
X347131Y106968D02*
X350100D01*
X164853Y379731D02*
Y387653D01*
X166153Y388953D02*
X173353D01*
X164853Y387653D02*
X166153Y388953D01*
X350500Y301600D02*
Y338500D01*
X350600Y338600D01*
X191500Y363279D02*
X204853Y376631D01*
X190000Y363900D02*
X203353Y377253D01*
X193000Y362657D02*
X213800Y383457D01*
X191500Y325796D02*
Y363279D01*
X215447Y382983D02*
Y387426D01*
X190000Y326417D02*
Y363900D01*
X204853Y376631D02*
Y386043D01*
X194500Y314600D02*
Y362036D01*
X213800Y383457D02*
Y387900D01*
X194500Y362036D02*
X215447Y382983D01*
X203353Y377253D02*
Y388953D01*
X193000Y313979D02*
Y362657D01*
X216947Y391047D02*
X221037D01*
X213800Y387900D02*
X216947Y391047D01*
X217569Y389547D02*
X222202D01*
X215447Y387426D02*
X217569Y389547D01*
X208862Y390052D02*
X213364D01*
X218312Y395000D01*
X219400D01*
X222202Y389547D02*
X223702Y391047D01*
X231037D01*
X223700Y372900D02*
Y386900D01*
X226347Y389547D02*
X243947D01*
X223700Y386900D02*
X226347Y389547D01*
X207600Y356800D02*
X223700Y372900D01*
X207600Y306965D02*
Y356800D01*
X227521Y374600D02*
X241000D01*
X209569Y306965D02*
Y356647D01*
X227521Y374600D01*
X213506Y306965D02*
Y356306D01*
X211537Y306965D02*
Y356458D01*
X227500Y370300D02*
X245200D01*
X213506Y356306D02*
X227500Y370300D01*
X211537Y356458D02*
X227479Y372400D01*
X243199D01*
X243299Y372500D01*
X237004Y378270D02*
X254814D01*
X233400Y381874D02*
X237004Y378270D01*
X237833Y380270D02*
X255643D01*
X235400Y382703D02*
X237833Y380270D01*
X219399Y324000D02*
X219405Y324006D01*
X243947Y389547D02*
X249400Y395000D01*
X231037Y391047D02*
X234990Y395000D01*
X221037Y391047D02*
X224947Y394957D01*
X234990Y395000D02*
X239400D01*
X229357Y394957D02*
X229400Y395000D01*
X224947Y394957D02*
X229357D01*
X258418Y375151D02*
Y375200D01*
X257986Y369570D02*
X258120D01*
X258900Y366822D02*
Y368791D01*
X258120Y369570D02*
X258900Y368791D01*
X257400Y374133D02*
X258418Y375151D01*
X257400Y370156D02*
X257986Y369570D01*
X257400Y370156D02*
Y374133D01*
X254382Y375151D02*
Y375200D01*
Y375151D02*
X255400Y374133D01*
Y370156D02*
Y374133D01*
X254814Y369570D02*
X255400Y370156D01*
X254679Y369570D02*
X254814D01*
X253900Y368791D02*
X254679Y369570D01*
X253900Y366822D02*
Y368791D01*
X254382Y375200D02*
Y375249D01*
X229400Y385000D02*
X230283Y384117D01*
X258418Y375200D02*
Y375249D01*
X255400Y376267D02*
Y377684D01*
X254814Y378270D02*
X255400Y377684D01*
X254382Y375249D02*
X255400Y376267D01*
X235400Y382703D02*
Y383531D01*
X235986Y384117D01*
X238517D01*
X239400Y385000D01*
X233400Y381874D02*
Y383531D01*
X232814Y384117D02*
X233400Y383531D01*
X230283Y384117D02*
X232814D01*
X257400Y376267D02*
X258418Y375249D01*
X257400Y376267D02*
Y378513D01*
X255643Y380270D02*
X257400Y378513D01*
X185947Y320243D02*
X191500Y325796D01*
X193000Y313979D02*
X193821Y313158D01*
X194500Y314600D02*
X195789Y313311D01*
X183978Y320395D02*
X190000Y326417D01*
X193821Y306965D02*
Y313158D01*
X204853Y386043D02*
X208862Y390052D01*
X203353Y388953D02*
X209400Y395000D01*
X187237Y379047D02*
X189237Y381047D01*
X191651D02*
X194947Y384344D01*
X189237Y381047D02*
X191651D01*
X180463Y379047D02*
X187237D01*
X194947Y384344D02*
X198744D01*
X199400Y385000D01*
X176900Y369956D02*
Y373933D01*
X176314Y369370D02*
X176900Y369956D01*
X176180Y369370D02*
X176314D01*
X175882Y374951D02*
X176900Y373933D01*
X175882Y374951D02*
Y375000D01*
X175400Y368590D02*
X176180Y369370D01*
X175400Y366622D02*
Y368590D01*
X179621Y369370D02*
X180400Y368590D01*
Y366622D02*
Y368590D01*
X179918Y374951D02*
Y375000D01*
X178900Y373933D02*
X179918Y374951D01*
X178900Y369956D02*
Y373933D01*
X179486Y369370D02*
X179621D01*
X178900Y369956D02*
X179486Y369370D01*
X186409Y381047D02*
X189400Y384038D01*
Y385000D01*
X178900Y376067D02*
X179918Y375049D01*
X178900Y377484D02*
X180463Y379047D01*
X175882Y375049D02*
X176900Y376067D01*
X179635Y381047D02*
X186409D01*
X176900Y376067D02*
Y378313D01*
X179635Y381047D01*
X175882Y375000D02*
Y375049D01*
X179918Y375000D02*
Y375049D01*
X178900Y376067D02*
Y377484D01*
X159763Y299716D02*
X164849D01*
X153100Y306379D02*
X159763Y299716D01*
X153100Y306379D02*
Y309400D01*
X142000Y320200D02*
X142100D01*
X107200Y355000D02*
X142000Y320200D01*
X76600Y355000D02*
X107200D01*
X152868Y347913D02*
X178038Y322743D01*
Y306999D02*
Y322743D01*
X170400Y334089D02*
Y344378D01*
Y334089D02*
X180041Y324448D01*
Y306965D02*
Y324448D01*
X162100Y379100D02*
X163353Y380353D01*
X154479Y379100D02*
X162100D01*
X163353Y380353D02*
Y388953D01*
X162621Y377500D02*
X164853Y379731D01*
X155000Y377500D02*
X162621D01*
X163353Y388953D02*
X169400Y395000D01*
X148900Y373521D02*
X154479Y379100D01*
X153353Y382217D02*
Y391047D01*
X150400Y372900D02*
X155000Y377500D01*
X147400Y300857D02*
X154482Y293776D01*
X154853Y390453D02*
X159400Y395000D01*
X154853Y381595D02*
Y390453D01*
X145900Y300236D02*
X154329Y291807D01*
X148900Y301479D02*
Y373521D01*
X149400Y395000D02*
X153353Y391047D01*
X147400Y374143D02*
X154853Y381595D01*
X154635Y295744D02*
X164883D01*
X145900Y374764D02*
X153353Y382217D01*
X147400Y300857D02*
Y374143D01*
X150400Y302100D02*
Y372900D01*
X145900Y300236D02*
Y374764D01*
X154482Y293776D02*
X164883D01*
X148900Y301479D02*
X154635Y295744D01*
X150400Y302100D02*
X154787Y297713D01*
X173353Y388953D02*
X179400Y395000D01*
X154787Y297713D02*
X164883D01*
X47100Y174000D02*
X47200Y174100D01*
X57300Y184200D02*
X137800D01*
X219411Y318311D02*
X219600Y318500D01*
X76600Y365000D02*
X76850Y364750D01*
X157091Y232521D02*
X157323Y232752D01*
X164883D01*
X147020Y234720D02*
X164883D01*
X145597Y236697D02*
X164876D01*
X144724Y238705D02*
X164835D01*
X126600Y220581D02*
X144724Y238705D01*
X164835D02*
X164883Y238657D01*
X132100Y223200D02*
X145597Y236697D01*
X134300Y222000D02*
X147020Y234720D01*
X158466Y230784D02*
X164883D01*
X158003Y230321D02*
X158466Y230784D01*
X154319Y230321D02*
X158003D01*
X164876Y236697D02*
X164883Y236689D01*
X153856Y230784D02*
X154319Y230321D01*
X228100Y203865D02*
X228800Y203165D01*
Y202786D02*
Y203165D01*
X228100Y203865D02*
Y207444D01*
X219446Y202454D02*
Y223465D01*
X219411Y223500D02*
X219446Y223465D01*
X219411Y223500D02*
Y238189D01*
X219446Y202454D02*
X224644Y197256D01*
X244100Y320500D02*
X258600D01*
X263900Y325800D02*
Y344578D01*
X258600Y320500D02*
X263900Y325800D01*
X241065Y317465D02*
X244100Y320500D01*
X253248Y232752D02*
X254332Y231668D01*
Y231647D02*
Y231668D01*
X255825Y233300D02*
X258244D01*
X254404Y234720D02*
X255825Y233300D01*
X254332Y231647D02*
X254579Y231400D01*
X248348Y234720D02*
X254404D01*
X254579Y231400D02*
X254600D01*
X253248Y232752D02*
X253248D01*
X253248Y232752D02*
X253248Y232752D01*
X248348Y232752D02*
X253248D01*
X253292Y258308D02*
X253800Y257800D01*
X248383Y258308D02*
X253292D01*
X248383Y277993D02*
X253307D01*
X253700Y277600D01*
X336500Y307300D02*
Y346474D01*
X346752Y356726D01*
X286753Y291453D02*
X345647D01*
X355500Y281600D01*
Y276768D02*
Y281600D01*
X339100Y304900D02*
Y346600D01*
X343387Y350887D01*
X346752Y356726D02*
X346752D01*
X351487Y361461D01*
X353892D01*
X354000Y361568D01*
X355500D01*
X154329Y291807D02*
X164883D01*
X368200Y350875D02*
Y356200D01*
X366600Y350900D02*
Y354311D01*
X359343Y361568D02*
X366600Y354311D01*
X364100Y347700D02*
X366600D01*
X363169Y346768D02*
X364100Y347700D01*
X350631Y346768D02*
X363169D01*
X366600Y347700D02*
X366625Y347725D01*
X362732Y276768D02*
X366625Y272875D01*
X355487Y276768D02*
X362732D01*
X366625Y265375D02*
Y272875D01*
X368200Y265375D02*
Y275200D01*
X285100Y301600D02*
X350500D01*
X277276Y293776D02*
X285100Y301600D01*
X331300Y304900D02*
X339200D01*
X329947Y303547D02*
X331300Y304900D01*
X284026Y303547D02*
X329947D01*
X276223Y295744D02*
X284026Y303547D01*
X345800Y273600D02*
X345900Y273700D01*
X345800Y272800D02*
Y273600D01*
Y272800D02*
X345900Y272700D01*
Y265968D02*
Y272700D01*
X248348Y278028D02*
X248383Y277993D01*
X318147Y190353D02*
Y195664D01*
X330400Y178100D02*
X333590D01*
X318147Y190353D02*
X330400Y178100D01*
X316647Y189453D02*
X332100Y174000D01*
X316647Y189453D02*
Y195043D01*
X333590Y178100D02*
X336053Y175637D01*
X253400Y223500D02*
X285400Y191500D01*
X241065Y223500D02*
X253400D01*
X285400Y191500D02*
X289600D01*
X249853Y229279D02*
Y230700D01*
X272800Y208600D02*
X275947Y205453D01*
X277631Y201500D02*
X289600D01*
X272800Y208600D02*
Y228800D01*
X249853Y229279D02*
X277631Y201500D01*
X249769Y230784D02*
X249853Y230700D01*
X248348Y230784D02*
X249769D01*
X275947Y205453D02*
X291237D01*
X248348Y258343D02*
X248383Y258308D01*
X283189Y235900D02*
X315200D01*
X276957Y242131D02*
X283189Y235900D01*
X265989Y242131D02*
X276957D01*
X267231Y244000D02*
X278200D01*
X266703Y244528D02*
X267231Y244000D01*
X272763Y240626D02*
X287820Y225569D01*
X248348Y240626D02*
X272763D01*
X265526Y242595D02*
X265989Y242131D01*
X287820Y225569D02*
X291121D01*
X248383Y244528D02*
X266703D01*
X248348Y242595D02*
X265526D01*
X248348Y246532D02*
X275869D01*
X275900Y246500D01*
X248348Y244563D02*
X248383Y244528D01*
X278100Y247389D02*
X288089Y237400D01*
X278100Y247389D02*
Y247411D01*
X288089Y237400D02*
X315821D01*
X276811Y248700D02*
X278100Y247411D01*
X282100Y246500D02*
X325190D01*
X248548Y248700D02*
X276811D01*
X325190Y246500D02*
X366053Y205637D01*
X270443Y238657D02*
X273100Y236000D01*
X268821Y236689D02*
X287963Y217547D01*
X248348Y236689D02*
X268821D01*
X287963Y217547D02*
X289143D01*
X248348Y248500D02*
X248548Y248700D01*
X332100Y164000D02*
X336053Y167953D01*
Y175637D01*
X337553Y163863D02*
Y184137D01*
X333737Y160047D02*
X337553Y163863D01*
X336600Y185090D02*
X337553Y184137D01*
X347400Y168700D02*
X352100Y164000D01*
X347400Y168700D02*
Y183110D01*
X338100Y192410D02*
X347400Y183110D01*
X336600Y185090D02*
Y214500D01*
X315200Y235900D02*
X336600Y214500D01*
X320463Y160047D02*
X333737D01*
X316751Y163759D02*
X320463Y160047D01*
X338100Y192410D02*
Y215121D01*
X315821Y237400D02*
X338100Y215121D01*
X294600Y181500D02*
Y202090D01*
Y181500D02*
X299647Y176453D01*
Y176453D02*
X302100Y174000D01*
X299647Y176453D02*
Y176453D01*
X248348Y238657D02*
X270443D01*
X239096Y223500D02*
X239100Y223496D01*
Y218100D02*
X242800Y214400D01*
X239100Y218100D02*
Y223496D01*
X242100Y211500D02*
X242600D01*
X237128Y216472D02*
X242100Y211500D01*
X237128Y216472D02*
Y223500D01*
X235100Y216802D02*
Y219849D01*
X233190Y217386D02*
Y223500D01*
Y217386D02*
X233776Y216800D01*
X235098D01*
X235100Y216802D01*
X224644Y153800D02*
Y197256D01*
X216013Y153642D02*
X216172Y153800D01*
X224644D01*
X185947Y216653D02*
X187663Y214937D01*
X185947Y216653D02*
Y223500D01*
X153887Y243950D02*
X158350D01*
X159706Y242595D02*
X164883D01*
X158350Y243950D02*
X159706Y242595D01*
X153637Y243700D02*
X153887Y243950D01*
X159100Y278900D02*
X159200D01*
X160073Y278028D01*
X160158Y258343D02*
X164883D01*
X159000Y259500D02*
X160158Y258343D01*
X139163Y252437D02*
X164883D01*
X128600Y263000D02*
X139163Y252437D01*
X117963Y317547D02*
X121053D01*
X153600Y285000D02*
X157100D01*
X121053Y317547D02*
X153600Y285000D01*
X77057Y348953D02*
X86557D01*
X117963Y317547D01*
X371525Y100213D02*
Y104425D01*
X369844Y98532D02*
X371525Y100213D01*
X359086Y103514D02*
X359100Y103500D01*
X364145D01*
X355504Y103514D02*
X359086D01*
X203663Y218437D02*
Y223500D01*
Y218437D02*
X205600Y216500D01*
X201694Y218195D02*
Y223500D01*
X200200Y216700D02*
X201694Y218195D01*
X88710Y181200D02*
X139749D01*
X85800Y182700D02*
X139128D01*
X137800Y184200D02*
X172167Y218567D01*
X139128Y182700D02*
X176069Y219641D01*
X77100Y174000D02*
X85800Y182700D01*
X139749Y181200D02*
X178038Y219488D01*
X81751Y174241D02*
X88710Y181200D01*
X134300Y189500D02*
Y222000D01*
X132100Y187000D02*
Y223200D01*
X126600Y187000D02*
X126856Y186744D01*
X126600Y187000D02*
Y220581D01*
X310902Y199608D02*
X314204D01*
X386893Y169207D02*
Y184797D01*
X366053Y205637D02*
Y205637D01*
Y205637D02*
X386893Y184797D01*
Y169207D02*
X392100Y164000D01*
X292553Y283547D02*
X358400Y217700D01*
X364145Y103500D02*
X365070Y104425D01*
X369950D01*
X359564Y262300D02*
X366550D01*
X366625Y262225D01*
X358365Y261100D02*
X359564Y262300D01*
X355668Y261100D02*
X358365D01*
X284674Y291807D02*
X285819Y292953D01*
X285139Y289839D02*
X286753Y291453D01*
X248348Y289839D02*
X285139D01*
X248348Y291807D02*
X284674D01*
X345900Y350969D02*
X354331D01*
X345819Y350887D02*
X345900Y350969D01*
X343387Y350887D02*
X345819D01*
X248348Y293776D02*
X277276D01*
X248348Y295744D02*
X276223D01*
X356000Y349300D02*
X363900D01*
X354331Y350969D02*
X356000Y349300D01*
X355500Y361568D02*
X359343D01*
X366600Y350900D02*
X366625Y350875D01*
X363900Y349300D02*
Y353900D01*
Y349300D02*
X366625D01*
X367267Y343264D02*
X368200Y344197D01*
Y347725D01*
X366944Y342938D02*
X367267Y343261D01*
Y343264D01*
X369775Y350875D02*
Y353014D01*
X371000Y354239D01*
Y354300D01*
X371350Y350875D02*
X374075D01*
X371350Y347725D02*
X374646D01*
X371600Y341975D02*
X371743Y341831D01*
X369775Y346250D02*
X371600Y344425D01*
Y341975D02*
Y344425D01*
X369775Y346250D02*
Y347725D01*
X371350Y349300D02*
X373900D01*
X346200Y107900D02*
Y109000D01*
Y107900D02*
X347131Y106968D01*
X366400Y106000D02*
X369950D01*
X371350Y265375D02*
X375275D01*
X378031Y268131D02*
X382400D01*
X375275Y265375D02*
X378031Y268131D01*
X375400Y262200D02*
X378165Y259435D01*
X382365D02*
X382400Y259469D01*
X378165Y259435D02*
X382365D01*
X371743Y256585D02*
Y259761D01*
X369775Y261679D02*
Y262225D01*
X371350D02*
X375375D01*
X375400Y262200D01*
X370784Y260720D02*
X371743Y259761D01*
X370734Y260720D02*
X370784D01*
X369775Y261679D02*
X370734Y260720D01*
X371350Y263800D02*
X374814D01*
X375400Y262200D02*
Y263214D01*
X374814Y263800D02*
X375400Y263214D01*
X377502Y344869D02*
X382200D01*
X374486Y347886D02*
X377502Y344869D01*
X373900Y349300D02*
X374486Y348714D01*
Y347886D02*
Y348714D01*
X374075Y350875D02*
X376731Y353531D01*
X382200D01*
X350500Y262000D02*
Y262100D01*
Y262000D02*
X351232Y261268D01*
X355500D01*
X345900Y265968D02*
X355332D01*
X357500Y263800D02*
X366625D01*
X355332Y265968D02*
X357500Y263800D01*
X355500Y261268D02*
X355668Y261100D01*
X369775Y267775D02*
X370700Y268700D01*
X369775Y265375D02*
Y267775D01*
X366231Y256725D02*
X367267Y257761D01*
X366231Y256331D02*
Y256725D01*
X367267Y257761D02*
X367448D01*
X368200Y258513D01*
Y262225D01*
X287963Y283547D02*
X292553D01*
X359100Y116868D02*
Y120900D01*
X360199Y115701D02*
Y115876D01*
X368325Y107575D02*
X369950D01*
X360199Y115701D02*
X368325Y107575D01*
X360106Y115969D02*
X360199Y115876D01*
X373100Y110450D02*
X373895Y111245D01*
X373100Y107575D02*
Y110450D01*
X371525Y107575D02*
Y110214D01*
X370600Y111139D02*
X371525Y110214D01*
X378025Y104425D02*
X380750Y101701D01*
X386100D02*
X386100Y101701D01*
X380750Y101701D02*
X386100D01*
X374675Y106000D02*
X377514D01*
X378100Y105414D01*
Y104350D02*
Y105414D01*
X374675Y104425D02*
X378025D01*
X373100Y103500D02*
X375356Y101244D01*
Y98532D02*
Y101244D01*
X373100Y103500D02*
Y104425D01*
X377462Y110362D02*
X386100D01*
X374675Y107575D02*
X377462Y110362D01*
X283640Y287870D02*
X287963Y283547D01*
X173100Y313000D02*
X174101Y311999D01*
X176102Y306966D02*
Y315466D01*
X176100Y315468D02*
X176102Y315466D01*
X176100Y315468D02*
Y315925D01*
X173100Y318925D02*
X176100Y315925D01*
X174101Y306999D02*
Y311999D01*
Y306999D02*
X174135Y306965D01*
X160073Y278028D02*
X164883D01*
X248348Y287870D02*
X283640D01*
X248348Y279996D02*
X248352Y280000D01*
X257344D01*
X254859Y297678D02*
X258359Y301178D01*
X212100Y199906D02*
Y207000D01*
X215474Y210374D02*
Y223500D01*
X212100Y207000D02*
X215474Y210374D01*
X207963Y194000D02*
Y194037D01*
Y182500D02*
Y194000D01*
X212100D01*
X205600Y213400D02*
Y216500D01*
X180006Y219206D02*
Y223465D01*
X178038D02*
X178072Y223500D01*
X172167Y218567D02*
Y223500D01*
X176069Y223465D02*
X176104Y223500D01*
X143600Y182800D02*
X180006Y219206D01*
X176069Y219641D02*
Y223465D01*
X178038Y219488D02*
Y223465D01*
X143600Y164854D02*
Y182800D01*
X66410Y159100D02*
X137847D01*
X143600Y164854D01*
X115384Y266216D02*
X164883D01*
X100149Y250982D02*
X115384Y266216D01*
X178038Y306999D02*
X178072Y306965D01*
X185300Y344278D02*
X185400Y344378D01*
X185300Y323839D02*
Y344278D01*
X182009Y320548D02*
X185300Y323839D01*
X312100Y174000D02*
X316751Y169349D01*
Y163759D02*
Y169349D01*
X306053Y202336D02*
Y207194D01*
X296760Y209930D02*
X303317D01*
X291121Y225569D02*
X307553Y209137D01*
Y202957D02*
Y209137D01*
X303317Y209930D02*
X306053Y207194D01*
Y202336D02*
X310281Y198108D01*
X289143Y217547D02*
X296760Y209930D01*
X307553Y202957D02*
X310902Y199608D01*
X313582Y198108D02*
X316647Y195043D01*
X314204Y199608D02*
X318147Y195664D01*
X310281Y198108D02*
X313582D01*
X182009Y214347D02*
Y223500D01*
Y214347D02*
X182100Y214256D01*
X180006Y223465D02*
X180041Y223500D01*
X61751Y163759D02*
X66410Y159100D01*
X219600Y318500D02*
X219805D01*
X219411D02*
X219600D01*
X180226Y153642D02*
X216013D01*
X180187Y153681D02*
X180226Y153642D01*
X235126Y192674D02*
X235252Y192800D01*
X228100Y212956D02*
Y216273D01*
X231222Y208074D02*
X231808Y207488D01*
X235100D01*
X231222Y208074D02*
Y223500D01*
X229254Y217426D02*
Y223500D01*
X228100Y216273D02*
X229254Y217426D01*
X235100Y213756D02*
X235356Y213500D01*
X235100Y219849D02*
X235159Y219908D01*
Y223500D01*
X186600Y271000D02*
X219411Y238189D01*
X291237Y205453D02*
X294600Y202090D01*
X185947Y306965D02*
Y320243D01*
X183978Y306965D02*
Y320395D01*
X239096Y306965D02*
Y318496D01*
X248900Y328300D02*
Y344578D01*
X239096Y318496D02*
X248900Y328300D01*
X241065Y306965D02*
Y317465D01*
X239400Y366652D02*
X239692Y366944D01*
X195789Y306965D02*
Y313311D01*
X182009Y306965D02*
Y320548D01*
X72647Y353363D02*
Y366637D01*
X76557Y370547D01*
Y374957D01*
X76600Y375000D01*
X72647Y353363D02*
X77057Y348953D01*
X115600Y296500D02*
X126100D01*
X76600Y335500D02*
Y345000D01*
Y335500D02*
X115600Y296500D01*
X128600Y281500D02*
Y294000D01*
X126100Y296500D02*
X128600Y294000D01*
X197746Y324000D02*
X197757Y324012D01*
X61751Y163759D02*
Y169349D01*
X57100Y174000D02*
X61751Y169349D01*
X97100Y164000D02*
X97143Y164043D01*
X100100Y263982D02*
X106492D01*
X117963Y275453D01*
X100149Y275982D02*
X101998Y274133D01*
X114522D02*
X117341Y276953D01*
X101998Y274133D02*
X114522D01*
X199726Y306965D02*
Y313126D01*
X201600Y315000D01*
X221379Y312779D02*
X223600Y315000D01*
X219411Y306965D02*
Y318311D01*
X221379Y306965D02*
Y312779D01*
X197757Y306965D02*
Y318500D01*
X164849Y299716D02*
X164883Y299681D01*
X173100Y318968D02*
Y319468D01*
Y318925D02*
Y318968D01*
X189813Y214937D02*
X190100Y214650D01*
X187663Y214937D02*
X189813D01*
X77100Y164000D02*
X81751Y168651D01*
Y174241D01*
X248348Y299681D02*
Y304142D01*
X251206Y307000D01*
X216824Y183087D02*
Y194000D01*
X100100Y250982D02*
X100149D01*
X117963Y275453D02*
X133492D01*
X140760Y268185D02*
X164883D01*
X133492Y275453D02*
X140760Y268185D01*
X134114Y276953D02*
X140913Y270153D01*
X117341Y276953D02*
X134114D01*
X140913Y270153D02*
X164883D01*
X100100Y275982D02*
X100149D01*
X155726Y256374D02*
X164883D01*
X155600Y256500D02*
X155726Y256374D01*
X155659Y276059D02*
X164883D01*
X176102Y306966D02*
X176104Y306965D01*
X248348Y297713D02*
X248383Y297678D01*
X254859D01*
X258359Y301178D02*
X258537Y301000D01*
X248348Y260311D02*
X257289D01*
X257600Y260000D01*
X219178Y-137500D02*
X220128Y-138451D01*
D16*
X193903Y211103D02*
X195500Y212700D01*
X191875Y211103D02*
X193903D01*
X167100Y306644D02*
X167420Y306965D01*
X172167D01*
X191872Y211106D02*
X191875Y211103D01*
X182100Y214256D02*
X182494D01*
X184856Y211894D01*
X188328D01*
X251206Y307000D02*
X251600D01*
X161400Y366452D02*
X161570Y366622D01*
D17*
X355500Y361568D02*
D03*
Y356631D02*
D03*
Y346768D02*
D03*
Y341831D02*
D03*
X345900Y350969D02*
D03*
Y346031D02*
D03*
X355500Y271831D02*
D03*
Y276768D02*
D03*
X345900Y265968D02*
D03*
Y261032D02*
D03*
X355500Y261268D02*
D03*
Y256331D02*
D03*
X359100Y116868D02*
D03*
Y111932D02*
D03*
X350100Y106968D02*
D03*
Y102032D02*
D03*
X359100Y103469D02*
D03*
Y98532D02*
D03*
D18*
X382200Y353531D02*
D03*
Y344869D02*
D03*
X382400Y268131D02*
D03*
Y259469D02*
D03*
X386100Y110362D02*
D03*
Y101701D02*
D03*
D19*
X226600Y110500D02*
D03*
Y120736D02*
D03*
D20*
X192486Y119606D02*
D03*
D21*
X215714Y128661D02*
D03*
Y119606D02*
D03*
Y110551D02*
D03*
D22*
X369844Y98532D02*
D03*
X375356D02*
D03*
X366231Y256331D02*
D03*
X371743D02*
D03*
X366231Y341831D02*
D03*
X371743D02*
D03*
X230156Y153800D02*
D03*
X224644D02*
D03*
X150088Y256500D02*
D03*
X155600D02*
D03*
X148344Y230784D02*
D03*
X153856D02*
D03*
X262856Y280000D02*
D03*
X257344D02*
D03*
X263112Y260000D02*
D03*
X257600D02*
D03*
X263756Y233300D02*
D03*
X258244D02*
D03*
X150088Y276000D02*
D03*
X155600D02*
D03*
D23*
X371350Y265375D02*
D03*
Y263800D02*
D03*
Y262225D02*
D03*
X369775Y265375D02*
D03*
Y263800D02*
D03*
Y262225D02*
D03*
X368200Y265375D02*
D03*
Y263800D02*
D03*
Y262225D02*
D03*
X366625Y265375D02*
D03*
Y263800D02*
D03*
Y262225D02*
D03*
X374675Y107575D02*
D03*
Y106000D02*
D03*
Y104425D02*
D03*
X373100Y107575D02*
D03*
Y106000D02*
D03*
Y104425D02*
D03*
X371525Y107575D02*
D03*
Y106000D02*
D03*
Y104425D02*
D03*
X369950Y107575D02*
D03*
Y106000D02*
D03*
Y104425D02*
D03*
X371350Y350875D02*
D03*
Y349300D02*
D03*
Y347725D02*
D03*
X369775Y350875D02*
D03*
Y349300D02*
D03*
Y347725D02*
D03*
X368200Y350875D02*
D03*
Y349300D02*
D03*
Y347725D02*
D03*
X366625Y350875D02*
D03*
Y349300D02*
D03*
Y347725D02*
D03*
D24*
X332210Y73000D02*
D03*
X345990D02*
D03*
D25*
X374100Y57524D02*
D03*
Y84689D02*
D03*
D26*
X292100Y104036D02*
D03*
Y100000D02*
D03*
X100100Y250982D02*
D03*
Y255018D02*
D03*
Y263982D02*
D03*
Y268018D02*
D03*
Y275982D02*
D03*
Y280018D02*
D03*
D27*
X309340Y104000D02*
D03*
X301860D02*
D03*
X92938Y266265D02*
D03*
X85457D02*
D03*
X92938Y278265D02*
D03*
X85457D02*
D03*
D28*
X292179Y95000D02*
D03*
X297100D02*
D03*
X212100Y194000D02*
D03*
Y199906D02*
D03*
X216824D02*
D03*
Y194000D02*
D03*
X258856Y336200D02*
D03*
X253344D02*
D03*
X175144Y336500D02*
D03*
X180656D02*
D03*
D29*
X207963Y182500D02*
D03*
X216237D02*
D03*
X153637Y243700D02*
D03*
X145363D02*
D03*
D30*
X64006Y152300D02*
D03*
X52194D02*
D03*
X295290Y152199D02*
D03*
X307101D02*
D03*
D31*
X208360Y137500D02*
D03*
X215840D02*
D03*
D32*
X263900Y366822D02*
D03*
X258900D02*
D03*
X253900D02*
D03*
X248900D02*
D03*
X263900Y344578D02*
D03*
X258900D02*
D03*
X253900D02*
D03*
X248900D02*
D03*
X170400Y344378D02*
D03*
X175400D02*
D03*
X180400D02*
D03*
X185400D02*
D03*
X170400Y366622D02*
D03*
X175400D02*
D03*
X180400D02*
D03*
X185400D02*
D03*
D33*
X239400Y366652D02*
D03*
Y359748D02*
D03*
X235100Y192648D02*
D03*
Y199552D02*
D03*
X161400Y359548D02*
D03*
Y366452D02*
D03*
D34*
X258418Y375200D02*
D03*
X254382D02*
D03*
X175882Y375000D02*
D03*
X179918D02*
D03*
D35*
X164883Y230784D02*
D03*
Y232752D02*
D03*
X164883Y234720D02*
D03*
X164883Y236689D02*
D03*
Y238657D02*
D03*
Y240626D02*
D03*
Y242595D02*
D03*
Y244563D02*
D03*
X164883Y246532D02*
D03*
Y248500D02*
D03*
Y250468D02*
D03*
X164883Y252437D02*
D03*
Y254405D02*
D03*
Y256374D02*
D03*
Y258343D02*
D03*
Y260311D02*
D03*
X164883Y262280D02*
D03*
Y264248D02*
D03*
X164883Y266216D02*
D03*
Y268185D02*
D03*
Y270153D02*
D03*
Y272122D02*
D03*
Y274091D02*
D03*
X164883Y276059D02*
D03*
X164883Y278028D02*
D03*
Y279996D02*
D03*
Y281965D02*
D03*
Y283933D02*
D03*
Y285902D02*
D03*
X164883Y287870D02*
D03*
Y289839D02*
D03*
X164883Y291807D02*
D03*
Y293776D02*
D03*
Y295744D02*
D03*
Y297713D02*
D03*
Y299681D02*
D03*
X248348Y299681D02*
D03*
Y297713D02*
D03*
Y295744D02*
D03*
Y293776D02*
D03*
Y291807D02*
D03*
Y289839D02*
D03*
Y287870D02*
D03*
Y285902D02*
D03*
Y283933D02*
D03*
Y281965D02*
D03*
Y279996D02*
D03*
Y278028D02*
D03*
Y276059D02*
D03*
Y274091D02*
D03*
Y272122D02*
D03*
Y270153D02*
D03*
Y268185D02*
D03*
Y266216D02*
D03*
Y264248D02*
D03*
Y262280D02*
D03*
Y260311D02*
D03*
Y258343D02*
D03*
Y256374D02*
D03*
Y254405D02*
D03*
Y252437D02*
D03*
Y250468D02*
D03*
Y248500D02*
D03*
Y246532D02*
D03*
Y244563D02*
D03*
Y242595D02*
D03*
Y240626D02*
D03*
Y238657D02*
D03*
Y236689D02*
D03*
Y234720D02*
D03*
Y232752D02*
D03*
Y230784D02*
D03*
D36*
X172167Y306965D02*
D03*
X174135Y306965D02*
D03*
X176104D02*
D03*
X178072D02*
D03*
X180041D02*
D03*
X182009D02*
D03*
X183978Y306965D02*
D03*
X185947D02*
D03*
X187915Y306965D02*
D03*
X189883D02*
D03*
X191852D02*
D03*
X193821D02*
D03*
X195789D02*
D03*
X197757D02*
D03*
X199726D02*
D03*
X201694D02*
D03*
X203663D02*
D03*
X205631D02*
D03*
X207600D02*
D03*
X209569D02*
D03*
X211537D02*
D03*
X213506D02*
D03*
X215474D02*
D03*
X217442D02*
D03*
X219411D02*
D03*
X221379D02*
D03*
X223348Y306965D02*
D03*
X225317D02*
D03*
X227285D02*
D03*
X229254Y306965D02*
D03*
X231222D02*
D03*
X233191D02*
D03*
X235159D02*
D03*
X237128D02*
D03*
X239096D02*
D03*
X241065D02*
D03*
Y223500D02*
D03*
X239096D02*
D03*
X237128D02*
D03*
X235159D02*
D03*
X233190D02*
D03*
X231222D02*
D03*
X229254D02*
D03*
X227285D02*
D03*
X225317D02*
D03*
X223348D02*
D03*
X221379D02*
D03*
X219411D02*
D03*
X217442D02*
D03*
X215474D02*
D03*
X213506D02*
D03*
X211537D02*
D03*
X209569D02*
D03*
X207600D02*
D03*
X205631D02*
D03*
X203663D02*
D03*
X201694D02*
D03*
X199726D02*
D03*
X197757D02*
D03*
X195789D02*
D03*
X193821D02*
D03*
X191852D02*
D03*
X189883D02*
D03*
X187915D02*
D03*
X185947D02*
D03*
X183978D02*
D03*
X182009D02*
D03*
X180041D02*
D03*
X178072D02*
D03*
X176104D02*
D03*
X174135D02*
D03*
X172167D02*
D03*
D37*
X148342Y221099D02*
D03*
X153657D02*
D03*
D38*
X92643Y254000D02*
D03*
X85557D02*
D03*
D39*
X219411Y324012D02*
D03*
Y318500D02*
D03*
X197757Y324012D02*
D03*
Y318500D02*
D03*
X167100Y312156D02*
D03*
Y306644D02*
D03*
X235100Y207488D02*
D03*
Y213000D02*
D03*
X251600Y312512D02*
D03*
Y307000D02*
D03*
X205600Y207888D02*
D03*
Y213400D02*
D03*
X182100Y208744D02*
D03*
Y214256D02*
D03*
X228100Y207444D02*
D03*
Y212956D02*
D03*
D40*
X173100Y318968D02*
D03*
Y322031D02*
D03*
D41*
X19148Y247000D02*
D03*
X26052D02*
D03*
D42*
X190100Y208350D02*
D03*
Y214650D02*
D03*
D43*
X191872Y211106D02*
D03*
X188328Y211894D02*
D03*
D44*
X258537Y301000D02*
D03*
X261600D02*
D03*
D45*
X180187Y171319D02*
D03*
X216013D02*
D03*
X180187Y153681D02*
D03*
X216013Y153642D02*
D03*
D54*
X180187Y171319D02*
X216013D01*
X225470Y119606D02*
X226600Y120736D01*
X46269Y402500D02*
X391431D01*
X405915Y388016D01*
X31785D02*
X46269Y402500D01*
X87000Y291600D02*
X87100Y291500D01*
X216013Y165913D02*
Y171319D01*
X216000Y165900D02*
X216013Y165913D01*
X180187Y176087D02*
X182600Y178500D01*
X180187Y171319D02*
Y176087D01*
X247100Y64000D02*
X247293Y64193D01*
X215740Y110526D02*
X226570D01*
X247100Y64000D02*
Y72000D01*
X19100Y247000D02*
Y374519D01*
Y47182D02*
Y247000D01*
X31785Y33685D02*
X44970Y20500D01*
X392730D02*
X405915Y33685D01*
X44970Y20500D02*
X392730D01*
X19100Y374519D02*
X31785Y387204D01*
X19100Y47182D02*
X31785Y34497D01*
Y33685D02*
Y34497D01*
Y387204D02*
Y388016D01*
X47100Y164000D02*
X47200Y164100D01*
X144100Y276000D02*
X150088D01*
X215714Y110551D02*
X215740Y110526D01*
D55*
X360692Y341900D02*
X360900D01*
X360624Y341831D02*
X360692Y341900D01*
X225272Y212956D02*
X228100D01*
X224100Y211784D02*
X225272Y212956D01*
X224100Y203500D02*
Y211784D01*
Y203500D02*
X227900Y199700D01*
Y188072D02*
Y199700D01*
X180600Y332000D02*
Y336444D01*
X180656Y336500D01*
X229072Y186900D02*
X250000D01*
X258244Y229256D02*
Y233300D01*
Y229256D02*
X258300Y229200D01*
X259000Y332200D02*
Y336056D01*
X258978Y336078D02*
X259000Y336056D01*
X253400Y332100D02*
X253472Y332172D01*
Y336072D01*
X355500Y256331D02*
X366231D01*
X235100Y213756D02*
Y216802D01*
X216800Y203900D02*
Y204200D01*
X216824Y199906D02*
Y203876D01*
X216800Y203900D02*
X216824Y203876D01*
X227900Y188072D02*
X229072Y186900D01*
X144900Y221100D02*
X144901Y221099D01*
X148342D01*
X355500Y271831D02*
X360531D01*
X360600Y271900D01*
X355487Y271831D02*
X355500D01*
X347040Y256331D02*
X355500D01*
X375356Y98532D02*
X375400Y98487D01*
X345900Y257472D02*
X347040Y256331D01*
X345900Y257472D02*
Y261032D01*
X161400Y359548D02*
X161500Y359448D01*
X203965Y212865D02*
X205065D01*
X205600Y213400D01*
X153657Y221099D02*
Y230584D01*
D56*
X139400Y385000D02*
X149400D01*
X121650Y367250D02*
X139400Y385000D01*
X121650Y367250D02*
X133200Y355700D01*
X116976Y371924D02*
X121650Y367250D01*
X76600Y385000D02*
X88400D01*
X101476Y371924D02*
X116976D01*
X88400Y385000D02*
X101476Y371924D01*
D57*
X47100Y194000D02*
X52397Y188703D01*
X47100Y193926D02*
Y194000D01*
X371743Y341800D02*
X375100D01*
X312100Y193000D02*
X312600Y193500D01*
X230100Y153506D02*
Y157800D01*
X230156Y153406D02*
X230200D01*
X148344Y227044D02*
Y230784D01*
X148300Y227000D02*
X148344Y227044D01*
Y230784D02*
X148387Y230719D01*
X182150Y204550D02*
Y208694D01*
X251600Y307000D02*
X257300D01*
X257700Y256000D02*
Y259900D01*
X257600Y260000D02*
X257700Y259900D01*
X257400Y275900D02*
Y279944D01*
X257344Y280000D02*
X257400Y279944D01*
X162056Y312156D02*
X167100D01*
X230156Y153450D02*
X230200Y153406D01*
X230100Y153506D02*
X230156Y153450D01*
Y153800D01*
Y153406D02*
Y153450D01*
X375400Y95100D02*
Y98487D01*
X375356Y98532D02*
X375614D01*
X379096Y98504D02*
X379100Y98500D01*
X375641Y98504D02*
X379096D01*
X375614Y98532D02*
X375641Y98504D01*
X52397Y153297D02*
Y188703D01*
X371600Y337400D02*
Y341657D01*
X371743Y341800D01*
X371800Y252000D02*
Y256275D01*
X371743Y256331D02*
X371800Y256275D01*
X119600Y271500D02*
X125600D01*
X112600Y281500D02*
X119600D01*
X145600Y256500D02*
X150088D01*
X139100Y243500D02*
X145163D01*
X145363Y243700D01*
X312100Y194000D02*
X312600Y193500D01*
X205619Y203681D02*
Y207870D01*
X306803Y163900D02*
Y189224D01*
X307101Y152199D02*
X307400Y151900D01*
X302200Y163900D02*
X306803D01*
Y152497D02*
Y163900D01*
X47200Y164100D02*
X52147D01*
X306803Y152497D02*
X307101Y152199D01*
X302100Y193926D02*
X306803Y189224D01*
X302100Y193926D02*
Y194000D01*
X215714Y128661D02*
X215728Y128675D01*
Y137486D01*
X235252Y192800D02*
X241600D01*
X235100Y199552D02*
Y207488D01*
D58*
X133500Y337700D02*
Y355400D01*
X133200Y355700D02*
X133500Y355400D01*
D59*
X386100Y110362D02*
X386179D01*
X302100Y164000D02*
X302200Y163900D01*
X235100Y192648D02*
X235126Y192674D01*
X92938Y279046D02*
X93909Y280018D01*
X92938Y278265D02*
Y279046D01*
Y267046D02*
X93909Y268018D01*
X92938Y266265D02*
Y267046D01*
D60*
X239692Y366944D02*
X248900D01*
X161570Y366622D02*
X170400D01*
X92643Y254000D02*
X93782Y255138D01*
X99980D01*
X100100Y255018D01*
X93909Y280018D02*
X100100D01*
X93909Y268018D02*
X100100D01*
D61*
X289400Y395000D02*
D03*
Y385000D02*
D03*
X279400Y395000D02*
D03*
Y385000D02*
D03*
X269400Y395000D02*
D03*
Y385000D02*
D03*
X259400Y395000D02*
D03*
Y385000D02*
D03*
X249400Y395000D02*
D03*
Y385000D02*
D03*
X239400Y395000D02*
D03*
Y385000D02*
D03*
X229400Y395000D02*
D03*
Y385000D02*
D03*
X219400Y395000D02*
D03*
Y385000D02*
D03*
X209400Y395000D02*
D03*
Y385000D02*
D03*
X199400Y395000D02*
D03*
Y385000D02*
D03*
X189400Y395000D02*
D03*
Y385000D02*
D03*
X179400Y395000D02*
D03*
Y385000D02*
D03*
X169400Y395000D02*
D03*
Y385000D02*
D03*
X159400Y395000D02*
D03*
Y385000D02*
D03*
X149400Y395000D02*
D03*
Y385000D02*
D03*
X139400Y395000D02*
D03*
X362100Y194000D02*
D03*
Y204000D02*
D03*
X352100Y194000D02*
D03*
Y204000D02*
D03*
X342100Y194000D02*
D03*
Y204000D02*
D03*
X332100Y194000D02*
D03*
Y204000D02*
D03*
X322100Y194000D02*
D03*
Y204000D02*
D03*
X312100Y194000D02*
D03*
Y204000D02*
D03*
X302100Y194000D02*
D03*
Y164000D02*
D03*
X312100Y174000D02*
D03*
Y164000D02*
D03*
X322100Y174000D02*
D03*
Y164000D02*
D03*
X332100Y174000D02*
D03*
Y164000D02*
D03*
X342100Y174000D02*
D03*
Y164000D02*
D03*
X352100Y174000D02*
D03*
Y164000D02*
D03*
X362100Y174000D02*
D03*
Y164000D02*
D03*
X372100Y174000D02*
D03*
Y164000D02*
D03*
X382100Y174000D02*
D03*
Y164000D02*
D03*
X392100Y174000D02*
D03*
Y164000D02*
D03*
X119600Y261500D02*
D03*
Y271500D02*
D03*
Y281500D02*
D03*
Y291500D02*
D03*
Y301500D02*
D03*
Y311500D02*
D03*
Y321500D02*
D03*
X76600Y345000D02*
D03*
Y355000D02*
D03*
Y365000D02*
D03*
Y375000D02*
D03*
Y385000D02*
D03*
X289600Y287500D02*
D03*
Y307500D02*
D03*
Y317500D02*
D03*
Y327500D02*
D03*
Y337500D02*
D03*
Y347500D02*
D03*
Y357500D02*
D03*
Y367500D02*
D03*
Y297500D02*
D03*
X107100Y194000D02*
D03*
Y204000D02*
D03*
X97100Y194000D02*
D03*
Y204000D02*
D03*
X87100Y194000D02*
D03*
Y204000D02*
D03*
X77100Y194000D02*
D03*
Y204000D02*
D03*
X67100Y194000D02*
D03*
Y204000D02*
D03*
X57100Y194000D02*
D03*
Y204000D02*
D03*
X47100Y194000D02*
D03*
Y164000D02*
D03*
X57100Y174000D02*
D03*
Y164000D02*
D03*
X67100Y174000D02*
D03*
Y164000D02*
D03*
X77100Y174000D02*
D03*
Y164000D02*
D03*
X87100Y174000D02*
D03*
Y164000D02*
D03*
X97100Y174000D02*
D03*
Y164000D02*
D03*
X107100Y174000D02*
D03*
Y164000D02*
D03*
X117100Y174000D02*
D03*
Y164000D02*
D03*
X127100Y174000D02*
D03*
Y164000D02*
D03*
X137100Y174000D02*
D03*
Y164000D02*
D03*
X289600Y261500D02*
D03*
Y251500D02*
D03*
Y241500D02*
D03*
Y231500D02*
D03*
Y221500D02*
D03*
Y211500D02*
D03*
Y201500D02*
D03*
X119600Y231500D02*
D03*
Y221500D02*
D03*
Y211500D02*
D03*
Y201500D02*
D03*
Y191500D02*
D03*
D62*
X139400Y385000D02*
D03*
D63*
X409100Y359500D02*
D03*
Y339500D02*
D03*
Y319500D02*
D03*
Y299500D02*
D03*
Y275500D02*
D03*
Y255500D02*
D03*
Y235500D02*
D03*
Y215500D02*
D03*
Y118000D02*
D03*
Y98000D02*
D03*
Y78000D02*
D03*
Y58000D02*
D03*
D64*
X237100Y64000D02*
D03*
X247100D02*
D03*
X257100D02*
D03*
X267100D02*
D03*
X287100D02*
D03*
X297100D02*
D03*
X307100D02*
D03*
D65*
X302100Y204000D02*
D03*
Y174000D02*
D03*
X47100Y204000D02*
D03*
Y174000D02*
D03*
D66*
X119600Y331500D02*
D03*
X76600Y395000D02*
D03*
X289600Y277500D02*
D03*
Y191500D02*
D03*
X119600Y241500D02*
D03*
D67*
X31785Y388016D02*
D03*
X405915D02*
D03*
Y33685D02*
D03*
X31785D02*
D03*
D68*
X323200Y338100D02*
D03*
X332300Y338500D02*
D03*
X324000Y324800D02*
D03*
X312000Y242200D02*
D03*
X297500Y242100D02*
D03*
X173600Y339600D02*
D03*
X154300Y288700D02*
D03*
X160900Y195400D02*
D03*
X147400Y198500D02*
D03*
X161200Y212600D02*
D03*
X247700Y226600D02*
D03*
X132200Y270400D02*
D03*
X264300Y310500D02*
D03*
X249000Y323400D02*
D03*
X183500Y375400D02*
D03*
X189700Y368300D02*
D03*
X146000Y380100D02*
D03*
X130300Y368100D02*
D03*
X99700Y367800D02*
D03*
X111400Y367700D02*
D03*
X139300Y356800D02*
D03*
X127500Y339200D02*
D03*
X126800Y330600D02*
D03*
X140400Y334500D02*
D03*
X157600Y306600D02*
D03*
X167500Y302600D02*
D03*
X152900Y303200D02*
D03*
X44100Y179400D02*
D03*
X56100Y180500D02*
D03*
X147100Y166600D02*
D03*
X143000Y159000D02*
D03*
X210800Y214600D02*
D03*
X212300Y189300D02*
D03*
X221200Y187400D02*
D03*
X222400Y214900D02*
D03*
X197200Y327100D02*
D03*
X197500Y336200D02*
D03*
X216500Y314100D02*
D03*
X190100Y320400D02*
D03*
X187700Y335300D02*
D03*
X187600Y327700D02*
D03*
X182600Y325700D02*
D03*
X203900Y336200D02*
D03*
X267300Y329200D02*
D03*
X245300Y336100D02*
D03*
X406100Y264000D02*
D03*
X392000Y264100D02*
D03*
X377900Y263800D02*
D03*
X343000Y337500D02*
D03*
X343300Y324700D02*
D03*
X332800D02*
D03*
X323300Y307200D02*
D03*
X330700Y294600D02*
D03*
X323200Y297000D02*
D03*
X323700Y287300D02*
D03*
X335900Y265600D02*
D03*
X356100Y252000D02*
D03*
X349200Y252200D02*
D03*
X356100Y244600D02*
D03*
X387200Y188400D02*
D03*
X377300Y199700D02*
D03*
X369000Y209100D02*
D03*
X358200Y221800D02*
D03*
X362600Y216600D02*
D03*
X352500Y227500D02*
D03*
X345000Y235200D02*
D03*
X333300Y246800D02*
D03*
X325600Y254400D02*
D03*
X317600Y262400D02*
D03*
X310400Y269700D02*
D03*
X350400Y355400D02*
D03*
X357000Y352800D02*
D03*
X377200Y349400D02*
D03*
X392800D02*
D03*
X404500Y349600D02*
D03*
X397700Y162400D02*
D03*
X384900Y121500D02*
D03*
X362800Y109400D02*
D03*
X380600Y106900D02*
D03*
X294600Y217200D02*
D03*
X251200Y372300D02*
D03*
X227100Y379500D02*
D03*
X232500Y378000D02*
D03*
X145200Y390500D02*
D03*
X184300Y390400D02*
D03*
X194700Y390900D02*
D03*
X156500Y371800D02*
D03*
X91700Y370700D02*
D03*
X84200Y370200D02*
D03*
X106000Y359600D02*
D03*
X93800Y359500D02*
D03*
X83200Y359400D02*
D03*
X100400Y301800D02*
D03*
X108900Y298500D02*
D03*
X131800Y291900D02*
D03*
X23100Y167100D02*
D03*
Y153300D02*
D03*
X23200Y137800D02*
D03*
X23500Y124300D02*
D03*
X23000Y182500D02*
D03*
Y199500D02*
D03*
X23200Y214200D02*
D03*
X23100Y227900D02*
D03*
X25600Y239600D02*
D03*
X41500Y193100D02*
D03*
X41700Y209700D02*
D03*
X41500Y198100D02*
D03*
X286200Y100400D02*
D03*
X349500Y157800D02*
D03*
X350700Y179500D02*
D03*
X341400Y182300D02*
D03*
X327100Y168600D02*
D03*
X132100Y162100D02*
D03*
X140200Y169000D02*
D03*
X112200Y161900D02*
D03*
X102300Y176800D02*
D03*
X112300Y177400D02*
D03*
X102100Y161900D02*
D03*
X92100D02*
D03*
X92200Y176800D02*
D03*
X78500Y181200D02*
D03*
X72400Y178600D02*
D03*
X62100Y178700D02*
D03*
X376600Y271000D02*
D03*
X373300Y259400D02*
D03*
X364300Y266700D02*
D03*
X364200Y271600D02*
D03*
X357100Y268000D02*
D03*
X342400Y116300D02*
D03*
X350000Y116000D02*
D03*
X339600Y119200D02*
D03*
X352600Y119600D02*
D03*
X192600Y119900D02*
D03*
X194500Y122500D02*
D03*
X194400Y116800D02*
D03*
X190700D02*
D03*
X190800Y122500D02*
D03*
X311400Y283700D02*
D03*
X134900Y339800D02*
D03*
X131900Y339900D02*
D03*
X133500Y337700D02*
D03*
X318700Y287500D02*
D03*
X315000Y285500D02*
D03*
X318600Y284100D02*
D03*
X311200Y287200D02*
D03*
X260400Y329900D02*
D03*
X257400Y330000D02*
D03*
X181800Y329800D02*
D03*
X179200Y329900D02*
D03*
X257700Y256000D02*
D03*
X257400Y275900D02*
D03*
X248200Y219000D02*
D03*
X251400Y219100D02*
D03*
X249800Y217500D02*
D03*
X251300Y215800D02*
D03*
X160700Y304200D02*
D03*
X162200Y302400D02*
D03*
X163100Y304500D02*
D03*
X138400Y287600D02*
D03*
X141300Y287500D02*
D03*
X139700Y285500D02*
D03*
X141100Y283500D02*
D03*
X138300D02*
D03*
X137700Y260900D02*
D03*
X139000Y263000D02*
D03*
X136500D02*
D03*
D69*
X195500Y212700D02*
D03*
X175500Y333300D02*
D03*
X216500Y326800D02*
D03*
X417100Y396500D02*
D03*
X422100Y386500D02*
D03*
X417100Y376500D02*
D03*
X422100Y366500D02*
D03*
X417100Y356500D02*
D03*
X422100Y346500D02*
D03*
X417100Y336500D02*
D03*
X422100Y326500D02*
D03*
X417100Y316500D02*
D03*
X422100Y306500D02*
D03*
X417100Y296500D02*
D03*
X422100Y286500D02*
D03*
Y266500D02*
D03*
X417100Y256500D02*
D03*
X422100Y246500D02*
D03*
Y226500D02*
D03*
Y206500D02*
D03*
X417100Y196500D02*
D03*
X422100Y186500D02*
D03*
X417100Y176500D02*
D03*
X422100Y166500D02*
D03*
X417100Y156500D02*
D03*
X422100Y146500D02*
D03*
X417100Y136500D02*
D03*
X422100Y126500D02*
D03*
X417100Y116500D02*
D03*
X422100Y106500D02*
D03*
X417100Y96500D02*
D03*
X422100Y86500D02*
D03*
Y66500D02*
D03*
Y46500D02*
D03*
X417100Y36500D02*
D03*
X422100Y26500D02*
D03*
X417100Y16500D02*
D03*
X407100Y376500D02*
D03*
X412100Y326500D02*
D03*
Y286500D02*
D03*
Y246500D02*
D03*
Y206500D02*
D03*
X407100Y196500D02*
D03*
X412100Y186500D02*
D03*
Y146500D02*
D03*
X407100Y136500D02*
D03*
X412100Y126500D02*
D03*
Y106500D02*
D03*
Y86500D02*
D03*
Y46500D02*
D03*
X407100Y16500D02*
D03*
X397100Y376500D02*
D03*
X402100Y326500D02*
D03*
X397100Y316500D02*
D03*
Y296500D02*
D03*
X402100Y286500D02*
D03*
Y246500D02*
D03*
X397100Y236500D02*
D03*
Y216500D02*
D03*
X402100Y206500D02*
D03*
X397100Y176500D02*
D03*
X402100Y126500D02*
D03*
Y86500D02*
D03*
X397100Y76500D02*
D03*
X402100Y46500D02*
D03*
X397100Y16500D02*
D03*
X387100Y396500D02*
D03*
X392100Y386500D02*
D03*
X387100Y376500D02*
D03*
X392100Y366500D02*
D03*
X387100Y336500D02*
D03*
X392100Y326500D02*
D03*
X387100Y316500D02*
D03*
X392100Y306500D02*
D03*
X387100Y296500D02*
D03*
X392100Y286500D02*
D03*
X387100Y276500D02*
D03*
X392100Y246500D02*
D03*
X387100Y236500D02*
D03*
X392100Y226500D02*
D03*
X387100Y216500D02*
D03*
Y156500D02*
D03*
X392100Y126500D02*
D03*
X387100Y76500D02*
D03*
X392100Y66500D02*
D03*
Y46500D02*
D03*
X387100Y36500D02*
D03*
X392100Y26500D02*
D03*
X387100Y16500D02*
D03*
X377100Y396500D02*
D03*
X382100Y386500D02*
D03*
X377100Y376500D02*
D03*
X382100Y366500D02*
D03*
X377100Y356500D02*
D03*
Y336500D02*
D03*
X382100Y326500D02*
D03*
X377100Y316500D02*
D03*
X382100Y306500D02*
D03*
X377100Y296500D02*
D03*
X382100Y286500D02*
D03*
X377100Y276500D02*
D03*
Y256500D02*
D03*
X382100Y246500D02*
D03*
X377100Y236500D02*
D03*
X382100Y226500D02*
D03*
X377100Y176500D02*
D03*
Y156500D02*
D03*
Y116500D02*
D03*
X382100Y66500D02*
D03*
Y46500D02*
D03*
X377100Y36500D02*
D03*
X382100Y26500D02*
D03*
X377100Y16500D02*
D03*
X367100Y396500D02*
D03*
X372100Y386500D02*
D03*
X367100Y376500D02*
D03*
X372100Y366500D02*
D03*
X367100Y336500D02*
D03*
X372100Y326500D02*
D03*
X367100Y316500D02*
D03*
X372100Y306500D02*
D03*
X367100Y296500D02*
D03*
X372100Y286500D02*
D03*
Y246500D02*
D03*
X367100Y196500D02*
D03*
X372100Y186500D02*
D03*
X367100Y176500D02*
D03*
Y156500D02*
D03*
X372100Y146500D02*
D03*
X367100Y116500D02*
D03*
X372100Y46500D02*
D03*
X367100Y36500D02*
D03*
X372100Y26500D02*
D03*
X367100Y16500D02*
D03*
X357100Y396500D02*
D03*
X362100Y386500D02*
D03*
X357100Y376500D02*
D03*
X362100Y366500D02*
D03*
Y326500D02*
D03*
X357100Y316500D02*
D03*
X362100Y306500D02*
D03*
X357100Y296500D02*
D03*
X362100Y286500D02*
D03*
Y186500D02*
D03*
Y146500D02*
D03*
Y66500D02*
D03*
Y46500D02*
D03*
X357100Y36500D02*
D03*
X362100Y26500D02*
D03*
X357100Y16500D02*
D03*
X347100Y396500D02*
D03*
X352100Y386500D02*
D03*
X347100Y376500D02*
D03*
X352100Y366500D02*
D03*
X347100Y316500D02*
D03*
Y296500D02*
D03*
X352100Y186500D02*
D03*
Y146500D02*
D03*
X347100Y96500D02*
D03*
X352100Y86500D02*
D03*
Y46500D02*
D03*
X347100Y36500D02*
D03*
X352100Y26500D02*
D03*
X347100Y16500D02*
D03*
X337100Y396500D02*
D03*
X342100Y386500D02*
D03*
X337100Y376500D02*
D03*
X342100Y366500D02*
D03*
X337100Y356500D02*
D03*
X342100Y286500D02*
D03*
X337100Y156500D02*
D03*
X342100Y146500D02*
D03*
Y106500D02*
D03*
X337100Y96500D02*
D03*
X342100Y86500D02*
D03*
Y46500D02*
D03*
X337100Y36500D02*
D03*
X342100Y26500D02*
D03*
X337100Y16500D02*
D03*
X327100Y396500D02*
D03*
X332100Y386500D02*
D03*
X327100Y376500D02*
D03*
X332100Y366500D02*
D03*
X327100Y356500D02*
D03*
X332100Y346500D02*
D03*
X327100Y316500D02*
D03*
X332100Y286500D02*
D03*
X327100Y276500D02*
D03*
Y236500D02*
D03*
X332100Y226500D02*
D03*
X327100Y216500D02*
D03*
X332100Y186500D02*
D03*
X327100Y156500D02*
D03*
X332100Y146500D02*
D03*
X327100Y96500D02*
D03*
X332100Y86500D02*
D03*
Y46500D02*
D03*
X327100Y36500D02*
D03*
X332100Y26500D02*
D03*
X327100Y16500D02*
D03*
X317100Y396500D02*
D03*
X322100Y386500D02*
D03*
Y366500D02*
D03*
Y346500D02*
D03*
X317100Y176500D02*
D03*
Y156500D02*
D03*
X322100Y146500D02*
D03*
X317100Y116500D02*
D03*
X322100Y106500D02*
D03*
X317100Y96500D02*
D03*
X322100Y86500D02*
D03*
Y66500D02*
D03*
Y46500D02*
D03*
X317100Y36500D02*
D03*
X322100Y26500D02*
D03*
X317100Y16500D02*
D03*
X307100Y396500D02*
D03*
Y336500D02*
D03*
Y296500D02*
D03*
Y276500D02*
D03*
Y256500D02*
D03*
X312100Y226500D02*
D03*
X307100Y216500D02*
D03*
Y196500D02*
D03*
X312100Y186500D02*
D03*
Y146500D02*
D03*
X307100Y116500D02*
D03*
Y96500D02*
D03*
X312100Y86500D02*
D03*
Y46500D02*
D03*
X307100Y36500D02*
D03*
X312100Y26500D02*
D03*
X307100Y16500D02*
D03*
X297100Y396500D02*
D03*
Y376500D02*
D03*
X302100Y366500D02*
D03*
X297100Y356500D02*
D03*
X302100Y346500D02*
D03*
X297100Y336500D02*
D03*
X302100Y326500D02*
D03*
Y306500D02*
D03*
X297100Y296500D02*
D03*
X302100Y286500D02*
D03*
Y266500D02*
D03*
X297100Y256500D02*
D03*
X302100Y186500D02*
D03*
Y146500D02*
D03*
X297100Y116500D02*
D03*
Y56500D02*
D03*
X302100Y46500D02*
D03*
X297100Y36500D02*
D03*
X302100Y26500D02*
D03*
X297100Y16500D02*
D03*
X287100Y376500D02*
D03*
X292100Y266500D02*
D03*
X287100Y256500D02*
D03*
Y176500D02*
D03*
X292100Y166500D02*
D03*
Y86500D02*
D03*
X287100Y76500D02*
D03*
Y56500D02*
D03*
X292100Y46500D02*
D03*
X287100Y36500D02*
D03*
X292100Y26500D02*
D03*
X287100Y16500D02*
D03*
X277100Y376500D02*
D03*
X282100Y366500D02*
D03*
X277100Y356500D02*
D03*
X282100Y346500D02*
D03*
X277100Y336500D02*
D03*
X282100Y326500D02*
D03*
Y306500D02*
D03*
X277100Y276500D02*
D03*
X282100Y266500D02*
D03*
X277100Y256500D02*
D03*
Y216500D02*
D03*
X282100Y186500D02*
D03*
X277100Y176500D02*
D03*
X282100Y166500D02*
D03*
X277100Y136500D02*
D03*
X282100Y106500D02*
D03*
Y86500D02*
D03*
X277100Y76500D02*
D03*
Y56500D02*
D03*
X282100Y46500D02*
D03*
X277100Y36500D02*
D03*
X282100Y26500D02*
D03*
X277100Y16500D02*
D03*
X267100Y376500D02*
D03*
X272100Y366500D02*
D03*
X267100Y356500D02*
D03*
X272100Y346500D02*
D03*
X267100Y336500D02*
D03*
X272100Y326500D02*
D03*
Y306500D02*
D03*
X267100Y276500D02*
D03*
X272100Y266500D02*
D03*
X267100Y256500D02*
D03*
Y216500D02*
D03*
Y196500D02*
D03*
X272100Y186500D02*
D03*
X267100Y176500D02*
D03*
X272100Y166500D02*
D03*
X267100Y136500D02*
D03*
X272100Y86500D02*
D03*
X267100Y76500D02*
D03*
Y56500D02*
D03*
X272100Y46500D02*
D03*
X267100Y36500D02*
D03*
X272100Y26500D02*
D03*
X267100Y16500D02*
D03*
X257100Y356500D02*
D03*
Y316500D02*
D03*
X262100Y206500D02*
D03*
X257100Y196500D02*
D03*
X262100Y186500D02*
D03*
X257100Y176500D02*
D03*
X262100Y166500D02*
D03*
X257100Y136500D02*
D03*
X262100Y126500D02*
D03*
X257100Y56500D02*
D03*
X262100Y46500D02*
D03*
X257100Y36500D02*
D03*
X262100Y26500D02*
D03*
X257100Y16500D02*
D03*
X247100Y356500D02*
D03*
Y316500D02*
D03*
Y136500D02*
D03*
X252100Y126500D02*
D03*
X247100Y116500D02*
D03*
Y76500D02*
D03*
Y56500D02*
D03*
X252100Y46500D02*
D03*
X247100Y36500D02*
D03*
X252100Y26500D02*
D03*
X247100Y16500D02*
D03*
X242100Y346500D02*
D03*
X237100Y336500D02*
D03*
X242100Y326500D02*
D03*
X237100Y296500D02*
D03*
Y276500D02*
D03*
Y256500D02*
D03*
Y236500D02*
D03*
X242100Y206500D02*
D03*
X237100Y176500D02*
D03*
X242100Y166500D02*
D03*
X237100Y156500D02*
D03*
X242100Y126500D02*
D03*
X237100Y116500D02*
D03*
X242100Y106500D02*
D03*
X237100Y76500D02*
D03*
Y56500D02*
D03*
X242100Y46500D02*
D03*
X237100Y36500D02*
D03*
X242100Y26500D02*
D03*
X237100Y16500D02*
D03*
X232100Y366500D02*
D03*
X227100Y356500D02*
D03*
X232100Y346500D02*
D03*
X227100Y336500D02*
D03*
X232100Y326500D02*
D03*
X227100Y316500D02*
D03*
Y296500D02*
D03*
X232100Y286500D02*
D03*
X227100Y276500D02*
D03*
X232100Y266500D02*
D03*
X227100Y256500D02*
D03*
X232100Y246500D02*
D03*
X227100Y236500D02*
D03*
X232100Y166500D02*
D03*
Y126500D02*
D03*
X227100Y76500D02*
D03*
Y56500D02*
D03*
X232100Y46500D02*
D03*
X227100Y36500D02*
D03*
X232100Y26500D02*
D03*
X227100Y16500D02*
D03*
X217100Y376500D02*
D03*
X222100Y346500D02*
D03*
X217100Y336500D02*
D03*
Y296500D02*
D03*
X222100Y286500D02*
D03*
X217100Y276500D02*
D03*
X222100Y266500D02*
D03*
X217100Y256500D02*
D03*
X222100Y246500D02*
D03*
X217100Y176500D02*
D03*
Y76500D02*
D03*
X222100Y66500D02*
D03*
X217100Y56500D02*
D03*
X222100Y46500D02*
D03*
X217100Y36500D02*
D03*
X222100Y26500D02*
D03*
X217100Y16500D02*
D03*
X212100Y366500D02*
D03*
X207100Y296500D02*
D03*
X212100Y286500D02*
D03*
X207100Y276500D02*
D03*
X212100Y266500D02*
D03*
X207100Y256500D02*
D03*
Y236500D02*
D03*
Y176500D02*
D03*
X212100Y166500D02*
D03*
X207100Y156500D02*
D03*
Y116500D02*
D03*
X212100Y106500D02*
D03*
X207100Y76500D02*
D03*
X212100Y66500D02*
D03*
X207100Y56500D02*
D03*
X212100Y46500D02*
D03*
X207100Y36500D02*
D03*
X212100Y26500D02*
D03*
X207100Y16500D02*
D03*
X197100Y376500D02*
D03*
X202100Y346500D02*
D03*
Y326500D02*
D03*
X197100Y296500D02*
D03*
X202100Y286500D02*
D03*
X197100Y276500D02*
D03*
X202100Y266500D02*
D03*
X197100Y256500D02*
D03*
X202100Y246500D02*
D03*
X197100Y236500D02*
D03*
Y216500D02*
D03*
Y196500D02*
D03*
X202100Y186500D02*
D03*
X197100Y176500D02*
D03*
X202100Y166500D02*
D03*
X197100Y156500D02*
D03*
Y136500D02*
D03*
X202100Y126500D02*
D03*
Y106500D02*
D03*
X197100Y76500D02*
D03*
X202100Y66500D02*
D03*
X197100Y56500D02*
D03*
X202100Y46500D02*
D03*
X197100Y36500D02*
D03*
X202100Y26500D02*
D03*
X197100Y16500D02*
D03*
X187100Y356500D02*
D03*
Y296500D02*
D03*
X192100Y286500D02*
D03*
X187100Y276500D02*
D03*
Y256500D02*
D03*
X192100Y246500D02*
D03*
X187100Y236500D02*
D03*
X192100Y186500D02*
D03*
X187100Y176500D02*
D03*
X192100Y166500D02*
D03*
X187100Y156500D02*
D03*
Y136500D02*
D03*
X192100Y106500D02*
D03*
X187100Y76500D02*
D03*
X192100Y66500D02*
D03*
X187100Y56500D02*
D03*
X192100Y46500D02*
D03*
X187100Y36500D02*
D03*
X192100Y26500D02*
D03*
X187100Y16500D02*
D03*
X177100Y356500D02*
D03*
Y296500D02*
D03*
X182100Y286500D02*
D03*
X177100Y276500D02*
D03*
X182100Y266500D02*
D03*
X177100Y256500D02*
D03*
X182100Y246500D02*
D03*
X177100Y236500D02*
D03*
Y196500D02*
D03*
Y176500D02*
D03*
X182100Y166500D02*
D03*
X177100Y136500D02*
D03*
X182100Y126500D02*
D03*
X177100Y116500D02*
D03*
X182100Y106500D02*
D03*
X177100Y76500D02*
D03*
X182100Y66500D02*
D03*
X177100Y56500D02*
D03*
X182100Y46500D02*
D03*
X177100Y36500D02*
D03*
X182100Y26500D02*
D03*
X177100Y16500D02*
D03*
X167100Y376500D02*
D03*
Y356500D02*
D03*
Y316500D02*
D03*
X172100Y266500D02*
D03*
Y246500D02*
D03*
X167100Y136500D02*
D03*
X172100Y126500D02*
D03*
X167100Y116500D02*
D03*
X172100Y106500D02*
D03*
X167100Y76500D02*
D03*
X172100Y66500D02*
D03*
X167100Y56500D02*
D03*
X172100Y46500D02*
D03*
X167100Y36500D02*
D03*
X172100Y26500D02*
D03*
X167100Y16500D02*
D03*
X157100Y356500D02*
D03*
X162100Y346500D02*
D03*
X157100Y336500D02*
D03*
X162100Y326500D02*
D03*
X157100Y316500D02*
D03*
X162100Y226500D02*
D03*
Y186500D02*
D03*
Y166500D02*
D03*
X157100Y136500D02*
D03*
X162100Y126500D02*
D03*
X157100Y116500D02*
D03*
X162100Y106500D02*
D03*
X157100Y76500D02*
D03*
X162100Y66500D02*
D03*
X157100Y56500D02*
D03*
X162100Y46500D02*
D03*
X157100Y36500D02*
D03*
X162100Y26500D02*
D03*
X157100Y16500D02*
D03*
X147100Y216500D02*
D03*
Y176500D02*
D03*
Y136500D02*
D03*
X152100Y126500D02*
D03*
X147100Y116500D02*
D03*
X152100Y106500D02*
D03*
X147100Y76500D02*
D03*
X152100Y66500D02*
D03*
X147100Y56500D02*
D03*
X152100Y46500D02*
D03*
X147100Y36500D02*
D03*
X152100Y26500D02*
D03*
X147100Y16500D02*
D03*
X137100Y376500D02*
D03*
X142100Y366500D02*
D03*
Y346500D02*
D03*
Y326500D02*
D03*
Y306500D02*
D03*
X137100Y236500D02*
D03*
Y196500D02*
D03*
Y136500D02*
D03*
X142100Y126500D02*
D03*
X137100Y116500D02*
D03*
X142100Y106500D02*
D03*
X137100Y76500D02*
D03*
X142100Y66500D02*
D03*
X137100Y56500D02*
D03*
X142100Y46500D02*
D03*
X137100Y36500D02*
D03*
X142100Y26500D02*
D03*
X137100Y16500D02*
D03*
X127100Y396500D02*
D03*
X132100Y386500D02*
D03*
X127100Y316500D02*
D03*
X132100Y286500D02*
D03*
X127100Y136500D02*
D03*
X132100Y126500D02*
D03*
X127100Y116500D02*
D03*
X132100Y106500D02*
D03*
X127100Y76500D02*
D03*
X132100Y66500D02*
D03*
X127100Y56500D02*
D03*
X132100Y46500D02*
D03*
X127100Y36500D02*
D03*
X132100Y26500D02*
D03*
X127100Y16500D02*
D03*
X117100Y396500D02*
D03*
X122100Y386500D02*
D03*
X117100Y376500D02*
D03*
Y356500D02*
D03*
X122100Y346500D02*
D03*
X117100Y256500D02*
D03*
X122100Y226500D02*
D03*
X117100Y216500D02*
D03*
X122100Y206500D02*
D03*
X117100Y196500D02*
D03*
X122100Y166500D02*
D03*
X117100Y136500D02*
D03*
X122100Y126500D02*
D03*
X117100Y116500D02*
D03*
X122100Y106500D02*
D03*
X117100Y76500D02*
D03*
X122100Y66500D02*
D03*
X117100Y56500D02*
D03*
X122100Y46500D02*
D03*
X117100Y36500D02*
D03*
X122100Y26500D02*
D03*
X117100Y16500D02*
D03*
X107100Y396500D02*
D03*
X112100Y386500D02*
D03*
X107100Y376500D02*
D03*
Y336500D02*
D03*
Y316500D02*
D03*
X112100Y306500D02*
D03*
Y246500D02*
D03*
X107100Y236500D02*
D03*
X112100Y226500D02*
D03*
X107100Y216500D02*
D03*
X112100Y206500D02*
D03*
X107100Y136500D02*
D03*
X112100Y126500D02*
D03*
X107100Y116500D02*
D03*
X112100Y106500D02*
D03*
X107100Y76500D02*
D03*
X112100Y66500D02*
D03*
X107100Y56500D02*
D03*
X112100Y46500D02*
D03*
X107100Y36500D02*
D03*
X112100Y26500D02*
D03*
X107100Y16500D02*
D03*
X97100Y396500D02*
D03*
X102100Y386500D02*
D03*
Y346500D02*
D03*
Y326500D02*
D03*
Y246500D02*
D03*
X97100Y236500D02*
D03*
X102100Y226500D02*
D03*
X97100Y216500D02*
D03*
X102100Y206500D02*
D03*
X97100Y136500D02*
D03*
X102100Y126500D02*
D03*
X97100Y116500D02*
D03*
X102100Y106500D02*
D03*
X97100Y76500D02*
D03*
X102100Y66500D02*
D03*
X97100Y56500D02*
D03*
X102100Y46500D02*
D03*
X97100Y36500D02*
D03*
X102100Y26500D02*
D03*
X97100Y16500D02*
D03*
X87100Y396500D02*
D03*
Y376500D02*
D03*
Y336500D02*
D03*
X92100Y326500D02*
D03*
X87100Y316500D02*
D03*
X92100Y306500D02*
D03*
Y246500D02*
D03*
X87100Y236500D02*
D03*
X92100Y226500D02*
D03*
X87100Y216500D02*
D03*
X92100Y206500D02*
D03*
X87100Y136500D02*
D03*
X92100Y126500D02*
D03*
X87100Y116500D02*
D03*
X92100Y106500D02*
D03*
X87100Y76500D02*
D03*
X92100Y66500D02*
D03*
X87100Y56500D02*
D03*
X92100Y46500D02*
D03*
X87100Y36500D02*
D03*
X92100Y26500D02*
D03*
X87100Y16500D02*
D03*
X77100Y316500D02*
D03*
X82100Y306500D02*
D03*
X77100Y276500D02*
D03*
Y256500D02*
D03*
X82100Y246500D02*
D03*
X77100Y236500D02*
D03*
X82100Y226500D02*
D03*
X77100Y216500D02*
D03*
X82100Y206500D02*
D03*
X77100Y136500D02*
D03*
X82100Y126500D02*
D03*
X77100Y116500D02*
D03*
X82100Y106500D02*
D03*
X77100Y76500D02*
D03*
X82100Y66500D02*
D03*
X77100Y56500D02*
D03*
X82100Y46500D02*
D03*
X77100Y36500D02*
D03*
X82100Y26500D02*
D03*
X77100Y16500D02*
D03*
X67100Y396500D02*
D03*
Y376500D02*
D03*
Y356500D02*
D03*
Y336500D02*
D03*
X72100Y326500D02*
D03*
X67100Y316500D02*
D03*
X72100Y306500D02*
D03*
Y266500D02*
D03*
X67100Y256500D02*
D03*
X72100Y246500D02*
D03*
X67100Y236500D02*
D03*
X72100Y226500D02*
D03*
X67100Y216500D02*
D03*
X72100Y206500D02*
D03*
Y166500D02*
D03*
X67100Y136500D02*
D03*
X72100Y126500D02*
D03*
X67100Y116500D02*
D03*
Y76500D02*
D03*
X72100Y66500D02*
D03*
X67100Y56500D02*
D03*
X72100Y46500D02*
D03*
X67100Y36500D02*
D03*
X72100Y26500D02*
D03*
X67100Y16500D02*
D03*
X57100Y396500D02*
D03*
X62100Y386500D02*
D03*
X57100Y376500D02*
D03*
X62100Y366500D02*
D03*
X57100Y356500D02*
D03*
X62100Y346500D02*
D03*
X57100Y336500D02*
D03*
X62100Y326500D02*
D03*
X57100Y316500D02*
D03*
X62100Y306500D02*
D03*
X57100Y296500D02*
D03*
Y256500D02*
D03*
X62100Y246500D02*
D03*
X57100Y236500D02*
D03*
X62100Y226500D02*
D03*
X57100Y216500D02*
D03*
X62100Y206500D02*
D03*
X57100Y156500D02*
D03*
X62100Y146500D02*
D03*
X57100Y136500D02*
D03*
X62100Y126500D02*
D03*
Y86500D02*
D03*
X57100Y76500D02*
D03*
X62100Y66500D02*
D03*
X57100Y56500D02*
D03*
X62100Y46500D02*
D03*
X57100Y36500D02*
D03*
X62100Y26500D02*
D03*
X57100Y16500D02*
D03*
X47100Y396500D02*
D03*
X52100Y386500D02*
D03*
X47100Y376500D02*
D03*
X52100Y366500D02*
D03*
X47100Y356500D02*
D03*
X52100Y346500D02*
D03*
X47100Y336500D02*
D03*
X52100Y326500D02*
D03*
X47100Y316500D02*
D03*
X52100Y306500D02*
D03*
X47100Y296500D02*
D03*
X52100Y286500D02*
D03*
Y246500D02*
D03*
Y226500D02*
D03*
X47100Y216500D02*
D03*
Y156500D02*
D03*
X52100Y146500D02*
D03*
X47100Y136500D02*
D03*
Y96500D02*
D03*
X52100Y86500D02*
D03*
X47100Y76500D02*
D03*
X52100Y66500D02*
D03*
X47100Y56500D02*
D03*
X52100Y46500D02*
D03*
X47100Y36500D02*
D03*
X52100Y26500D02*
D03*
X47100Y16500D02*
D03*
X37100Y376500D02*
D03*
X42100Y366500D02*
D03*
X37100Y356500D02*
D03*
X42100Y346500D02*
D03*
X37100Y336500D02*
D03*
X42100Y326500D02*
D03*
X37100Y316500D02*
D03*
X42100Y306500D02*
D03*
X37100Y296500D02*
D03*
X42100Y286500D02*
D03*
X37100Y276500D02*
D03*
X42100Y226500D02*
D03*
Y186500D02*
D03*
Y166500D02*
D03*
Y146500D02*
D03*
Y106500D02*
D03*
X37100Y96500D02*
D03*
X42100Y86500D02*
D03*
X37100Y76500D02*
D03*
X42100Y66500D02*
D03*
X37100Y56500D02*
D03*
X42100Y46500D02*
D03*
X37100Y16500D02*
D03*
X27100Y376500D02*
D03*
X32100Y366500D02*
D03*
X27100Y356500D02*
D03*
X32100Y346500D02*
D03*
X27100Y336500D02*
D03*
X32100Y326500D02*
D03*
X27100Y316500D02*
D03*
X32100Y306500D02*
D03*
X27100Y296500D02*
D03*
X32100Y286500D02*
D03*
X27100Y276500D02*
D03*
X32100Y266500D02*
D03*
X27100Y256500D02*
D03*
Y116500D02*
D03*
X32100Y106500D02*
D03*
X27100Y96500D02*
D03*
X32100Y86500D02*
D03*
X27100Y76500D02*
D03*
X32100Y66500D02*
D03*
X27100Y56500D02*
D03*
X32100Y46500D02*
D03*
X27100Y16500D02*
D03*
X17100Y396500D02*
D03*
Y36500D02*
D03*
X22100Y26500D02*
D03*
X17100Y16500D02*
D03*
X360900Y341900D02*
D03*
X243299Y372500D02*
D03*
X241000Y374600D02*
D03*
X245200Y370300D02*
D03*
X153100Y309400D02*
D03*
X142100Y320200D02*
D03*
X152868Y347913D02*
D03*
X370600Y111139D02*
D03*
X57300Y184200D02*
D03*
X157091Y232521D02*
D03*
X148300Y227000D02*
D03*
X182150Y204550D02*
D03*
X228800Y202786D02*
D03*
X180600Y332000D02*
D03*
X251600Y316500D02*
D03*
X257300Y307000D02*
D03*
X254332Y231668D02*
D03*
X248200Y215900D02*
D03*
X253800Y257800D02*
D03*
X253700Y277600D02*
D03*
X258300Y229200D02*
D03*
X336500Y307300D02*
D03*
Y299100D02*
D03*
X259000Y332200D02*
D03*
X253400Y332100D02*
D03*
X162056Y312156D02*
D03*
X350600Y338600D02*
D03*
X368200Y356200D02*
D03*
Y275200D02*
D03*
X350500Y301600D02*
D03*
X339200Y304900D02*
D03*
X345900Y273700D02*
D03*
X278200Y244000D02*
D03*
X282100Y246500D02*
D03*
X275900D02*
D03*
X273100Y236000D02*
D03*
X272800Y228800D02*
D03*
X242600Y211500D02*
D03*
X242800Y214400D02*
D03*
X216800Y204200D02*
D03*
X216000Y165900D02*
D03*
X182600Y178500D02*
D03*
X230100Y157800D02*
D03*
X159100Y278900D02*
D03*
X159000Y259500D02*
D03*
X144900Y221100D02*
D03*
X153900Y208900D02*
D03*
X155700Y210700D02*
D03*
X152200D02*
D03*
X155800Y207200D02*
D03*
X154600Y184400D02*
D03*
X152400Y185500D02*
D03*
X156500Y182900D02*
D03*
X152800Y182700D02*
D03*
X156400Y186200D02*
D03*
X152300Y207000D02*
D03*
X360600Y271900D02*
D03*
Y258500D02*
D03*
X379100Y98500D02*
D03*
X375400Y95100D02*
D03*
X355459Y103559D02*
D03*
X200200Y216700D02*
D03*
X134300Y189500D02*
D03*
X132100Y187000D02*
D03*
X126856Y186744D02*
D03*
X358400Y217700D02*
D03*
X350631Y346768D02*
D03*
X360800Y356600D02*
D03*
X363900Y353900D02*
D03*
X371000Y354300D02*
D03*
X371600Y337400D02*
D03*
X375100Y341800D02*
D03*
X346200Y109000D02*
D03*
X350500Y262100D02*
D03*
X370700Y268700D02*
D03*
X371800Y252000D02*
D03*
X359100Y120900D02*
D03*
X373895Y111245D02*
D03*
X247100Y72000D02*
D03*
X173100Y313000D02*
D03*
X157100Y285000D02*
D03*
X125600Y271500D02*
D03*
X112600Y281500D02*
D03*
X145600Y256500D02*
D03*
X139100Y243500D02*
D03*
X263744Y229300D02*
D03*
X205637Y203663D02*
D03*
X241600Y192800D02*
D03*
X144100Y276000D02*
D03*
X186600Y271000D02*
D03*
X239600Y353200D02*
D03*
X128600Y281500D02*
D03*
Y263000D02*
D03*
X201600Y315000D02*
D03*
X223600D02*
D03*
M02*
