M48
;Layer_Color=9474304
;FILE_FORMAT=2:5
INCH,LZ
;TYPE=PLATED
T1F00S00C0.01200
T2F00S00C0.03543
T3F00S00C0.04528
T4F00S00C0.04724
T5F00S00C0.12992
%
T01
X00171Y00165
X00271
X00371
X00221Y00265
X00171Y00365
X00321Y00465
X00371Y00565
X00271
X00321Y00665
X00371Y00765
X00271
X00471
X00571
X00671
X00771
X00871
X00971
X01071
X01171
X01271
X01371
X01471
X01571
X01671
X01771
X01871
X01921Y00665
X01821
X01721
X01621
X01521
X01421
X01321
X01221
X01121
X01021
X00921
X00821
X00721
X00621
X00521
X00421
X00471Y00565
X00571
X00671
X00771
X00871
X00971
X01071
X01171
X01271
X01371
X01471
X01571
X01671
X01771
X01871
X01921Y00465
X01821
X01721
X01621
X01521
X01421
X01321
X01221
X01121
X01021
X00921
X00821
X00721
X00621
X00521
X00421
X00471Y00365
X00571
X00671
X00771
X00871
X00971
X01071
X01171
X01271
X01371
X01471
X01571
X01671
X01771
X01871
X01921Y00265
X01821
X01721
X01621
X01521
X01421
X01321
X01221
X01121
X01021
X00921
X00821
X00721
X00621
X00521
X00571Y00165
X00671
X00771
X00871
X00971
X01071
X01171
X01271
X01371
X01471
X01571
X01671
X01771
X01871
X00471
X01971
X02071
X02171
X02271
X02371
X02471
X02571
X02671
X02771
X02871
X02971
X03071
X03171
X03271
X03371
X03471
X03421Y00265
X03321
X03221
X03121
X03021
X02921
X02821
X02721
X02621
X02521
X02421
X02321
X02221
X02121
X02021
X02071Y00365
X02171
X02271
X02371
X02471
X02571
X02671
X02771
X02871
X02971
X03071
X03171
X03271
X03371
X03471
X03421Y00465
X03321
X03221
X03121
X03021
X02921
X02821
X02721
X02621
X02521
X02421
X02321
X02221
X02121
X02021
X02071Y00565
X02171
X02271
X02371
X02471
X02571
X02671
X02771
X02871
X02971
X02871Y00765
X02771
X02671
X02471
Y0072
X02371Y00765
X02271
X02171
X02071
X01971
X02021Y00665
X02121
X02221
X01971Y00565
Y00365
X03221Y00665
X03621
X03821
X03921
X03971Y00765
X03871
X03921Y00465
X04021
X04121
X04221
X04171Y00365
X04221Y00265
X04171Y00165
X04071
X03971
X03871
X03771
X03671
X03571
X03621Y00265
X03721
X03821
X03921
X03871Y00365
X03771
X03671
X03571
X03621Y00465
X03721
X03821
X03521
Y00265
X04221Y00665
Y00865
X04121
X04021
X04171Y00965
X04221Y01065
X04121
X04171Y01165
X04221Y01265
X04121
X04021
X03921
X03849Y01215
X03771Y01165
X0373895Y0111245
X03706Y0111139
X03671Y01165
X03628Y01094
X0355459Y0103559
X03526Y01196
X03591Y01209
X03621Y01465
X03721
X03771Y01565
X03871
X03977Y01624
X03971Y01765
X04171
X04221Y01865
X04121
X04171Y01965
X04071
X04121Y02065
X04221
Y02265
X03921
X03821
X03871Y02365
X03971
Y02165
X03871
X03626Y02166
X03584Y02177
X03582Y02218
X03525Y02275
X03771Y02365
X0369Y02091
X03671Y01965
X03773Y01997
X03721Y01865
X03621
X03521
X03671Y01765
X03771
X03872Y01884
X04021Y02065
X04221Y01665
X04171Y01565
X04221Y01465
X04121
X04171Y01365
X04071
X03806Y01069
X03791Y00985
X03754Y00951
X03521Y00865
Y01465
X03671Y01565
X03495Y01578
X03371Y01565
X03271
X03171
X03221Y01465
X03321
X03421
X03396Y01192
X03424Y01163
X035Y0116
X03462Y0109
X03421Y01065
X03471Y00965
X03371
X03271
X03171
X03071
X03121Y00865
X03221
X03321
X03421
X03221Y01065
X03171Y01165
X03071
X02971
X02821Y01065
X02862Y01004
X02821Y00865
X02921
X02721
X02621Y01265
X02521
X02421
X02321
X02371Y01165
X02471
X02421Y01065
X02121
X02021
X02071Y01165
X02021Y01265
X01971Y01365
Y01565
X02071
X02121Y01665
X0216Y01659
X02171Y01765
X02071
X01971
X02021Y01865
X02123Y01893
X02212Y01874
X02168Y02042
X0205637Y0203663
X01971Y01965
Y02165
X02002Y02167
X02108Y02146
X02224Y02149
X02288Y0202786
X02421Y02065
X02426Y02115
X02428Y02144
X02482Y02159
Y0219
X02498Y02175
X02514Y02191
X02513Y02158
X02477Y02266
X0254332Y0231668
X02583Y02292
X0263744Y02293
X02728Y02288
X02731Y0236
X02771Y02165
X02671
X02621Y02065
X02671Y01965
X02571
X02621Y01865
X02721
X02821
X02871Y01765
X02771
X02671
X02571
X02621Y01665
X02721
X02821
X02921
X03021Y01865
X03121
X03171Y01765
X03271Y01686
X03321Y01865
X03414Y01823
X03507Y01795
X03271Y02165
X03321Y02265
X03271Y02365
X0345Y02352
X03121Y02265
X03071Y02165
X02946Y02172
X03071Y01965
X03121Y01465
X03021
X02771Y01365
X02671
X02571
X02471
X02371Y01565
X02301Y01578
X02321Y01665
X02421
X02371Y01765
X02416Y01928
X02371Y02365
X02271
X02071
X01971
X02021Y01665
X01921
X01821
X01826Y01785
X01871Y01765
X01771
Y01965
X018215Y020455
X01955Y02127
X01921Y01865
X01621
X01564Y01862
X01565Y01829
X01546Y01844
X01524Y01855
X01528Y01827
X01471Y01765
Y01666
X01402Y0169
X0143Y0159
X01321Y01621
X01221Y01665
X01122Y01619
X01021
X00921
X00922Y01768
X01023
X01123Y01774
X01171Y01965
X01221Y02065
X01121
X01021
X00921
X00821
X00721
X00621
X00671Y02165
X00771
X00871
X00971
X01071
X01171
X01221Y02265
X01121
X01021
X00921
X00821
X00721
X00621
X00521
X00421
X00471Y02165
X00571
Y02365
X00671
X00771
X00871
X00971
X01071
X01371
X01483Y0227
X01449Y02211
X01471Y02165
X01522Y02107
X01539Y02089
X01523Y0207
X01558Y02072
X01557Y02107
X01612Y02126
X01621Y02265
X0157091Y0232521
X01771Y02365
X01871
X01609Y01954
X01474Y01985
X01371Y01965
X01343Y01895
X01321Y0187
X0126856Y0186744
X01271Y01365
X01371
X01471
X01571
X01671
X01771
X01871
X01821Y01265
X01721
X01621
X01521
X01421
X01321
X01221
X01121
X01021
X00921
X00821
X00721
X00621
X00671Y01365
X00771
X00871
X00971
X01071
X01171
Y01165
X01271
X01371
X01471
X01571
X01671
X01771
X01907Y01168
X01944
X01926Y01199
X01908Y01225
X01945
X01921Y01065
X01821
X01721
X01621
X01521
X01421
X01321
X01221
X01121
X01021
X00921
X00821
X00871Y01165
X00971
X01071
X00771
X00671
X00571Y01365
X00471
X00521Y01465
X00621
X00571Y01565
X00471
X00421Y01665
X00441Y01794
X00421Y01865
X00415Y01931
Y01981
X00417Y02097
X00573Y01842
X00561Y01805
X00621Y01787
X00724Y01786
X00785Y01812
X00721Y01665
X00421Y01465
Y01065
X00471Y00965
X00521Y00865
X00621
X00421
X01621Y01665
X01871Y01565
X00231Y01533
Y01671
X0023Y01825
Y01995
X00232Y02142
X00231Y02279
X00232Y01378
X00235Y01243
X00271Y01165
X00321Y01065
X00371Y00965
X00271
X00321Y00865
X00256Y02396
X00271Y02565
X00321Y02665
X00371Y02765
X00271
X00321Y02865
X00371Y02965
X00271
X00321Y03065
X00371Y03165
X00271
X00321Y03265
X00371Y03365
X00271
X00321Y03465
X00371Y03565
X00271
X00321Y03665
X00371Y03765
X00271
X00471
X00571
X00671
X00621Y03865
X00521
Y03665
X00621
X00671Y03565
X00571
X00471
X00521Y03465
X00621
X00671Y03365
X00571
X00471
X00521Y03265
X00621
X00721
X00771Y03165
X00871
X00921Y03265
X01021
X01071Y03365
X01021Y03465
X0106Y03596
X00938Y03595
X00832Y03594
X00842Y03702
X00917Y03707
X00871Y03765
X01071
X01171
X01114Y03677
X00997Y03678
X01021Y03865
X01121
X01221
X01321
X01371Y03765
X0146Y03801
X01452Y03905
X01421Y03665
X01393Y03568
X01421Y03465
X0152868Y0347913
X01621Y03465
X01671Y03565
X01771
X01871
X01897Y03683
X01835Y03754
X01843Y03904
X01947Y03909
X01671Y03765
X01565Y03718
X01571Y03565
Y03365
X01621Y03265
X0162056Y0312156
X01631Y03045
X01607Y03042
X01622Y03024
X01675Y03026
X01576Y03066
X01531Y03094
X01529Y03032
X01421Y03065
Y03202
Y03265
X01404Y03345
X01335Y03377
X01349Y03398
X01319Y03399
X01275Y03392
X01268Y03306
X01271Y03165
X01071
X01121Y03065
X01089Y02985
X01004Y03018
X00921Y03065
X00821
X00721
X00621
X00521
X00421
X00471Y03165
X00571
X00671
X00571Y02965
X00471
X00521Y02865
X00421
Y03265
Y03465
Y03665
X00871Y03365
X01221Y03465
X01171Y03565
X01303Y03681
X01736Y03396
X01755Y03333
X01806Y0332
X01818Y03298
X01792Y03299
X01826Y03257
X01876Y03277
X01877Y03353
X01901Y03204
X01731Y0313
X01671Y03165
X01571
X01543Y02887
X01571Y0285
X01591Y02789
X01441Y0276
X01411Y02835
X01383
X01397Y02855
X01384Y02876
X01413Y02875
X01321Y02865
X01318Y02919
X01286Y02815
X01256Y02715
X01322Y02704
X01286Y0263
X01365
X0139
X01377Y02609
X01456Y02565
X0159Y02595
X01721Y02665
X01821
X01866Y0271
X01871Y02765
X01771
X01821Y02865
X01921
X01871Y02965
X01771
Y02565
X01871
X01921Y02465
X01821
X01721
X01391Y02435
X01121Y02465
X01021
X00921
X00821
X00721
X00621
X00521
X00571Y02565
X00671
X00771
X00721Y02665
X00771Y02765
X01126Y02815
X01171Y02565
X01971
X02071
X02171
X02271
X02371
X02321Y02665
X02221
X02121
X02021
X02071Y02765
X02171
X02271
X02371
X02321Y02865
X02221
X02121
X02021
X02071Y02965
X02171
X02271
X02371
X02471Y03165
X02516
X02571
X02573Y0307
X02643Y03105
X02721Y03065
X02821
X03021
X03071Y02965
X02971
X03021Y02865
X03112Y02872
X03114Y02837
X0315Y02855
X03186Y02841
X03187Y02875
X03237Y02873
X03321Y02865
X03307Y02946
X03232Y0297
X03233Y03072
X03271Y03165
X0324Y03248
X03328Y03247
X03433
X03471Y03165
X03505Y03016
X03471Y02965
X03365Y02991
Y03073
X03392Y03049
X03421Y02865
X03459Y02737
X03505Y02621
X03492Y02522
X03333Y02468
X03256Y02544
X03176Y02624
X03104Y02697
X03071Y02765
X03021Y02665
X02921
X02821
X02721
X02771Y02765
X02671
X02574Y02759
X02537Y02776
X02538Y02578
X02577Y0256
X02671Y02565
X02771
X02871
X02971
X03071
X0312Y02422
X02975Y02421
X02821Y02465
X02759
X02782Y0244
X02321Y02465
X02221
X02021
X01971Y02765
Y02965
X02016Y0315
X02021Y03265
X01972Y03271
X01975Y03362
X02039
X02021Y03465
X02221
X02321
X02421
X02396Y03532
X02471Y03565
X02571
X02671
X02771
X02821Y03665
X02721
X02771Y03765
X02871
X02971
X03021Y03665
X02971Y03565
X03021Y03465
X03071Y03365
X02971
X03021Y03265
X02821
X02721
X02673Y03292
X02671Y03365
X02771
X02821Y03465
X02721
X0259Y03322
X02604Y03299
X02574Y033
X02534Y03321
X02453Y03361
X02371Y03365
X02271
X02171
X02165Y03268
Y03141
X02236Y0315
X02271Y03165
X02321Y03265
X02421
X0249Y03234
X02452Y03703
X0243299Y03725
X0241Y03746
X02325Y0378
X02271Y03795
X02171Y03765
X02121Y03665
X02321
X02271Y03565
X02512Y03723
X02671Y03765
X03271
X03371
X03471
X03421Y03865
X03321
X03221
Y03665
X03321
X03421
X03371Y03565
X03271
X03321Y03465
X03323Y03385
X03232Y03381
X03221Y03465
X0350631Y0346768
X03506Y03386
X0343Y03375
X03504Y03554
X03271Y02765
X03359Y02656
X01971Y03765
X03571
X03671
X03771
X03871
X03971
X04071
X04171
X04221Y03865
Y03665
X04171Y03565
X04221Y03465
X04171Y03365
X04221Y03265
X04121
X04021
X03921
X03821
X03721
X03621
X03671Y03365
X03716Y03374
X03771Y03365
X03751Y03418
X03772Y03494
X03771Y03565
X0371Y03543
X03682Y03562
X03639Y03539
X03608Y03566
X0357Y03528
X03609Y03419
X03621Y03665
X03721
X03821
X03921
X03928Y03494
X04045Y03496
X03871Y03365
Y03165
X03971
X03921Y03065
X03821
X03721
X03621
X03671Y03165
X03771
Y02965
X03871
X03971
X04021Y02865
X04121
X04221
X04171Y02965
X04221Y03065
X04171Y03165
X04221Y02665
X04171Y02565
X04221Y02465
X04121
X04021
X03921
X03821
X03721
X03718Y0252
X03733Y02594
X03771Y02565
X03779Y02638
X03766Y0271
X03771Y02765
X03871
X03921Y02865
X03821
X03721
X03621
X03671Y02965
X03571
Y03165
X03606Y02719
X03642Y02716
X03643Y02667
X03707Y02687
X03682Y02752
X03571Y0268
X03606Y02585
X03561Y0252
Y02446
X0392Y02641
X04061Y0264
X03921Y03865
X03821
X03721
X03621
X03521
Y03665
X03571Y03965
X03671
X03771
X03871
X04171
X03471
X03371
X03271
X03171
X03071
X02971
X01271
X01171
X01071
X00971
X00871
X00671
X00571
X00471
X00171
T02
X03521Y0164
Y0174
X03621
Y0164
X03721
Y0174
X03821
Y0164
X03921
Y0174
X03621Y0194
Y0204
X03521
Y0194
X03421
Y0204
X03321
Y0194
X03221
Y0204
X03121
Y0194
X03021
Y0204
X02896Y02015
Y02115
Y02215
Y02315
Y01915
X03021Y0174
Y0164
X03121
Y0174
X03221
Y0164
X03321
Y0174
X03421
Y0164
X01371
X01271
X01171
X01071
X00971
X00871
X00771
X00671
X00571
X00471
Y0174
X00571
X00671
X00771
X00871
X00971
X01071
X01171
X01271
X01371
X01196Y01915
Y02015
Y02115
Y02215
Y02315
X01071Y0204
Y0194
X00971
Y0204
X00871
Y0194
X00771
Y0204
X00671
Y0194
X00571
Y0204
X00471
Y0194
X01196Y02415
Y02615
Y02715
Y02815
Y02915
Y03015
Y03115
Y03215
Y03315
X00766Y0345
Y0355
Y0365
Y0375
Y0385
Y0395
X01394
X01494
X01594
X01694
X01794
X01894
Y0385
X01794
X01694
X01594
X01494
X01394
X01994
X02094
X02194
X02294
X02394
X02494
X02594
X02694
X02794
X02894
Y0395
X02794
X02694
X02594
X02494
X02394
X02294
X02194
X02094
X01994
X02896Y03675
Y03575
Y03475
Y03375
Y03275
Y03175
Y03075
Y02975
Y02875
Y02775
Y02615
Y02515
Y02415
T03
X02371Y0064
X02471
X02571
X02671
X02871
X02971
X03071
T04
X04091Y0058
Y0078
Y0098
Y0118
Y02155
Y02355
Y02555
Y02755
Y02995
Y03195
Y03395
Y03595
T05
X0031785Y0033685
X0405915
X0031785Y0388016
X0405915
M30
