G04*
G04 #@! TF.GenerationSoftware,Altium Limited,Altium Designer,20.2.3 (150)*
G04*
G04 Layer_Color=8388736*
%FSLAX25Y25*%
%MOIN*%
G70*
G04*
G04 #@! TF.SameCoordinates,12439D86-AE7D-45F5-80DB-552B17048F2A*
G04*
G04*
G04 #@! TF.FilePolarity,Positive*
G04*
G01*
G75*
%ADD11C,0.00787*%
D11*
X353925Y355950D02*
X357075D01*
Y362250D01*
X353925D02*
X357075D01*
X353925Y355950D02*
Y362250D01*
X223057Y122311D02*
X230143D01*
X223057Y108925D02*
Y122311D01*
Y108925D02*
X230143D01*
Y122311D01*
X353925Y341150D02*
X357075D01*
Y347450D01*
X353925D02*
X357075D01*
X353925Y341150D02*
Y347450D01*
X344325Y345350D02*
X347475D01*
Y351650D01*
X344325D02*
X347475D01*
X344325Y345350D02*
Y351650D01*
X365750Y261068D02*
X372225D01*
Y266532D01*
X365750D02*
X372225D01*
X365750Y261068D02*
Y266532D01*
X353925Y271150D02*
X357075D01*
Y277450D01*
X353925D02*
X357075D01*
X353925Y271150D02*
Y277450D01*
X344325Y260350D02*
X347475D01*
Y266650D01*
X344325D02*
X347475D01*
X344325Y260350D02*
Y266650D01*
X353925Y255650D02*
X357075D01*
Y261950D01*
X353925D02*
X357075D01*
X353925Y255650D02*
Y261950D01*
X291017Y99951D02*
X293183D01*
Y104085D01*
X291017D02*
X293183D01*
X291017Y99951D02*
Y104085D01*
X357525Y111250D02*
X360675D01*
Y117550D01*
X357525D02*
X360675D01*
X357525Y111250D02*
Y117550D01*
X348525Y101350D02*
X351675D01*
Y107650D01*
X348525D02*
X351675D01*
X348525Y101350D02*
Y107650D01*
X357525Y97850D02*
X360675D01*
Y104150D01*
X357525D02*
X360675D01*
X357525Y97850D02*
Y104150D01*
X369075Y103268D02*
X375550D01*
Y108732D01*
X369075D02*
X375550D01*
X369075Y103268D02*
Y108732D01*
X365750Y346568D02*
X372225D01*
Y352032D01*
X365750D02*
X372225D01*
X365750Y346568D02*
Y352032D01*
X211214Y192917D02*
X217710D01*
Y200988D01*
X211214D02*
X217710D01*
X211214Y192917D02*
Y200988D01*
X216037Y180039D02*
Y184961D01*
X208163D02*
X216037D01*
X208163Y180039D02*
Y184961D01*
Y180039D02*
X216037D01*
X216332Y134744D02*
Y140256D01*
X207868D02*
X216332D01*
X207868Y134744D02*
Y140256D01*
Y134744D02*
X216332D01*
X237825Y360050D02*
X240975D01*
Y366350D01*
X237825D02*
X240975D01*
X237825Y360050D02*
Y366350D01*
X254333Y374117D02*
Y376283D01*
Y374117D02*
X258467D01*
Y376283D01*
X254333D02*
X258467D01*
X233525Y192950D02*
Y199250D01*
X236675D01*
Y192950D02*
Y199250D01*
X233525Y192950D02*
X236675D01*
X99017Y250933D02*
Y255067D01*
X101183D01*
Y250933D02*
Y255067D01*
X99017Y250933D02*
X101183D01*
X99017Y263933D02*
Y268067D01*
X101183D01*
Y263933D02*
Y268067D01*
X99017Y263933D02*
X101183D01*
X99017Y275933D02*
Y280067D01*
X101183D01*
Y275933D02*
Y280067D01*
X99017Y275933D02*
X101183D01*
X145563Y241239D02*
X153437D01*
X145563D02*
Y246161D01*
X153437D01*
Y241239D02*
Y246161D01*
X175833Y376083D02*
X179967D01*
Y373917D02*
Y376083D01*
X175833Y373917D02*
X179967D01*
X175833D02*
Y376083D01*
X159825Y359850D02*
Y366150D01*
X162975D01*
Y359850D02*
Y366150D01*
X159825Y359850D02*
X162975D01*
X172116Y318531D02*
Y322468D01*
X174084D01*
Y318531D02*
Y322468D01*
X172116Y318531D02*
X174084D01*
X19450Y248575D02*
X25750D01*
Y245425D02*
Y248575D01*
X19450Y245425D02*
X25750D01*
X19450D02*
Y248575D01*
X187639Y207465D02*
Y215535D01*
X192561D01*
Y207465D02*
Y215535D01*
X187639Y207465D02*
X192561D01*
X258100Y301984D02*
X262037D01*
Y300016D02*
Y301984D01*
X258100Y300016D02*
X262037D01*
X258100D02*
Y301984D01*
X185698Y174902D02*
X210502D01*
X185698Y150098D02*
Y174902D01*
Y150098D02*
X210502D01*
Y174902D01*
M02*
