G04*
G04 #@! TF.GenerationSoftware,Altium Limited,Altium Designer,20.2.3 (150)*
G04*
G04 Layer_Color=16711935*
%FSLAX25Y25*%
%MOIN*%
G70*
G04*
G04 #@! TF.SameCoordinates,12439D86-AE7D-45F5-80DB-552B17048F2A*
G04*
G04*
G04 #@! TF.FilePolarity,Positive*
G04*
G01*
G75*
%ADD12C,0.00394*%
%ADD15C,0.01000*%
%ADD71C,0.00600*%
D12*
X255039Y350200D02*
X257006D01*
X257400Y350594D01*
Y351381D01*
X257006Y351774D01*
X255039D01*
X255432Y352561D02*
X255039Y352955D01*
Y353742D01*
X255432Y354136D01*
X255826D01*
X256219Y353742D01*
Y353349D01*
Y353742D01*
X256613Y354136D01*
X257006D01*
X257400Y353742D01*
Y352955D01*
X257006Y352561D01*
X176539Y350000D02*
X178506D01*
X178900Y350394D01*
Y351181D01*
X178506Y351574D01*
X176539D01*
X178900Y353936D02*
Y352361D01*
X177326Y353936D01*
X176932D01*
X176539Y353542D01*
Y352755D01*
X176932Y352361D01*
D15*
X425600Y14000D02*
X425600Y407701D01*
X12100Y14000D02*
X425486D01*
X12100Y407701D02*
X12100Y14000D01*
X12100Y407701D02*
X425600D01*
X-7400Y20000D02*
X-5400Y14000D01*
X-3400Y20000D01*
X-5400Y407701D02*
X-3400Y401701D01*
X-7400D02*
X-5400Y407701D01*
Y14000D02*
Y191656D01*
Y226845D02*
Y407701D01*
X-6400Y14000D02*
X10600D01*
X-6400Y407701D02*
X10600D01*
X12100Y6500D02*
X18100Y8500D01*
X12100Y6500D02*
X18100Y4500D01*
X419486D02*
X425486Y6500D01*
X419486Y8500D02*
X425486Y6500D01*
X12100D02*
X199598D01*
X234788D02*
X425486D01*
X12100Y5500D02*
Y12500D01*
X425486Y5500D02*
Y12500D01*
D71*
X-1801Y193256D02*
Y195255D01*
Y194255D01*
X-7799D01*
X-6799Y193256D01*
Y198254D02*
X-7799Y199254D01*
Y201253D01*
X-6799Y202253D01*
X-2801D01*
X-1801Y201253D01*
Y199254D01*
X-2801Y198254D01*
X-6799D01*
Y204252D02*
X-7799Y205252D01*
Y207251D01*
X-6799Y208251D01*
X-2801D01*
X-1801Y207251D01*
Y205252D01*
X-2801Y204252D01*
X-6799D01*
X-1801Y210250D02*
X-2801D01*
Y211250D01*
X-1801D01*
Y210250D01*
X-6799Y215248D02*
X-7799Y216248D01*
Y218248D01*
X-6799Y219247D01*
X-2801D01*
X-1801Y218248D01*
Y216248D01*
X-2801Y215248D01*
X-6799D01*
Y221247D02*
X-7799Y222246D01*
Y224246D01*
X-6799Y225245D01*
X-2801D01*
X-1801Y224246D01*
Y222246D01*
X-2801Y221247D01*
X-6799D01*
X201198Y2901D02*
X203198D01*
X202198D01*
Y8899D01*
X201198Y7899D01*
X206196D02*
X207196Y8899D01*
X209195D01*
X210195Y7899D01*
Y3901D01*
X209195Y2901D01*
X207196D01*
X206196Y3901D01*
Y7899D01*
X216193Y8899D02*
X212194D01*
Y5900D01*
X214194Y6900D01*
X215194D01*
X216193Y5900D01*
Y3901D01*
X215194Y2901D01*
X213194D01*
X212194Y3901D01*
X218193Y2901D02*
Y3901D01*
X219192D01*
Y2901D01*
X218193D01*
X223191Y7899D02*
X224191Y8899D01*
X226190D01*
X227190Y7899D01*
Y3901D01*
X226190Y2901D01*
X224191D01*
X223191Y3901D01*
Y7899D01*
X229189D02*
X230189Y8899D01*
X232188D01*
X233188Y7899D01*
Y3901D01*
X232188Y2901D01*
X230189D01*
X229189Y3901D01*
Y7899D01*
M02*
