G04*
G04 #@! TF.GenerationSoftware,Altium Limited,Altium Designer,20.2.3 (150)*
G04*
G04 Layer_Color=16711935*
%FSLAX25Y25*%
%MOIN*%
G70*
G04*
G04 #@! TF.SameCoordinates,12439D86-AE7D-45F5-80DB-552B17048F2A*
G04*
G04*
G04 #@! TF.FilePolarity,Negative*
G04*
G01*
G75*
%ADD47C,0.06299*%
%ADD48R,0.06299X0.06299*%
%ADD49C,0.06299*%
G04:AMPARAMS|DCode=50|XSize=62.99mil|YSize=62.99mil|CornerRadius=4.92mil|HoleSize=0mil|Usage=FLASHONLY|Rotation=0.000|XOffset=0mil|YOffset=0mil|HoleType=Round|Shape=RoundedRectangle|*
%AMROUNDEDRECTD50*
21,1,0.06299,0.05315,0,0,0.0*
21,1,0.05315,0.06299,0,0,0.0*
1,1,0.00984,0.02657,-0.02657*
1,1,0.00984,-0.02657,-0.02657*
1,1,0.00984,-0.02657,0.02657*
1,1,0.00984,0.02657,0.02657*
%
%ADD50ROUNDEDRECTD50*%
%ADD51R,0.06299X0.06299*%
%ADD53C,0.18110*%
%ADD70R,0.11200X0.20600*%
D47*
X289400Y395000D02*
D03*
Y385000D02*
D03*
X279400Y395000D02*
D03*
Y385000D02*
D03*
X269400Y395000D02*
D03*
Y385000D02*
D03*
X259400Y395000D02*
D03*
Y385000D02*
D03*
X249400Y395000D02*
D03*
Y385000D02*
D03*
X239400Y395000D02*
D03*
Y385000D02*
D03*
X229400Y395000D02*
D03*
Y385000D02*
D03*
X219400Y395000D02*
D03*
Y385000D02*
D03*
X209400Y395000D02*
D03*
Y385000D02*
D03*
X199400Y395000D02*
D03*
Y385000D02*
D03*
X189400Y395000D02*
D03*
Y385000D02*
D03*
X179400Y395000D02*
D03*
Y385000D02*
D03*
X169400Y395000D02*
D03*
Y385000D02*
D03*
X159400Y395000D02*
D03*
Y385000D02*
D03*
X149400Y395000D02*
D03*
Y385000D02*
D03*
X139400Y395000D02*
D03*
X119600Y261500D02*
D03*
Y271500D02*
D03*
Y281500D02*
D03*
Y291500D02*
D03*
Y301500D02*
D03*
Y311500D02*
D03*
Y321500D02*
D03*
X76600Y345000D02*
D03*
Y355000D02*
D03*
Y365000D02*
D03*
Y375000D02*
D03*
Y385000D02*
D03*
X289600Y287500D02*
D03*
Y307500D02*
D03*
Y317500D02*
D03*
Y327500D02*
D03*
Y337500D02*
D03*
Y347500D02*
D03*
Y357500D02*
D03*
Y367500D02*
D03*
Y297500D02*
D03*
Y261500D02*
D03*
Y251500D02*
D03*
Y241500D02*
D03*
Y231500D02*
D03*
Y221500D02*
D03*
Y211500D02*
D03*
Y201500D02*
D03*
X119600Y231500D02*
D03*
Y221500D02*
D03*
Y211500D02*
D03*
Y201500D02*
D03*
Y191500D02*
D03*
D48*
X139400Y385000D02*
D03*
D49*
X362100Y194000D02*
D03*
Y204000D02*
D03*
X352100Y194000D02*
D03*
Y204000D02*
D03*
X342100Y194000D02*
D03*
Y204000D02*
D03*
X332100Y194000D02*
D03*
Y204000D02*
D03*
X322100Y194000D02*
D03*
Y204000D02*
D03*
X312100Y194000D02*
D03*
Y204000D02*
D03*
X302100Y194000D02*
D03*
Y164000D02*
D03*
X312100Y174000D02*
D03*
Y164000D02*
D03*
X322100Y174000D02*
D03*
Y164000D02*
D03*
X332100Y174000D02*
D03*
Y164000D02*
D03*
X342100Y174000D02*
D03*
Y164000D02*
D03*
X352100Y174000D02*
D03*
Y164000D02*
D03*
X362100Y174000D02*
D03*
Y164000D02*
D03*
X372100Y174000D02*
D03*
Y164000D02*
D03*
X382100Y174000D02*
D03*
Y164000D02*
D03*
X392100Y174000D02*
D03*
Y164000D02*
D03*
X107100Y194000D02*
D03*
Y204000D02*
D03*
X97100Y194000D02*
D03*
Y204000D02*
D03*
X87100Y194000D02*
D03*
Y204000D02*
D03*
X77100Y194000D02*
D03*
Y204000D02*
D03*
X67100Y194000D02*
D03*
Y204000D02*
D03*
X57100Y194000D02*
D03*
Y204000D02*
D03*
X47100Y194000D02*
D03*
Y164000D02*
D03*
X57100Y174000D02*
D03*
Y164000D02*
D03*
X67100Y174000D02*
D03*
Y164000D02*
D03*
X77100Y174000D02*
D03*
Y164000D02*
D03*
X87100Y174000D02*
D03*
Y164000D02*
D03*
X97100Y174000D02*
D03*
Y164000D02*
D03*
X107100Y174000D02*
D03*
Y164000D02*
D03*
X117100Y174000D02*
D03*
Y164000D02*
D03*
X127100Y174000D02*
D03*
Y164000D02*
D03*
X137100Y174000D02*
D03*
Y164000D02*
D03*
D50*
X302100Y204000D02*
D03*
Y174000D02*
D03*
X47100Y204000D02*
D03*
Y174000D02*
D03*
D51*
X119600Y331500D02*
D03*
X76600Y395000D02*
D03*
X289600Y277500D02*
D03*
Y191500D02*
D03*
X119600Y241500D02*
D03*
D53*
X31785Y388016D02*
D03*
X405915D02*
D03*
Y33685D02*
D03*
X31785D02*
D03*
D70*
X190900Y119900D02*
D03*
M02*
