G04*
G04 #@! TF.GenerationSoftware,Altium Limited,Altium Designer,20.2.3 (150)*
G04*
G04 Layer_Color=32896*
%FSLAX25Y25*%
%MOIN*%
G70*
G04*
G04 #@! TF.SameCoordinates,12439D86-AE7D-45F5-80DB-552B17048F2A*
G04*
G04*
G04 #@! TF.FilePolarity,Positive*
G04*
G01*
G75*
%ADD11C,0.00787*%
%ADD15C,0.01000*%
G36*
X150421Y179020D02*
X155488Y159138D01*
X145354D01*
X150421Y179020D01*
D02*
G37*
G36*
X405421D02*
X410488Y159138D01*
X400354D01*
X405421Y179020D01*
D02*
G37*
D11*
X295850Y210250D02*
X368350D01*
X295850Y187750D02*
X368350D01*
X295850D02*
Y210250D01*
X368350Y187750D02*
Y210250D01*
X323350Y209000D02*
Y210250D01*
Y209000D02*
X339600D01*
X340850D01*
Y210250D01*
X355850Y179000D02*
Y180250D01*
X354600Y179000D02*
X355850D01*
X338350D02*
X354600D01*
X338350D02*
Y180250D01*
X398350Y157750D02*
Y180250D01*
X295850Y157750D02*
Y180250D01*
Y157750D02*
X398350D01*
X295850Y180250D02*
X398350D01*
X40850Y210250D02*
X113350D01*
X40850Y187750D02*
X113350D01*
X40850D02*
Y210250D01*
X113350Y187750D02*
Y210250D01*
X68350Y209000D02*
Y210250D01*
Y209000D02*
X84600D01*
X85850D01*
Y210250D01*
X100850Y179000D02*
Y180250D01*
X99600Y179000D02*
X100850D01*
X83350D02*
X99600D01*
X83350D02*
Y180250D01*
X143350Y157750D02*
Y180250D01*
X40850Y157750D02*
Y180250D01*
Y157750D02*
X143350D01*
X40850Y180250D02*
X143350D01*
X292521Y192504D02*
X294620D01*
X292521Y194603D01*
Y195128D01*
X293045Y195652D01*
X294095D01*
X294620Y195128D01*
X289372Y192504D02*
X291471D01*
X289372Y194603D01*
Y195128D01*
X289897Y195652D01*
X290946D01*
X291471Y195128D01*
X292521Y202543D02*
X294620D01*
X292521Y204642D01*
Y205167D01*
X293045Y205692D01*
X294095D01*
X294620Y205167D01*
X291471Y202543D02*
X290422D01*
X290946D01*
Y205692D01*
X291471Y205167D01*
X294226Y172425D02*
X293177D01*
X293701D01*
Y175574D01*
X294226Y175049D01*
X292521Y162583D02*
X294620D01*
X292521Y164682D01*
Y165207D01*
X293045Y165731D01*
X294095D01*
X294620Y165207D01*
X37521Y192504D02*
X39620D01*
X37521Y194603D01*
Y195128D01*
X38045Y195652D01*
X39095D01*
X39620Y195128D01*
X34372Y192504D02*
X36471D01*
X34372Y194603D01*
Y195128D01*
X34897Y195652D01*
X35946D01*
X36471Y195128D01*
X37521Y202543D02*
X39620D01*
X37521Y204642D01*
Y205167D01*
X38045Y205692D01*
X39095D01*
X39620Y205167D01*
X36471Y202543D02*
X35422D01*
X35946D01*
Y205692D01*
X36471Y205167D01*
X39226Y172425D02*
X38176D01*
X38701D01*
Y175574D01*
X39226Y175049D01*
X37521Y162583D02*
X39620D01*
X37521Y164682D01*
Y165207D01*
X38045Y165731D01*
X39095D01*
X39620Y165207D01*
D15*
X375090Y155499D02*
Y149501D01*
X371091D01*
X368092D02*
X366093D01*
X365093Y150500D01*
Y152500D01*
X366093Y153499D01*
X368092D01*
X369092Y152500D01*
Y150500D01*
X368092Y149501D01*
X363094D02*
Y155499D01*
X360095D01*
X359095Y154499D01*
Y152500D01*
X360095Y151500D01*
X363094D01*
X361095D02*
X359095Y149501D01*
X356096Y153499D02*
X354097D01*
X353097Y152500D01*
Y149501D01*
X356096D01*
X357096Y150500D01*
X356096Y151500D01*
X353097D01*
X351098Y148501D02*
X347099D01*
X345100Y153499D02*
Y150500D01*
X344100Y149501D01*
X341101D01*
Y153499D01*
X339102Y147501D02*
Y153499D01*
X336103D01*
X335103Y152500D01*
Y150500D01*
X336103Y149501D01*
X339102D01*
X333104D02*
X331104D01*
X332104D01*
Y155499D01*
X333104D01*
X328105Y149501D02*
X326106D01*
X327106D01*
Y153499D01*
X328105D01*
X323107Y149501D02*
Y153499D01*
X320108D01*
X319108Y152500D01*
Y149501D01*
X317109D02*
Y155499D01*
Y151500D02*
X314110Y153499D01*
X317109Y151500D02*
X314110Y149501D01*
X123088Y154999D02*
Y149001D01*
X119089D01*
X116091D02*
X114091D01*
X113091Y150001D01*
Y152000D01*
X114091Y152999D01*
X116091D01*
X117090Y152000D01*
Y150001D01*
X116091Y149001D01*
X111092D02*
Y154999D01*
X108093D01*
X107093Y153999D01*
Y152000D01*
X108093Y151000D01*
X111092D01*
X109093D02*
X107093Y149001D01*
X104094Y152999D02*
X102095D01*
X101095Y152000D01*
Y149001D01*
X104094D01*
X105094Y150001D01*
X104094Y151000D01*
X101095D01*
X99096Y148001D02*
X95097D01*
X89099Y154999D02*
Y149001D01*
X92098D01*
X93098Y150001D01*
Y152000D01*
X92098Y152999D01*
X89099D01*
X86100Y149001D02*
X84101D01*
X83101Y150001D01*
Y152000D01*
X84101Y152999D01*
X86100D01*
X87100Y152000D01*
Y150001D01*
X86100Y149001D01*
X81102Y152999D02*
Y150001D01*
X80102Y149001D01*
X79102Y150001D01*
X78103Y149001D01*
X77103Y150001D01*
Y152999D01*
X75104Y149001D02*
Y152999D01*
X72105D01*
X71105Y152000D01*
Y149001D01*
X69106D02*
X67106D01*
X68106D01*
Y154999D01*
X69106D01*
X64107Y149001D02*
X62108D01*
X63108D01*
Y152999D01*
X64107D01*
X59109Y149001D02*
Y152999D01*
X56110D01*
X55110Y152000D01*
Y149001D01*
X53111D02*
Y154999D01*
Y151000D02*
X50112Y152999D01*
X53111Y151000D02*
X50112Y149001D01*
M02*
