G04*
G04 #@! TF.GenerationSoftware,Altium Limited,Altium Designer,20.2.3 (150)*
G04*
G04 Layer_Color=32896*
%FSLAX25Y25*%
%MOIN*%
G70*
G04*
G04 #@! TF.SameCoordinates,55210B2D-0A46-486D-8559-DE1921E740DA*
G04*
G04*
G04 #@! TF.FilePolarity,Positive*
G04*
G01*
G75*
%ADD10C,0.00787*%
%ADD65C,0.01000*%
G36*
X214821Y176520D02*
X219888Y156638D01*
X209754D01*
X214821Y176520D01*
D02*
G37*
G36*
X367821D02*
X372888Y156638D01*
X362754D01*
X367821Y176520D01*
D02*
G37*
D10*
X258250Y207750D02*
X330750D01*
X258250Y185250D02*
X330750D01*
X258250D02*
Y207750D01*
X330750Y185250D02*
Y207750D01*
X285750Y206500D02*
Y207750D01*
Y206500D02*
X302000D01*
X303250D01*
Y207750D01*
X318250Y176500D02*
Y177750D01*
X317000Y176500D02*
X318250D01*
X300750D02*
X317000D01*
X300750D02*
Y177750D01*
X360750Y155250D02*
Y177750D01*
X258250Y155250D02*
Y177750D01*
Y155250D02*
X360750D01*
X258250Y177750D02*
X360750D01*
X105250D02*
X207750D01*
X105250Y155250D02*
X207750D01*
X105250D02*
Y177750D01*
X207750Y155250D02*
Y177750D01*
X147750Y176500D02*
Y177750D01*
Y176500D02*
X164000D01*
X165250D01*
Y177750D01*
X150250Y206500D02*
Y207750D01*
X149000Y206500D02*
X150250D01*
X132750D02*
X149000D01*
X132750D02*
Y207750D01*
X177750Y185250D02*
Y207750D01*
X105250Y185250D02*
Y207750D01*
Y185250D02*
X177750D01*
X105250Y207750D02*
X177750D01*
X254921Y190004D02*
X257020D01*
X254921Y192103D01*
Y192628D01*
X255445Y193152D01*
X256495D01*
X257020Y192628D01*
X251772Y190004D02*
X253871D01*
X251772Y192103D01*
Y192628D01*
X252297Y193152D01*
X253346D01*
X253871Y192628D01*
X254921Y200043D02*
X257020D01*
X254921Y202142D01*
Y202667D01*
X255445Y203192D01*
X256495D01*
X257020Y202667D01*
X253871Y200043D02*
X252822D01*
X253346D01*
Y203192D01*
X253871Y202667D01*
X256626Y169925D02*
X255576D01*
X256101D01*
Y173074D01*
X256626Y172549D01*
X254921Y160083D02*
X257020D01*
X254921Y162182D01*
Y162706D01*
X255445Y163231D01*
X256495D01*
X257020Y162706D01*
X101921Y160083D02*
X104020D01*
X101921Y162182D01*
Y162706D01*
X102445Y163231D01*
X103495D01*
X104020Y162706D01*
X103626Y169925D02*
X102576D01*
X103101D01*
Y173074D01*
X103626Y172549D01*
X101921Y200043D02*
X104020D01*
X101921Y202142D01*
Y202667D01*
X102445Y203192D01*
X103495D01*
X104020Y202667D01*
X100871Y200043D02*
X99822D01*
X100346D01*
Y203192D01*
X100871Y202667D01*
X101921Y190004D02*
X104020D01*
X101921Y192103D01*
Y192628D01*
X102445Y193152D01*
X103495D01*
X104020Y192628D01*
X98772Y190004D02*
X100871D01*
X98772Y192103D01*
Y192628D01*
X99297Y193152D01*
X100346D01*
X100871Y192628D01*
D65*
X319490Y152999D02*
Y147001D01*
X315491D01*
X312492D02*
X310493D01*
X309493Y148000D01*
Y150000D01*
X310493Y150999D01*
X312492D01*
X313492Y150000D01*
Y148000D01*
X312492Y147001D01*
X307494D02*
Y152999D01*
X304495D01*
X303495Y151999D01*
Y150000D01*
X304495Y149000D01*
X307494D01*
X305495D02*
X303495Y147001D01*
X300496Y150999D02*
X298497D01*
X297497Y150000D01*
Y147001D01*
X300496D01*
X301496Y148000D01*
X300496Y149000D01*
X297497D01*
X295498Y146001D02*
X291499D01*
X289500Y150999D02*
Y148000D01*
X288500Y147001D01*
X285501D01*
Y150999D01*
X283502Y145001D02*
Y150999D01*
X280503D01*
X279503Y150000D01*
Y148000D01*
X280503Y147001D01*
X283502D01*
X277504D02*
X275504D01*
X276504D01*
Y152999D01*
X277504D01*
X272505Y147001D02*
X270506D01*
X271506D01*
Y150999D01*
X272505D01*
X267507Y147001D02*
Y150999D01*
X264508D01*
X263508Y150000D01*
Y147001D01*
X261509D02*
Y152999D01*
Y149000D02*
X258510Y150999D01*
X261509Y149000D02*
X258510Y147001D01*
X178488Y152499D02*
Y146501D01*
X174489D01*
X171491D02*
X169491D01*
X168491Y147501D01*
Y149500D01*
X169491Y150499D01*
X171491D01*
X172490Y149500D01*
Y147501D01*
X171491Y146501D01*
X166492D02*
Y152499D01*
X163493D01*
X162493Y151499D01*
Y149500D01*
X163493Y148500D01*
X166492D01*
X164493D02*
X162493Y146501D01*
X159494Y150499D02*
X157495D01*
X156495Y149500D01*
Y146501D01*
X159494D01*
X160494Y147501D01*
X159494Y148500D01*
X156495D01*
X154496Y145501D02*
X150497D01*
X144499Y152499D02*
Y146501D01*
X147498D01*
X148498Y147501D01*
Y149500D01*
X147498Y150499D01*
X144499D01*
X141500Y146501D02*
X139501D01*
X138501Y147501D01*
Y149500D01*
X139501Y150499D01*
X141500D01*
X142500Y149500D01*
Y147501D01*
X141500Y146501D01*
X136502Y150499D02*
Y147501D01*
X135502Y146501D01*
X134502Y147501D01*
X133503Y146501D01*
X132503Y147501D01*
Y150499D01*
X130504Y146501D02*
Y150499D01*
X127505D01*
X126505Y149500D01*
Y146501D01*
X124506D02*
X122506D01*
X123506D01*
Y152499D01*
X124506D01*
X119507Y146501D02*
X117508D01*
X118508D01*
Y150499D01*
X119507D01*
X114509Y146501D02*
Y150499D01*
X111510D01*
X110510Y149500D01*
Y146501D01*
X108511D02*
Y152499D01*
Y148500D02*
X105512Y150499D01*
X108511Y148500D02*
X105512Y146501D01*
M02*
