G04*
G04 #@! TF.GenerationSoftware,Altium Limited,Altium Designer,20.2.3 (150)*
G04*
G04 Layer_Color=255*
%FSLAX25Y25*%
%MOIN*%
G70*
G04*
G04 #@! TF.SameCoordinates,55210B2D-0A46-486D-8559-DE1921E740DA*
G04*
G04*
G04 #@! TF.FilePolarity,Positive*
G04*
G01*
G75*
%ADD17R,0.02387X0.02473*%
%ADD18O,0.01181X0.08268*%
%ADD19R,0.02756X0.02559*%
%ADD20C,0.00837*%
%ADD21R,0.02985X0.03197*%
%ADD22R,0.03071X0.03858*%
G04:AMPARAMS|DCode=23|XSize=25.59mil|YSize=64.96mil|CornerRadius=1.92mil|HoleSize=0mil|Usage=FLASHONLY|Rotation=180.000|XOffset=0mil|YOffset=0mil|HoleType=Round|Shape=RoundedRectangle|*
%AMROUNDEDRECTD23*
21,1,0.02559,0.06112,0,0,180.0*
21,1,0.02175,0.06496,0,0,180.0*
1,1,0.00384,-0.01088,0.03056*
1,1,0.00384,0.01088,0.03056*
1,1,0.00384,0.01088,-0.03056*
1,1,0.00384,-0.01088,-0.03056*
%
%ADD23ROUNDEDRECTD23*%
%ADD24R,0.08268X0.05433*%
%ADD25O,0.08268X0.01181*%
%ADD26R,0.02362X0.03150*%
%ADD27R,0.03985X0.04168*%
%ADD28R,0.03858X0.03071*%
%ADD29R,0.01870X0.01968*%
%ADD30R,0.03543X0.05512*%
%ADD31R,0.05669X0.05512*%
%ADD32R,0.07087X0.04134*%
%ADD33R,0.05512X0.03543*%
%ADD34R,0.04168X0.03985*%
%ADD35R,0.00787X0.01968*%
%ADD36R,0.01575X0.05512*%
%ADD37R,0.03150X0.03543*%
%ADD38R,0.04750X0.05938*%
%ADD39R,0.02473X0.02387*%
%ADD40R,0.07480X0.03543*%
%ADD41R,0.07480X0.12598*%
%ADD42R,0.05118X0.02756*%
%ADD43R,0.07087X0.05512*%
%ADD44R,0.03937X0.05709*%
%ADD45R,0.07874X0.17323*%
%ADD46R,0.07087X0.16535*%
%ADD74C,0.06496*%
%ADD75C,0.18012*%
%ADD76R,0.06496X0.06496*%
%ADD77C,0.05937*%
%ADD78C,0.10039*%
%ADD79R,0.10039X0.10039*%
%ADD80C,0.17717*%
%ADD81C,0.05906*%
G04:AMPARAMS|DCode=82|XSize=59.06mil|YSize=59.06mil|CornerRadius=2.95mil|HoleSize=0mil|Usage=FLASHONLY|Rotation=0.000|XOffset=0mil|YOffset=0mil|HoleType=Round|Shape=RoundedRectangle|*
%AMROUNDEDRECTD82*
21,1,0.05906,0.05315,0,0,0.0*
21,1,0.05315,0.05906,0,0,0.0*
1,1,0.00591,0.02657,-0.02657*
1,1,0.00591,-0.02657,-0.02657*
1,1,0.00591,-0.02657,0.02657*
1,1,0.00591,0.02657,0.02657*
%
%ADD82ROUNDEDRECTD82*%
%ADD83R,0.05906X0.05906*%
%ADD84C,0.07244*%
%ADD85R,0.07244X0.07244*%
%ADD86C,0.06791*%
D17*
X124800Y332468D02*
D03*
Y335531D02*
D03*
D18*
X124848Y324965D02*
D03*
X183903Y241500D02*
D03*
X181935D02*
D03*
X120911D02*
D03*
X122880D02*
D03*
X124848D02*
D03*
X126816D02*
D03*
X128785D02*
D03*
X130754D02*
D03*
X132722D02*
D03*
X134690D02*
D03*
X136659D02*
D03*
X138628D02*
D03*
X140596D02*
D03*
X142564D02*
D03*
X144533D02*
D03*
X146502D02*
D03*
X148470D02*
D03*
X150438D02*
D03*
X152407D02*
D03*
X154376D02*
D03*
X156344D02*
D03*
X158313D02*
D03*
X160281D02*
D03*
X162250D02*
D03*
X164218D02*
D03*
X166187D02*
D03*
X168155D02*
D03*
X170124D02*
D03*
X172092D02*
D03*
X174061D02*
D03*
X176029D02*
D03*
X177998D02*
D03*
X179966D02*
D03*
X185872D02*
D03*
X187840D02*
D03*
X189809D02*
D03*
Y324965D02*
D03*
X187840D02*
D03*
X185872D02*
D03*
X183903D02*
D03*
X181935D02*
D03*
X179966D02*
D03*
X177998D02*
D03*
X176029D02*
D03*
X174061D02*
D03*
X172092D02*
D03*
X170124D02*
D03*
X168155D02*
D03*
X166187D02*
D03*
X164218D02*
D03*
X162250D02*
D03*
X160281D02*
D03*
X158313D02*
D03*
X156344D02*
D03*
X154376D02*
D03*
X152407D02*
D03*
X150438D02*
D03*
X148470D02*
D03*
X146502D02*
D03*
X144533D02*
D03*
X142564D02*
D03*
X140596D02*
D03*
X138628D02*
D03*
X136659D02*
D03*
X134690D02*
D03*
X132722D02*
D03*
X130754D02*
D03*
X128785D02*
D03*
X126816D02*
D03*
X122880D02*
D03*
X120911D02*
D03*
D19*
X116800Y223843D02*
D03*
Y229158D02*
D03*
D20*
X339225Y211368D02*
D03*
Y212943D02*
D03*
X343950Y214518D02*
D03*
Y212943D02*
D03*
Y211368D02*
D03*
X342375Y214518D02*
D03*
Y212943D02*
D03*
Y211368D02*
D03*
X340800Y214518D02*
D03*
Y212943D02*
D03*
Y211368D02*
D03*
X339225Y214518D02*
D03*
X338825Y329789D02*
D03*
Y331364D02*
D03*
Y332939D02*
D03*
X340400Y329789D02*
D03*
Y331364D02*
D03*
Y332939D02*
D03*
X341975Y329789D02*
D03*
Y331364D02*
D03*
Y332939D02*
D03*
X343550Y329789D02*
D03*
Y331364D02*
D03*
Y332939D02*
D03*
X338350Y121425D02*
D03*
Y123000D02*
D03*
Y124575D02*
D03*
X339925Y121425D02*
D03*
Y123000D02*
D03*
Y124575D02*
D03*
X341500Y121425D02*
D03*
Y123000D02*
D03*
Y124575D02*
D03*
X343075Y121425D02*
D03*
Y123000D02*
D03*
Y124575D02*
D03*
D21*
X343868Y340364D02*
D03*
X219544Y310100D02*
D03*
X224481D02*
D03*
X224468Y302300D02*
D03*
X344268Y222143D02*
D03*
X339332D02*
D03*
X219532Y302300D02*
D03*
X338932Y340364D02*
D03*
X338032Y131500D02*
D03*
X342968D02*
D03*
D22*
X131112Y345400D02*
D03*
X191412Y345500D02*
D03*
X307631Y222158D02*
D03*
X213000Y320700D02*
D03*
X207488D02*
D03*
X207488Y298000D02*
D03*
X207488Y278500D02*
D03*
X207588Y250800D02*
D03*
X192356Y228400D02*
D03*
X188944Y198600D02*
D03*
X339044Y204143D02*
D03*
X344556D02*
D03*
X344156Y322864D02*
D03*
X338644D02*
D03*
X313143Y222158D02*
D03*
X104344Y274500D02*
D03*
X98832D02*
D03*
X104344Y294000D02*
D03*
X98832D02*
D03*
X194456Y198600D02*
D03*
X146544Y336800D02*
D03*
X152056D02*
D03*
X168100D02*
D03*
X173612D02*
D03*
X213000Y298000D02*
D03*
X213000Y278500D02*
D03*
X213100Y250800D02*
D03*
X102600Y248783D02*
D03*
X97088D02*
D03*
X186844Y228400D02*
D03*
X185900Y345500D02*
D03*
X125600Y345400D02*
D03*
X338244Y114500D02*
D03*
X343756D02*
D03*
D23*
X191156Y353278D02*
D03*
X130856Y353178D02*
D03*
X196156Y375522D02*
D03*
X191156D02*
D03*
X186156D02*
D03*
X181156D02*
D03*
X196156Y353278D02*
D03*
X186156D02*
D03*
X181156D02*
D03*
X120856Y353178D02*
D03*
X125856D02*
D03*
X135856D02*
D03*
X120856Y375422D02*
D03*
X125856D02*
D03*
X130856D02*
D03*
X135856D02*
D03*
D24*
X299000Y222000D02*
D03*
X263173Y222039D02*
D03*
X299000Y239677D02*
D03*
X263173D02*
D03*
D25*
X197092Y317681D02*
D03*
Y297996D02*
D03*
Y278311D02*
D03*
Y252720D02*
D03*
Y248783D02*
D03*
Y250752D02*
D03*
Y254689D02*
D03*
Y256657D02*
D03*
Y258626D02*
D03*
Y260594D02*
D03*
Y262563D02*
D03*
Y264532D02*
D03*
Y266500D02*
D03*
Y268469D02*
D03*
Y270437D02*
D03*
Y272406D02*
D03*
Y274374D02*
D03*
Y276343D02*
D03*
Y280280D02*
D03*
Y282248D02*
D03*
Y284217D02*
D03*
Y286185D02*
D03*
Y288154D02*
D03*
Y290122D02*
D03*
Y292091D02*
D03*
Y294059D02*
D03*
Y296028D02*
D03*
Y299965D02*
D03*
Y301933D02*
D03*
Y303902D02*
D03*
Y305870D02*
D03*
Y307839D02*
D03*
Y309807D02*
D03*
Y311776D02*
D03*
Y313744D02*
D03*
Y315713D02*
D03*
X113628Y317681D02*
D03*
Y315713D02*
D03*
Y313744D02*
D03*
Y311776D02*
D03*
Y309807D02*
D03*
Y307839D02*
D03*
Y305870D02*
D03*
Y303902D02*
D03*
Y301933D02*
D03*
Y299965D02*
D03*
Y297996D02*
D03*
Y296028D02*
D03*
Y294059D02*
D03*
Y292091D02*
D03*
Y290122D02*
D03*
Y288154D02*
D03*
Y286185D02*
D03*
Y284217D02*
D03*
Y282248D02*
D03*
Y280280D02*
D03*
Y278311D02*
D03*
Y276343D02*
D03*
Y274374D02*
D03*
Y272406D02*
D03*
Y270437D02*
D03*
Y268469D02*
D03*
Y266500D02*
D03*
Y264532D02*
D03*
Y262563D02*
D03*
Y260594D02*
D03*
Y258626D02*
D03*
Y256657D02*
D03*
Y254689D02*
D03*
Y252720D02*
D03*
Y250752D02*
D03*
Y248783D02*
D03*
D26*
X186744Y221548D02*
D03*
X192256D02*
D03*
D27*
X177998Y228452D02*
D03*
Y221548D02*
D03*
X172556Y375552D02*
D03*
Y368648D02*
D03*
X112256Y368548D02*
D03*
Y375452D02*
D03*
D28*
X63700Y277544D02*
D03*
Y283056D02*
D03*
X46000Y267444D02*
D03*
Y272956D02*
D03*
X130744Y229256D02*
D03*
X114300Y332744D02*
D03*
Y338256D02*
D03*
X130744Y223744D02*
D03*
X152444Y230756D02*
D03*
Y225244D02*
D03*
D29*
X259575Y103500D02*
D03*
X255539D02*
D03*
X190674Y382500D02*
D03*
X186638D02*
D03*
X85883Y124302D02*
D03*
X81847D02*
D03*
X73618D02*
D03*
X69582D02*
D03*
X61618D02*
D03*
X57582D02*
D03*
X126338Y382400D02*
D03*
X130374D02*
D03*
D30*
X273940Y103500D02*
D03*
X266460D02*
D03*
D31*
X355100Y217274D02*
D03*
Y208612D02*
D03*
X354700Y327263D02*
D03*
Y335924D02*
D03*
X354500Y127331D02*
D03*
Y118669D02*
D03*
D32*
X264500Y137094D02*
D03*
Y148906D02*
D03*
X111500Y148906D02*
D03*
Y137094D02*
D03*
D33*
X59600Y117140D02*
D03*
Y109660D02*
D03*
X71600D02*
D03*
Y117140D02*
D03*
D34*
X292352Y377000D02*
D03*
X285448D02*
D03*
X20248Y224700D02*
D03*
X27152D02*
D03*
D35*
X139850Y225728D02*
D03*
X140638Y229272D02*
D03*
D36*
X137094Y227500D02*
D03*
X143394D02*
D03*
D37*
X164469Y224594D02*
D03*
Y230500D02*
D03*
X159744D02*
D03*
Y224594D02*
D03*
X255539Y95500D02*
D03*
X260461D02*
D03*
D38*
X94107Y261700D02*
D03*
X102381D02*
D03*
X164469Y215700D02*
D03*
X156194D02*
D03*
D39*
X222351Y317500D02*
D03*
X219288D02*
D03*
D40*
X221000Y95500D02*
D03*
Y104555D02*
D03*
Y113610D02*
D03*
D41*
X197772Y104555D02*
D03*
D42*
X221000Y122153D02*
D03*
Y129634D02*
D03*
D43*
X231086Y105736D02*
D03*
Y95500D02*
D03*
D44*
X83865Y109759D02*
D03*
Y116846D02*
D03*
D45*
X295610Y76000D02*
D03*
X309390D02*
D03*
D46*
X337500Y52835D02*
D03*
Y80000D02*
D03*
D74*
X297066Y407900D02*
D03*
X128031Y419081D02*
D03*
X138936D02*
D03*
X149842D02*
D03*
X160747D02*
D03*
X171653D02*
D03*
X182558D02*
D03*
X193464D02*
D03*
X204369D02*
D03*
X215275D02*
D03*
X226180D02*
D03*
X237086D02*
D03*
X247991D02*
D03*
X258897D02*
D03*
X269802D02*
D03*
X280708D02*
D03*
X291613D02*
D03*
X302519D02*
D03*
X313424D02*
D03*
X122578Y407900D02*
D03*
X133484D02*
D03*
X144389D02*
D03*
X155295D02*
D03*
X166200D02*
D03*
X177105D02*
D03*
X188011D02*
D03*
X198916D02*
D03*
X209822D02*
D03*
X220728D02*
D03*
X231633D02*
D03*
X242539D02*
D03*
X253444D02*
D03*
X264350D02*
D03*
X275255D02*
D03*
X286161D02*
D03*
X307972D02*
D03*
D75*
X95728Y413490D02*
D03*
X345728D02*
D03*
D76*
X318877Y407900D02*
D03*
D77*
X418000Y229425D02*
D03*
Y186118D02*
D03*
Y174307D02*
D03*
Y131000D02*
D03*
X417900Y304328D02*
D03*
Y347635D02*
D03*
Y249210D02*
D03*
Y292517D02*
D03*
D78*
X378630Y197929D02*
D03*
Y142811D02*
D03*
X378530Y316139D02*
D03*
Y261021D02*
D03*
D79*
X378630Y217614D02*
D03*
Y162496D02*
D03*
X378530Y335824D02*
D03*
Y280706D02*
D03*
D80*
X370012Y362287D02*
D03*
X247965D02*
D03*
X217012D02*
D03*
X94965D02*
D03*
X55200Y362500D02*
D03*
X75200Y157500D02*
D03*
X31785Y33685D02*
D03*
X405915D02*
D03*
X405913Y427386D02*
D03*
X31784D02*
D03*
D81*
X324500Y191500D02*
D03*
Y201500D02*
D03*
X314500Y191500D02*
D03*
Y201500D02*
D03*
X304500Y191500D02*
D03*
Y201500D02*
D03*
X294500Y191500D02*
D03*
Y201500D02*
D03*
X284500Y191500D02*
D03*
Y201500D02*
D03*
X274500Y191500D02*
D03*
Y201500D02*
D03*
X264500Y191500D02*
D03*
Y161500D02*
D03*
X274500Y171500D02*
D03*
Y161500D02*
D03*
X284500Y171500D02*
D03*
Y161500D02*
D03*
X294500Y171500D02*
D03*
Y161500D02*
D03*
X304500Y171500D02*
D03*
Y161500D02*
D03*
X314500Y171500D02*
D03*
Y161500D02*
D03*
X324500Y171500D02*
D03*
Y161500D02*
D03*
X334500Y171500D02*
D03*
Y161500D02*
D03*
X344500Y171500D02*
D03*
Y161500D02*
D03*
X354500Y171500D02*
D03*
Y161500D02*
D03*
X201500D02*
D03*
Y171500D02*
D03*
X191500Y161500D02*
D03*
Y171500D02*
D03*
X181500Y161500D02*
D03*
Y171500D02*
D03*
X171500Y161500D02*
D03*
Y171500D02*
D03*
X161500Y161500D02*
D03*
Y171500D02*
D03*
X151500Y161500D02*
D03*
Y171500D02*
D03*
X141500Y161500D02*
D03*
Y171500D02*
D03*
X131500Y161500D02*
D03*
Y171500D02*
D03*
X121500Y161500D02*
D03*
Y171500D02*
D03*
X111500Y161500D02*
D03*
Y191500D02*
D03*
X121500Y201500D02*
D03*
Y191500D02*
D03*
X131500Y201500D02*
D03*
Y191500D02*
D03*
X141500Y201500D02*
D03*
Y191500D02*
D03*
X151500Y201500D02*
D03*
Y191500D02*
D03*
X161500Y201500D02*
D03*
Y191500D02*
D03*
X171500Y201500D02*
D03*
Y191500D02*
D03*
X245200Y273500D02*
D03*
Y343500D02*
D03*
Y333500D02*
D03*
Y323500D02*
D03*
Y313500D02*
D03*
Y303500D02*
D03*
Y293500D02*
D03*
Y283500D02*
D03*
Y263500D02*
D03*
Y177500D02*
D03*
Y187500D02*
D03*
Y197500D02*
D03*
Y207500D02*
D03*
Y217500D02*
D03*
Y227500D02*
D03*
Y237500D02*
D03*
X55200Y297500D02*
D03*
Y287500D02*
D03*
Y277500D02*
D03*
Y267500D02*
D03*
Y257500D02*
D03*
Y247500D02*
D03*
Y237500D02*
D03*
Y167500D02*
D03*
Y177500D02*
D03*
Y187500D02*
D03*
Y197500D02*
D03*
Y207500D02*
D03*
X394200Y75143D02*
D03*
Y65300D02*
D03*
D82*
X264500Y201500D02*
D03*
Y171500D02*
D03*
X111500D02*
D03*
Y201500D02*
D03*
D83*
X245200Y253500D02*
D03*
Y167500D02*
D03*
X55200Y307500D02*
D03*
Y217500D02*
D03*
D84*
X63500Y382300D02*
D03*
Y392300D02*
D03*
Y402300D02*
D03*
Y412300D02*
D03*
Y422300D02*
D03*
D85*
Y432300D02*
D03*
D86*
X200700Y62700D02*
D03*
X210700D02*
D03*
X220700D02*
D03*
X230700D02*
D03*
X250700D02*
D03*
X260700D02*
D03*
X270700D02*
D03*
M02*
