G04*
G04 #@! TF.GenerationSoftware,Altium Limited,Altium Designer,20.2.3 (150)*
G04*
G04 Layer_Color=16711935*
%FSLAX25Y25*%
%MOIN*%
G70*
G04*
G04 #@! TF.SameCoordinates,55210B2D-0A46-486D-8559-DE1921E740DA*
G04*
G04*
G04 #@! TF.FilePolarity,Negative*
G04*
G01*
G75*
%ADD48C,0.06890*%
%ADD49C,0.18406*%
%ADD50R,0.06890X0.06890*%
%ADD51C,0.06331*%
%ADD52C,0.10433*%
%ADD53R,0.10433X0.10433*%
%ADD55C,0.06299*%
G04:AMPARAMS|DCode=56|XSize=62.99mil|YSize=62.99mil|CornerRadius=4.92mil|HoleSize=0mil|Usage=FLASHONLY|Rotation=0.000|XOffset=0mil|YOffset=0mil|HoleType=Round|Shape=RoundedRectangle|*
%AMROUNDEDRECTD56*
21,1,0.06299,0.05315,0,0,0.0*
21,1,0.05315,0.06299,0,0,0.0*
1,1,0.00984,0.02657,-0.02657*
1,1,0.00984,-0.02657,-0.02657*
1,1,0.00984,-0.02657,0.02657*
1,1,0.00984,0.02657,0.02657*
%
%ADD56ROUNDEDRECTD56*%
%ADD57C,0.06299*%
%ADD58R,0.06299X0.06299*%
%ADD59C,0.07638*%
%ADD60R,0.07638X0.07638*%
%ADD61C,0.18110*%
%ADD62C,0.07185*%
%ADD88R,0.11200X0.20600*%
D48*
X297066Y407900D02*
D03*
X128031Y419081D02*
D03*
X138936D02*
D03*
X149842D02*
D03*
X160747D02*
D03*
X171653D02*
D03*
X182558D02*
D03*
X193464D02*
D03*
X204369D02*
D03*
X215275D02*
D03*
X226180D02*
D03*
X237086D02*
D03*
X247991D02*
D03*
X258897D02*
D03*
X269802D02*
D03*
X280708D02*
D03*
X291613D02*
D03*
X302519D02*
D03*
X313424D02*
D03*
X122578Y407900D02*
D03*
X133484D02*
D03*
X144389D02*
D03*
X155295D02*
D03*
X166200D02*
D03*
X177105D02*
D03*
X188011D02*
D03*
X198916D02*
D03*
X209822D02*
D03*
X220728D02*
D03*
X231633D02*
D03*
X242539D02*
D03*
X253444D02*
D03*
X264350D02*
D03*
X275255D02*
D03*
X286161D02*
D03*
X307972D02*
D03*
D49*
X95728Y413490D02*
D03*
X345728D02*
D03*
D50*
X318877Y407900D02*
D03*
D51*
X418000Y229425D02*
D03*
Y186118D02*
D03*
Y174307D02*
D03*
Y131000D02*
D03*
X417900Y304328D02*
D03*
Y347635D02*
D03*
Y249210D02*
D03*
Y292517D02*
D03*
D52*
X378630Y197929D02*
D03*
Y142811D02*
D03*
X378530Y316139D02*
D03*
Y261021D02*
D03*
D53*
X378630Y217614D02*
D03*
Y162496D02*
D03*
X378530Y335824D02*
D03*
Y280706D02*
D03*
D55*
X324500Y191500D02*
D03*
Y201500D02*
D03*
X314500Y191500D02*
D03*
Y201500D02*
D03*
X304500Y191500D02*
D03*
Y201500D02*
D03*
X294500Y191500D02*
D03*
Y201500D02*
D03*
X284500Y191500D02*
D03*
Y201500D02*
D03*
X274500Y191500D02*
D03*
Y201500D02*
D03*
X264500Y191500D02*
D03*
Y161500D02*
D03*
X274500Y171500D02*
D03*
Y161500D02*
D03*
X284500Y171500D02*
D03*
Y161500D02*
D03*
X294500Y171500D02*
D03*
Y161500D02*
D03*
X304500Y171500D02*
D03*
Y161500D02*
D03*
X314500Y171500D02*
D03*
Y161500D02*
D03*
X324500Y171500D02*
D03*
Y161500D02*
D03*
X334500Y171500D02*
D03*
Y161500D02*
D03*
X344500Y171500D02*
D03*
Y161500D02*
D03*
X354500Y171500D02*
D03*
Y161500D02*
D03*
X201500D02*
D03*
Y171500D02*
D03*
X191500Y161500D02*
D03*
Y171500D02*
D03*
X181500Y161500D02*
D03*
Y171500D02*
D03*
X171500Y161500D02*
D03*
Y171500D02*
D03*
X161500Y161500D02*
D03*
Y171500D02*
D03*
X151500Y161500D02*
D03*
Y171500D02*
D03*
X141500Y161500D02*
D03*
Y171500D02*
D03*
X131500Y161500D02*
D03*
Y171500D02*
D03*
X121500Y161500D02*
D03*
Y171500D02*
D03*
X111500Y161500D02*
D03*
Y191500D02*
D03*
X121500Y201500D02*
D03*
Y191500D02*
D03*
X131500Y201500D02*
D03*
Y191500D02*
D03*
X141500Y201500D02*
D03*
Y191500D02*
D03*
X151500Y201500D02*
D03*
Y191500D02*
D03*
X161500Y201500D02*
D03*
Y191500D02*
D03*
X171500Y201500D02*
D03*
Y191500D02*
D03*
X394200Y75143D02*
D03*
Y65300D02*
D03*
D56*
X264500Y201500D02*
D03*
Y171500D02*
D03*
X111500D02*
D03*
Y201500D02*
D03*
D57*
X245200Y273500D02*
D03*
Y343500D02*
D03*
Y333500D02*
D03*
Y323500D02*
D03*
Y313500D02*
D03*
Y303500D02*
D03*
Y293500D02*
D03*
Y283500D02*
D03*
Y263500D02*
D03*
Y177500D02*
D03*
Y187500D02*
D03*
Y197500D02*
D03*
Y207500D02*
D03*
Y217500D02*
D03*
Y227500D02*
D03*
Y237500D02*
D03*
X55200Y297500D02*
D03*
Y287500D02*
D03*
Y277500D02*
D03*
Y267500D02*
D03*
Y257500D02*
D03*
Y247500D02*
D03*
Y237500D02*
D03*
Y167500D02*
D03*
Y177500D02*
D03*
Y187500D02*
D03*
Y197500D02*
D03*
Y207500D02*
D03*
D58*
X245200Y253500D02*
D03*
Y167500D02*
D03*
X55200Y307500D02*
D03*
Y217500D02*
D03*
D59*
X63500Y382300D02*
D03*
Y392300D02*
D03*
Y402300D02*
D03*
Y412300D02*
D03*
Y422300D02*
D03*
D60*
Y432300D02*
D03*
D61*
X370012Y362287D02*
D03*
X247965D02*
D03*
X217012D02*
D03*
X94965D02*
D03*
X55200Y362500D02*
D03*
X75200Y157500D02*
D03*
X31785Y33685D02*
D03*
X405915D02*
D03*
X405913Y427386D02*
D03*
X31784D02*
D03*
D62*
X200700Y62700D02*
D03*
X210700D02*
D03*
X220700D02*
D03*
X230700D02*
D03*
X250700D02*
D03*
X260700D02*
D03*
X270700D02*
D03*
D88*
X196186Y105294D02*
D03*
M02*
