G04*
G04 #@! TF.GenerationSoftware,Altium Limited,Altium Designer,20.2.3 (150)*
G04*
G04 Layer_Color=32768*
%FSLAX25Y25*%
%MOIN*%
G70*
G04*
G04 #@! TF.SameCoordinates,55210B2D-0A46-486D-8559-DE1921E740DA*
G04*
G04*
G04 #@! TF.FilePolarity,Positive*
G04*
G01*
G75*
%ADD10C,0.00787*%
%ADD11C,0.00394*%
%ADD89C,0.00197*%
D10*
X384161Y59001D02*
X429436D01*
Y81442D01*
X384161D02*
X429436D01*
X384161Y59001D02*
Y81442D01*
D11*
X111288Y234374D02*
X122312D01*
X111288Y218626D02*
Y234374D01*
Y218626D02*
X122312D01*
Y234374D01*
X357184Y388786D02*
Y438195D01*
X84271Y388786D02*
X357184D01*
X84271D02*
Y438195D01*
X357184D01*
X361872Y201920D02*
Y223967D01*
X348328Y201920D02*
X361872D01*
X348328D02*
Y223967D01*
X361872D01*
X347928Y342617D02*
X361472D01*
X347928Y320570D02*
Y342617D01*
Y320570D02*
X361472D01*
Y342617D01*
X155360Y281264D02*
Y285201D01*
X153391Y283232D02*
X157328D01*
X207417Y104555D02*
X211354D01*
X209386Y102587D02*
Y106524D01*
X361272Y111977D02*
Y134024D01*
X347728Y111977D02*
X361272D01*
X347728D02*
Y134024D01*
X361272D01*
X286054Y46165D02*
Y90259D01*
X188850D02*
X286054D01*
X188850Y46165D02*
Y90259D01*
Y46165D02*
X286054D01*
X287736Y90173D02*
X317264D01*
X287736Y61827D02*
Y90173D01*
Y61827D02*
X317264D01*
Y90173D01*
X258000Y93630D02*
Y97370D01*
X256130Y95500D02*
X259870D01*
X186688Y364400D02*
X190624D01*
X188656Y362431D02*
Y366369D01*
X128356Y362331D02*
Y366269D01*
X126388Y364300D02*
X130324D01*
D89*
X205362Y318180D02*
Y323220D01*
Y318180D02*
X215126D01*
Y323220D01*
X205362D02*
X215126D01*
X262917Y98972D02*
X277483D01*
X262917D02*
Y108028D01*
X277483D01*
Y98972D02*
Y108028D01*
X372626Y180606D02*
Y234937D01*
X430598D01*
Y180606D02*
Y234937D01*
X372626Y180606D02*
X430598D01*
X372626Y125488D02*
Y179819D01*
X430598D01*
Y125488D02*
Y179819D01*
X372626Y125488D02*
X430598D01*
X336918Y206663D02*
X346682D01*
Y201624D02*
Y206663D01*
X336918Y201624D02*
X346682D01*
X336918D02*
Y206663D01*
X61180Y275418D02*
Y285182D01*
X66220D01*
Y275418D02*
Y285182D01*
X61180Y275418D02*
X66220D01*
X43480Y265318D02*
Y275082D01*
X48520D01*
Y265318D02*
Y275082D01*
X43480Y265318D02*
X48520D01*
X259972Y134043D02*
Y151957D01*
X269028D01*
Y134043D02*
Y151957D01*
X259972Y134043D02*
X269028D01*
X106972Y134043D02*
X116028D01*
Y151957D01*
X106972D02*
X116028D01*
X106972Y134043D02*
Y151957D01*
X372526Y298816D02*
X430498D01*
Y353147D01*
X372526D02*
X430498D01*
X372526Y298816D02*
Y353147D01*
Y243698D02*
X430498D01*
Y298029D01*
X372526D02*
X430498D01*
X372526Y243698D02*
Y298029D01*
X336518Y320344D02*
Y325383D01*
Y320344D02*
X346282D01*
Y325383D01*
X336518D02*
X346282D01*
X305505Y224678D02*
X315268D01*
Y219639D02*
Y224678D01*
X305505Y219639D02*
X315268D01*
X305505D02*
Y224678D01*
X55072Y106117D02*
X64128D01*
Y120683D01*
X55072D02*
X64128D01*
X55072Y106117D02*
Y120683D01*
X107525Y235398D02*
X203194D01*
X107525Y331067D02*
X203194D01*
X107525Y235398D02*
Y331067D01*
X203194Y235398D02*
Y331067D01*
X96706Y271980D02*
X106470D01*
X96706D02*
Y277020D01*
X106470D01*
Y271980D02*
Y277020D01*
X96706Y291480D02*
X106470D01*
X96706D02*
Y296520D01*
X106470D01*
Y291480D02*
Y296520D01*
X186818Y201120D02*
X196582D01*
Y196080D02*
Y201120D01*
X186818Y196080D02*
X196582D01*
X186818D02*
Y201120D01*
X111780Y330618D02*
Y340382D01*
X116820D01*
Y330618D02*
Y340382D01*
X111780Y330618D02*
X116820D01*
X144418Y339320D02*
X154182D01*
Y334280D02*
Y339320D01*
X144418Y334280D02*
X154182D01*
X144418D02*
Y339320D01*
X165974D02*
X175738D01*
Y334280D02*
Y339320D01*
X165974Y334280D02*
X175738D01*
X165974D02*
Y339320D01*
X205362Y300520D02*
X215126D01*
Y295480D02*
Y300520D01*
X205362Y295480D02*
X215126D01*
X205362D02*
Y300520D01*
X205362Y281020D02*
X215126D01*
Y275980D02*
Y281020D01*
X205362Y275980D02*
X215126D01*
X205362D02*
Y281020D01*
X205462Y253320D02*
X215226D01*
Y248280D02*
Y253320D01*
X205462Y248280D02*
X215226D01*
X205462D02*
Y253320D01*
X133264Y221618D02*
Y231382D01*
X128225Y221618D02*
X133264D01*
X128225D02*
Y231382D01*
X133264D01*
X94962Y246264D02*
X104726D01*
X94962D02*
Y251303D01*
X104726D01*
Y246264D02*
Y251303D01*
X184718Y225880D02*
X194482D01*
X184718D02*
Y230920D01*
X194482D01*
Y225880D02*
Y230920D01*
X154964Y223118D02*
Y232882D01*
X149925Y223118D02*
X154964D01*
X149925D02*
Y232882D01*
X154964D01*
X225134Y90972D02*
Y118138D01*
X193638Y90972D02*
Y118138D01*
Y90972D02*
X225134D01*
X193638Y118138D02*
X225134D01*
X183774Y342980D02*
X193538D01*
X183774D02*
Y348020D01*
X193538D01*
Y342980D02*
Y348020D01*
X123474Y342880D02*
X133238D01*
X123474D02*
Y347920D01*
X133238D01*
Y342880D02*
Y347920D01*
X67072Y106117D02*
Y120683D01*
X76128D01*
Y106117D02*
Y120683D01*
X67072Y106117D02*
X76128D01*
X80027Y105921D02*
Y120684D01*
X87704D01*
Y105921D02*
Y120684D01*
X80027Y105921D02*
X87704D01*
X336118Y117020D02*
X345882D01*
Y111980D02*
Y117020D01*
X336118Y111980D02*
X345882D01*
X336118D02*
Y117020D01*
X318799Y90236D02*
X356201D01*
X318799Y42598D02*
Y90236D01*
Y42598D02*
X356201D01*
Y90236D01*
X253669Y97862D02*
X262331D01*
X253669Y93138D02*
X262331D01*
X253669D02*
Y97862D01*
X262331Y93138D02*
Y97862D01*
X200467Y348061D02*
Y380739D01*
X176845Y348061D02*
Y380739D01*
X200467D01*
X176845Y348061D02*
X200467D01*
X116545Y347961D02*
X140167D01*
X116545Y380639D02*
X140167D01*
X116545Y347961D02*
Y380639D01*
X140167Y347961D02*
Y380639D01*
M02*
