M48
;Layer_Color=9474304
;FILE_FORMAT=2:4
INCH,TZ
;TYPE=PLATED
T1F00S00C0.0120
T2F00S00C0.0354
T3F00S00C0.0394
T4F00S00C0.0433
T5F00S00C0.0453
T6F00S00C0.0469
T7F00S00C0.0669
T8F00S00C0.1201
T9F00S00C0.1299
%
T01
X1710Y1650
X2710
X3710
X2210Y2650
X1710Y3650
X3210Y4650
X3710Y5650
X2710
X3210Y6650
X3710Y7650
X2710
X4710
X5710
X6710
X7710
X8710
X9210Y6650
X10210
X11210
X12210
X13210
X14210
X15210
X16210
X17210
X18210
X19210
X18710Y5650
X17710
X16710
X15710
X14710
X13710
X12710
X11710
X10710
X9710
X8710
X7710
X6710
X5710
X4710
X5210Y6650
X6210
X7210
X8210
Y4650
X9210
X10210
X11210
X12210
X13210
X14210
X15210
X16210
X17210
X18210
X19210
X18710Y3650
X17710
X16710
X15710
X14710
X13710
X12710
X11710
X10710
X9710
X8710
X7710
X6710
X5710
X4710
X5210Y4650
X6210
X7210
Y2650
X8210
X9210
X10210
X11210
X12210
X13210
X14210
X15210
X16210
X17210
X18210
X19210
X18710Y1650
X17710
X16710
X15710
X14710
X13710
X12710
X11710
X10710
X9710
X8710
X7710
X6710
X5710
X4710
X5210Y2650
X6210
X4210Y4650
Y6650
X19710Y5650
X20710
X21210Y4650
X22210
X23210
X24210
X25210
X26210
X27210
X27710Y3650
X28710
X29710
X30710
X31710
X32710
X33710
X34710
X34210Y2650
X33210
X32210
X31210
X30210
X29210
X28210
X27210
X26210
X25210
X24210
X23210
X22210
X21210
X20210
X20710Y3650
X21710
X22710
X23710
X24710
X25710
X26710
Y1650
X27710
X28710
X29710
X30710
X31710
X32710
X33710
X34710
X34210Y6650
X33210
X32210
X30210
X28210
X26890Y7030
X24710Y7650
X23710
X24210Y6650
X24710Y5650
X23710
X22710
X20210Y4650
X19710Y3650
Y1650
X20710
X21710
X22710
X23710
X24710
X25710
X35710
X36710
X37710
X38710
X39710
X40710
X41710
X42210Y2650
X41710Y3650
X42210Y4650
X41210
X40210
X39210
X38210
X38710Y3650
X37710
X36710
X35710
X36210Y2650
X37210
X38210
X39210
X39710Y5650
X40710
X41710
X42210Y6650
X41210
X40210
X40710Y7650
X41710
X37710
X36710
X35710
X36210Y6650
X37210
X35210
Y2650
X36210Y8650
X37210
X38210
X37710Y9650
X36710
X36210Y10650
X39210
X40210
X41210
X42210
X41710Y11650
X40710
X39710
X38710
X39210Y12650
X40210
X41210
X42210
X41710Y13650
X40710
X39710
X38710
X39210Y14650
X40210
X41210
X42210
X41710Y15650
X40710
X39710
X40210Y16650
X41210
X42210
X40710Y17650
X39710
X38540Y17580
X38630Y16300
X38130Y15400
X37210Y14650
X36710Y13650
X37210Y12650
X38210
X35210Y14650
Y16650
X36710Y19650
X37210Y20650
X38210
X39210
X40210
X41210
X42210
X41710Y21650
X40710
X39710
X38710
X39210Y22650
X40210
X41210
X41710Y23650
X40710
X39710
X38710
X37710
X36710
X35710
X36210Y22650
X37210
X38210
X35210
X36210Y20650
X38210Y18650
X40210
X41210
X41710Y19650
X40710
X39710
X40710Y9650
X41710
X42210Y8650
X41210
X40210
X33710Y9650
X32710
X31710
X30710
X29710
X28710
X27710
X26710
X27210Y8650
X28210
X30210
X32210
Y10650
X33210
X34210
X34272Y11807
X34710Y11650
X33540Y11870
X32940Y12400
X32910Y13260
X32770Y13780
X32550Y13650
X32560Y13930
X32890Y14310
X32210Y14650
X31210
X30210
X29210
X28210
X27210
X27710Y15650
X28710
X28210Y16650
X27210
X26640Y16640
X25210Y16650
X25240Y17680
X25990Y17560
X26280Y18420
X25370Y18580
X25710Y19650
X27010Y19600
X27374Y18474
X28540Y18560
X31450Y18530
X31550Y19600
X31210Y20650
X31800Y21140
X32020Y21410
X32370Y21650
X32750Y21910
X33657Y21708
X33480Y21410
X33650Y21140
X32650Y20870
X34400Y21759
X34840Y22210
X33946Y23196
X33760Y23800
X32710Y23650
X30710
X31210Y22650
X30710Y21650
X29710
X29130Y22190
X29210Y22650
X28210Y22200
X27210Y22650
X26317
X25880Y22780
X25510Y22980
X25710Y23650
X25293Y22147
X25160Y21330
X25140Y20510
X24100Y20040
X23900Y19460
X23110Y19620
X23210Y18650
X22710Y17650
X23210Y16650
X22210
X22710Y15650
X23710
X24710
X25710
X25210Y14650
X24210
X23210
X22210
X22710Y13650
X23710
X23210Y12650
X22210
X22710Y11650
X23710
X23750Y10490
X21210Y10650
X20710Y11650
X19710
Y13650
X20210Y14650
X19710Y15650
X19670Y16620
X19710Y17650
X21270Y17910
X21530Y17980
X21330Y18180
X21710Y19650
X20710
X21210Y20650
X22060Y20630
X22080Y22060
X21580Y22550
X22460Y22680
X22700Y22620
X22630Y22860
X23010Y23000
X22750Y23440
X22780Y23760
X23950Y23220
X23120Y21040
X20900Y21810
X20234Y22480
X19660Y22840
X19710Y23753
X20390Y23770
X20210Y20650
X26230Y21320
X27710Y23650
X28710
X34450Y20020
X33210Y18650
X33710Y17650
X34710
X34210Y16650
X33210
X33400Y15620
X34210Y14650
X34080Y14150
X34930Y13780
X35160Y13660
X35150Y13960
X34150Y12710
X30210Y12650
X29210
X28210
X27210
X26210
X25210
X27710Y13650
X28710
X29710
X30710
X31500Y15650
X31210Y10650
X30210
X29210
X28210
X25210Y8650
X20710Y9650
X19710
X18710
X17710
X16710
X15710
X14710
X13710
X12710
X11710
X10710
X9710
X8710
X9210Y10650
X10210
X11210
X12210
X13210
X14210
X15210
X16210
X17210
X18210
X19210
X18710Y11650
X17710
X16710
X15710
X14710
X13710
X12710
X11710
X10710
X9710
X10210Y12650
X9210
X8710Y13650
X8210Y14650
X7210
X6710Y13650
X5710
X5210Y14650
X5710Y15650
X4870Y17170
X4860Y19110
X4850Y21160
X5210Y22650
X7210
X8210
X9390Y22910
X9420Y22300
X10070Y22580
Y23250
X9380Y23600
X7710Y23650
Y21650
X8210Y20650
X7210
X7710Y19650
X8210Y18650
X7210
X7710Y17650
X8210Y16650
X9880Y16950
X9870Y18370
X10710Y19650
X10210Y20650
X10570Y21460
X10580Y21760
X11685Y22095
X11680Y23290
X12180Y23460
X12760Y22910
X13450Y22820
X13550Y21760
X13560Y21200
X12960Y21340
X13150Y21570
X13080Y21910
X13980Y22070
X14550Y22010
X15260Y22060
X14770Y23280
X14160Y23270
X15630Y23470
X16820Y23520
X16755Y23085
X18230Y22670
X18690Y23210
X17880Y21750
X17281Y21470
X17470Y21230
X17660Y21010
X18010Y20740
X19210Y20650
X19530Y21770
X18550Y19030
X17710Y19650
X16172Y19602
X16170Y18540
X16290Y18310
X16010Y18340
Y17920
X15240Y17940
X14710Y17650
X14670Y16640
X12790Y16500
X12660Y17030
X12960Y17860
X13330Y18600
X13900Y18080
X14430Y18490
X13910Y19650
X14980
X16510Y21050
X16710Y17650
X17710
X18710
X18670Y16590
X17670
X16660Y16600
X16210Y14650
X17210
X18210
X19210
X18710Y13650
X17710
X16710
X15710
X14710
X13710
X12710
X13210Y14650
X14210
X15210
X12210
X12110Y15470
X11710Y15650
X10710
X12007Y18588
X12020Y20660
X12170Y21320
X11270Y22910
X7710Y11650
X5210Y12650
Y10650
Y8650
X4210
X3210
X2710Y9650
X3210Y10650
X2710Y11650
X3210Y12650
X2710Y13650
X1470Y13750
X3210Y14650
X2710Y15650
X3210Y16650
X2710Y17650
X3210Y18650
X2710Y19650
X3210Y20650
X2710Y21650
X3210Y22650
X2710Y23650
X1490Y22310
X1450Y18250
Y8970
X3210Y24650
X2710Y25650
X3210Y26650
X2710Y27650
X3210Y28650
X2710Y29650
X3210Y30650
X2710Y31650
X1490Y31710
X3210Y32650
X3710Y33650
X2710
X3210Y34650
X3710Y35650
X2710
X3210Y36650
X3710Y37650
X2710
X3210Y38650
X1450Y35920
X1470Y26760
X4710Y27650
Y29650
Y31650
X5710
X6210Y32650
X5210
X5130Y33900
X5380Y33880
X5270Y34110
X5210Y34650
X6210
X7250Y34560
X7240Y33800
X6890Y33290
X7280Y32440
X8210Y32650
X8710Y31650
X9210Y30650
X10210
X10680Y29770
X9346Y29416
X8150Y29580
X7850Y29970
X7360Y29630
X6860Y29960
X6210Y30650
X7300Y30910
X8210Y30650
X8250Y28340
X7960Y28370
X8540Y28310
X8560Y27900
X8850Y27610
X9370Y27450
X9210Y26650
X8720Y26170
X8390Y25340
X7900Y24950
X7120Y24650
X6830Y24680
X6540Y24730
X5920Y25170
X6710Y25650
X6210Y26650
X7330Y27030
X7360Y28250
X6210Y28650
X10720Y27800
X12710Y27650
X13710
X14710
X15210Y26650
X16210
X17210
X18210
X18710Y27650
X17710
X16710
X17210Y28650
X18210
X18710Y29650
X17710
X16710
X15710
X14710
X15210Y30650
X16210
X17210
X18210
X18710Y31650
X17710
X16710
X15710
X14710
X13710
X12710
X12210Y30650
X12710Y29650
X13210Y28650
X14210
X16210
X15710Y25650
X14710
X13710
X12710
X13210Y26650
X14210
X12210
Y28650
X14210Y30650
X15040Y33200
X15280Y34130
X15270Y34950
X15250Y36070
X14960Y36660
X15360Y37020
X15210Y38650
X16070Y39150
X14300Y39160
X13560Y38670
X12210Y38650
X11210
X9770Y38690
X8210Y38650
X7210Y38890
X7030Y37970
X6840Y36800
X7558Y36360
X7778Y35901
X7790Y35611
X7210Y35510
X8760Y35240
X8740Y34930
X8710Y34640
X9040Y33830
X9640Y33660
X10210Y34650
X11210
X12327Y34829
X12970Y34170
X13210
X12010Y33810
X11026Y33286
X10210Y32650
X11270Y32050
X11710Y35650
X10710
Y37650
X8730Y37660
X5900Y38730
X4210Y38650
X4710Y37650
X4210Y36650
Y34650
X5710Y33650
X12210Y36650
X13210
X13960Y35010
X17786Y34855
X18350Y34800
X19040Y34080
X19300
X18710Y33650
X17710
X17210Y33200
X16520Y33190
X16760Y36230
X17710Y35650
X18210Y36650
X19210
X18850Y38890
X19060Y39110
X19260Y39330
X18540Y38610
X18710Y25650
X17710
X19258Y24188
X10120Y24190
X9737Y24560
X9000Y24680
X10600Y25200
X19710Y24410
X20770Y24350
X21030
X20910Y24580
X21340Y24640
X21630Y24550
X22720Y25200
X22810Y27010
X23710Y27650
X25710
X26710
X26210Y26650
X25210
X25060Y26360
X25030Y25690
X26320Y24679
X27210Y24650
X28210
X29210
X30210
X31210
X31560Y24990
Y25520
X32710Y25650
X32850Y24720
X34710Y25650
X34210Y26650
X34710Y27650
X34210Y28650
X34710Y29650
X34210Y30650
X33290Y30390
X33170Y30180
X33420Y30170
X32710Y29650
X32070Y29810
X31280Y29790
X31110Y30180
X30860Y30190
X30990Y30400
X30760Y30740
X30770Y31470
Y32480
X30780Y33080
X30490Y34000
X30270Y33800
X30040Y33607
X29770Y33456
X29480Y33360
X29150Y33060
X29160Y32460
X29150Y31480
X29140Y30750
X28710Y29650
X28100Y28530
X30050Y28510
X29710Y27650
X30710
X31210Y26650
X30210
X29210
X28210
X28710Y25650
X29710
X27710
X27210Y30650
X26210
X25210
X25070Y31350
X23710Y31650
X22710
X23210Y30650
X21490Y30740
X21170Y31670
X20752Y31640
X19820Y32060
X20710Y33650
X21710
X22710
X23710
X25710
X26710
X27710
X28710
X28210Y34650
X27210
X26210
X25210
X26710Y35650
X27710
X28710
X28210Y36650
X27210
X26210
X25870Y38470
X28210Y38650
X27710Y37650
X31710
X32710
X33710
X34710
X34210Y38650
X33210
X32210
X31210
Y36650
X32210
X33210
X34210
X34710Y35650
X33710
X32710
X31710
X32210Y34650
X33210
X34373Y34493
X34780Y33990
X34450Y33610
X34040Y33660
X33560
X32710Y33650
X31710
X31860Y32470
X33020Y32580
X33640Y32710
X34460Y32690
X34710Y31650
X33290Y31680
X32710Y31650
X32070Y30740
X31520Y29418
X30790Y29360
X32020Y28910
X32710Y27650
X31210Y34650
X23710Y35650
Y37650
X22710
X21710
X20710
X20210Y36650
X20710Y35650
X21210Y34650
X22210
X20210
X19899Y38890
X20090Y39110
X20300Y39330
X19610Y38630
X20410Y29540
X20750Y29380
X21380Y29430
X21210Y28650
X22210
X21710Y27650
X20760Y27470
X20380Y27550
X35710Y27650
X36710
X37210Y26650
X36210
X35210
X35710Y25650
X36710
X37210Y24650
X38210
X39210
X40210
X41210
X41710Y25650
X40710
X39710
X38710
X39210Y26650
X40210
X41210
X42210
X41710Y27650
X40710
X41210Y28650
X42210
X40210
X40710Y29650
X41210Y30650
X40210
X40710Y31650
X41710
X42210Y32650
X41210
X40210
X39210
X38210
X37210
X36210
X36710Y31650
X37210Y30650
X36210
Y28650
X35210
X37710Y29650
X38710
Y31650
X39710
Y33650
X40710
X41710
X41210Y34650
X40210
X39210
X38210
X37210
X36210
X35210
X35710Y35650
X35210Y36650
X35710Y37650
X36710
X37710
X38710
X39710
X40710
X41710
X42210Y38650
X41210
X40210
X39210
X38210
X37210
X36210
X35210
X38210Y36650
X39210
X40210
X41210
X42210
X41710Y35650
X40710
X39710
X38710
Y33650
X36210Y24650
X35210
X35710Y39650
X36710
X37710
X38710
X39710
X40710
X41710
X42210Y40650
X41210
X40210
X39210
X38210
X37210
X36210
X36710Y41650
X37710
X38710
X39710
X39210Y42650
X38210
X37210
X36210
X35210
X35710Y43650
X36710
X37710
X38710
X41710
X42210Y42650
X41710Y41650
X35710
X34710Y39650
X33710
X32710
X33210Y40650
X32710Y41650
X33210Y42650
X32210
X31210
X30210
X29210
X28210
X27210
X26210
X25210
X24210
X23210
X22210
X21210
X21710Y43650
X22710
X23710
X24710
X25710
X26710
X27710
X28710
X29710
X30710
X31710
X32710
X33710
X30300Y41240
X30200Y39530
X28710Y39650
X26990Y39670
X25710Y39650
X24710
X22640Y39810
X20830Y39780
X20500Y39550
X20710Y43650
X19710
X26400Y41450
X27503Y41439
X28710Y41650
X18710
X17710
X18210Y42650
X19210
X18710Y43650
X17710
X16710
X15710
X14710
X13710
X12710
X11710
X10710
X11210Y42650
X12210
X10210
X10710Y41650
Y39650
X12710
X13580Y39870
X11730Y40660
X8210Y40650
X8710Y39650
X7420Y39640
X5920Y39730
X5930Y40750
X4210Y40650
X4710Y41650
X5210Y42650
X5710Y43650
X4710
X7710
X8710
X8210Y42650
X7210
X7710Y41650
X4710Y39650
X19460Y39550
X17210Y42650
X3710Y41650
X2710
X3210Y40650
X3710Y39650
X2710
X1450Y39760
X1710Y43650
T02
X35450Y16150
Y17150
X34450
X33450
X32450
X31450
X30450
X29450
X28450
X27450
X26450
Y16150
X27450
X28450
X29450
X30450
X31450
X32450
X33450
X34450
X32450Y19150
Y20150
X31450
Y19150
X30450
Y20150
X29450
Y19150
X28450
Y20150
X27450
Y19150
X26450
Y20150
X24520Y19750
Y18750
Y17750
Y16750
Y20750
Y21750
Y22750
Y23750
X20150Y17150
Y16150
X19150
Y17150
X18150
Y16150
X17150
Y17150
X16150
Y16150
X15150
Y17150
X14150
Y16150
X13150
Y17150
X12150
Y16150
X11150
Y17150
Y19150
Y20150
X12150
Y19150
X13150
Y20150
X14150
Y19150
X15150
Y20150
X16150
Y19150
X17150
Y20150
X5520Y19750
Y18750
Y17750
Y16750
Y20750
Y21750
Y23750
Y24750
Y25750
Y26750
Y27750
Y28750
Y29750
Y30750
X24520Y30350
Y31350
Y32350
Y33350
Y34350
Y29350
Y28350
Y27350
Y26350
Y25350
T03
X39420Y6530
Y7514
X41800Y13100
Y17431
Y18612
Y22943
X41790Y24921
Y29252
Y30433
Y34764
T04
X19892Y40790
X20982
X22073
X23163
X24254
X25344
X26435
X27526
X28616
X29707
X30797
X31888
X31342Y41908
X30252
X29161
X28071
X26980
X25890
X24799
X23709
X22618
X21527
X20437
X19346
X18256
X17165
X16075
X14984
X13894
X12803
X12258Y40790
X13348
X14439
X15529
X16620
X17711
X18801
T05
X20070Y6270
X21070
X22070
X23070
X25070
X26070
X27070
T06
X6350Y38230
Y39230
Y40230
Y41230
Y42230
Y43230
T07
X37863Y14281
Y16250
Y19793
Y21761
X37853Y26102
Y28071
Y31614
Y33582
T08
X34573Y41349
X9573
T09
X3178Y3368
X40592
X7520Y15750
X9496Y36229
X5520Y36250
X21701Y36229
X24796
X37001
X40591Y42739
X3178
M30
