G04*
G04 #@! TF.GenerationSoftware,Altium Limited,Altium Designer,20.2.3 (150)*
G04*
G04 Layer_Color=65535*
%FSLAX25Y25*%
%MOIN*%
G70*
G04*
G04 #@! TF.SameCoordinates,55210B2D-0A46-486D-8559-DE1921E740DA*
G04*
G04*
G04 #@! TF.FilePolarity,Positive*
G04*
G01*
G75*
%ADD10C,0.00787*%
%ADD11C,0.00394*%
%ADD12C,0.00984*%
%ADD13C,0.02362*%
%ADD14C,0.00500*%
%ADD15C,0.01500*%
%ADD16C,0.00600*%
G36*
X55850Y46200D02*
Y48800D01*
X48550Y50800D01*
X46150D01*
X34650Y47000D01*
X46150Y44000D01*
X48550D01*
X55850Y46200D01*
D02*
G37*
G36*
X172800Y47600D02*
X167400Y49100D01*
X159700D01*
X157200Y50000D01*
X144800D01*
X143200Y51600D01*
X142500D01*
X142144Y50000D01*
X71800D01*
X66300Y54000D01*
X62500D01*
X60400Y50000D01*
X59700D01*
X58100Y49000D01*
X56500D01*
X56500Y46100D01*
X58100D01*
X59700Y45200D01*
X60400D01*
X62500Y41300D01*
X66300D01*
X71800Y45200D01*
X142100D01*
X142400Y43700D01*
X143000D01*
X144800Y45200D01*
X157200D01*
X159700Y46100D01*
X167400D01*
X172800Y47600D01*
D02*
G37*
D10*
X116406Y232405D02*
X117194D01*
X116406D01*
X281724Y62700D02*
Y61913D01*
Y62700D01*
X127753Y331232D02*
Y336768D01*
X121847Y331232D02*
Y336768D01*
X115225Y226500D02*
X118375D01*
X185948Y224647D02*
X192837D01*
X185858Y218497D02*
X192748D01*
X174431Y219464D02*
Y230536D01*
X181565Y219464D02*
Y230536D01*
X357184Y388786D02*
Y438195D01*
X84271D02*
X357184D01*
X84271Y388786D02*
Y438195D01*
Y388786D02*
X357184D01*
X218052Y306754D02*
X225973D01*
X218052Y313446D02*
X225973D01*
X255490Y101039D02*
X259624D01*
X255490Y105961D02*
X259624D01*
X266460Y99366D02*
X277090D01*
Y107634D01*
X266460D02*
X277090D01*
X338350Y210211D02*
X344825D01*
Y215675D01*
X338350D02*
X344825D01*
X338350Y210211D02*
Y215675D01*
X357561Y212550D02*
Y213337D01*
X352639Y212550D02*
Y213337D01*
X337839Y218797D02*
X345761D01*
X337839Y225490D02*
X345761D01*
X261744Y143000D02*
X267256D01*
X108744Y143000D02*
X114256D01*
X240200Y256000D02*
Y348500D01*
Y248500D02*
Y256000D01*
Y248500D02*
X250200D01*
Y348500D01*
X240200D02*
X250200D01*
X240200Y242500D02*
X250200D01*
Y162500D02*
Y242500D01*
X240200Y162500D02*
X250200D01*
X240200D02*
Y242500D01*
X50200Y232500D02*
X60200D01*
X50200D02*
Y312500D01*
X60200D01*
Y232500D02*
Y312500D01*
X50200Y162500D02*
Y222500D01*
X60200Y162500D02*
Y222500D01*
X50200D02*
X60200D01*
X50200Y162500D02*
X60200D01*
X51394Y437792D02*
X75606D01*
X51394Y376808D02*
Y437792D01*
Y376808D02*
X75606D01*
Y437792D01*
X218039Y298954D02*
X225961D01*
X218039Y305646D02*
X225961D01*
X337950Y328632D02*
Y334096D01*
X344425D01*
Y328632D02*
Y334096D01*
X337950Y328632D02*
X344425D01*
X352239Y331200D02*
Y331987D01*
X357161Y331200D02*
Y331987D01*
X337439Y343710D02*
X345361D01*
X337439Y337017D02*
X345361D01*
X293488Y226153D02*
Y235405D01*
X268685Y218457D02*
X293488D01*
X268685Y226153D02*
Y235405D01*
Y243260D02*
X293488D01*
X63734Y106510D02*
Y117140D01*
X55466Y106510D02*
X63734D01*
X55466D02*
Y117140D01*
X283364Y380567D02*
X294436D01*
X283364Y373433D02*
X294436D01*
X136209Y231732D02*
X144280D01*
X136209Y223268D02*
X144280D01*
X156496Y223512D02*
Y231583D01*
X167638Y223480D02*
Y231551D01*
X119336Y247209D02*
X191384D01*
X119336Y319256D02*
X191384D01*
X119336Y247209D02*
Y319256D01*
X191384Y247209D02*
Y319256D01*
X97958Y264161D02*
X98530D01*
X97958Y259239D02*
X98530D01*
X160046Y213239D02*
X160617D01*
X160046Y218161D02*
X160617D01*
X218052Y320453D02*
X223588D01*
X218052Y314547D02*
X223588D01*
X337475Y120268D02*
Y125732D01*
X343950D01*
Y120268D02*
Y125732D01*
X337475Y120268D02*
X343950D01*
X216079Y91366D02*
Y117744D01*
X202693Y91366D02*
Y117744D01*
Y91366D02*
X216079D01*
X202693Y117744D02*
X216079D01*
X218244Y125008D02*
Y126779D01*
X223756Y125008D02*
Y126779D01*
X234629Y99732D02*
Y101504D01*
X227542Y99732D02*
Y101504D01*
X231086Y89201D02*
Y91169D01*
X230102Y90185D02*
X232070D01*
X67466Y106510D02*
Y117140D01*
Y106510D02*
X75734D01*
Y117140D01*
X81405Y107791D02*
Y117239D01*
X86326Y109365D02*
Y117239D01*
X356961Y122606D02*
Y123394D01*
X352039Y122606D02*
Y123394D01*
X321161Y50079D02*
Y74587D01*
X353839Y50079D02*
Y88268D01*
X336539Y128154D02*
X344461D01*
X336539Y134846D02*
X344461D01*
X198498Y358101D02*
Y370699D01*
X178813Y358101D02*
Y370699D01*
X198498D01*
X178813Y358101D02*
X198498D01*
X168989Y366564D02*
Y377636D01*
X176123Y366564D02*
Y377636D01*
X186589Y380039D02*
X190723D01*
X186589Y384961D02*
X190723D01*
X81798Y121842D02*
X85932D01*
X81798Y126763D02*
X85932D01*
X69533Y121842D02*
X73667D01*
X69533Y126763D02*
X73667D01*
X57533Y121842D02*
X61667D01*
X57533Y126763D02*
X61667D01*
X126289Y384861D02*
X130423D01*
X126289Y379939D02*
X130423D01*
X118513Y358001D02*
X138198D01*
X118513Y370599D02*
X138198D01*
X118513Y358001D02*
Y370599D01*
X138198Y358001D02*
Y370599D01*
X115823Y366464D02*
Y377536D01*
X108689Y366464D02*
Y377536D01*
X18164Y221133D02*
X29236D01*
X18164Y228267D02*
X29236D01*
D11*
X318877Y387428D02*
Y387034D01*
Y387428D01*
X394200Y55851D02*
Y55458D01*
Y55851D01*
X315098Y76000D02*
X315492D01*
X315098D01*
X384161Y59001D02*
X429436D01*
Y81442D01*
X384161D02*
X429436D01*
X384161Y59001D02*
Y81442D01*
X278613Y50102D02*
Y86322D01*
X192787D02*
X278613D01*
X192787Y50102D02*
Y86322D01*
Y50102D02*
X278613D01*
D12*
X339717Y209250D02*
X338979Y209677D01*
Y208824D01*
X339717Y209250D01*
X63992Y440154D02*
X63254Y440581D01*
Y439728D01*
X63992Y440154D01*
X339317Y327671D02*
X338579Y328097D01*
Y327245D01*
X339317Y327671D01*
X306677Y222590D02*
X305939Y223017D01*
Y222164D01*
X306677Y222590D01*
X146839Y227500D02*
X146100Y227926D01*
Y227074D01*
X146839Y227500D01*
X164961Y220657D02*
X164222Y221084D01*
Y220231D01*
X164961Y220657D01*
X118647Y241500D02*
X117909Y241926D01*
Y241074D01*
X118647Y241500D01*
X338843Y119307D02*
X338104Y119733D01*
Y118881D01*
X338843Y119307D01*
X221492Y91563D02*
X220754Y91989D01*
Y91137D01*
X221492Y91563D01*
X178203Y353278D02*
X177465Y353704D01*
Y352852D01*
X178203Y353278D01*
X117903Y353178D02*
X117165Y353604D01*
Y352752D01*
X117903Y353178D01*
D13*
X124454Y251146D02*
X124010Y252069D01*
X123010Y252297D01*
X122209Y251658D01*
Y250633D01*
X123010Y249994D01*
X124010Y250222D01*
X124454Y251146D01*
X183932Y362038D02*
X183487Y362961D01*
X182488Y363189D01*
X181686Y362550D01*
Y361525D01*
X182488Y360886D01*
X183487Y361114D01*
X183932Y362038D01*
X123632Y361938D02*
X123187Y362861D01*
X122188Y363089D01*
X121386Y362450D01*
Y361425D01*
X122188Y360786D01*
X123187Y361014D01*
X123632Y361938D01*
D14*
X394181Y188283D02*
X413079D01*
Y181590D02*
Y188283D01*
Y181590D02*
X422921D01*
Y188283D01*
X429614D01*
Y227260D01*
X422921D02*
X429614D01*
X422921D02*
Y233953D01*
X413079D02*
X422921D01*
X413079Y227260D02*
Y233953D01*
X394181Y227260D02*
X413079D01*
X394181Y188283D02*
Y227260D01*
X369772Y195961D02*
Y199898D01*
X367803Y217614D02*
X371740D01*
X369772Y215646D02*
Y219583D01*
X394181Y133165D02*
X413079D01*
Y126472D02*
Y133165D01*
Y126472D02*
X422921D01*
Y133165D01*
X429614D01*
Y172142D01*
X422921D02*
X429614D01*
X422921D02*
Y178835D01*
X413079D02*
X422921D01*
X413079Y172142D02*
Y178835D01*
X394181Y172142D02*
X413079D01*
X394181Y133165D02*
Y172142D01*
X369772Y140842D02*
Y144780D01*
X367803Y162496D02*
X371740D01*
X369772Y160528D02*
Y164465D01*
X369672Y333856D02*
Y337793D01*
X367703Y335824D02*
X371640D01*
X369672Y314171D02*
Y318108D01*
X394081Y306494D02*
Y345470D01*
X412979D01*
Y352163D01*
X422821D01*
Y345470D02*
Y352163D01*
Y345470D02*
X429514D01*
Y306494D02*
Y345470D01*
X422821Y306494D02*
X429514D01*
X422821Y299801D02*
Y306494D01*
X412979Y299801D02*
X422821D01*
X412979D02*
Y306494D01*
X394081D02*
X412979D01*
X369672Y278738D02*
Y282675D01*
X367703Y280706D02*
X371640D01*
X369672Y259053D02*
Y262990D01*
X394081Y251376D02*
Y290352D01*
X412979D01*
Y297045D01*
X422821D01*
Y290352D02*
Y297045D01*
Y290352D02*
X429514D01*
Y251376D02*
Y290352D01*
X422821Y251376D02*
X429514D01*
X422821Y244683D02*
Y251376D01*
X412979Y244683D02*
X422821D01*
X412979D02*
Y251376D01*
X394081D02*
X412979D01*
D15*
X47900Y86160D02*
Y91491D01*
X50566Y94157D01*
X53232Y91491D01*
Y86160D01*
Y90158D01*
X47900D01*
X55897Y86160D02*
X59896D01*
X61229Y87493D01*
X59896Y88825D01*
X57230D01*
X55897Y90158D01*
X57230Y91491D01*
X61229D01*
X65228Y86160D02*
Y92824D01*
Y90158D01*
X63895D01*
X66561D01*
X65228D01*
Y92824D01*
X66561Y94157D01*
X71892Y91491D02*
X74558D01*
X75891Y90158D01*
Y86160D01*
X71892D01*
X70559Y87493D01*
X71892Y88825D01*
X75891D01*
X78557Y86160D02*
X81222D01*
X79890D01*
Y94157D01*
X78557D01*
X86554Y86160D02*
X89220D01*
X90553Y87493D01*
Y90158D01*
X89220Y91491D01*
X86554D01*
X85221Y90158D01*
Y87493D01*
X86554Y86160D01*
X94552Y92824D02*
Y91491D01*
X93219D01*
X95885D01*
X94552D01*
Y87493D01*
X95885Y86160D01*
X99883Y94157D02*
Y86160D01*
Y90158D01*
X101216Y91491D01*
X103882D01*
X105215Y90158D01*
Y86160D01*
X107881Y90158D02*
X113212D01*
X115878Y94157D02*
Y86160D01*
X121210D01*
X129207D02*
X123875D01*
X129207Y91491D01*
Y92824D01*
X127874Y94157D01*
X125208D01*
X123875Y92824D01*
X53232Y80960D02*
X47900D01*
Y76961D01*
X50566D01*
X47900D01*
Y72963D01*
X55897D02*
X58563D01*
X57230D01*
Y80960D01*
X55897D01*
X62562Y72963D02*
X65228D01*
X63895D01*
Y78294D01*
X62562D01*
X71892Y70297D02*
X73225D01*
X74558Y71630D01*
Y78294D01*
X70559D01*
X69226Y76961D01*
Y74296D01*
X70559Y72963D01*
X74558D01*
X77224Y80960D02*
Y72963D01*
Y76961D01*
X78557Y78294D01*
X81223D01*
X82555Y76961D01*
Y72963D01*
X86554Y79627D02*
Y78294D01*
X85221D01*
X87887D01*
X86554D01*
Y74296D01*
X87887Y72963D01*
X105215Y79627D02*
X103882Y80960D01*
X101216D01*
X99883Y79627D01*
Y74296D01*
X101216Y72963D01*
X103882D01*
X105215Y74296D01*
X109213Y72963D02*
X111879D01*
X113212Y74296D01*
Y76961D01*
X111879Y78294D01*
X109213D01*
X107881Y76961D01*
Y74296D01*
X109213Y72963D01*
X115878D02*
Y78294D01*
X117211D01*
X118544Y76961D01*
Y72963D01*
Y76961D01*
X119877Y78294D01*
X121210Y76961D01*
Y72963D01*
X123875Y70297D02*
Y78294D01*
X127874D01*
X129207Y76961D01*
Y74296D01*
X127874Y72963D01*
X123875D01*
X131873Y78294D02*
Y74296D01*
X133206Y72963D01*
X137204D01*
Y78294D01*
X141203Y79627D02*
Y78294D01*
X139870D01*
X142536D01*
X141203D01*
Y74296D01*
X142536Y72963D01*
X150533D02*
X147868D01*
X146535Y74296D01*
Y76961D01*
X147868Y78294D01*
X150533D01*
X151866Y76961D01*
Y75629D01*
X146535D01*
X154532Y78294D02*
Y72963D01*
Y75629D01*
X155865Y76961D01*
X157198Y78294D01*
X158531D01*
X47900Y62432D02*
X50566Y57100D01*
X53232Y62432D01*
X59896Y57100D02*
X57230D01*
X55897Y58433D01*
Y61099D01*
X57230Y62432D01*
X59896D01*
X61229Y61099D01*
Y59766D01*
X55897D01*
X63895Y62432D02*
Y57100D01*
Y59766D01*
X65228Y61099D01*
X66561Y62432D01*
X67893D01*
X71892Y57100D02*
X74558D01*
X73225D01*
Y65097D01*
X71892Y63765D01*
X78557Y57100D02*
Y58433D01*
X79890D01*
Y57100D01*
X78557D01*
X85221D02*
X87887D01*
X86554D01*
Y65097D01*
X85221Y63765D01*
D16*
X124100Y328900D02*
X123600Y329399D01*
X122601D01*
X122101Y328900D01*
Y326900D01*
X122601Y326400D01*
X123600D01*
X124100Y326900D01*
X126599Y326400D02*
Y329399D01*
X125100Y327900D01*
X127099D01*
X115566Y211568D02*
X114900Y210902D01*
Y209569D01*
X115566Y208902D01*
X118232D01*
X118899Y209569D01*
Y210902D01*
X118232Y211568D01*
X118899Y212901D02*
Y214234D01*
Y213568D01*
X114900D01*
X115566Y212901D01*
Y216233D02*
X114900Y216900D01*
Y218233D01*
X115566Y218899D01*
X116233D01*
X116899Y218233D01*
X117566Y218899D01*
X118232D01*
X118899Y218233D01*
Y216900D01*
X118232Y216233D01*
X117566D01*
X116899Y216900D01*
X116233Y216233D01*
X115566D01*
X116899Y216900D02*
Y218233D01*
X209434Y328333D02*
X208767Y328999D01*
X207434D01*
X206768Y328333D01*
Y325667D01*
X207434Y325001D01*
X208767D01*
X209434Y325667D01*
X210767Y328333D02*
X211433Y328999D01*
X212766D01*
X213432Y328333D01*
Y327666D01*
X212766Y327000D01*
X213432Y326334D01*
Y325667D01*
X212766Y325001D01*
X211433D01*
X210767Y325667D01*
Y326334D01*
X211433Y327000D01*
X210767Y327666D01*
Y328333D01*
X211433Y327000D02*
X212766D01*
X198101Y223099D02*
X195435D01*
Y221100D01*
X196768D01*
X195435D01*
Y219101D01*
X199434Y223099D02*
Y219101D01*
X201433D01*
X202099Y219767D01*
Y220434D01*
X201433Y221100D01*
X199434D01*
X201433D01*
X202099Y221766D01*
Y222433D01*
X201433Y223099D01*
X199434D01*
X203432Y219101D02*
X204765D01*
X204099D01*
Y223099D01*
X203432Y222433D01*
X183299Y205768D02*
X179301D01*
Y207768D01*
X179967Y208434D01*
X181300D01*
X181966Y207768D01*
Y205768D01*
Y207101D02*
X183299Y208434D01*
Y212433D02*
Y209767D01*
X180633Y212433D01*
X179967D01*
X179301Y211767D01*
Y210434D01*
X179967Y209767D01*
X183299Y215765D02*
X179301D01*
X181300Y213766D01*
Y216432D01*
X84434Y387199D02*
X83101D01*
X83767D01*
Y383867D01*
X83101Y383201D01*
X82434D01*
X81768Y383867D01*
X88432Y387199D02*
X87099Y386533D01*
X85767Y385200D01*
Y383867D01*
X86433Y383201D01*
X87766D01*
X88432Y383867D01*
Y384534D01*
X87766Y385200D01*
X85767D01*
X227768Y308201D02*
Y312199D01*
X229768D01*
X230434Y311533D01*
Y310200D01*
X229768Y309534D01*
X227768D01*
X229101D02*
X230434Y308201D01*
X234433D02*
X231767D01*
X234433Y310866D01*
Y311533D01*
X233766Y312199D01*
X232434D01*
X231767Y311533D01*
X238432Y308201D02*
X235766D01*
X238432Y310866D01*
Y311533D01*
X237765Y312199D01*
X236432D01*
X235766Y311533D01*
X245668Y101764D02*
Y105763D01*
X247667D01*
X248334Y105097D01*
Y103764D01*
X247667Y103097D01*
X245668D01*
X247001D02*
X248334Y101764D01*
X249667Y105097D02*
X250333Y105763D01*
X251666D01*
X252332Y105097D01*
Y104430D01*
X251666Y103764D01*
X250999D01*
X251666D01*
X252332Y103097D01*
Y102431D01*
X251666Y101764D01*
X250333D01*
X249667Y102431D01*
X279669Y105263D02*
Y101264D01*
X282335D01*
X286334Y105263D02*
X283668D01*
Y101264D01*
X286334D01*
X283668Y103264D02*
X285001D01*
X287667Y105263D02*
Y101264D01*
X289666D01*
X290332Y101931D01*
Y104597D01*
X289666Y105263D01*
X287667D01*
X291665Y104597D02*
X292332Y105263D01*
X293665D01*
X294331Y104597D01*
Y103930D01*
X293665Y103264D01*
X292998D01*
X293665D01*
X294331Y102597D01*
Y101931D01*
X293665Y101264D01*
X292332D01*
X291665Y101931D01*
X365801Y186577D02*
Y185244D01*
Y185910D01*
X369133D01*
X369799Y185244D01*
Y184578D01*
X369133Y183911D01*
X366467Y187910D02*
X365801Y188576D01*
Y189909D01*
X366467Y190576D01*
X367134D01*
X367800Y189909D01*
Y189243D01*
Y189909D01*
X368466Y190576D01*
X369133D01*
X369799Y189909D01*
Y188576D01*
X369133Y187910D01*
X365501Y131077D02*
Y129744D01*
Y130410D01*
X368833D01*
X369499Y129744D01*
Y129077D01*
X368833Y128411D01*
X369499Y135076D02*
Y132410D01*
X366834Y135076D01*
X366167D01*
X365501Y134409D01*
Y133076D01*
X366167Y132410D01*
X338734Y199733D02*
X338068Y200399D01*
X336735D01*
X336068Y199733D01*
Y197067D01*
X336735Y196401D01*
X338068D01*
X338734Y197067D01*
X342733Y200399D02*
X340067D01*
Y198400D01*
X341400Y199066D01*
X342066D01*
X342733Y198400D01*
Y197067D01*
X342066Y196401D01*
X340734D01*
X340067Y197067D01*
X344066Y199733D02*
X344732Y200399D01*
X346065D01*
X346732Y199733D01*
Y199066D01*
X346065Y198400D01*
X345399D01*
X346065D01*
X346732Y197733D01*
Y197067D01*
X346065Y196401D01*
X344732D01*
X344066Y197067D01*
X326968Y215143D02*
Y211810D01*
X327634Y211144D01*
X328967D01*
X329634Y211810D01*
Y215143D01*
X330966Y211810D02*
X331633Y211144D01*
X332966D01*
X333632Y211810D01*
Y214476D01*
X332966Y215143D01*
X331633D01*
X330966Y214476D01*
Y213810D01*
X331633Y213143D01*
X333632D01*
X356799Y193568D02*
X352801D01*
Y195568D01*
X353467Y196234D01*
X354800D01*
X355466Y195568D01*
Y193568D01*
Y194901D02*
X356799Y196234D01*
Y200233D02*
Y197567D01*
X354134Y200233D01*
X353467D01*
X352801Y199566D01*
Y198234D01*
X353467Y197567D01*
X352801Y201566D02*
Y204232D01*
X353467D01*
X356133Y201566D01*
X356799D01*
X322969Y220044D02*
Y224043D01*
X324968D01*
X325635Y223376D01*
Y222043D01*
X324968Y221377D01*
X322969D01*
X324302D02*
X325635Y220044D01*
X329634D02*
X326968D01*
X329634Y222710D01*
Y223376D01*
X328967Y224043D01*
X327634D01*
X326968Y223376D01*
X333632Y224043D02*
X330966D01*
Y222043D01*
X332299Y222710D01*
X332966D01*
X333632Y222043D01*
Y220710D01*
X332966Y220044D01*
X331633D01*
X330966Y220710D01*
X62467Y266634D02*
X61801Y265968D01*
Y264635D01*
X62467Y263968D01*
X65133D01*
X65799Y264635D01*
Y265968D01*
X65133Y266634D01*
X61801Y270633D02*
Y267967D01*
X63800D01*
X63134Y269300D01*
Y269966D01*
X63800Y270633D01*
X65133D01*
X65799Y269966D01*
Y268634D01*
X65133Y267967D01*
X61801Y274632D02*
X62467Y273299D01*
X63800Y271966D01*
X65133D01*
X65799Y272632D01*
Y273965D01*
X65133Y274632D01*
X64466D01*
X63800Y273965D01*
Y271966D01*
X44667Y256134D02*
X44001Y255468D01*
Y254135D01*
X44667Y253468D01*
X47333D01*
X47999Y254135D01*
Y255468D01*
X47333Y256134D01*
X44001Y260133D02*
Y257467D01*
X46000D01*
X45334Y258800D01*
Y259466D01*
X46000Y260133D01*
X47333D01*
X47999Y259466D01*
Y258134D01*
X47333Y257467D01*
X44001Y261466D02*
Y264132D01*
X44667D01*
X47333Y261466D01*
X47999D01*
X266499Y122002D02*
X262501D01*
Y124001D01*
X263167Y124667D01*
X264500D01*
X265166Y124001D01*
Y122002D01*
Y123335D02*
X266499Y124667D01*
Y126000D02*
Y127333D01*
Y126667D01*
X262501D01*
X263167Y126000D01*
X265833Y129333D02*
X266499Y129999D01*
Y131332D01*
X265833Y131998D01*
X263167D01*
X262501Y131332D01*
Y129999D01*
X263167Y129333D01*
X263834D01*
X264500Y129999D01*
Y131998D01*
X113499Y121002D02*
X109501D01*
Y123001D01*
X110167Y123667D01*
X111500D01*
X112167Y123001D01*
Y121002D01*
Y122335D02*
X113499Y123667D01*
Y125000D02*
Y126333D01*
Y125667D01*
X109501D01*
X110167Y125000D01*
Y128333D02*
X109501Y128999D01*
Y130332D01*
X110167Y130998D01*
X110834D01*
X111500Y130332D01*
X112167Y130998D01*
X112833D01*
X113499Y130332D01*
Y128999D01*
X112833Y128333D01*
X112167D01*
X111500Y128999D01*
X110834Y128333D01*
X110167D01*
X111500Y128999D02*
Y130332D01*
X231068Y343201D02*
Y347199D01*
X233067D01*
X233734Y346533D01*
Y345200D01*
X233067Y344534D01*
X231068D01*
X237732Y347199D02*
X236399Y346533D01*
X235067Y345200D01*
Y343867D01*
X235733Y343201D01*
X237066D01*
X237732Y343867D01*
Y344534D01*
X237066Y345200D01*
X235067D01*
X241768Y155701D02*
Y159699D01*
X243767D01*
X244434Y159033D01*
Y157700D01*
X243767Y157034D01*
X241768D01*
X248432Y159699D02*
X245766D01*
Y157700D01*
X247099Y158367D01*
X247766D01*
X248432Y157700D01*
Y156367D01*
X247766Y155701D01*
X246433D01*
X245766Y156367D01*
X52268Y315101D02*
Y319099D01*
X54267D01*
X54934Y318433D01*
Y317100D01*
X54267Y316434D01*
X52268D01*
X58266Y315101D02*
Y319099D01*
X56266Y317100D01*
X58932D01*
X51868Y225501D02*
Y229499D01*
X53867D01*
X54534Y228833D01*
Y227500D01*
X53867Y226834D01*
X51868D01*
X55866Y228833D02*
X56533Y229499D01*
X57866D01*
X58532Y228833D01*
Y228166D01*
X57866Y227500D01*
X57199D01*
X57866D01*
X58532Y226834D01*
Y226167D01*
X57866Y225501D01*
X56533D01*
X55866Y226167D01*
X43834Y381399D02*
X42501D01*
X43167D01*
Y378067D01*
X42501Y377401D01*
X41834D01*
X41168Y378067D01*
X45167Y381399D02*
X47832D01*
Y380733D01*
X45167Y378067D01*
Y377401D01*
X365201Y304534D02*
Y303201D01*
Y303867D01*
X368533D01*
X369199Y303201D01*
Y302534D01*
X368533Y301868D01*
X365201Y308532D02*
Y305867D01*
X367200D01*
X366534Y307199D01*
Y307866D01*
X367200Y308532D01*
X368533D01*
X369199Y307866D01*
Y306533D01*
X368533Y305867D01*
X365901Y248334D02*
Y247001D01*
Y247667D01*
X369233D01*
X369899Y247001D01*
Y246334D01*
X369233Y245668D01*
X369899Y251666D02*
X365901D01*
X367900Y249667D01*
Y252332D01*
X174746Y346833D02*
X174080Y347499D01*
X172747D01*
X172080Y346833D01*
Y344167D01*
X172747Y343501D01*
X174080D01*
X174746Y344167D01*
X178745Y347499D02*
X176079D01*
Y345500D01*
X177412Y346166D01*
X178078D01*
X178745Y345500D01*
Y344167D01*
X178078Y343501D01*
X176745D01*
X176079Y344167D01*
X182743Y347499D02*
X180078D01*
Y345500D01*
X181411Y346166D01*
X182077D01*
X182743Y345500D01*
Y344167D01*
X182077Y343501D01*
X180744D01*
X180078Y344167D01*
X114634Y346633D02*
X113968Y347299D01*
X112635D01*
X111968Y346633D01*
Y343967D01*
X112635Y343301D01*
X113968D01*
X114634Y343967D01*
X118633Y347299D02*
X115967D01*
Y345300D01*
X117300Y345966D01*
X117966D01*
X118633Y345300D01*
Y343967D01*
X117966Y343301D01*
X116633D01*
X115967Y343967D01*
X119966Y346633D02*
X120632Y347299D01*
X121965D01*
X122632Y346633D01*
Y343967D01*
X121965Y343301D01*
X120632D01*
X119966Y343967D01*
Y346633D01*
X382500Y90999D02*
X381167D01*
X381834D01*
Y87667D01*
X381167Y87001D01*
X380501D01*
X379834Y87667D01*
X383833Y87001D02*
X385166D01*
X384499D01*
Y90999D01*
X383833Y90333D01*
X326634Y323933D02*
X325968Y324599D01*
X324635D01*
X323968Y323933D01*
Y321267D01*
X324635Y320601D01*
X325968D01*
X326634Y321267D01*
X330633Y324599D02*
X327967D01*
Y322600D01*
X329300Y323266D01*
X329966D01*
X330633Y322600D01*
Y321267D01*
X329966Y320601D01*
X328634D01*
X327967Y321267D01*
X333965Y320601D02*
Y324599D01*
X331966Y322600D01*
X334632D01*
X326334Y115833D02*
X325668Y116499D01*
X324335D01*
X323668Y115833D01*
Y113167D01*
X324335Y112501D01*
X325668D01*
X326334Y113167D01*
X330333Y116499D02*
X327667D01*
Y114500D01*
X329000Y115166D01*
X329666D01*
X330333Y114500D01*
Y113167D01*
X329666Y112501D01*
X328334D01*
X327667Y113167D01*
X334332Y112501D02*
X331666D01*
X334332Y115166D01*
Y115833D01*
X333665Y116499D01*
X332332D01*
X331666Y115833D01*
X325402Y333363D02*
Y330031D01*
X326068Y329364D01*
X327401D01*
X328067Y330031D01*
Y333363D01*
X329400Y329364D02*
X330733D01*
X330067D01*
Y333363D01*
X329400Y332697D01*
X332733D02*
X333399Y333363D01*
X334732D01*
X335398Y332697D01*
Y330031D01*
X334732Y329364D01*
X333399D01*
X332733Y330031D01*
Y332697D01*
X327668Y124999D02*
Y121667D01*
X328334Y121001D01*
X329667D01*
X330334Y121667D01*
Y124999D01*
X331666Y124333D02*
X332333Y124999D01*
X333666D01*
X334332Y124333D01*
Y123667D01*
X333666Y123000D01*
X334332Y122334D01*
Y121667D01*
X333666Y121001D01*
X332333D01*
X331666Y121667D01*
Y122334D01*
X332333Y123000D01*
X331666Y123667D01*
Y124333D01*
X332333Y123000D02*
X333666D01*
X356799Y313335D02*
X352801D01*
Y315334D01*
X353467Y316001D01*
X354800D01*
X355466Y315334D01*
Y313335D01*
Y314668D02*
X356799Y316001D01*
X353467Y317334D02*
X352801Y318000D01*
Y319333D01*
X353467Y319999D01*
X354134D01*
X354800Y319333D01*
Y318666D01*
Y319333D01*
X355466Y319999D01*
X356133D01*
X356799Y319333D01*
Y318000D01*
X356133Y317334D01*
X356799Y321332D02*
Y322665D01*
Y321999D01*
X352801D01*
X353467Y321332D01*
X323868Y338701D02*
Y342699D01*
X325868D01*
X326534Y342033D01*
Y340700D01*
X325868Y340034D01*
X323868D01*
X325201D02*
X326534Y338701D01*
X330533D02*
X327867D01*
X330533Y341366D01*
Y342033D01*
X329866Y342699D01*
X328534D01*
X327867Y342033D01*
X331866Y339367D02*
X332532Y338701D01*
X333865D01*
X334532Y339367D01*
Y342033D01*
X333865Y342699D01*
X332532D01*
X331866Y342033D01*
Y341366D01*
X332532Y340700D01*
X334532D01*
X355999Y102668D02*
X352001D01*
Y104668D01*
X352667Y105334D01*
X354000D01*
X354666Y104668D01*
Y102668D01*
Y104001D02*
X355999Y105334D01*
Y109333D02*
Y106667D01*
X353334Y109333D01*
X352667D01*
X352001Y108667D01*
Y107334D01*
X352667Y106667D01*
Y110666D02*
X352001Y111332D01*
Y112665D01*
X352667Y113332D01*
X353334D01*
X354000Y112665D01*
Y111999D01*
Y112665D01*
X354666Y113332D01*
X355333D01*
X355999Y112665D01*
Y111332D01*
X355333Y110666D01*
X325335Y129501D02*
Y133499D01*
X327334D01*
X328001Y132833D01*
Y131500D01*
X327334Y130833D01*
X325335D01*
X326668D02*
X328001Y129501D01*
X331999D02*
X329334D01*
X331999Y132167D01*
Y132833D01*
X331333Y133499D01*
X330000D01*
X329334Y132833D01*
X333332Y129501D02*
X334665D01*
X333999D01*
Y133499D01*
X333332Y132833D01*
X227768Y300201D02*
Y304199D01*
X229768D01*
X230434Y303533D01*
Y302200D01*
X229768Y301534D01*
X227768D01*
X229101D02*
X230434Y300201D01*
X234433D02*
X231767D01*
X234433Y302866D01*
Y303533D01*
X233766Y304199D01*
X232434D01*
X231767Y303533D01*
X235766D02*
X236432Y304199D01*
X237765D01*
X238432Y303533D01*
Y300867D01*
X237765Y300201D01*
X236432D01*
X235766Y300867D01*
Y303533D01*
X194602Y380601D02*
Y384599D01*
X196601D01*
X197267Y383933D01*
Y382600D01*
X196601Y381934D01*
X194602D01*
X195934D02*
X197267Y380601D01*
X198600D02*
X199933D01*
X199267D01*
Y384599D01*
X198600Y383933D01*
X204598Y380601D02*
X201933D01*
X204598Y383266D01*
Y383933D01*
X203932Y384599D01*
X202599D01*
X201933Y383933D01*
X173424Y384999D02*
Y381667D01*
X174090Y381001D01*
X175423D01*
X176090Y381667D01*
Y384999D01*
X177422Y384333D02*
X178089Y384999D01*
X179422D01*
X180088Y384333D01*
Y383666D01*
X179422Y383000D01*
X178755D01*
X179422D01*
X180088Y382334D01*
Y381667D01*
X179422Y381001D01*
X178089D01*
X177422Y381667D01*
X115324Y384999D02*
Y381667D01*
X115990Y381001D01*
X117323D01*
X117990Y381667D01*
Y384999D01*
X121988Y381001D02*
X119322D01*
X121988Y383666D01*
Y384333D01*
X121322Y384999D01*
X119989D01*
X119322Y384333D01*
X269202Y374701D02*
Y378699D01*
X271201D01*
X271867Y378033D01*
Y376700D01*
X271201Y376034D01*
X269202D01*
X270534D02*
X271867Y374701D01*
X273200D02*
X274533D01*
X273867D01*
Y378699D01*
X273200Y378033D01*
X276533Y378699D02*
X279198D01*
Y378033D01*
X276533Y375367D01*
Y374701D01*
X31602Y222301D02*
Y226299D01*
X33601D01*
X34267Y225633D01*
Y224300D01*
X33601Y223634D01*
X31602D01*
X32934D02*
X34267Y222301D01*
X35600D02*
X36933D01*
X36267D01*
Y226299D01*
X35600Y225633D01*
X41598Y226299D02*
X40266Y225633D01*
X38933Y224300D01*
Y222967D01*
X39599Y222301D01*
X40932D01*
X41598Y222967D01*
Y223634D01*
X40932Y224300D01*
X38933D01*
X245501Y97333D02*
X244834Y97999D01*
X243501D01*
X242835Y97333D01*
Y94667D01*
X243501Y94001D01*
X244834D01*
X245501Y94667D01*
X249499Y97999D02*
X246834D01*
Y96000D01*
X248166Y96666D01*
X248833D01*
X249499Y96000D01*
Y94667D01*
X248833Y94001D01*
X247500D01*
X246834Y94667D01*
X250832Y94001D02*
X252165D01*
X251499D01*
Y97999D01*
X250832Y97333D01*
X194754Y124448D02*
Y121116D01*
X195420Y120449D01*
X196753D01*
X197419Y121116D01*
Y124448D01*
X198752D02*
X201418D01*
Y123782D01*
X198752Y121116D01*
Y120449D01*
X219667Y136334D02*
X219001Y135668D01*
Y134335D01*
X219667Y133668D01*
X222333D01*
X222999Y134335D01*
Y135668D01*
X222333Y136334D01*
X222999Y139666D02*
X219001D01*
X221000Y137667D01*
Y140333D01*
X222333Y141666D02*
X222999Y142332D01*
Y143665D01*
X222333Y144332D01*
X219667D01*
X219001Y143665D01*
Y142332D01*
X219667Y141666D01*
X220334D01*
X221000Y142332D01*
Y144332D01*
X135501Y236500D02*
Y236000D01*
X136501Y235000D01*
X137500Y236000D01*
Y236500D01*
X136501Y235000D02*
Y233501D01*
X140499D02*
X138500D01*
X140499Y235500D01*
Y236000D01*
X139999Y236500D01*
X139000D01*
X138500Y236000D01*
X156001Y236500D02*
Y236000D01*
X157000Y235000D01*
X158000Y236000D01*
Y236500D01*
X157000Y235000D02*
Y233501D01*
X159000D02*
X159999D01*
X159500D01*
Y236500D01*
X159000Y236000D01*
X109334Y329099D02*
Y325767D01*
X110001Y325101D01*
X111334D01*
X112000Y325767D01*
Y329099D01*
X113333Y325101D02*
X114666D01*
X113999D01*
Y329099D01*
X113333Y328433D01*
X261566Y249932D02*
X260899Y250599D01*
X259566D01*
X258900Y249932D01*
Y249266D01*
X259566Y248599D01*
X260899D01*
X261566Y247933D01*
Y247266D01*
X260899Y246600D01*
X259566D01*
X258900Y247266D01*
X262899Y250599D02*
Y246600D01*
X264232Y247933D01*
X265564Y246600D01*
Y250599D01*
X266897Y246600D02*
X268230D01*
X267564D01*
Y250599D01*
X266897Y249932D01*
X174699Y355602D02*
X170701D01*
Y357601D01*
X171367Y358267D01*
X172700D01*
X173366Y357601D01*
Y355602D01*
Y356934D02*
X174699Y358267D01*
Y359600D02*
Y360933D01*
Y360267D01*
X170701D01*
X171367Y359600D01*
X174699Y364932D02*
X170701D01*
X172700Y362933D01*
Y365598D01*
X113999Y354702D02*
X110001D01*
Y356701D01*
X110667Y357367D01*
X112000D01*
X112666Y356701D01*
Y354702D01*
Y356034D02*
X113999Y357367D01*
Y358700D02*
Y360033D01*
Y359367D01*
X110001D01*
X110667Y358700D01*
Y362033D02*
X110001Y362699D01*
Y364032D01*
X110667Y364698D01*
X113333D01*
X113999Y364032D01*
Y362699D01*
X113333Y362033D01*
X110667D01*
X133968Y380501D02*
Y384499D01*
X135967D01*
X136634Y383833D01*
Y382500D01*
X135967Y381834D01*
X133968D01*
X135301D02*
X136634Y380501D01*
X137967Y381167D02*
X138633Y380501D01*
X139966D01*
X140632Y381167D01*
Y383833D01*
X139966Y384499D01*
X138633D01*
X137967Y383833D01*
Y383166D01*
X138633Y382500D01*
X140632D01*
X80668Y128941D02*
Y132940D01*
X82667D01*
X83333Y132273D01*
Y130940D01*
X82667Y130274D01*
X80668D01*
X82001D02*
X83333Y128941D01*
X87332Y132940D02*
X85999Y132273D01*
X84666Y130940D01*
Y129607D01*
X85333Y128941D01*
X86666D01*
X87332Y129607D01*
Y130274D01*
X86666Y130940D01*
X84666D01*
X81712Y259701D02*
Y263699D01*
X83711D01*
X84378Y263033D01*
Y261700D01*
X83711Y261034D01*
X81712D01*
X83045D02*
X84378Y259701D01*
X88376Y263699D02*
X85711D01*
Y261700D01*
X87043Y262366D01*
X87710D01*
X88376Y261700D01*
Y260367D01*
X87710Y259701D01*
X86377D01*
X85711Y260367D01*
X68368Y128941D02*
Y132940D01*
X70367D01*
X71034Y132273D01*
Y130940D01*
X70367Y130274D01*
X68368D01*
X69701D02*
X71034Y128941D01*
X74366D02*
Y132940D01*
X72366Y130940D01*
X75032D01*
X56368Y128941D02*
Y132940D01*
X58367D01*
X59034Y132273D01*
Y130940D01*
X58367Y130274D01*
X56368D01*
X57701D02*
X59034Y128941D01*
X63032D02*
X60366D01*
X63032Y131607D01*
Y132273D01*
X62366Y132940D01*
X61033D01*
X60366Y132273D01*
X146534Y212101D02*
Y216099D01*
X148533D01*
X149200Y215433D01*
Y214100D01*
X148533Y213434D01*
X146534D01*
X147867D02*
X149200Y212101D01*
X150533D02*
X151866D01*
X151199D01*
Y216099D01*
X150533Y215433D01*
X191335Y41901D02*
Y45899D01*
X193334D01*
X194001Y45233D01*
Y43900D01*
X193334Y43234D01*
X191335D01*
X197999Y45233D02*
X197333Y45899D01*
X196000D01*
X195334Y45233D01*
Y44566D01*
X196000Y43900D01*
X197333D01*
X197999Y43234D01*
Y42567D01*
X197333Y41901D01*
X196000D01*
X195334Y42567D01*
X199332Y41901D02*
X200665D01*
X199999D01*
Y45899D01*
X199332Y45233D01*
X89101Y106209D02*
X93099D01*
Y108875D01*
X89101Y112874D02*
Y110208D01*
X93099D01*
Y112874D01*
X91100Y110208D02*
Y111541D01*
X89101Y114207D02*
X93099D01*
Y116206D01*
X92433Y116873D01*
X89767D01*
X89101Y116206D01*
Y114207D01*
X93099Y120205D02*
X89101D01*
X91100Y118205D01*
Y120871D01*
X64769Y104240D02*
Y100241D01*
X67435D01*
X71434Y104240D02*
X68768D01*
Y100241D01*
X71434D01*
X68768Y102240D02*
X70101D01*
X72766Y104240D02*
Y100241D01*
X74766D01*
X75432Y100907D01*
Y103573D01*
X74766Y104240D01*
X72766D01*
X79431Y100241D02*
X76765D01*
X79431Y102907D01*
Y103573D01*
X78764Y104240D01*
X77432D01*
X76765Y103573D01*
X49301Y106835D02*
X53299D01*
Y109501D01*
X49301Y113500D02*
Y110834D01*
X53299D01*
Y113500D01*
X51300Y110834D02*
Y112167D01*
X49301Y114833D02*
X53299D01*
Y116832D01*
X52633Y117499D01*
X49967D01*
X49301Y116832D01*
Y114833D01*
X53299Y118832D02*
Y120165D01*
Y119498D01*
X49301D01*
X49967Y118832D01*
X290234Y60099D02*
Y56101D01*
X292900D01*
X294233D02*
X295566D01*
X294899D01*
Y60099D01*
X294233Y59433D01*
X229667Y113834D02*
X229001Y113168D01*
Y111835D01*
X229667Y111168D01*
X232333D01*
X232999Y111835D01*
Y113168D01*
X232333Y113834D01*
X232999Y117166D02*
X229001D01*
X231000Y115167D01*
Y117833D01*
X229667Y119166D02*
X229001Y119832D01*
Y121165D01*
X229667Y121832D01*
X230333D01*
X231000Y121165D01*
X231666Y121832D01*
X232333D01*
X232999Y121165D01*
Y119832D01*
X232333Y119166D01*
X231666D01*
X231000Y119832D01*
X230333Y119166D01*
X229667D01*
X231000Y119832D02*
Y121165D01*
X321834Y40833D02*
X321168Y41499D01*
X319835D01*
X319168Y40833D01*
Y38167D01*
X319835Y37501D01*
X321168D01*
X321834Y38167D01*
X325833Y37501D02*
X323167D01*
X325833Y40166D01*
Y40833D01*
X325166Y41499D01*
X323834D01*
X323167Y40833D01*
X329832Y41499D02*
X327166D01*
Y39500D01*
X328499Y40166D01*
X329165D01*
X329832Y39500D01*
Y38167D01*
X329165Y37501D01*
X327832D01*
X327166Y38167D01*
X99567Y270133D02*
X98901Y270799D01*
X97568D01*
X96902Y270133D01*
Y267467D01*
X97568Y266801D01*
X98901D01*
X99567Y267467D01*
X100900Y266801D02*
X102233D01*
X101567D01*
Y270799D01*
X100900Y270133D01*
X104233Y270799D02*
X106898D01*
Y270133D01*
X104233Y267467D01*
Y266801D01*
X99567Y289533D02*
X98901Y290199D01*
X97568D01*
X96902Y289533D01*
Y286867D01*
X97568Y286201D01*
X98901D01*
X99567Y286867D01*
X100900Y286201D02*
X102233D01*
X101567D01*
Y290199D01*
X100900Y289533D01*
X106898Y290199D02*
X105566Y289533D01*
X104233Y288200D01*
Y286867D01*
X104899Y286201D01*
X106232D01*
X106898Y286867D01*
Y287534D01*
X106232Y288200D01*
X104233D01*
X200367Y200133D02*
X199701Y200799D01*
X198368D01*
X197702Y200133D01*
Y197467D01*
X198368Y196801D01*
X199701D01*
X200367Y197467D01*
X201700Y196801D02*
X203033D01*
X202367D01*
Y200799D01*
X201700Y200133D01*
X207698Y200799D02*
X205033D01*
Y198800D01*
X206365Y199467D01*
X207032D01*
X207698Y198800D01*
Y197467D01*
X207032Y196801D01*
X205699D01*
X205033Y197467D01*
X106467Y333867D02*
X105801Y333201D01*
Y331868D01*
X106467Y331202D01*
X109133D01*
X109799Y331868D01*
Y333201D01*
X109133Y333867D01*
X109799Y335200D02*
Y336533D01*
Y335867D01*
X105801D01*
X106467Y335200D01*
X109799Y340532D02*
X105801D01*
X107800Y338533D01*
Y341198D01*
X136067Y337933D02*
X135401Y338599D01*
X134068D01*
X133402Y337933D01*
Y335267D01*
X134068Y334601D01*
X135401D01*
X136067Y335267D01*
X137400Y334601D02*
X138733D01*
X138067D01*
Y338599D01*
X137400Y337933D01*
X140733D02*
X141399Y338599D01*
X142732D01*
X143398Y337933D01*
Y337266D01*
X142732Y336600D01*
X142066D01*
X142732D01*
X143398Y335934D01*
Y335267D01*
X142732Y334601D01*
X141399D01*
X140733Y335267D01*
X157567Y338133D02*
X156901Y338799D01*
X155568D01*
X154902Y338133D01*
Y335467D01*
X155568Y334801D01*
X156901D01*
X157567Y335467D01*
X158900Y334801D02*
X160233D01*
X159567D01*
Y338799D01*
X158900Y338133D01*
X164898Y334801D02*
X162233D01*
X164898Y337466D01*
Y338133D01*
X164232Y338799D01*
X162899D01*
X162233Y338133D01*
X208934Y293333D02*
X208267Y293999D01*
X206934D01*
X206268Y293333D01*
Y290667D01*
X206934Y290001D01*
X208267D01*
X208934Y290667D01*
X210267Y290001D02*
X211600D01*
X210933D01*
Y293999D01*
X210267Y293333D01*
X213599Y290001D02*
X214932D01*
X214265D01*
Y293999D01*
X213599Y293333D01*
X219667Y279833D02*
X219001Y280499D01*
X217668D01*
X217002Y279833D01*
Y277167D01*
X217668Y276501D01*
X219001D01*
X219667Y277167D01*
X221000Y276501D02*
X222333D01*
X221667D01*
Y280499D01*
X221000Y279833D01*
X224333D02*
X224999Y280499D01*
X226332D01*
X226998Y279833D01*
Y277167D01*
X226332Y276501D01*
X224999D01*
X224333Y277167D01*
Y279833D01*
X220922Y252633D02*
X220255Y253299D01*
X218922D01*
X218256Y252633D01*
Y249967D01*
X218922Y249301D01*
X220255D01*
X220922Y249967D01*
X222255D02*
X222921Y249301D01*
X224254D01*
X224921Y249967D01*
Y252633D01*
X224254Y253299D01*
X222921D01*
X222255Y252633D01*
Y251966D01*
X222921Y251300D01*
X224921D01*
X129311Y215834D02*
X128645Y215167D01*
Y213834D01*
X129311Y213168D01*
X131977D01*
X132643Y213834D01*
Y215167D01*
X131977Y215834D01*
X128645Y217166D02*
Y219832D01*
X129311D01*
X131977Y217166D01*
X132643D01*
X87678Y250616D02*
X87011Y251283D01*
X85678D01*
X85012Y250616D01*
Y247951D01*
X85678Y247284D01*
X87011D01*
X87678Y247951D01*
X91676Y251283D02*
X90343Y250616D01*
X89011Y249284D01*
Y247951D01*
X89677Y247284D01*
X91010D01*
X91676Y247951D01*
Y248617D01*
X91010Y249284D01*
X89011D01*
X198533Y229733D02*
X197867Y230399D01*
X196534D01*
X195868Y229733D01*
Y227067D01*
X196534Y226401D01*
X197867D01*
X198533Y227067D01*
X202532Y230399D02*
X199866D01*
Y228400D01*
X201199Y229066D01*
X201866D01*
X202532Y228400D01*
Y227067D01*
X201866Y226401D01*
X200533D01*
X199866Y227067D01*
X230834Y319133D02*
X230167Y319799D01*
X228834D01*
X228168Y319133D01*
Y316467D01*
X228834Y315801D01*
X230167D01*
X230834Y316467D01*
X232167Y319133D02*
X232833Y319799D01*
X234166D01*
X234832Y319133D01*
Y318466D01*
X234166Y317800D01*
X233499D01*
X234166D01*
X234832Y317134D01*
Y316467D01*
X234166Y315801D01*
X232833D01*
X232167Y316467D01*
X310420Y216191D02*
X309754Y216858D01*
X308421D01*
X307754Y216191D01*
Y213525D01*
X308421Y212859D01*
X309754D01*
X310420Y213525D01*
X314419Y212859D02*
X311753D01*
X314419Y215525D01*
Y216191D01*
X313752Y216858D01*
X312420D01*
X311753Y216191D01*
X149067Y220600D02*
X148401Y219934D01*
Y218601D01*
X149067Y217934D01*
X151733D01*
X152399Y218601D01*
Y219934D01*
X151733Y220600D01*
X152399Y221933D02*
Y223266D01*
Y222599D01*
X148401D01*
X149067Y221933D01*
M02*
