G04*
G04 #@! TF.GenerationSoftware,Altium Limited,Altium Designer,20.2.3 (150)*
G04*
G04 Layer_Color=0*
%FSLAX25Y25*%
%MOIN*%
G70*
G04*
G04 #@! TF.SameCoordinates,55210B2D-0A46-486D-8559-DE1921E740DA*
G04*
G04*
G04 #@! TF.FilePolarity,Positive*
G04*
G01*
G75*
%ADD11C,0.00394*%
D11*
X124800Y332032D02*
Y335969D01*
X122832Y334000D02*
X126769D01*
X189500Y219580D02*
Y223517D01*
X187531Y221548D02*
X191469D01*
X176029Y225000D02*
X179966D01*
X177998Y223031D02*
Y226969D01*
X220044Y310100D02*
X223981D01*
X222013Y308131D02*
Y312068D01*
X257557Y101531D02*
Y105468D01*
X255589Y103500D02*
X259526D01*
X339619Y212943D02*
X343556D01*
X341587Y210975D02*
Y214912D01*
X341800Y220175D02*
Y224112D01*
X339831Y222143D02*
X343768D01*
X61532Y407300D02*
X65469D01*
X63500Y405332D02*
Y409269D01*
X220032Y302300D02*
X223969D01*
X222000Y300331D02*
Y304268D01*
X341187Y329395D02*
Y333332D01*
X339219Y331364D02*
X343156D01*
X339431Y340364D02*
X343368D01*
X341400Y338395D02*
Y342332D01*
X281087Y228890D02*
Y232827D01*
X279118Y230858D02*
X283055D01*
X288900Y375031D02*
Y378968D01*
X286932Y377000D02*
X290869D01*
X140244Y225532D02*
Y229469D01*
X138276Y227500D02*
X142212D01*
X162106Y225579D02*
Y229516D01*
X160138Y227547D02*
X164075D01*
X98244Y259732D02*
Y263669D01*
X96276Y261700D02*
X100213D01*
X158363Y215700D02*
X162300D01*
X160331Y213732D02*
Y217669D01*
X220820Y315532D02*
Y319469D01*
X218851Y317500D02*
X222788D01*
X340713Y121032D02*
Y124969D01*
X338744Y123000D02*
X342681D01*
X221000Y123925D02*
Y127862D01*
X219032Y125894D02*
X222969D01*
X231086Y98650D02*
Y102587D01*
X229117Y100618D02*
X233054D01*
X340500Y129532D02*
Y133469D01*
X338531Y131500D02*
X342468D01*
X170588Y372100D02*
X174524D01*
X172556Y370132D02*
Y374069D01*
X188656Y380532D02*
Y384469D01*
X186688Y382500D02*
X190624D01*
X81897Y124302D02*
X85834D01*
X83865Y122334D02*
Y126271D01*
X69631Y124302D02*
X73568D01*
X71600Y122334D02*
Y126271D01*
X57631Y124302D02*
X61568D01*
X59600Y122334D02*
Y126271D01*
X126388Y382400D02*
X130324D01*
X128356Y380432D02*
Y384369D01*
X112256Y370032D02*
Y373969D01*
X110287Y372000D02*
X114225D01*
X21732Y224700D02*
X25669D01*
X23700Y222732D02*
Y226669D01*
M02*
