G04*
G04 #@! TF.GenerationSoftware,Altium Limited,Altium Designer,20.2.3 (150)*
G04*
G04 Layer_Color=16711935*
%FSLAX25Y25*%
%MOIN*%
G70*
G04*
G04 #@! TF.SameCoordinates,55210B2D-0A46-486D-8559-DE1921E740DA*
G04*
G04*
G04 #@! TF.FilePolarity,Positive*
G04*
G01*
G75*
%ADD10C,0.00787*%
%ADD11C,0.00394*%
%ADD14C,0.00500*%
D10*
X278613Y50102D02*
Y86322D01*
X192787D02*
X278613D01*
X192787Y50102D02*
Y86322D01*
Y50102D02*
X278613D01*
D11*
X121502Y247406D02*
X121238Y248390D01*
X120517Y249110D01*
X119533Y249374D01*
X118549Y249110D01*
X117828Y248390D01*
X117565Y247406D01*
X117828Y246421D01*
X118549Y245701D01*
X119533Y245437D01*
X120517Y245701D01*
X121238Y246421D01*
X121502Y247406D01*
X184325Y360069D02*
X184062Y361053D01*
X183341Y361774D01*
X182357Y362038D01*
X181372Y361774D01*
X180652Y361053D01*
X180388Y360069D01*
X180652Y359085D01*
X181372Y358365D01*
X182357Y358101D01*
X183341Y358365D01*
X184062Y359085D01*
X184325Y360069D01*
X124025Y359969D02*
X123761Y360953D01*
X123041Y361674D01*
X122057Y361938D01*
X121072Y361674D01*
X120352Y360953D01*
X120088Y359969D01*
X120352Y358985D01*
X121072Y358264D01*
X122057Y358001D01*
X123041Y358264D01*
X123761Y358985D01*
X124025Y359969D01*
X115225Y229650D02*
X118375D01*
X115225Y223350D02*
Y229650D01*
Y223350D02*
X118375D01*
Y229650D01*
X207095Y319125D02*
Y322275D01*
Y319125D02*
X213394D01*
Y322275D01*
X207095D02*
X213394D01*
X266263Y101039D02*
X274137D01*
X266263D02*
Y105961D01*
X274137D01*
Y101039D02*
Y105961D01*
X272495Y101039D02*
X274137Y102681D01*
X338650Y205718D02*
X344950D01*
Y202569D02*
Y205718D01*
X338650Y202569D02*
X344950D01*
X338650D02*
Y205718D01*
X352639Y209006D02*
Y216880D01*
Y209006D02*
X357561D01*
Y216880D01*
X352639D02*
X357561D01*
X62125Y277150D02*
Y283450D01*
X65275D01*
Y277150D02*
Y283450D01*
X62125Y277150D02*
X65275D01*
X44425Y267050D02*
Y273350D01*
X47575D01*
Y267050D02*
Y273350D01*
X44425Y267050D02*
X47575D01*
X261350Y136799D02*
Y149201D01*
X267650D01*
Y136799D02*
Y149201D01*
X261350Y136799D02*
X267650D01*
X108350Y136799D02*
X114650D01*
Y149201D01*
X108350D02*
X114650D01*
X108350Y136799D02*
Y149201D01*
X338250Y321289D02*
Y324439D01*
Y321289D02*
X344550D01*
Y324439D01*
X338250D02*
X344550D01*
X352239Y335531D02*
X357161D01*
Y327657D02*
Y335531D01*
X352239Y327657D02*
X357161D01*
X352239D02*
Y335531D01*
X307237Y223733D02*
X313536D01*
Y220583D02*
Y223733D01*
X307237Y220583D02*
X313536D01*
X307237D02*
Y223733D01*
X57139Y111105D02*
X58781Y109463D01*
X57139D02*
X62061D01*
Y117337D01*
X57139D02*
X62061D01*
X57139Y109463D02*
Y117337D01*
X115990Y243862D02*
X194730D01*
X115990Y322602D02*
X194730D01*
X115990Y243862D02*
Y322602D01*
X194730Y243862D02*
Y322602D01*
X98439Y272925D02*
X104738D01*
X98439D02*
Y276075D01*
X104738D01*
Y272925D02*
Y276075D01*
X98439Y292425D02*
X104738D01*
X98439D02*
Y295575D01*
X104738D01*
Y292425D02*
Y295575D01*
X188550Y200175D02*
X194850D01*
Y197025D02*
Y200175D01*
X188550Y197025D02*
X194850D01*
X188550D02*
Y200175D01*
X112725Y332350D02*
Y338650D01*
X115875D01*
Y332350D02*
Y338650D01*
X112725Y332350D02*
X115875D01*
X146151Y338375D02*
X152450D01*
Y335225D02*
Y338375D01*
X146151Y335225D02*
X152450D01*
X146151D02*
Y338375D01*
X167706D02*
X174006D01*
Y335225D02*
Y338375D01*
X167706Y335225D02*
X174006D01*
X167706D02*
Y338375D01*
X207095Y299575D02*
X213394D01*
Y296425D02*
Y299575D01*
X207095Y296425D02*
X213394D01*
X207095D02*
Y299575D01*
X207095Y280075D02*
X213394D01*
Y276925D02*
Y280075D01*
X207095Y276925D02*
X213394D01*
X207095D02*
Y280075D01*
X207194Y252375D02*
X213494D01*
Y249225D02*
Y252375D01*
X207194Y249225D02*
X213494D01*
X207194D02*
Y252375D01*
X132319Y223350D02*
Y229650D01*
X129169Y223350D02*
X132319D01*
X129169D02*
Y229650D01*
X132319D01*
X96694Y247209D02*
X102994D01*
X96694D02*
Y250358D01*
X102994D01*
Y247209D02*
Y250358D01*
X186450Y226825D02*
X192750D01*
X186450D02*
Y229975D01*
X192750D01*
Y226825D02*
Y229975D01*
X154019Y224850D02*
Y231150D01*
X150869Y224850D02*
X154019D01*
X150869D02*
Y231150D01*
X154019D01*
X216669Y91366D02*
Y117744D01*
X202102Y91366D02*
Y117744D01*
Y91366D02*
X216669D01*
X202102Y117744D02*
X216669D01*
X185506Y343925D02*
X191806D01*
X185506D02*
Y347075D01*
X191806D01*
Y343925D02*
Y347075D01*
X125206Y343825D02*
X131506D01*
X125206D02*
Y346975D01*
X131506D01*
Y343825D02*
Y346975D01*
X69139Y109463D02*
Y117337D01*
X74061D01*
Y109463D02*
Y117337D01*
X69139Y109463D02*
X74061D01*
X69139Y111105D02*
X70781Y109463D01*
X81405Y109365D02*
Y117239D01*
X86326D01*
Y109365D02*
Y117239D01*
X81405Y109365D02*
X86326D01*
X81405Y111334D02*
X83373Y109365D01*
X352039Y119063D02*
Y126937D01*
Y119063D02*
X356961D01*
Y126937D01*
X352039D02*
X356961D01*
X337850Y116075D02*
X344150D01*
Y112925D02*
Y116075D01*
X337850Y112925D02*
X344150D01*
X337850D02*
Y116075D01*
X292264Y86236D02*
X312736D01*
Y65764D02*
Y86236D01*
X292264Y65764D02*
X312736D01*
X292264D02*
Y86236D01*
X321161Y50079D02*
X353839D01*
X321161D02*
Y74587D01*
X329331Y82756D01*
X345669D01*
X353839Y74587D01*
Y50079D02*
Y74587D01*
X254555Y97370D02*
X261445D01*
X254555Y93630D02*
X261445D01*
X254555D02*
Y97370D01*
X261445Y93630D02*
Y97370D01*
X198498Y356526D02*
Y372274D01*
X178813Y356526D02*
Y372274D01*
X198498D01*
X178813Y356526D02*
X198498D01*
X118513Y356426D02*
X138198D01*
X118513Y372174D02*
X138198D01*
X118513Y356426D02*
Y372174D01*
X138198Y356426D02*
Y372174D01*
D14*
X394181Y188283D02*
X413079D01*
Y181590D02*
Y188283D01*
Y181590D02*
X422921D01*
Y188283D01*
X429614D01*
Y227260D01*
X422921D02*
X429614D01*
X422921D02*
Y233953D01*
X413079D02*
X422921D01*
X413079Y227260D02*
Y233953D01*
X394181Y227260D02*
X413079D01*
X394181Y188283D02*
Y227260D01*
X369772Y195961D02*
Y199898D01*
X367803Y217614D02*
X371740D01*
X369772Y215646D02*
Y219583D01*
X394181Y133165D02*
X413079D01*
Y126472D02*
Y133165D01*
Y126472D02*
X422921D01*
Y133165D01*
X429614D01*
Y172142D01*
X422921D02*
X429614D01*
X422921D02*
Y178835D01*
X413079D02*
X422921D01*
X413079Y172142D02*
Y178835D01*
X394181Y172142D02*
X413079D01*
X394181Y133165D02*
Y172142D01*
X369772Y140842D02*
Y144780D01*
X367803Y162496D02*
X371740D01*
X369772Y160528D02*
Y164465D01*
X369672Y333856D02*
Y337793D01*
X367703Y335824D02*
X371640D01*
X369672Y314171D02*
Y318108D01*
X394081Y306494D02*
Y345470D01*
X412979D01*
Y352163D01*
X422821D01*
Y345470D02*
Y352163D01*
Y345470D02*
X429514D01*
Y306494D02*
Y345470D01*
X422821Y306494D02*
X429514D01*
X422821Y299801D02*
Y306494D01*
X412979Y299801D02*
X422821D01*
X412979D02*
Y306494D01*
X394081D02*
X412979D01*
X369672Y278738D02*
Y282675D01*
X367703Y280706D02*
X371640D01*
X369672Y259053D02*
Y262990D01*
X394081Y251376D02*
Y290352D01*
X412979D01*
Y297045D01*
X422821D01*
Y290352D02*
Y297045D01*
Y290352D02*
X429514D01*
Y251376D02*
Y290352D01*
X422821Y251376D02*
X429514D01*
X422821Y244683D02*
Y251376D01*
X412979Y244683D02*
X422821D01*
X412979D02*
Y251376D01*
X394081D02*
X412979D01*
M02*
