G04*
G04 #@! TF.GenerationSoftware,Altium Limited,Altium Designer,20.2.3 (150)*
G04*
G04 Layer_Color=8388736*
%FSLAX25Y25*%
%MOIN*%
G70*
G04*
G04 #@! TF.SameCoordinates,55210B2D-0A46-486D-8559-DE1921E740DA*
G04*
G04*
G04 #@! TF.FilePolarity,Positive*
G04*
G01*
G75*
%ADD10C,0.00787*%
D10*
X123816Y332032D02*
Y335969D01*
X125784D01*
Y332032D02*
Y335969D01*
X123816Y332032D02*
X125784D01*
X192945Y219678D02*
Y223418D01*
X186055D02*
X192945D01*
X186055Y219678D02*
Y223418D01*
Y219678D02*
X192945D01*
X176423Y221850D02*
X179572D01*
Y228150D01*
X176423D02*
X179572D01*
X176423Y221850D02*
Y228150D01*
X218863Y311675D02*
X225162D01*
Y308525D02*
Y311675D01*
X218863Y308525D02*
X225162D01*
X218863D02*
Y311675D01*
X255490Y102417D02*
Y104583D01*
Y102417D02*
X259624D01*
Y104583D01*
X255490D02*
X259624D01*
X338350Y210211D02*
X344825D01*
Y215675D01*
X338350D02*
X344825D01*
X338350Y210211D02*
Y215675D01*
X344950Y220568D02*
Y223718D01*
X338650D02*
X344950D01*
X338650Y220568D02*
Y223718D01*
Y220568D02*
X344950D01*
X51394Y437792D02*
X75606D01*
X51394Y376808D02*
Y437792D01*
Y376808D02*
X75606D01*
Y437792D01*
X218850Y303875D02*
X225150D01*
Y300725D02*
Y303875D01*
X218850Y300725D02*
X225150D01*
X218850D02*
Y303875D01*
X337950Y328632D02*
Y334096D01*
X344425D01*
Y328632D02*
Y334096D01*
X337950Y328632D02*
X344425D01*
X338250Y338789D02*
X344550D01*
X338250D02*
Y341939D01*
X344550D01*
Y338789D02*
Y341939D01*
X293488Y218457D02*
Y243260D01*
X268685Y218457D02*
X293488D01*
X268685D02*
Y243260D01*
X293488D01*
X285750Y375425D02*
Y378575D01*
Y375425D02*
X292050D01*
Y378575D01*
X285750D02*
X292050D01*
X144280Y225039D02*
Y229961D01*
X136209D02*
X144280D01*
X136209Y225039D02*
Y229961D01*
Y225039D02*
X144280D01*
X158858Y223512D02*
Y231583D01*
X165354D01*
Y223512D02*
Y231583D01*
X158858Y223512D02*
X165354D01*
X102181Y259239D02*
Y264161D01*
X94307D02*
X102181D01*
X94307Y259239D02*
Y264161D01*
Y259239D02*
X102181D01*
X156394Y213239D02*
X164268D01*
X156394D02*
Y218161D01*
X164268D01*
Y213239D02*
Y218161D01*
X218851Y316516D02*
Y318484D01*
Y316516D02*
X222788D01*
Y318484D01*
X218851D02*
X222788D01*
X337475Y120268D02*
Y125732D01*
X343950D01*
Y120268D02*
Y125732D01*
X337475Y120268D02*
X343950D01*
X218244Y121661D02*
Y130126D01*
X223756D01*
Y121661D02*
Y130126D01*
X218244Y121661D02*
X223756D01*
X234629Y93925D02*
Y107311D01*
X227542Y93925D02*
X234629D01*
X227542D02*
Y107311D01*
X234629D01*
X343650Y129925D02*
Y133075D01*
X337350D02*
X343650D01*
X337350Y129925D02*
Y133075D01*
Y129925D02*
X343650D01*
X170981Y368950D02*
X174131D01*
Y375250D01*
X170981D02*
X174131D01*
X170981Y368950D02*
Y375250D01*
X186589Y381417D02*
Y383583D01*
Y381417D02*
X190723D01*
Y383583D01*
X186589D02*
X190723D01*
X81798Y123220D02*
X85932D01*
X81798D02*
Y125385D01*
X85932D01*
Y123220D02*
Y125385D01*
X69533Y123220D02*
X73667D01*
X69533D02*
Y125385D01*
X73667D01*
Y123220D02*
Y125385D01*
X57533Y123220D02*
X61667D01*
X57533D02*
Y125385D01*
X61667D01*
Y123220D02*
Y125385D01*
X126289Y383483D02*
X130423D01*
Y381317D02*
Y383483D01*
X126289Y381317D02*
X130423D01*
X126289D02*
Y383483D01*
X110681Y368850D02*
Y375150D01*
X113831D01*
Y368850D02*
Y375150D01*
X110681Y368850D02*
X113831D01*
X20550Y226275D02*
X26850D01*
Y223125D02*
Y226275D01*
X20550Y223125D02*
X26850D01*
X20550D02*
Y226275D01*
M02*
